M48
METRIC,LZ,000.000
;FILE_FORMAT=3:3
;TYPE=PLATED
;Layer: PTH_Through
;EasyEDA v6.5.54, 2026-05-23 11:16:10
;e4d8c5f1b0d74a6491579a26eca31a7d,8f4c1f16700a4a4892e3ae02f8365818,10
;Gerber Generator version 0.2
;Holesize 1 = 0.310 mm
T01C0.310
;Holesize 2 = 0.400 mm
T02C0.400
;Holesize 3 = 0.501 mm
T03C0.501
;Holesize 4 = 0.701 mm
T04C0.701
;Holesize 5 = 1.000 mm
T05C1.000
;Holesize 6 = 1.501 mm
T06C1.501
%
G05
G90
T01
X015041Y023435
X015041Y021294
X015113Y019177
X015113Y016891
X015113Y014859
X015113Y012573
X020574Y023495
X020574Y021209
X020574Y019177
X020574Y016891
X020574Y014859
X020574Y012573
X030480Y023495
X030480Y021209
X030480Y019177
X030480Y016891
X030480Y014859
X030480Y012573
X035941Y023495
X035941Y021209
X035941Y019177
X035941Y016891
X035941Y014859
X035941Y012573
X025654Y010287
X024130Y010287
X019431Y008001
X021971Y007747
X035687Y006731
X021971Y006731
X038989Y010033
X022479Y014097
X009271Y016256
X019431Y004826
X023114Y004826
X022479Y005588
X013716Y005588
X008636Y020574
X021971Y008636
X027642Y009482
X014859Y010287
X032385Y012446
X032385Y010922
X026642Y006096
X037084Y006096
X015748Y007239
T02
X020574Y033274
X011811Y010033
X032766Y004191
X029464Y014097
T03
X024319Y001081
X025719Y001081
T04
X042196Y026429
X042196Y030479
X042199Y005214
X042199Y009264
X007792Y009264
X007792Y005214
T05
X040894Y022352
X040894Y014732
X040894Y017272
X040894Y019812
X040894Y012192
T06
X039370Y002413
X010635Y002413
X010601Y034687
X039399Y034689
M30
