G04 Layer: TopLayer*
G04 EasyEDA v6.5.54, 2026-05-23 11:16:10*
G04 e4d8c5f1b0d74a6491579a26eca31a7d,8f4c1f16700a4a4892e3ae02f8365818,10*
G04 Gerber Generator version 0.2*
G04 Scale: 100 percent, Rotated: No, Reflected: No *
G04 Dimensions in millimeters *
G04 leading zeros omitted , absolute positions ,4 integer and 5 decimal *
%FSLAX45Y45*%
%MOMM*%

%AMMACRO1*21,1,$1,$2,0,0,$3*%
%ADD10C,1.0000*%
%ADD11C,0.3000*%
%ADD12R,2.0000X4.0000*%
%ADD13R,2.0000X1.2000*%
%ADD14R,0.6500X1.0000*%
%ADD15MACRO1,0.864X0.8065X0.0000*%
%ADD16R,0.8640X0.8065*%
%ADD17R,0.0110X0.8065*%
%ADD18R,0.8999X1.0000*%
%ADD19R,1.0500X1.6500*%
%ADD20R,0.5000X1.1000*%
%ADD21O,2.499995X1.799996*%
%ADD22C,2.0000*%
%ADD23C,0.6200*%
%ADD24C,0.8000*%

%LPD*%
G36*
X1071880Y38608D02*
G01*
X1046226Y39065D01*
X1021842Y41300D01*
X997610Y45262D01*
X973785Y51003D01*
X950417Y58419D01*
X927608Y67513D01*
X905560Y78232D01*
X884377Y90525D01*
X864108Y104343D01*
X844854Y119532D01*
X826769Y136144D01*
X809955Y153974D01*
X794461Y172974D01*
X780389Y193090D01*
X767842Y214121D01*
X756818Y236016D01*
X747369Y258673D01*
X739648Y281940D01*
X733602Y305714D01*
X729284Y329844D01*
X726744Y354228D01*
X725932Y379018D01*
X725932Y402844D01*
X726694Y406704D01*
X728929Y410006D01*
X732180Y412191D01*
X736092Y413004D01*
X746607Y413004D01*
X746607Y473811D01*
X736092Y473811D01*
X732180Y474573D01*
X728878Y476758D01*
X726694Y480059D01*
X725932Y483971D01*
X725932Y558850D01*
X726694Y562711D01*
X728878Y566013D01*
X732180Y568198D01*
X736092Y569010D01*
X746607Y569010D01*
X746607Y629818D01*
X736092Y629818D01*
X732180Y630580D01*
X728878Y632764D01*
X726694Y636066D01*
X725932Y639978D01*
X725932Y807821D01*
X726694Y811733D01*
X728878Y814984D01*
X732180Y817219D01*
X736092Y817981D01*
X746607Y817981D01*
X746607Y878789D01*
X736092Y878789D01*
X732180Y879551D01*
X728878Y881786D01*
X726694Y885037D01*
X725932Y888949D01*
X725881Y963828D01*
X726694Y967740D01*
X728878Y970991D01*
X732180Y973226D01*
X736041Y973988D01*
X746607Y973988D01*
X746607Y1034796D01*
X736041Y1034796D01*
X732180Y1035558D01*
X728878Y1037793D01*
X726694Y1041044D01*
X725881Y1044956D01*
X725881Y1173480D01*
X726744Y1177493D01*
X729132Y1180896D01*
X732637Y1183030D01*
X736701Y1183589D01*
X740714Y1182522D01*
X743915Y1179931D01*
X746150Y1177239D01*
X873099Y1050290D01*
X875334Y1046886D01*
X876046Y1042873D01*
X875131Y1038860D01*
X872744Y1035558D01*
X869238Y1033475D01*
X865479Y1032154D01*
X859586Y1028496D01*
X856081Y1027125D01*
X852271Y1027125D01*
X848766Y1028496D01*
X842924Y1032154D01*
X837437Y1034084D01*
X831138Y1034796D01*
X811784Y1034796D01*
X811784Y973988D01*
X840638Y973988D01*
X844499Y973226D01*
X847801Y970991D01*
X850036Y967740D01*
X850798Y963828D01*
X850798Y888949D01*
X850036Y885037D01*
X847801Y881786D01*
X844499Y879551D01*
X840638Y878789D01*
X811784Y878789D01*
X811784Y817981D01*
X831138Y817981D01*
X837437Y818692D01*
X839774Y819505D01*
X843584Y820064D01*
X847344Y819150D01*
X850493Y816965D01*
X852576Y813714D01*
X853287Y809904D01*
X853287Y637844D01*
X852576Y634085D01*
X850493Y630834D01*
X847344Y628599D01*
X843584Y627684D01*
X839774Y628243D01*
X837437Y629107D01*
X831138Y629818D01*
X811784Y629818D01*
X811784Y569010D01*
X840638Y569010D01*
X844499Y568198D01*
X847801Y566013D01*
X850036Y562711D01*
X850798Y558850D01*
X850798Y483971D01*
X850036Y480059D01*
X847801Y476758D01*
X844499Y474573D01*
X840638Y473811D01*
X811784Y473811D01*
X811784Y413004D01*
X831138Y413004D01*
X837437Y413715D01*
X842924Y415594D01*
X848817Y419303D01*
X852322Y420674D01*
X856081Y420674D01*
X859637Y419303D01*
X865479Y415594D01*
X870966Y413715D01*
X877265Y413004D01*
X981100Y413004D01*
X987450Y413715D01*
X992886Y415594D01*
X997813Y418693D01*
X1001877Y422757D01*
X1004976Y427685D01*
X1006906Y433120D01*
X1007618Y439470D01*
X1007618Y603300D01*
X1006906Y609650D01*
X1005687Y613105D01*
X1005128Y616458D01*
X1005128Y632815D01*
X1005332Y634949D01*
X1005332Y698042D01*
X1005128Y700227D01*
X1005128Y747572D01*
X1005332Y749706D01*
X1005332Y812800D01*
X1005128Y814984D01*
X1005128Y831342D01*
X1005687Y834694D01*
X1006906Y838149D01*
X1007618Y844448D01*
X1007618Y875334D01*
X1008380Y879195D01*
X1010564Y882497D01*
X1013866Y884682D01*
X1017778Y885494D01*
X1440078Y885494D01*
X1443939Y884682D01*
X1447241Y882497D01*
X1558239Y771550D01*
X1564792Y766114D01*
X1571853Y762355D01*
X1579524Y760018D01*
X1588008Y759206D01*
X1899970Y759206D01*
X1903577Y758545D01*
X1906676Y756666D01*
X1909267Y754380D01*
X1917496Y749300D01*
X1926437Y745744D01*
X1935886Y743712D01*
X1945538Y743254D01*
X1955088Y744524D01*
X1964283Y747318D01*
X1972919Y751687D01*
X1980692Y757428D01*
X1987346Y764387D01*
X1992731Y772363D01*
X1996744Y781151D01*
X1999132Y790498D01*
X1999996Y800100D01*
X1999132Y809701D01*
X1996744Y819048D01*
X1992731Y827836D01*
X1987346Y835812D01*
X1980692Y842771D01*
X1972919Y848512D01*
X1964283Y852881D01*
X1955088Y855675D01*
X1945538Y856945D01*
X1935886Y856487D01*
X1926437Y854456D01*
X1917496Y850900D01*
X1909267Y845819D01*
X1906676Y843534D01*
X1903577Y841654D01*
X1899970Y840994D01*
X1608632Y840994D01*
X1604772Y841756D01*
X1601470Y843991D01*
X1555089Y890371D01*
X1552854Y893826D01*
X1552143Y897890D01*
X1553108Y901903D01*
X1555597Y905205D01*
X1559153Y907237D01*
X1563268Y907643D01*
X1566875Y907287D01*
X2139289Y907287D01*
X2143404Y906424D01*
X2146808Y903986D01*
X2148941Y900379D01*
X2149398Y896213D01*
X2148179Y892200D01*
X2145284Y887018D01*
X2142083Y877925D01*
X2140458Y868426D01*
X2140458Y858774D01*
X2142083Y849274D01*
X2145284Y840181D01*
X2149957Y831748D01*
X2154986Y825550D01*
X2156663Y822553D01*
X2157272Y819150D01*
X2156663Y815746D01*
X2154986Y812749D01*
X2149957Y806551D01*
X2145284Y798118D01*
X2142083Y789025D01*
X2140458Y779526D01*
X2140458Y769874D01*
X2142083Y760374D01*
X2145284Y751281D01*
X2149957Y742848D01*
X2156053Y735330D01*
X2160371Y731520D01*
X2162911Y728065D01*
X2163826Y723900D01*
X2162911Y719734D01*
X2160371Y716280D01*
X2156053Y712470D01*
X2149957Y704951D01*
X2145284Y696518D01*
X2142083Y687425D01*
X2140458Y677926D01*
X2140458Y668274D01*
X2142083Y658774D01*
X2145284Y649681D01*
X2149957Y641248D01*
X2156053Y633730D01*
X2163267Y627380D01*
X2171496Y622300D01*
X2179015Y619302D01*
X2182368Y617118D01*
X2184603Y613816D01*
X2185365Y609904D01*
X2184654Y606044D01*
X2182418Y602691D01*
X2179116Y600506D01*
X2175205Y599694D01*
X1414932Y599694D01*
X1411732Y600202D01*
X1408887Y601675D01*
X1401419Y607212D01*
X1392783Y611581D01*
X1383588Y614375D01*
X1374038Y615645D01*
X1364386Y615188D01*
X1354937Y613156D01*
X1345996Y609600D01*
X1337767Y604520D01*
X1330553Y598170D01*
X1324457Y590651D01*
X1319784Y582218D01*
X1316583Y573125D01*
X1314958Y563626D01*
X1314958Y553974D01*
X1316583Y544474D01*
X1319784Y535381D01*
X1324457Y526948D01*
X1330553Y519430D01*
X1337767Y513080D01*
X1345996Y508000D01*
X1354937Y504443D01*
X1364386Y502412D01*
X1374038Y501954D01*
X1383588Y503224D01*
X1392783Y506018D01*
X1401419Y510387D01*
X1408887Y515924D01*
X1411732Y517398D01*
X1414932Y517906D01*
X1881124Y517906D01*
X1884883Y517143D01*
X1888134Y515061D01*
X1890369Y511911D01*
X1891233Y508152D01*
X1890674Y504342D01*
X1888083Y496925D01*
X1886457Y487426D01*
X1886457Y477774D01*
X1888083Y468274D01*
X1891284Y459181D01*
X1895957Y450748D01*
X1902053Y443230D01*
X1909267Y436880D01*
X1917496Y431800D01*
X1926437Y428243D01*
X1935886Y426212D01*
X1945538Y425754D01*
X1955088Y427024D01*
X1964283Y429818D01*
X1972919Y434187D01*
X1980387Y439724D01*
X1983232Y441198D01*
X1986432Y441706D01*
X2268270Y441706D01*
X2271877Y441045D01*
X2274976Y439166D01*
X2277567Y436880D01*
X2285796Y431800D01*
X2294737Y428243D01*
X2304186Y426212D01*
X2313838Y425754D01*
X2323388Y427024D01*
X2332583Y429818D01*
X2341219Y434187D01*
X2348992Y439928D01*
X2355646Y446887D01*
X2361031Y454863D01*
X2365044Y463651D01*
X2367432Y472998D01*
X2368296Y482600D01*
X2367432Y492201D01*
X2365044Y501548D01*
X2361031Y510336D01*
X2355646Y518312D01*
X2348992Y525272D01*
X2341219Y531012D01*
X2332583Y535381D01*
X2323388Y538175D01*
X2312924Y539546D01*
X2309215Y540715D01*
X2306269Y543204D01*
X2304491Y546608D01*
X2304084Y550468D01*
X2304796Y558800D01*
X2303932Y568401D01*
X2301544Y577748D01*
X2297531Y586536D01*
X2292146Y594512D01*
X2285492Y601472D01*
X2277719Y607212D01*
X2269083Y611581D01*
X2266645Y612292D01*
X2263089Y614273D01*
X2260549Y617524D01*
X2259482Y621487D01*
X2260092Y625551D01*
X2262276Y629005D01*
X2265629Y631342D01*
X2269642Y632206D01*
X2365857Y632206D01*
X2369718Y631393D01*
X2373020Y629208D01*
X2375204Y625906D01*
X2375966Y622046D01*
X2375966Y538124D01*
X2445562Y538124D01*
X2445562Y622046D01*
X2446324Y625906D01*
X2448509Y629208D01*
X2451811Y631393D01*
X2455722Y632206D01*
X2548077Y632206D01*
X2551988Y631393D01*
X2555290Y629208D01*
X2557475Y625906D01*
X2558237Y622046D01*
X2558237Y538124D01*
X2627833Y538124D01*
X2627833Y548132D01*
X2628595Y551992D01*
X2630728Y555294D01*
X2634030Y557479D01*
X2637891Y558292D01*
X2641752Y557530D01*
X2647543Y555244D01*
X2656992Y553212D01*
X2666644Y552754D01*
X2676194Y554024D01*
X2685389Y556818D01*
X2694025Y561187D01*
X2701493Y566724D01*
X2704338Y568198D01*
X2707538Y568706D01*
X3665270Y568706D01*
X3668877Y568045D01*
X3671976Y566166D01*
X3674567Y563880D01*
X3682796Y558800D01*
X3691737Y555244D01*
X3701186Y553212D01*
X3710838Y552754D01*
X3720388Y554024D01*
X3729583Y556818D01*
X3738219Y561187D01*
X3745992Y566928D01*
X3752646Y573887D01*
X3758031Y581863D01*
X3762044Y590651D01*
X3764432Y599998D01*
X3765296Y609600D01*
X3764432Y619201D01*
X3762044Y628548D01*
X3758031Y637336D01*
X3752646Y645312D01*
X3745992Y652272D01*
X3738219Y658012D01*
X3729583Y662381D01*
X3720388Y665175D01*
X3710838Y666445D01*
X3701186Y665988D01*
X3691737Y663956D01*
X3682796Y660400D01*
X3674567Y655320D01*
X3671976Y653034D01*
X3668877Y651154D01*
X3665270Y650494D01*
X3634536Y650494D01*
X3630879Y651154D01*
X3627729Y653084D01*
X3625494Y656031D01*
X3624427Y659536D01*
X3625596Y673100D01*
X3624732Y682701D01*
X3622344Y692048D01*
X3618331Y700836D01*
X3612946Y708812D01*
X3605479Y716584D01*
X3603294Y719886D01*
X3602583Y723747D01*
X3603396Y727608D01*
X3605631Y730859D01*
X3608882Y733044D01*
X3612743Y733806D01*
X3733292Y733806D01*
X3741775Y734618D01*
X3749446Y736955D01*
X3756507Y740714D01*
X3763060Y746150D01*
X3899458Y882548D01*
X3902760Y884732D01*
X3906672Y885494D01*
X3981348Y885494D01*
X3985209Y884732D01*
X3988511Y882548D01*
X3990695Y879246D01*
X3991508Y875334D01*
X3991508Y844499D01*
X3992219Y838149D01*
X3993438Y834694D01*
X3993997Y831342D01*
X3993997Y814984D01*
X3993743Y812800D01*
X3993743Y749757D01*
X3993997Y747572D01*
X3993997Y700227D01*
X3993743Y698042D01*
X3993743Y635000D01*
X3993997Y632815D01*
X3993997Y616458D01*
X3993438Y613105D01*
X3992219Y609650D01*
X3991508Y603351D01*
X3991508Y551383D01*
X3987342Y535482D01*
X3986072Y524256D01*
X3986479Y512927D01*
X3988612Y501751D01*
X3990898Y495096D01*
X3991508Y491743D01*
X3991508Y439470D01*
X3992219Y433171D01*
X3994099Y427685D01*
X3997198Y422808D01*
X4001262Y418693D01*
X4006189Y415645D01*
X4011625Y413715D01*
X4017975Y413004D01*
X4121810Y413004D01*
X4128160Y413715D01*
X4133646Y415645D01*
X4139539Y419303D01*
X4143044Y420674D01*
X4146804Y420674D01*
X4150309Y419303D01*
X4156201Y415645D01*
X4161637Y413715D01*
X4167987Y413004D01*
X4187291Y413004D01*
X4187291Y473811D01*
X4158487Y473811D01*
X4154576Y474573D01*
X4151274Y476808D01*
X4149090Y480059D01*
X4148328Y483971D01*
X4148328Y558850D01*
X4149090Y562762D01*
X4151274Y566013D01*
X4154576Y568248D01*
X4158487Y569010D01*
X4187291Y569010D01*
X4187291Y629818D01*
X4167987Y629818D01*
X4161637Y629107D01*
X4159300Y628294D01*
X4155490Y627735D01*
X4151782Y628650D01*
X4148632Y630834D01*
X4146550Y634085D01*
X4145787Y637895D01*
X4145787Y809955D01*
X4146550Y813714D01*
X4148632Y816965D01*
X4151782Y819200D01*
X4155490Y820064D01*
X4159300Y819505D01*
X4161637Y818692D01*
X4167987Y817981D01*
X4187291Y817981D01*
X4187291Y878789D01*
X4158487Y878789D01*
X4154576Y879602D01*
X4151274Y881786D01*
X4149090Y885088D01*
X4148328Y888949D01*
X4148328Y963828D01*
X4149090Y967740D01*
X4151274Y971042D01*
X4154576Y973226D01*
X4158487Y973988D01*
X4187291Y973988D01*
X4187291Y1034796D01*
X4167987Y1034796D01*
X4161637Y1034084D01*
X4156201Y1032205D01*
X4150258Y1028496D01*
X4146753Y1027125D01*
X4142994Y1027125D01*
X4139488Y1028496D01*
X4133596Y1032205D01*
X4128160Y1034084D01*
X4121810Y1034796D01*
X4017975Y1034796D01*
X4011625Y1034084D01*
X4006189Y1032205D01*
X4001262Y1029106D01*
X3997198Y1025042D01*
X3994099Y1020114D01*
X3992219Y1014679D01*
X3991508Y1008329D01*
X3991508Y977493D01*
X3990695Y973582D01*
X3988511Y970280D01*
X3985209Y968095D01*
X3981348Y967333D01*
X3960571Y967333D01*
X3956608Y968095D01*
X3953306Y970381D01*
X3951122Y973785D01*
X3950411Y977747D01*
X3951325Y981659D01*
X3952544Y984351D01*
X3954932Y993698D01*
X3955796Y1003300D01*
X3954932Y1012901D01*
X3952544Y1022248D01*
X3948531Y1031036D01*
X3940556Y1042822D01*
X3939794Y1046581D01*
X3939794Y1148892D01*
X3940708Y1153007D01*
X3943146Y1156462D01*
X3946804Y1158544D01*
X3951020Y1159002D01*
X3955034Y1157681D01*
X3958183Y1154887D01*
X3965092Y1145336D01*
X3975100Y1134719D01*
X3986276Y1125474D01*
X3998569Y1117650D01*
X4011726Y1111453D01*
X4025595Y1106982D01*
X4039870Y1104239D01*
X4054703Y1103274D01*
X4124096Y1103274D01*
X4138929Y1104239D01*
X4153204Y1106982D01*
X4167073Y1111453D01*
X4180230Y1117650D01*
X4192524Y1125474D01*
X4203750Y1134719D01*
X4213707Y1145336D01*
X4222242Y1157122D01*
X4229252Y1169873D01*
X4234637Y1183386D01*
X4238244Y1197508D01*
X4240072Y1211935D01*
X4240072Y1226464D01*
X4238244Y1240942D01*
X4234637Y1255014D01*
X4229252Y1268526D01*
X4222242Y1281277D01*
X4213707Y1293063D01*
X4203750Y1303680D01*
X4192524Y1312976D01*
X4180230Y1320749D01*
X4167073Y1326946D01*
X4153204Y1331468D01*
X4138929Y1334160D01*
X4124096Y1335125D01*
X4054703Y1335125D01*
X4039870Y1334160D01*
X4025595Y1331468D01*
X4011726Y1326946D01*
X3998569Y1320749D01*
X3986276Y1312976D01*
X3975100Y1303680D01*
X3965092Y1293063D01*
X3958183Y1283563D01*
X3955034Y1280718D01*
X3951020Y1279398D01*
X3946804Y1279855D01*
X3943146Y1281988D01*
X3940708Y1285392D01*
X3939794Y1289507D01*
X3939794Y1402892D01*
X3940708Y1407007D01*
X3943146Y1410462D01*
X3946804Y1412544D01*
X3951020Y1413002D01*
X3955034Y1411681D01*
X3958183Y1408836D01*
X3965092Y1399336D01*
X3975049Y1388719D01*
X3986276Y1379423D01*
X3998569Y1371650D01*
X4011726Y1365453D01*
X4025595Y1360932D01*
X4039870Y1358239D01*
X4054703Y1357274D01*
X4124096Y1357274D01*
X4138929Y1358239D01*
X4153204Y1360932D01*
X4167073Y1365453D01*
X4180230Y1371650D01*
X4192524Y1379423D01*
X4203750Y1388719D01*
X4213707Y1399336D01*
X4222242Y1411122D01*
X4229252Y1423873D01*
X4234637Y1437386D01*
X4238244Y1451508D01*
X4240072Y1465935D01*
X4240072Y1480464D01*
X4238244Y1494942D01*
X4234637Y1509014D01*
X4229252Y1522526D01*
X4222242Y1535277D01*
X4213707Y1547063D01*
X4203750Y1557680D01*
X4192524Y1566976D01*
X4180230Y1574749D01*
X4167073Y1580946D01*
X4153204Y1585468D01*
X4138929Y1588160D01*
X4124096Y1589125D01*
X4054703Y1589125D01*
X4039870Y1588160D01*
X4025595Y1585468D01*
X4011726Y1580946D01*
X3998569Y1574749D01*
X3986276Y1566976D01*
X3975049Y1557680D01*
X3965092Y1547063D01*
X3958183Y1537563D01*
X3955034Y1534718D01*
X3951020Y1533398D01*
X3946804Y1533855D01*
X3943146Y1535988D01*
X3940708Y1539392D01*
X3939794Y1543507D01*
X3939794Y1656892D01*
X3940708Y1661007D01*
X3943146Y1664462D01*
X3946804Y1666544D01*
X3951020Y1667002D01*
X3955034Y1665681D01*
X3958183Y1662836D01*
X3965092Y1653336D01*
X3975049Y1642719D01*
X3986276Y1633423D01*
X3998569Y1625650D01*
X4011726Y1619453D01*
X4025595Y1614932D01*
X4039870Y1612239D01*
X4054703Y1611274D01*
X4124096Y1611274D01*
X4138929Y1612239D01*
X4153204Y1614932D01*
X4167073Y1619453D01*
X4180230Y1625650D01*
X4192524Y1633423D01*
X4203750Y1642719D01*
X4213707Y1653336D01*
X4222242Y1665122D01*
X4229252Y1677873D01*
X4234637Y1691386D01*
X4238244Y1705508D01*
X4240072Y1719935D01*
X4240072Y1734464D01*
X4238244Y1748942D01*
X4234637Y1763014D01*
X4229252Y1776526D01*
X4222242Y1789277D01*
X4213707Y1801063D01*
X4203750Y1811680D01*
X4192524Y1820976D01*
X4180230Y1828749D01*
X4167073Y1834946D01*
X4153204Y1839468D01*
X4138929Y1842160D01*
X4124096Y1843125D01*
X4054703Y1843125D01*
X4039870Y1842160D01*
X4025595Y1839468D01*
X4011726Y1834946D01*
X3998569Y1828749D01*
X3986276Y1820976D01*
X3975049Y1811680D01*
X3965092Y1801063D01*
X3958183Y1791563D01*
X3955034Y1788718D01*
X3951020Y1787398D01*
X3946804Y1787855D01*
X3943146Y1789988D01*
X3940708Y1793392D01*
X3939794Y1797507D01*
X3939794Y1910892D01*
X3940708Y1915007D01*
X3943146Y1918462D01*
X3946804Y1920544D01*
X3951020Y1921002D01*
X3955034Y1919681D01*
X3958183Y1916887D01*
X3965092Y1907336D01*
X3975100Y1896719D01*
X3986276Y1887474D01*
X3998569Y1879650D01*
X4011726Y1873453D01*
X4025595Y1868982D01*
X4039870Y1866239D01*
X4054703Y1865274D01*
X4124096Y1865274D01*
X4138929Y1866239D01*
X4153204Y1868982D01*
X4167073Y1873453D01*
X4180230Y1879650D01*
X4192524Y1887474D01*
X4203750Y1896719D01*
X4213707Y1907336D01*
X4222242Y1919122D01*
X4229252Y1931873D01*
X4234637Y1945386D01*
X4238244Y1959508D01*
X4240072Y1973935D01*
X4240072Y1988464D01*
X4238244Y2002942D01*
X4234637Y2017014D01*
X4229252Y2030526D01*
X4222242Y2043277D01*
X4213707Y2055063D01*
X4203750Y2065680D01*
X4192524Y2074976D01*
X4180230Y2082749D01*
X4167073Y2088946D01*
X4153204Y2093468D01*
X4138929Y2096160D01*
X4124096Y2097125D01*
X4054703Y2097125D01*
X4039870Y2096160D01*
X4025595Y2093468D01*
X4011726Y2088946D01*
X3998569Y2082749D01*
X3986276Y2074976D01*
X3975100Y2065680D01*
X3965092Y2055063D01*
X3958183Y2045563D01*
X3955034Y2042718D01*
X3951020Y2041398D01*
X3946804Y2041855D01*
X3943146Y2043988D01*
X3940708Y2047392D01*
X3939794Y2051507D01*
X3939794Y2164892D01*
X3940708Y2169007D01*
X3943146Y2172411D01*
X3946804Y2174544D01*
X3951020Y2175002D01*
X3955034Y2173681D01*
X3958183Y2170836D01*
X3965092Y2161336D01*
X3975049Y2150719D01*
X3986276Y2141423D01*
X3998569Y2133650D01*
X4011726Y2127453D01*
X4020565Y2124608D01*
X4020565Y2183841D01*
X3949954Y2183841D01*
X3946093Y2184603D01*
X3942791Y2186838D01*
X3940556Y2190140D01*
X3939794Y2194001D01*
X3939794Y2276398D01*
X3940556Y2280259D01*
X3942791Y2283561D01*
X3946093Y2285796D01*
X3949954Y2286558D01*
X4020565Y2286558D01*
X4020565Y2345791D01*
X4011726Y2342946D01*
X3998569Y2336749D01*
X3986276Y2328976D01*
X3975049Y2319680D01*
X3965092Y2309063D01*
X3958183Y2299563D01*
X3955034Y2296718D01*
X3951020Y2295398D01*
X3946804Y2295855D01*
X3943146Y2297988D01*
X3940708Y2301392D01*
X3939794Y2305507D01*
X3939794Y2451100D01*
X3940556Y2454960D01*
X3942791Y2458262D01*
X4016044Y2531516D01*
X4019346Y2533751D01*
X4023258Y2534513D01*
X4121505Y2534513D01*
X4127855Y2535224D01*
X4133291Y2537155D01*
X4139234Y2540812D01*
X4142740Y2542184D01*
X4146499Y2542184D01*
X4150004Y2540812D01*
X4155897Y2537104D01*
X4161332Y2535224D01*
X4167682Y2534513D01*
X4186986Y2534513D01*
X4186986Y2595321D01*
X4158183Y2595321D01*
X4154271Y2596083D01*
X4150969Y2598267D01*
X4148785Y2601569D01*
X4148023Y2605481D01*
X4148023Y2680360D01*
X4148785Y2684221D01*
X4150969Y2687523D01*
X4154271Y2689758D01*
X4158183Y2690520D01*
X4186986Y2690520D01*
X4186986Y2751328D01*
X4167682Y2751328D01*
X4161332Y2750616D01*
X4158996Y2749804D01*
X4155186Y2749245D01*
X4151477Y2750108D01*
X4148328Y2752344D01*
X4146245Y2755595D01*
X4145483Y2759405D01*
X4145483Y2931464D01*
X4146245Y2935224D01*
X4148328Y2938475D01*
X4151477Y2940710D01*
X4155186Y2941574D01*
X4158996Y2941015D01*
X4161332Y2940202D01*
X4167682Y2939491D01*
X4186986Y2939491D01*
X4186986Y3000298D01*
X4158183Y3000298D01*
X4154271Y3001060D01*
X4150969Y3003296D01*
X4148785Y3006598D01*
X4148023Y3010458D01*
X4148023Y3085338D01*
X4148785Y3089249D01*
X4150969Y3092551D01*
X4154271Y3094736D01*
X4158183Y3095498D01*
X4186986Y3095498D01*
X4186986Y3156305D01*
X4167682Y3156305D01*
X4161332Y3155594D01*
X4155897Y3153714D01*
X4149953Y3150006D01*
X4146448Y3148634D01*
X4142689Y3148634D01*
X4139184Y3150006D01*
X4133291Y3153714D01*
X4127855Y3155594D01*
X4121505Y3156305D01*
X4017670Y3156305D01*
X4011320Y3155594D01*
X4005884Y3153714D01*
X4000957Y3150616D01*
X3996893Y3146501D01*
X3993794Y3141624D01*
X3991914Y3136138D01*
X3991203Y3129838D01*
X3991203Y2965958D01*
X3991914Y2959658D01*
X3993134Y2956204D01*
X3993692Y2952851D01*
X3993692Y2936494D01*
X3993438Y2934309D01*
X3993438Y2871266D01*
X3993692Y2869082D01*
X3993692Y2821736D01*
X3993438Y2819552D01*
X3993438Y2756509D01*
X3993692Y2754325D01*
X3993692Y2737967D01*
X3993134Y2734614D01*
X3991914Y2731160D01*
X3991203Y2724861D01*
X3991203Y2671572D01*
X3990289Y2667355D01*
X3987342Y2656382D01*
X3986072Y2645156D01*
X3986479Y2633827D01*
X3988054Y2625496D01*
X3988155Y2622245D01*
X3987190Y2619095D01*
X3985260Y2616454D01*
X3876446Y2507640D01*
X3873195Y2505456D01*
X3869283Y2504694D01*
X3865372Y2505456D01*
X3862120Y2507640D01*
X3661460Y2708249D01*
X3654907Y2713685D01*
X3647846Y2717444D01*
X3640175Y2719781D01*
X3631692Y2720594D01*
X1118971Y2720594D01*
X1110488Y2719781D01*
X1102817Y2717444D01*
X1095756Y2713685D01*
X1089202Y2708249D01*
X1052728Y2671826D01*
X1049426Y2669641D01*
X1045565Y2668879D01*
X998778Y2668879D01*
X992428Y2668168D01*
X986993Y2666238D01*
X982065Y2663139D01*
X978001Y2659075D01*
X974902Y2654147D01*
X973023Y2648712D01*
X972312Y2642362D01*
X972312Y2562860D01*
X973023Y2556560D01*
X974902Y2551074D01*
X978001Y2546197D01*
X982065Y2542082D01*
X986993Y2539034D01*
X993038Y2536901D01*
X996594Y2534767D01*
X999032Y2531364D01*
X999845Y2527300D01*
X999032Y2523236D01*
X996594Y2519832D01*
X993038Y2517698D01*
X986993Y2515565D01*
X982065Y2512517D01*
X978001Y2508402D01*
X974902Y2503525D01*
X973023Y2498039D01*
X972312Y2491740D01*
X972312Y2412238D01*
X973023Y2405888D01*
X974902Y2400452D01*
X978001Y2395524D01*
X982065Y2391460D01*
X986993Y2388362D01*
X992428Y2386431D01*
X998778Y2385720D01*
X1084021Y2385720D01*
X1090371Y2386431D01*
X1095806Y2388362D01*
X1100734Y2391460D01*
X1104798Y2395524D01*
X1107897Y2400452D01*
X1109116Y2403957D01*
X1111250Y2407513D01*
X1114653Y2409952D01*
X1118717Y2410764D01*
X1284173Y2410358D01*
X1287780Y2409698D01*
X1290929Y2407767D01*
X1293164Y2404872D01*
X1294231Y2401366D01*
X1294892Y2395372D01*
X1296822Y2389886D01*
X1299921Y2385009D01*
X1303985Y2380894D01*
X1308912Y2377795D01*
X1314348Y2375916D01*
X1320647Y2375204D01*
X1409547Y2375204D01*
X1415846Y2375916D01*
X1421282Y2377795D01*
X1426210Y2380894D01*
X1427937Y2382621D01*
X1431188Y2384806D01*
X1435100Y2385568D01*
X1438960Y2384806D01*
X1442262Y2382621D01*
X1443990Y2380894D01*
X1447952Y2378405D01*
X1450492Y2376119D01*
X1452118Y2373122D01*
X1452676Y2369769D01*
X1452118Y2366416D01*
X1449070Y2357831D01*
X1447444Y2348280D01*
X1447444Y2338679D01*
X1449070Y2329129D01*
X1452270Y2320036D01*
X1456994Y2311654D01*
X1463040Y2304135D01*
X1470304Y2297734D01*
X1478483Y2292705D01*
X1487474Y2289098D01*
X1496872Y2287066D01*
X1506524Y2286660D01*
X1516075Y2287879D01*
X1525320Y2290724D01*
X1533906Y2295042D01*
X1541678Y2300782D01*
X1548384Y2307742D01*
X1553768Y2315768D01*
X1557731Y2324557D01*
X1560169Y2333853D01*
X1560982Y2343454D01*
X1560169Y2353106D01*
X1557731Y2362403D01*
X1556766Y2364587D01*
X1555851Y2368092D01*
X1556308Y2371699D01*
X1557934Y2374950D01*
X1560626Y2377389D01*
X1566214Y2380894D01*
X1570278Y2385009D01*
X1573377Y2389886D01*
X1575308Y2395372D01*
X1576019Y2401671D01*
X1576019Y2500528D01*
X1575308Y2506827D01*
X1573834Y2510993D01*
X1573276Y2514803D01*
X1574190Y2518511D01*
X1576425Y2521661D01*
X1579626Y2523744D01*
X1583436Y2524506D01*
X1775764Y2524506D01*
X1779625Y2523693D01*
X1782927Y2521508D01*
X1837334Y2467152D01*
X1839518Y2463850D01*
X1840280Y2459939D01*
X1840280Y2401671D01*
X1840992Y2395372D01*
X1842922Y2389886D01*
X1846021Y2385009D01*
X1850085Y2380894D01*
X1855012Y2377795D01*
X1860448Y2375916D01*
X1866747Y2375204D01*
X1955647Y2375204D01*
X1961946Y2375916D01*
X1967382Y2377795D01*
X1972310Y2380894D01*
X1974037Y2382621D01*
X1977288Y2384806D01*
X1981200Y2385568D01*
X1985060Y2384806D01*
X1988362Y2382621D01*
X1990089Y2380894D01*
X1994966Y2377795D01*
X1999742Y2375306D01*
X2002129Y2372156D01*
X2003094Y2368296D01*
X2000757Y2354326D01*
X2000757Y2344674D01*
X2002383Y2335174D01*
X2005584Y2326081D01*
X2010257Y2317648D01*
X2016353Y2310130D01*
X2023567Y2303780D01*
X2031796Y2298700D01*
X2040737Y2295144D01*
X2050186Y2293112D01*
X2059838Y2292654D01*
X2069388Y2293924D01*
X2078583Y2296718D01*
X2087219Y2301087D01*
X2094992Y2306828D01*
X2101646Y2313787D01*
X2107031Y2321763D01*
X2111044Y2330551D01*
X2113432Y2339898D01*
X2114296Y2349500D01*
X2113432Y2359101D01*
X2109520Y2373680D01*
X2110282Y2377694D01*
X2112518Y2381097D01*
X2116378Y2385009D01*
X2119477Y2389886D01*
X2121408Y2395372D01*
X2122119Y2401671D01*
X2122119Y2500528D01*
X2121408Y2506827D01*
X2119934Y2510993D01*
X2119376Y2514803D01*
X2120290Y2518511D01*
X2122525Y2521661D01*
X2125726Y2523744D01*
X2129536Y2524506D01*
X2766364Y2524506D01*
X2770225Y2523693D01*
X2773527Y2521508D01*
X2827934Y2467152D01*
X2830118Y2463850D01*
X2830880Y2459939D01*
X2830880Y2401671D01*
X2831592Y2395372D01*
X2833522Y2389886D01*
X2836621Y2385009D01*
X2840685Y2380894D01*
X2845612Y2377795D01*
X2851048Y2375916D01*
X2857347Y2375204D01*
X2946247Y2375204D01*
X2952546Y2375916D01*
X2957982Y2377795D01*
X2962910Y2380894D01*
X2964637Y2382621D01*
X2967888Y2384806D01*
X2971800Y2385568D01*
X2975660Y2384806D01*
X2978962Y2382621D01*
X2980690Y2380894D01*
X2985566Y2377795D01*
X2990342Y2375306D01*
X2992729Y2372156D01*
X2993694Y2368296D01*
X2991358Y2354326D01*
X2991358Y2344674D01*
X2992983Y2335174D01*
X2996184Y2326081D01*
X3000857Y2317648D01*
X3006953Y2310130D01*
X3014167Y2303780D01*
X3022396Y2298700D01*
X3031337Y2295144D01*
X3040786Y2293112D01*
X3050438Y2292654D01*
X3059988Y2293924D01*
X3069183Y2296718D01*
X3077819Y2301087D01*
X3085592Y2306828D01*
X3092246Y2313787D01*
X3097631Y2321763D01*
X3101644Y2330551D01*
X3104032Y2339898D01*
X3104896Y2349500D01*
X3104032Y2359101D01*
X3100120Y2373680D01*
X3100882Y2377694D01*
X3103118Y2381097D01*
X3106978Y2385009D01*
X3110077Y2389886D01*
X3112008Y2395372D01*
X3112719Y2401671D01*
X3112719Y2500528D01*
X3112008Y2506827D01*
X3110534Y2510993D01*
X3109976Y2514803D01*
X3110890Y2518511D01*
X3113125Y2521661D01*
X3116326Y2523744D01*
X3120136Y2524506D01*
X3306267Y2524506D01*
X3310128Y2523693D01*
X3313429Y2521508D01*
X3374034Y2460904D01*
X3376218Y2457653D01*
X3376980Y2453741D01*
X3376980Y2401671D01*
X3377692Y2395372D01*
X3379622Y2389886D01*
X3382721Y2385009D01*
X3386785Y2380894D01*
X3391712Y2377795D01*
X3397148Y2375916D01*
X3403447Y2375204D01*
X3492347Y2375204D01*
X3498646Y2375916D01*
X3504082Y2377795D01*
X3509010Y2380894D01*
X3510737Y2382621D01*
X3513988Y2384806D01*
X3517900Y2385568D01*
X3521760Y2384806D01*
X3525062Y2382621D01*
X3526790Y2380894D01*
X3531666Y2377795D01*
X3536442Y2375306D01*
X3538829Y2372156D01*
X3539794Y2368296D01*
X3537458Y2354326D01*
X3537458Y2344674D01*
X3539083Y2335174D01*
X3542284Y2326081D01*
X3546957Y2317648D01*
X3553053Y2310130D01*
X3560267Y2303780D01*
X3568496Y2298700D01*
X3577437Y2295144D01*
X3586886Y2293112D01*
X3596538Y2292654D01*
X3606088Y2293924D01*
X3615283Y2296718D01*
X3623919Y2301087D01*
X3631692Y2306828D01*
X3638346Y2313787D01*
X3643731Y2321763D01*
X3647744Y2330551D01*
X3650132Y2339898D01*
X3650996Y2349500D01*
X3650132Y2359101D01*
X3646220Y2373680D01*
X3646982Y2377694D01*
X3649218Y2381097D01*
X3653078Y2385009D01*
X3656177Y2389886D01*
X3658108Y2395372D01*
X3658819Y2401671D01*
X3658819Y2500528D01*
X3658108Y2506827D01*
X3656177Y2512314D01*
X3653078Y2517190D01*
X3649014Y2521305D01*
X3644087Y2524404D01*
X3638651Y2526284D01*
X3632301Y2526995D01*
X3543452Y2526995D01*
X3537153Y2526284D01*
X3531666Y2524404D01*
X3526790Y2521305D01*
X3525062Y2519578D01*
X3521760Y2517394D01*
X3517900Y2516632D01*
X3513988Y2517394D01*
X3510737Y2519578D01*
X3509010Y2521305D01*
X3504082Y2524404D01*
X3498646Y2526284D01*
X3492347Y2526995D01*
X3427831Y2526995D01*
X3423970Y2527757D01*
X3420668Y2529992D01*
X3356660Y2593949D01*
X3350107Y2599385D01*
X3343046Y2603144D01*
X3335375Y2605481D01*
X3326892Y2606294D01*
X1422908Y2606294D01*
X1414424Y2605481D01*
X1406753Y2603144D01*
X1399692Y2599385D01*
X1393139Y2593949D01*
X1336548Y2537409D01*
X1331061Y2530703D01*
X1327556Y2527960D01*
X1323187Y2526995D01*
X1320647Y2526995D01*
X1314348Y2526284D01*
X1308912Y2524404D01*
X1303985Y2521305D01*
X1299921Y2517190D01*
X1296822Y2512314D01*
X1294892Y2506827D01*
X1294282Y2501239D01*
X1293215Y2497683D01*
X1290929Y2494788D01*
X1287780Y2492857D01*
X1284173Y2492197D01*
X1118870Y2492603D01*
X1114856Y2493416D01*
X1111453Y2495854D01*
X1109319Y2499410D01*
X1107897Y2503525D01*
X1104798Y2508402D01*
X1100734Y2512517D01*
X1095806Y2515565D01*
X1089761Y2517698D01*
X1086205Y2519832D01*
X1083767Y2523236D01*
X1082954Y2527300D01*
X1083767Y2531364D01*
X1086205Y2534767D01*
X1089761Y2536901D01*
X1095806Y2539034D01*
X1100734Y2542082D01*
X1104798Y2546197D01*
X1107897Y2551074D01*
X1109776Y2556560D01*
X1110488Y2562860D01*
X1110488Y2609697D01*
X1111300Y2613558D01*
X1113485Y2616860D01*
X1132433Y2635808D01*
X1135735Y2637993D01*
X1139596Y2638806D01*
X3611067Y2638806D01*
X3614928Y2637993D01*
X3618229Y2635808D01*
X3791508Y2462530D01*
X3793744Y2459228D01*
X3794506Y2455367D01*
X3794506Y1049832D01*
X3793744Y1045971D01*
X3791508Y1042669D01*
X3656329Y907491D01*
X3653028Y905256D01*
X3649167Y904494D01*
X2822194Y904494D01*
X2817926Y905459D01*
X2814472Y908100D01*
X2812389Y911961D01*
X2812186Y916279D01*
X2813862Y920496D01*
X2817825Y929284D01*
X2820263Y938580D01*
X2821076Y948182D01*
X2820263Y957834D01*
X2817825Y967130D01*
X2814980Y973429D01*
X2814066Y977392D01*
X2814777Y981354D01*
X2816961Y984707D01*
X2820314Y986993D01*
X2824226Y987806D01*
X3479292Y987806D01*
X3487775Y988618D01*
X3495446Y990955D01*
X3502507Y994714D01*
X3509060Y1000150D01*
X3585768Y1076807D01*
X3589070Y1079042D01*
X3592931Y1079804D01*
X3632301Y1079804D01*
X3638651Y1080516D01*
X3644087Y1082395D01*
X3649014Y1085494D01*
X3653078Y1089609D01*
X3656177Y1094486D01*
X3658108Y1099972D01*
X3658819Y1106271D01*
X3658819Y1205128D01*
X3658108Y1211427D01*
X3656177Y1216914D01*
X3653078Y1221790D01*
X3649218Y1225702D01*
X3646982Y1229106D01*
X3646220Y1233119D01*
X3650132Y1247698D01*
X3650996Y1257300D01*
X3650132Y1266901D01*
X3647744Y1276248D01*
X3643731Y1285036D01*
X3638346Y1293012D01*
X3631692Y1299972D01*
X3623919Y1305712D01*
X3615283Y1310081D01*
X3606088Y1312875D01*
X3596538Y1314145D01*
X3586886Y1313688D01*
X3577437Y1311656D01*
X3568496Y1308100D01*
X3560267Y1303020D01*
X3553053Y1296670D01*
X3546957Y1289151D01*
X3542284Y1280718D01*
X3539083Y1271625D01*
X3537458Y1262126D01*
X3537458Y1252474D01*
X3539794Y1238504D01*
X3538829Y1234643D01*
X3536442Y1231493D01*
X3531666Y1229004D01*
X3526790Y1225905D01*
X3525062Y1224178D01*
X3521760Y1221994D01*
X3517900Y1221232D01*
X3513988Y1221994D01*
X3510737Y1224178D01*
X3509010Y1225905D01*
X3504082Y1229004D01*
X3498646Y1230884D01*
X3492347Y1231595D01*
X3434079Y1231595D01*
X3430168Y1232357D01*
X3426866Y1234592D01*
X3299409Y1362049D01*
X3292805Y1367485D01*
X3285744Y1371244D01*
X3278073Y1373581D01*
X3269589Y1374394D01*
X2309876Y1374394D01*
X2305913Y1375206D01*
X2302611Y1377492D01*
X2300427Y1380845D01*
X2299716Y1384808D01*
X2300630Y1388770D01*
X2301544Y1390751D01*
X2303932Y1400098D01*
X2304796Y1409700D01*
X2303932Y1419301D01*
X2301544Y1428648D01*
X2297531Y1437436D01*
X2292146Y1445412D01*
X2285492Y1452372D01*
X2277719Y1458112D01*
X2269083Y1462481D01*
X2259888Y1465275D01*
X2250338Y1466545D01*
X2240686Y1466088D01*
X2231237Y1464056D01*
X2222296Y1460500D01*
X2214067Y1455420D01*
X2211476Y1453134D01*
X2208377Y1451254D01*
X2204770Y1450594D01*
X2119376Y1450594D01*
X2115413Y1451406D01*
X2112111Y1453692D01*
X2109927Y1457045D01*
X2109216Y1461008D01*
X2110130Y1464970D01*
X2111044Y1466951D01*
X2113432Y1476298D01*
X2114296Y1485900D01*
X2113432Y1495501D01*
X2109520Y1510080D01*
X2110282Y1514094D01*
X2112518Y1517497D01*
X2116378Y1521409D01*
X2119477Y1526286D01*
X2121408Y1531772D01*
X2122119Y1538071D01*
X2122119Y1636928D01*
X2121408Y1643227D01*
X2119477Y1648714D01*
X2116378Y1653590D01*
X2112518Y1657502D01*
X2110282Y1660906D01*
X2109520Y1664919D01*
X2113432Y1679498D01*
X2114296Y1689100D01*
X2113432Y1698701D01*
X2111044Y1708048D01*
X2110130Y1710029D01*
X2109216Y1713992D01*
X2109927Y1717954D01*
X2112111Y1721307D01*
X2115413Y1723593D01*
X2119376Y1724406D01*
X2702864Y1724406D01*
X2706725Y1723593D01*
X2710027Y1721408D01*
X2827934Y1603552D01*
X2830118Y1600250D01*
X2830880Y1596339D01*
X2830880Y1538071D01*
X2831592Y1531772D01*
X2833522Y1526286D01*
X2836621Y1521409D01*
X2840685Y1517294D01*
X2845612Y1514195D01*
X2851048Y1512316D01*
X2857347Y1511604D01*
X2946247Y1511604D01*
X2952546Y1512316D01*
X2957982Y1514195D01*
X2962910Y1517294D01*
X2964637Y1519021D01*
X2967888Y1521206D01*
X2971800Y1521968D01*
X2975660Y1521206D01*
X2978962Y1519021D01*
X2980690Y1517294D01*
X2985566Y1514195D01*
X2990342Y1511706D01*
X2992729Y1508556D01*
X2993694Y1504696D01*
X2991358Y1490726D01*
X2991358Y1481074D01*
X2992983Y1471574D01*
X2996184Y1462481D01*
X3000857Y1454048D01*
X3006953Y1446530D01*
X3014167Y1440180D01*
X3022396Y1435100D01*
X3031337Y1431544D01*
X3040786Y1429512D01*
X3050438Y1429054D01*
X3059988Y1430324D01*
X3069183Y1433118D01*
X3077819Y1437487D01*
X3085592Y1443228D01*
X3092246Y1450187D01*
X3097631Y1458163D01*
X3101644Y1466951D01*
X3104032Y1476298D01*
X3104896Y1485900D01*
X3104032Y1495501D01*
X3100120Y1510080D01*
X3100882Y1514094D01*
X3103118Y1517497D01*
X3106978Y1521409D01*
X3110077Y1526286D01*
X3112008Y1531772D01*
X3112719Y1538071D01*
X3112719Y1636928D01*
X3112008Y1643227D01*
X3110077Y1648714D01*
X3106978Y1653590D01*
X3103118Y1657502D01*
X3100882Y1660906D01*
X3100120Y1664919D01*
X3104032Y1679498D01*
X3104896Y1689100D01*
X3104032Y1698701D01*
X3101644Y1708048D01*
X3100730Y1710029D01*
X3099816Y1713992D01*
X3100527Y1717954D01*
X3102711Y1721307D01*
X3106013Y1723593D01*
X3109976Y1724406D01*
X3248964Y1724406D01*
X3252825Y1723593D01*
X3256127Y1721408D01*
X3374034Y1603552D01*
X3376218Y1600250D01*
X3376980Y1596339D01*
X3376980Y1538071D01*
X3377692Y1531772D01*
X3379622Y1526286D01*
X3382721Y1521409D01*
X3386785Y1517294D01*
X3391712Y1514195D01*
X3397148Y1512316D01*
X3403447Y1511604D01*
X3492347Y1511604D01*
X3498646Y1512316D01*
X3504082Y1514195D01*
X3509010Y1517294D01*
X3510737Y1519021D01*
X3513988Y1521206D01*
X3517900Y1521968D01*
X3521760Y1521206D01*
X3525062Y1519021D01*
X3526790Y1517294D01*
X3531666Y1514195D01*
X3536442Y1511706D01*
X3538829Y1508556D01*
X3539794Y1504696D01*
X3537458Y1490726D01*
X3537458Y1481074D01*
X3539083Y1471574D01*
X3542284Y1462481D01*
X3546957Y1454048D01*
X3553053Y1446530D01*
X3560267Y1440180D01*
X3568496Y1435100D01*
X3577437Y1431544D01*
X3586886Y1429512D01*
X3596538Y1429054D01*
X3606088Y1430324D01*
X3615283Y1433118D01*
X3623919Y1437487D01*
X3631692Y1443228D01*
X3638346Y1450187D01*
X3643731Y1458163D01*
X3647744Y1466951D01*
X3650132Y1476298D01*
X3650996Y1485900D01*
X3650132Y1495501D01*
X3646220Y1510080D01*
X3646982Y1514094D01*
X3649218Y1517497D01*
X3653078Y1521409D01*
X3656177Y1526286D01*
X3658108Y1531772D01*
X3658819Y1538071D01*
X3658819Y1636928D01*
X3658108Y1643227D01*
X3656177Y1648714D01*
X3653078Y1653590D01*
X3649218Y1657502D01*
X3646982Y1660906D01*
X3646220Y1664919D01*
X3650132Y1679498D01*
X3650996Y1689100D01*
X3650132Y1698701D01*
X3647744Y1708048D01*
X3643731Y1716836D01*
X3638346Y1724812D01*
X3631692Y1731772D01*
X3623919Y1737512D01*
X3615283Y1741881D01*
X3606088Y1744675D01*
X3596538Y1745945D01*
X3586886Y1745488D01*
X3577437Y1743456D01*
X3568496Y1739900D01*
X3560267Y1734820D01*
X3553053Y1728470D01*
X3546957Y1720951D01*
X3542284Y1712518D01*
X3539083Y1703425D01*
X3537458Y1693925D01*
X3537458Y1684274D01*
X3539794Y1670304D01*
X3538829Y1666443D01*
X3536442Y1663293D01*
X3531666Y1660804D01*
X3526790Y1657705D01*
X3525062Y1655978D01*
X3521760Y1653793D01*
X3517900Y1653032D01*
X3513988Y1653793D01*
X3510737Y1655978D01*
X3509010Y1657705D01*
X3504082Y1660804D01*
X3498646Y1662684D01*
X3492347Y1663395D01*
X3434079Y1663395D01*
X3430168Y1664157D01*
X3426866Y1666392D01*
X3299409Y1793849D01*
X3292805Y1799285D01*
X3285744Y1803044D01*
X3278073Y1805381D01*
X3269589Y1806193D01*
X1461008Y1806193D01*
X1452524Y1805381D01*
X1444853Y1803044D01*
X1437792Y1799285D01*
X1431239Y1793849D01*
X1336548Y1699209D01*
X1331112Y1692605D01*
X1327353Y1685543D01*
X1325016Y1677873D01*
X1324457Y1671929D01*
X1323543Y1668627D01*
X1321562Y1665782D01*
X1318768Y1663801D01*
X1314348Y1662684D01*
X1308912Y1660804D01*
X1303985Y1657705D01*
X1299921Y1653590D01*
X1296822Y1648714D01*
X1294892Y1643227D01*
X1294333Y1638300D01*
X1293266Y1634744D01*
X1291031Y1631848D01*
X1287881Y1629918D01*
X1284274Y1629257D01*
X1118819Y1629257D01*
X1114755Y1630121D01*
X1111351Y1632508D01*
X1109218Y1636064D01*
X1107897Y1639925D01*
X1104798Y1644802D01*
X1100734Y1648917D01*
X1095806Y1651965D01*
X1089761Y1654098D01*
X1086205Y1656232D01*
X1083767Y1659636D01*
X1082954Y1663700D01*
X1083767Y1667764D01*
X1086205Y1671167D01*
X1089761Y1673301D01*
X1095806Y1675434D01*
X1100734Y1678482D01*
X1104798Y1682597D01*
X1107897Y1687474D01*
X1109776Y1692960D01*
X1110488Y1699260D01*
X1110488Y1778762D01*
X1109776Y1785112D01*
X1107897Y1790547D01*
X1104798Y1795475D01*
X1100734Y1799539D01*
X1095806Y1802638D01*
X1090371Y1804568D01*
X1084021Y1805279D01*
X998778Y1805279D01*
X992428Y1804568D01*
X986993Y1802638D01*
X982065Y1799539D01*
X978001Y1795475D01*
X974902Y1790547D01*
X973023Y1785112D01*
X972312Y1778762D01*
X972312Y1731975D01*
X971499Y1728114D01*
X969314Y1724812D01*
X929640Y1685086D01*
X926541Y1683004D01*
X922883Y1682140D01*
X919886Y1681988D01*
X910437Y1679956D01*
X901496Y1676400D01*
X893267Y1671320D01*
X886053Y1664970D01*
X879957Y1657451D01*
X875284Y1649018D01*
X872083Y1639925D01*
X870458Y1630426D01*
X870458Y1620774D01*
X872083Y1611274D01*
X875284Y1602181D01*
X879957Y1593748D01*
X886053Y1586230D01*
X893267Y1579880D01*
X901496Y1574800D01*
X910437Y1571244D01*
X919886Y1569212D01*
X929538Y1568754D01*
X939088Y1570024D01*
X948283Y1572818D01*
X957580Y1577492D01*
X961542Y1578559D01*
X965606Y1577949D01*
X969111Y1575816D01*
X971448Y1572463D01*
X972312Y1568399D01*
X972312Y1548638D01*
X973023Y1542288D01*
X974902Y1536852D01*
X978001Y1531924D01*
X982065Y1527860D01*
X986993Y1524762D01*
X992428Y1522831D01*
X998778Y1522120D01*
X1084021Y1522120D01*
X1090371Y1522831D01*
X1095806Y1524762D01*
X1100734Y1527860D01*
X1104798Y1531924D01*
X1107897Y1536852D01*
X1109218Y1540662D01*
X1111351Y1544218D01*
X1114755Y1546606D01*
X1118819Y1547469D01*
X1284071Y1547469D01*
X1287678Y1546809D01*
X1290828Y1544878D01*
X1293063Y1541932D01*
X1294130Y1538427D01*
X1294892Y1531772D01*
X1296822Y1526286D01*
X1299921Y1521409D01*
X1303985Y1517294D01*
X1308912Y1514195D01*
X1314348Y1512316D01*
X1320647Y1511604D01*
X1409547Y1511604D01*
X1415846Y1512316D01*
X1421282Y1514195D01*
X1426210Y1517294D01*
X1427937Y1519021D01*
X1431188Y1521206D01*
X1435100Y1521968D01*
X1438960Y1521206D01*
X1442262Y1519021D01*
X1443990Y1517294D01*
X1448866Y1514195D01*
X1453642Y1511706D01*
X1456029Y1508556D01*
X1456994Y1504696D01*
X1454658Y1490726D01*
X1454658Y1481074D01*
X1456283Y1471574D01*
X1458874Y1464157D01*
X1459433Y1460347D01*
X1458569Y1456588D01*
X1456334Y1453438D01*
X1453083Y1451356D01*
X1449324Y1450594D01*
X1144371Y1450594D01*
X1135888Y1449781D01*
X1128217Y1447444D01*
X1121156Y1443685D01*
X1114602Y1438249D01*
X1052728Y1376426D01*
X1049426Y1374241D01*
X1045565Y1373479D01*
X998778Y1373479D01*
X992428Y1372768D01*
X986993Y1370838D01*
X982065Y1367739D01*
X978001Y1363675D01*
X974902Y1358747D01*
X973023Y1353312D01*
X972312Y1346962D01*
X972312Y1267460D01*
X973023Y1261160D01*
X974902Y1255674D01*
X978001Y1250797D01*
X982065Y1246682D01*
X986993Y1243634D01*
X993038Y1241501D01*
X996594Y1239367D01*
X999032Y1235964D01*
X999845Y1231900D01*
X999032Y1227836D01*
X996594Y1224432D01*
X993038Y1222298D01*
X986993Y1220165D01*
X982065Y1217117D01*
X978001Y1213002D01*
X974902Y1208125D01*
X973023Y1202639D01*
X972312Y1196340D01*
X972312Y1117854D01*
X971499Y1113993D01*
X969314Y1110691D01*
X966012Y1108456D01*
X962152Y1107694D01*
X935532Y1107694D01*
X931671Y1108456D01*
X928369Y1110691D01*
X818591Y1220470D01*
X816406Y1223772D01*
X815594Y1227632D01*
X815594Y2002231D01*
X816508Y2006396D01*
X819048Y2009851D01*
X822807Y2011934D01*
X827074Y2012289D01*
X831087Y2010867D01*
X837996Y2006600D01*
X846937Y2003043D01*
X856386Y2001012D01*
X866038Y2000554D01*
X875588Y2001824D01*
X884783Y2004618D01*
X893419Y2008987D01*
X901192Y2014728D01*
X907846Y2021687D01*
X913231Y2029663D01*
X917244Y2038451D01*
X919632Y2047798D01*
X920089Y2052624D01*
X920953Y2056028D01*
X922985Y2058974D01*
X971600Y2107539D01*
X974394Y2109520D01*
X977646Y2110486D01*
X981049Y2110282D01*
X984199Y2108962D01*
X986993Y2107234D01*
X993038Y2105101D01*
X996594Y2102967D01*
X999032Y2099564D01*
X999845Y2095500D01*
X999032Y2091436D01*
X996594Y2088032D01*
X993038Y2085898D01*
X986993Y2083765D01*
X982065Y2080717D01*
X978001Y2076602D01*
X974902Y2071725D01*
X973023Y2066239D01*
X972312Y2059939D01*
X972312Y1980438D01*
X973023Y1974088D01*
X974902Y1968652D01*
X978001Y1963724D01*
X982065Y1959660D01*
X986993Y1956562D01*
X992428Y1954631D01*
X998778Y1953920D01*
X1084021Y1953920D01*
X1090371Y1954631D01*
X1095806Y1956562D01*
X1100734Y1959660D01*
X1104798Y1963724D01*
X1107897Y1968652D01*
X1109218Y1972462D01*
X1111351Y1976018D01*
X1114755Y1978406D01*
X1118819Y1979269D01*
X1284071Y1979269D01*
X1287678Y1978609D01*
X1290828Y1976678D01*
X1293063Y1973732D01*
X1294130Y1970227D01*
X1294892Y1963572D01*
X1296822Y1958086D01*
X1299921Y1953209D01*
X1303985Y1949094D01*
X1308912Y1945995D01*
X1314348Y1944116D01*
X1320647Y1943404D01*
X1409547Y1943404D01*
X1415846Y1944116D01*
X1421282Y1945995D01*
X1426210Y1949094D01*
X1427937Y1950821D01*
X1431188Y1953006D01*
X1435100Y1953768D01*
X1438960Y1953006D01*
X1442262Y1950821D01*
X1443990Y1949094D01*
X1448866Y1945995D01*
X1453642Y1943506D01*
X1456029Y1940356D01*
X1456994Y1936496D01*
X1454658Y1922525D01*
X1454658Y1912874D01*
X1456283Y1903374D01*
X1459484Y1894281D01*
X1464157Y1885848D01*
X1470253Y1878330D01*
X1477467Y1871980D01*
X1485696Y1866900D01*
X1494637Y1863343D01*
X1504086Y1861312D01*
X1513738Y1860854D01*
X1523288Y1862124D01*
X1532483Y1864918D01*
X1541119Y1869287D01*
X1548892Y1875028D01*
X1555546Y1881987D01*
X1560931Y1889963D01*
X1564944Y1898751D01*
X1567332Y1908098D01*
X1568196Y1917700D01*
X1567332Y1927301D01*
X1563420Y1941880D01*
X1564182Y1945893D01*
X1566418Y1949297D01*
X1570278Y1953209D01*
X1573377Y1958086D01*
X1575308Y1963572D01*
X1576019Y1969871D01*
X1576019Y2068728D01*
X1575308Y2075027D01*
X1573377Y2080514D01*
X1570278Y2085390D01*
X1566265Y2089454D01*
X1559814Y2093315D01*
X1557070Y2095754D01*
X1555394Y2099005D01*
X1554937Y2102662D01*
X1555800Y2106218D01*
X1557731Y2110435D01*
X1560169Y2119782D01*
X1560982Y2129383D01*
X1560169Y2138984D01*
X1559001Y2143455D01*
X1558747Y2147163D01*
X1559814Y2150668D01*
X1562049Y2153615D01*
X1565198Y2155545D01*
X1568856Y2156206D01*
X1712264Y2156206D01*
X1716125Y2155393D01*
X1719427Y2153208D01*
X1837334Y2035352D01*
X1839518Y2032050D01*
X1840280Y2028139D01*
X1840280Y1969871D01*
X1840992Y1963572D01*
X1842922Y1958086D01*
X1846021Y1953209D01*
X1850085Y1949094D01*
X1855012Y1945995D01*
X1860448Y1944116D01*
X1866747Y1943404D01*
X1955647Y1943404D01*
X1961946Y1944116D01*
X1967382Y1945995D01*
X1972310Y1949094D01*
X1974037Y1950821D01*
X1977288Y1953006D01*
X1981200Y1953768D01*
X1985060Y1953006D01*
X1988362Y1950821D01*
X1990089Y1949094D01*
X1994966Y1945995D01*
X1999742Y1943506D01*
X2002129Y1940356D01*
X2003094Y1936496D01*
X2000757Y1922525D01*
X2000757Y1912874D01*
X2002383Y1903374D01*
X2005584Y1894281D01*
X2010257Y1885848D01*
X2016353Y1878330D01*
X2023567Y1871980D01*
X2031796Y1866900D01*
X2040737Y1863343D01*
X2050186Y1861312D01*
X2059838Y1860854D01*
X2069388Y1862124D01*
X2078583Y1864918D01*
X2087219Y1869287D01*
X2094992Y1875028D01*
X2101646Y1881987D01*
X2107031Y1889963D01*
X2111044Y1898751D01*
X2113432Y1908098D01*
X2114296Y1917700D01*
X2113432Y1927301D01*
X2109520Y1941880D01*
X2110282Y1945893D01*
X2112518Y1949297D01*
X2116378Y1953209D01*
X2119477Y1958086D01*
X2121408Y1963572D01*
X2122119Y1969871D01*
X2122119Y2068728D01*
X2121408Y2075027D01*
X2119477Y2080514D01*
X2116378Y2085390D01*
X2112518Y2089302D01*
X2110282Y2092706D01*
X2109520Y2096719D01*
X2113432Y2111298D01*
X2114296Y2120900D01*
X2113432Y2130501D01*
X2111044Y2139848D01*
X2110130Y2141829D01*
X2109216Y2145792D01*
X2109927Y2149754D01*
X2112111Y2153107D01*
X2115413Y2155393D01*
X2119376Y2156206D01*
X2702864Y2156206D01*
X2706725Y2155393D01*
X2710027Y2153208D01*
X2827934Y2035352D01*
X2830118Y2032050D01*
X2830880Y2028139D01*
X2830880Y1969871D01*
X2831592Y1963572D01*
X2833522Y1958086D01*
X2836621Y1953209D01*
X2840685Y1949094D01*
X2845612Y1945995D01*
X2851048Y1944116D01*
X2857347Y1943404D01*
X2946247Y1943404D01*
X2952546Y1944116D01*
X2957982Y1945995D01*
X2962910Y1949094D01*
X2964637Y1950821D01*
X2967888Y1953006D01*
X2971800Y1953768D01*
X2975660Y1953006D01*
X2978962Y1950821D01*
X2980690Y1949094D01*
X2985566Y1945995D01*
X2990342Y1943506D01*
X2992729Y1940356D01*
X2993694Y1936496D01*
X2991358Y1922525D01*
X2991358Y1912874D01*
X2992983Y1903374D01*
X2996184Y1894281D01*
X3000857Y1885848D01*
X3006953Y1878330D01*
X3014167Y1871980D01*
X3022396Y1866900D01*
X3031337Y1863343D01*
X3040786Y1861312D01*
X3050438Y1860854D01*
X3059988Y1862124D01*
X3069183Y1864918D01*
X3077819Y1869287D01*
X3085592Y1875028D01*
X3092246Y1881987D01*
X3097631Y1889963D01*
X3101644Y1898751D01*
X3104032Y1908098D01*
X3104896Y1917700D01*
X3104032Y1927301D01*
X3100120Y1941880D01*
X3100882Y1945893D01*
X3103118Y1949297D01*
X3106978Y1953209D01*
X3110077Y1958086D01*
X3112008Y1963572D01*
X3112719Y1969871D01*
X3112719Y2068728D01*
X3112008Y2075027D01*
X3110077Y2080514D01*
X3106978Y2085390D01*
X3103118Y2089302D01*
X3100882Y2092706D01*
X3100120Y2096719D01*
X3104032Y2111298D01*
X3104896Y2120900D01*
X3104032Y2130501D01*
X3101644Y2139848D01*
X3100730Y2141829D01*
X3099816Y2145792D01*
X3100527Y2149754D01*
X3102711Y2153107D01*
X3106013Y2155393D01*
X3109976Y2156206D01*
X3248964Y2156206D01*
X3252825Y2155393D01*
X3256127Y2153208D01*
X3374034Y2035352D01*
X3376218Y2032050D01*
X3376980Y2028139D01*
X3376980Y1969871D01*
X3377692Y1963572D01*
X3379622Y1958086D01*
X3382721Y1953209D01*
X3386785Y1949094D01*
X3391712Y1945995D01*
X3397148Y1944116D01*
X3403447Y1943404D01*
X3492347Y1943404D01*
X3498646Y1944116D01*
X3504082Y1945995D01*
X3509010Y1949094D01*
X3510737Y1950821D01*
X3513988Y1953006D01*
X3517900Y1953768D01*
X3521760Y1953006D01*
X3525062Y1950821D01*
X3526790Y1949094D01*
X3531666Y1945995D01*
X3536442Y1943506D01*
X3538829Y1940356D01*
X3539794Y1936496D01*
X3537458Y1922525D01*
X3537458Y1912874D01*
X3539083Y1903374D01*
X3542284Y1894281D01*
X3546957Y1885848D01*
X3553053Y1878330D01*
X3560267Y1871980D01*
X3568496Y1866900D01*
X3577437Y1863343D01*
X3586886Y1861312D01*
X3596538Y1860854D01*
X3606088Y1862124D01*
X3615283Y1864918D01*
X3623919Y1869287D01*
X3631692Y1875028D01*
X3638346Y1881987D01*
X3643731Y1889963D01*
X3647744Y1898751D01*
X3650132Y1908098D01*
X3650996Y1917700D01*
X3650132Y1927301D01*
X3646220Y1941880D01*
X3646982Y1945893D01*
X3649218Y1949297D01*
X3653078Y1953209D01*
X3656177Y1958086D01*
X3658108Y1963572D01*
X3658819Y1969871D01*
X3658819Y2068728D01*
X3658108Y2075027D01*
X3656177Y2080514D01*
X3653078Y2085390D01*
X3649218Y2089302D01*
X3646982Y2092706D01*
X3646220Y2096719D01*
X3650132Y2111298D01*
X3650996Y2120900D01*
X3650132Y2130501D01*
X3647744Y2139848D01*
X3643731Y2148636D01*
X3638346Y2156612D01*
X3631692Y2163572D01*
X3623919Y2169312D01*
X3615283Y2173681D01*
X3606088Y2176475D01*
X3596538Y2177745D01*
X3586886Y2177288D01*
X3577437Y2175256D01*
X3568496Y2171700D01*
X3560267Y2166620D01*
X3553053Y2160270D01*
X3546957Y2152751D01*
X3542284Y2144318D01*
X3539083Y2135225D01*
X3537458Y2125726D01*
X3537458Y2116074D01*
X3539794Y2102104D01*
X3538829Y2098243D01*
X3536442Y2095093D01*
X3531666Y2092604D01*
X3526790Y2089505D01*
X3525062Y2087778D01*
X3521760Y2085593D01*
X3517900Y2084832D01*
X3513988Y2085593D01*
X3510737Y2087778D01*
X3509010Y2089505D01*
X3504082Y2092604D01*
X3498646Y2094484D01*
X3492347Y2095195D01*
X3434079Y2095195D01*
X3430168Y2095957D01*
X3426866Y2098192D01*
X3299409Y2225649D01*
X3292805Y2231085D01*
X3285744Y2234844D01*
X3278073Y2237181D01*
X3269589Y2237994D01*
X1461008Y2237994D01*
X1452524Y2237181D01*
X1444853Y2234844D01*
X1437792Y2231085D01*
X1431239Y2225649D01*
X1336548Y2131009D01*
X1331112Y2124405D01*
X1327353Y2117344D01*
X1325016Y2109673D01*
X1324457Y2103729D01*
X1323543Y2100427D01*
X1321562Y2097582D01*
X1318768Y2095601D01*
X1314348Y2094484D01*
X1308912Y2092604D01*
X1303985Y2089505D01*
X1299921Y2085390D01*
X1296822Y2080514D01*
X1294892Y2075027D01*
X1294333Y2070100D01*
X1293266Y2066543D01*
X1291031Y2063648D01*
X1287881Y2061718D01*
X1284274Y2061057D01*
X1118819Y2061057D01*
X1114755Y2061921D01*
X1111351Y2064308D01*
X1109218Y2067864D01*
X1107897Y2071725D01*
X1104798Y2076602D01*
X1100734Y2080717D01*
X1095806Y2083765D01*
X1089761Y2085898D01*
X1086205Y2088032D01*
X1083767Y2091436D01*
X1082954Y2095500D01*
X1083767Y2099564D01*
X1086205Y2102967D01*
X1089761Y2105101D01*
X1095806Y2107234D01*
X1100734Y2110282D01*
X1104798Y2114397D01*
X1107897Y2119274D01*
X1109776Y2124760D01*
X1110488Y2131060D01*
X1110488Y2210562D01*
X1109776Y2216912D01*
X1107897Y2222347D01*
X1104798Y2227275D01*
X1100734Y2231339D01*
X1095806Y2234438D01*
X1090371Y2236368D01*
X1084021Y2237079D01*
X998778Y2237079D01*
X992428Y2236368D01*
X986993Y2234438D01*
X982065Y2231339D01*
X978001Y2227275D01*
X974902Y2222347D01*
X972819Y2216404D01*
X971346Y2213610D01*
X969060Y2211425D01*
X966216Y2210054D01*
X961390Y2208580D01*
X954328Y2204821D01*
X947775Y2199436D01*
X865225Y2116886D01*
X862126Y2114753D01*
X858469Y2113889D01*
X856386Y2113788D01*
X846937Y2111756D01*
X837996Y2108200D01*
X831087Y2103932D01*
X827074Y2102510D01*
X822807Y2102866D01*
X819048Y2104948D01*
X816508Y2108403D01*
X815594Y2112568D01*
X815594Y2556967D01*
X816406Y2560828D01*
X818591Y2564130D01*
X1081633Y2827172D01*
X1084935Y2829356D01*
X1088796Y2830169D01*
X2856280Y2830169D01*
X2860344Y2829306D01*
X2863748Y2826918D01*
X2865882Y2823362D01*
X2867202Y2819552D01*
X2870301Y2814624D01*
X2874365Y2810560D01*
X2879293Y2807462D01*
X2884728Y2805531D01*
X2891078Y2804820D01*
X2976321Y2804820D01*
X2982671Y2805531D01*
X2988106Y2807462D01*
X2993034Y2810560D01*
X2997098Y2814624D01*
X3000197Y2819552D01*
X3002076Y2824988D01*
X3002788Y2831338D01*
X3002788Y2910840D01*
X3002076Y2917139D01*
X3000197Y2922625D01*
X2997098Y2927502D01*
X2993034Y2931617D01*
X2988106Y2934665D01*
X2982061Y2936798D01*
X2978505Y2938932D01*
X2976067Y2942336D01*
X2975254Y2946400D01*
X2976067Y2950464D01*
X2978505Y2953867D01*
X2982061Y2956001D01*
X2988106Y2958134D01*
X2993034Y2961182D01*
X2997098Y2965297D01*
X3000197Y2970174D01*
X3002076Y2975660D01*
X3002788Y2981960D01*
X3002788Y3061462D01*
X3002076Y3067812D01*
X3000197Y3073247D01*
X2997098Y3078175D01*
X2993034Y3082239D01*
X2988106Y3085338D01*
X2982671Y3087268D01*
X2977540Y3087827D01*
X2973984Y3088894D01*
X2971088Y3091129D01*
X2969158Y3094278D01*
X2968498Y3097936D01*
X2968498Y3121355D01*
X2969107Y3124708D01*
X2970733Y3127705D01*
X2973273Y3129940D01*
X2976219Y3131820D01*
X2980283Y3135884D01*
X2983382Y3140811D01*
X2985312Y3146247D01*
X2986024Y3152597D01*
X2986024Y3251453D01*
X2985312Y3257753D01*
X2983382Y3263239D01*
X2980283Y3268116D01*
X2976219Y3272231D01*
X2971292Y3275279D01*
X2965856Y3277209D01*
X2959506Y3277920D01*
X2895650Y3277920D01*
X2889351Y3277209D01*
X2883865Y3275279D01*
X2878988Y3272231D01*
X2874873Y3268116D01*
X2871825Y3263239D01*
X2869895Y3257753D01*
X2869184Y3251453D01*
X2869184Y3152597D01*
X2869895Y3146247D01*
X2871825Y3140811D01*
X2874873Y3135884D01*
X2878988Y3131820D01*
X2881934Y3129940D01*
X2884474Y3127654D01*
X2886151Y3124708D01*
X2886710Y3121355D01*
X2886710Y3095142D01*
X2885846Y3091078D01*
X2883458Y3087674D01*
X2874365Y3082239D01*
X2870301Y3078175D01*
X2867202Y3073247D01*
X2865323Y3067812D01*
X2864612Y3061462D01*
X2864612Y2981960D01*
X2865323Y2975660D01*
X2867202Y2970174D01*
X2870301Y2965297D01*
X2874365Y2961182D01*
X2879293Y2958134D01*
X2885338Y2956001D01*
X2888894Y2953867D01*
X2891332Y2950464D01*
X2892145Y2946400D01*
X2891332Y2942336D01*
X2888894Y2938932D01*
X2885338Y2936798D01*
X2879293Y2934665D01*
X2874365Y2931617D01*
X2870301Y2927502D01*
X2867202Y2922625D01*
X2865882Y2918764D01*
X2863748Y2915208D01*
X2860344Y2912821D01*
X2856280Y2911957D01*
X1068171Y2911957D01*
X1059688Y2911144D01*
X1052017Y2908808D01*
X1044956Y2905048D01*
X1038402Y2899613D01*
X746150Y2607360D01*
X743864Y2604617D01*
X740613Y2602026D01*
X736650Y2600909D01*
X732586Y2601468D01*
X729030Y2603652D01*
X726694Y2607005D01*
X725830Y2611069D01*
X725779Y3327857D01*
X725982Y3329736D01*
X726440Y3354984D01*
X728624Y3379368D01*
X732586Y3403600D01*
X738327Y3427425D01*
X745744Y3450793D01*
X754837Y3473551D01*
X765606Y3495649D01*
X777849Y3516833D01*
X791667Y3537102D01*
X806907Y3556355D01*
X823468Y3574440D01*
X841298Y3591255D01*
X860348Y3606749D01*
X880414Y3620820D01*
X901446Y3633368D01*
X923391Y3644392D01*
X945997Y3653840D01*
X969264Y3661562D01*
X993038Y3667607D01*
X1017168Y3671925D01*
X1041552Y3674465D01*
X1068120Y3675481D01*
X3925620Y3674110D01*
X3929278Y3674262D01*
X3953967Y3673805D01*
X3978656Y3671519D01*
X4003090Y3667455D01*
X4027170Y3661613D01*
X4050741Y3654044D01*
X4073702Y3644747D01*
X4095953Y3633774D01*
X4117289Y3621278D01*
X4137710Y3607206D01*
X4157014Y3591661D01*
X4175150Y3574796D01*
X4191965Y3556609D01*
X4207459Y3537254D01*
X4221429Y3516833D01*
X4233926Y3495395D01*
X4244797Y3473145D01*
X4254042Y3450183D01*
X4261561Y3426561D01*
X4267352Y3402482D01*
X4271314Y3377996D01*
X4273296Y3356000D01*
X4273296Y3166465D01*
X4272534Y3162604D01*
X4270298Y3159302D01*
X4266996Y3157118D01*
X4263136Y3156305D01*
X4252214Y3156305D01*
X4252214Y3095498D01*
X4263136Y3095498D01*
X4267047Y3094736D01*
X4270349Y3092551D01*
X4272534Y3089249D01*
X4273296Y3085338D01*
X4273346Y3010458D01*
X4272584Y3006598D01*
X4270349Y3003296D01*
X4267047Y3001060D01*
X4263186Y3000298D01*
X4252214Y3000298D01*
X4252214Y2939491D01*
X4263186Y2939491D01*
X4267098Y2938729D01*
X4270400Y2936544D01*
X4272584Y2933242D01*
X4273346Y2929331D01*
X4273397Y2761488D01*
X4272635Y2757576D01*
X4270451Y2754274D01*
X4267149Y2752090D01*
X4263237Y2751328D01*
X4252214Y2751328D01*
X4252214Y2690520D01*
X4263288Y2690520D01*
X4267149Y2689758D01*
X4270451Y2687523D01*
X4272635Y2684221D01*
X4273448Y2680360D01*
X4273448Y2605481D01*
X4272686Y2601569D01*
X4270451Y2598267D01*
X4267149Y2596083D01*
X4263288Y2595321D01*
X4252214Y2595321D01*
X4252214Y2534513D01*
X4263288Y2534513D01*
X4267200Y2533751D01*
X4270502Y2531516D01*
X4272686Y2528214D01*
X4273448Y2524353D01*
X4273854Y1044956D01*
X4273092Y1041095D01*
X4270908Y1037793D01*
X4267606Y1035608D01*
X4263694Y1034796D01*
X4252518Y1034796D01*
X4252518Y973988D01*
X4263745Y973988D01*
X4267606Y973226D01*
X4270908Y971042D01*
X4273143Y967740D01*
X4273905Y963828D01*
X4273905Y888949D01*
X4273143Y885088D01*
X4270959Y881786D01*
X4267657Y879602D01*
X4263745Y878789D01*
X4252518Y878789D01*
X4252518Y817981D01*
X4263796Y817981D01*
X4267657Y817219D01*
X4270959Y815035D01*
X4273143Y811733D01*
X4273956Y807821D01*
X4273956Y639978D01*
X4273194Y636117D01*
X4271010Y632815D01*
X4267708Y630580D01*
X4263796Y629818D01*
X4252518Y629818D01*
X4252518Y569010D01*
X4263847Y569010D01*
X4267708Y568248D01*
X4271010Y566013D01*
X4273245Y562762D01*
X4274007Y558850D01*
X4274007Y483971D01*
X4273245Y480059D01*
X4271060Y476808D01*
X4267758Y474573D01*
X4263847Y473811D01*
X4252518Y473811D01*
X4252518Y413004D01*
X4263898Y413004D01*
X4267758Y412242D01*
X4271060Y410006D01*
X4273296Y406755D01*
X4274058Y402844D01*
X4274058Y359918D01*
X4271924Y334924D01*
X4268012Y310692D01*
X4262374Y286816D01*
X4255008Y263448D01*
X4246016Y240639D01*
X4235348Y218541D01*
X4223156Y197307D01*
X4209440Y176987D01*
X4194251Y157683D01*
X4177741Y139547D01*
X4160012Y122682D01*
X4141063Y107086D01*
X4120997Y92913D01*
X4100017Y80264D01*
X4078173Y69138D01*
X4055567Y59639D01*
X4032351Y51765D01*
X4008628Y45618D01*
X3984498Y41198D01*
X3960418Y38608D01*
X2634183Y38608D01*
X2630474Y39319D01*
X2627274Y41351D01*
X2624988Y44450D01*
X2624074Y48107D01*
X2624531Y51917D01*
X2626360Y55219D01*
X2633980Y64465D01*
X2639923Y74422D01*
X2644241Y85191D01*
X2646883Y96520D01*
X2647797Y108102D01*
X2646883Y119684D01*
X2644241Y131013D01*
X2639923Y141782D01*
X2633980Y151739D01*
X2626563Y160731D01*
X2617876Y168452D01*
X2608173Y174752D01*
X2597556Y179527D01*
X2586329Y182575D01*
X2574798Y183946D01*
X2563215Y183489D01*
X2551785Y181254D01*
X2540863Y177342D01*
X2530652Y171805D01*
X2521407Y164744D01*
X2513380Y156362D01*
X2510332Y152095D01*
X2507691Y149504D01*
X2504287Y148031D01*
X2500579Y147878D01*
X2497023Y149098D01*
X2494178Y151485D01*
X2486558Y160731D01*
X2477922Y168452D01*
X2468168Y174752D01*
X2457551Y179527D01*
X2446324Y182575D01*
X2434793Y183946D01*
X2423210Y183489D01*
X2411780Y181254D01*
X2400858Y177342D01*
X2390648Y171805D01*
X2381402Y164744D01*
X2373376Y156362D01*
X2366670Y146862D01*
X2361539Y136448D01*
X2358034Y125374D01*
X2356256Y113893D01*
X2356256Y102311D01*
X2358034Y90830D01*
X2361539Y79756D01*
X2366670Y69342D01*
X2373376Y59842D01*
X2377236Y55829D01*
X2379370Y52527D01*
X2380081Y48615D01*
X2379268Y44805D01*
X2377033Y41554D01*
X2373782Y39370D01*
X2369921Y38608D01*
G37*

%LPC*%
G36*
X3993337Y128879D02*
G01*
X3995521Y129844D01*
X4008526Y137718D01*
X4020464Y147066D01*
X4031234Y157835D01*
X4040581Y169773D01*
X4048455Y182778D01*
X4049420Y184962D01*
X3993337Y184962D01*
G37*
G36*
X1119784Y128879D02*
G01*
X1121968Y129844D01*
X1134973Y137718D01*
X1146962Y147066D01*
X1157681Y157835D01*
X1167079Y169773D01*
X1174902Y182778D01*
X1175918Y184962D01*
X1119784Y184962D01*
G37*
G36*
X1007110Y128879D02*
G01*
X1007110Y184962D01*
X951026Y184962D01*
X951992Y182778D01*
X959866Y169773D01*
X969213Y157835D01*
X979982Y147066D01*
X991920Y137718D01*
X1004976Y129844D01*
G37*
G36*
X3880662Y128879D02*
G01*
X3880662Y184962D01*
X3824579Y184962D01*
X3825544Y182778D01*
X3833418Y169773D01*
X3842765Y157835D01*
X3853535Y147066D01*
X3865473Y137718D01*
X3878478Y129844D01*
G37*
G36*
X2402484Y205892D02*
G01*
X2445562Y205892D01*
X2445562Y325424D01*
X2375966Y325424D01*
X2375966Y232359D01*
X2376728Y226060D01*
X2378608Y220573D01*
X2381707Y215696D01*
X2385771Y211582D01*
X2390698Y208534D01*
X2396134Y206603D01*
G37*
G36*
X2558237Y205892D02*
G01*
X2601315Y205892D01*
X2607665Y206603D01*
X2613101Y208534D01*
X2618028Y211582D01*
X2622092Y215696D01*
X2625191Y220573D01*
X2627071Y226060D01*
X2627833Y232359D01*
X2627833Y325424D01*
X2558237Y325424D01*
G37*
G36*
X3824579Y297637D02*
G01*
X3880662Y297637D01*
X3880662Y353720D01*
X3878478Y352755D01*
X3865473Y344881D01*
X3853535Y335534D01*
X3842765Y324764D01*
X3833418Y312826D01*
X3825544Y299821D01*
G37*
G36*
X1119784Y297637D02*
G01*
X1175918Y297637D01*
X1174902Y299821D01*
X1167079Y312826D01*
X1157681Y324764D01*
X1146962Y335534D01*
X1134973Y344881D01*
X1121968Y352755D01*
X1119784Y353720D01*
G37*
G36*
X951026Y297637D02*
G01*
X1007110Y297637D01*
X1007110Y353720D01*
X1004976Y352755D01*
X991920Y344881D01*
X979982Y335534D01*
X969213Y324764D01*
X959866Y312826D01*
X951992Y299821D01*
G37*
G36*
X3993337Y297637D02*
G01*
X4049420Y297637D01*
X4048455Y299821D01*
X4040581Y312826D01*
X4031234Y324764D01*
X4020464Y335534D01*
X4008526Y344881D01*
X3995521Y352755D01*
X3993337Y353720D01*
G37*
G36*
X1043025Y642975D02*
G01*
X1048613Y642975D01*
X1054963Y643686D01*
X1060399Y645617D01*
X1065326Y648665D01*
X1069390Y652780D01*
X1072489Y657656D01*
X1074369Y663143D01*
X1075080Y669442D01*
X1075080Y690067D01*
X1043025Y690067D01*
G37*
G36*
X3950462Y642975D02*
G01*
X3956050Y642975D01*
X3956050Y690067D01*
X3923995Y690067D01*
X3923995Y669493D01*
X3924706Y663143D01*
X3926636Y657707D01*
X3929684Y652780D01*
X3933799Y648716D01*
X3938676Y645617D01*
X3944162Y643686D01*
G37*
G36*
X1043025Y757732D02*
G01*
X1075080Y757732D01*
X1075080Y778306D01*
X1074369Y784656D01*
X1072489Y790092D01*
X1069390Y795020D01*
X1065326Y799084D01*
X1060399Y802182D01*
X1054963Y804113D01*
X1048613Y804824D01*
X1043025Y804824D01*
G37*
G36*
X3923995Y757732D02*
G01*
X3956050Y757732D01*
X3956050Y804824D01*
X3950462Y804824D01*
X3944162Y804113D01*
X3938676Y802182D01*
X3933799Y799134D01*
X3929684Y795020D01*
X3926636Y790143D01*
X3924706Y784656D01*
X3923995Y778357D01*
G37*
G36*
X4158234Y2124608D02*
G01*
X4167073Y2127453D01*
X4180230Y2133650D01*
X4192524Y2141423D01*
X4203750Y2150719D01*
X4213707Y2161336D01*
X4222242Y2173122D01*
X4228134Y2183841D01*
X4158234Y2183841D01*
G37*
G36*
X4158234Y2286558D02*
G01*
X4228134Y2286558D01*
X4222242Y2297277D01*
X4213707Y2309063D01*
X4203750Y2319680D01*
X4192524Y2328976D01*
X4180230Y2336749D01*
X4167073Y2342946D01*
X4158234Y2345791D01*
G37*
G36*
X3950157Y2764485D02*
G01*
X3955745Y2764485D01*
X3955745Y2811576D01*
X3923690Y2811576D01*
X3923690Y2791002D01*
X3924401Y2784652D01*
X3926332Y2779217D01*
X3929379Y2774289D01*
X3933494Y2770225D01*
X3938371Y2767126D01*
X3943858Y2765196D01*
G37*
G36*
X3923690Y2879242D02*
G01*
X3955745Y2879242D01*
X3955745Y2926334D01*
X3950157Y2926334D01*
X3943858Y2925622D01*
X3938371Y2923692D01*
X3933494Y2920593D01*
X3929379Y2916529D01*
X3926332Y2911602D01*
X3924401Y2906166D01*
X3923690Y2899816D01*
G37*
G36*
X2192070Y3002991D02*
G01*
X2390902Y3002991D01*
X2397252Y3003702D01*
X2402687Y3005632D01*
X2407615Y3008731D01*
X2411679Y3012795D01*
X2414778Y3017723D01*
X2416708Y3023158D01*
X2417419Y3029458D01*
X2417419Y3148330D01*
X2416708Y3154680D01*
X2414778Y3160115D01*
X2411679Y3165043D01*
X2407615Y3169107D01*
X2402687Y3172206D01*
X2397252Y3174085D01*
X2390902Y3174796D01*
X2321560Y3174796D01*
X2317648Y3175609D01*
X2314346Y3177794D01*
X2111349Y3380790D01*
X2102459Y3388461D01*
X2092858Y3394506D01*
X2082444Y3399028D01*
X2071522Y3401974D01*
X2060244Y3403244D01*
X2048916Y3402787D01*
X2037740Y3400704D01*
X2027072Y3396945D01*
X2017014Y3391662D01*
X2007920Y3384905D01*
X1999894Y3376879D01*
X1993138Y3367786D01*
X1987854Y3357727D01*
X1984095Y3347059D01*
X1982012Y3335883D01*
X1981555Y3324555D01*
X1982825Y3313277D01*
X1985772Y3302355D01*
X1990293Y3291941D01*
X1996338Y3282340D01*
X2004009Y3273450D01*
X2162606Y3114852D01*
X2164791Y3111550D01*
X2165604Y3107639D01*
X2165604Y3029458D01*
X2166315Y3023158D01*
X2168194Y3017723D01*
X2171293Y3012795D01*
X2175357Y3008731D01*
X2180285Y3005632D01*
X2185720Y3003702D01*
G37*
G36*
X2562047Y3002991D02*
G01*
X2760929Y3002991D01*
X2767228Y3003702D01*
X2772714Y3005632D01*
X2777591Y3008731D01*
X2781706Y3012795D01*
X2784754Y3017723D01*
X2786684Y3023158D01*
X2787396Y3029458D01*
X2787396Y3148330D01*
X2786684Y3154680D01*
X2784754Y3160115D01*
X2781706Y3165043D01*
X2777591Y3169107D01*
X2772714Y3172206D01*
X2767228Y3174085D01*
X2760929Y3174796D01*
X2747568Y3174796D01*
X2743657Y3175609D01*
X2740355Y3177794D01*
X2738170Y3181096D01*
X2737408Y3184956D01*
X2737408Y3197352D01*
X2738170Y3201212D01*
X2740355Y3204514D01*
X2858973Y3323132D01*
X2862275Y3325317D01*
X2866136Y3326079D01*
X3054553Y3326079D01*
X3060852Y3326790D01*
X3066338Y3328720D01*
X3071215Y3331768D01*
X3075330Y3335883D01*
X3078378Y3340760D01*
X3080308Y3346246D01*
X3080816Y3350971D01*
X3081426Y3353409D01*
X3082544Y3355594D01*
X3088335Y3364077D01*
X3093212Y3374288D01*
X3096564Y3385108D01*
X3098292Y3396335D01*
X3098292Y3407664D01*
X3096564Y3418890D01*
X3093212Y3429711D01*
X3088335Y3439922D01*
X3082544Y3448405D01*
X3081375Y3450590D01*
X3080816Y3453028D01*
X3080308Y3457752D01*
X3078378Y3463188D01*
X3075330Y3468115D01*
X3071215Y3472179D01*
X3066338Y3475278D01*
X3060852Y3477209D01*
X3054553Y3477920D01*
X2827832Y3477869D01*
X2818993Y3477006D01*
X2816555Y3476599D01*
X2807970Y3474465D01*
X2805633Y3473704D01*
X2797403Y3470300D01*
X2795219Y3469182D01*
X2787599Y3464610D01*
X2785567Y3463188D01*
X2778709Y3457498D01*
X2605989Y3284778D01*
X2600299Y3277920D01*
X2598877Y3275888D01*
X2594305Y3268268D01*
X2593187Y3266084D01*
X2589784Y3257854D01*
X2589022Y3255517D01*
X2586888Y3246932D01*
X2586482Y3244494D01*
X2585618Y3235655D01*
X2585567Y3184956D01*
X2584805Y3181096D01*
X2582621Y3177794D01*
X2579319Y3175609D01*
X2575407Y3174796D01*
X2562047Y3174796D01*
X2555748Y3174085D01*
X2550261Y3172206D01*
X2545384Y3169107D01*
X2541270Y3165043D01*
X2538222Y3160115D01*
X2536291Y3154680D01*
X2535580Y3148330D01*
X2535580Y3029458D01*
X2536291Y3023158D01*
X2538222Y3017723D01*
X2541270Y3012795D01*
X2545384Y3008731D01*
X2550261Y3005632D01*
X2555748Y3003702D01*
G37*
G36*
X3085693Y3126079D02*
G01*
X3094990Y3126079D01*
X3094990Y3170631D01*
X3059176Y3170631D01*
X3059176Y3152597D01*
X3059887Y3146247D01*
X3061817Y3140811D01*
X3064916Y3135884D01*
X3068980Y3131820D01*
X3073908Y3128721D01*
X3079343Y3126790D01*
G37*
G36*
X3140202Y3126079D02*
G01*
X3149549Y3126079D01*
X3155848Y3126790D01*
X3161334Y3128721D01*
X3166211Y3131820D01*
X3170326Y3135884D01*
X3173374Y3140811D01*
X3175304Y3146247D01*
X3176016Y3152597D01*
X3176016Y3170631D01*
X3140202Y3170631D01*
G37*
G36*
X3059176Y3233369D02*
G01*
X3094990Y3233369D01*
X3094990Y3277920D01*
X3085693Y3277920D01*
X3079343Y3277209D01*
X3073908Y3275279D01*
X3068980Y3272231D01*
X3064916Y3268116D01*
X3061817Y3263239D01*
X3059887Y3257753D01*
X3059176Y3251453D01*
G37*
G36*
X3140202Y3233369D02*
G01*
X3176016Y3233369D01*
X3176016Y3251453D01*
X3175304Y3257753D01*
X3173374Y3263239D01*
X3170326Y3268116D01*
X3166211Y3272231D01*
X3161334Y3275279D01*
X3155848Y3277209D01*
X3149549Y3277920D01*
X3140202Y3277920D01*
G37*
G36*
X2192070Y3353003D02*
G01*
X2390902Y3353003D01*
X2397252Y3353714D01*
X2402687Y3355644D01*
X2407615Y3358692D01*
X2411679Y3362807D01*
X2414778Y3367684D01*
X2416708Y3373170D01*
X2417419Y3379470D01*
X2417419Y3498342D01*
X2416708Y3504641D01*
X2414778Y3510127D01*
X2411679Y3515004D01*
X2407615Y3519119D01*
X2402687Y3522218D01*
X2397252Y3524097D01*
X2390902Y3524808D01*
X2192070Y3524808D01*
X2185720Y3524097D01*
X2180285Y3522218D01*
X2175357Y3519119D01*
X2171293Y3515004D01*
X2168194Y3510127D01*
X2166315Y3504641D01*
X2165604Y3498342D01*
X2165604Y3379470D01*
X2166315Y3373170D01*
X2168194Y3367684D01*
X2171293Y3362807D01*
X2175357Y3358692D01*
X2180285Y3355644D01*
X2185720Y3353714D01*
G37*
G36*
X1003757Y3356305D02*
G01*
X1003757Y3412388D01*
X947674Y3412388D01*
X948639Y3410254D01*
X956513Y3397250D01*
X965860Y3385261D01*
X976630Y3374542D01*
X988618Y3365144D01*
X1001623Y3357270D01*
G37*
G36*
X1116482Y3356305D02*
G01*
X1118616Y3357270D01*
X1131620Y3365144D01*
X1143609Y3374542D01*
X1154328Y3385261D01*
X1163726Y3397250D01*
X1171600Y3410254D01*
X1172565Y3412388D01*
X1116482Y3412388D01*
G37*
G36*
X3996232Y3356457D02*
G01*
X3998366Y3357422D01*
X4011371Y3365296D01*
X4023360Y3374694D01*
X4034129Y3385413D01*
X4043476Y3397402D01*
X4051350Y3410407D01*
X4052315Y3412540D01*
X3996232Y3412540D01*
G37*
G36*
X3883558Y3356457D02*
G01*
X3883558Y3412540D01*
X3827424Y3412540D01*
X3828389Y3410407D01*
X3836263Y3397402D01*
X3845661Y3385413D01*
X3856380Y3374694D01*
X3868369Y3365296D01*
X3881374Y3357422D01*
G37*
G36*
X1116482Y3525113D02*
G01*
X1172565Y3525113D01*
X1171600Y3527247D01*
X1163726Y3540251D01*
X1154328Y3552240D01*
X1143609Y3562959D01*
X1131620Y3572357D01*
X1118616Y3580231D01*
X1116482Y3581196D01*
G37*
G36*
X947674Y3525113D02*
G01*
X1003757Y3525113D01*
X1003757Y3581196D01*
X1001623Y3580231D01*
X988618Y3572357D01*
X976630Y3562959D01*
X965860Y3552240D01*
X956513Y3540251D01*
X948639Y3527247D01*
G37*
G36*
X3996232Y3525265D02*
G01*
X4052315Y3525265D01*
X4051350Y3527399D01*
X4043476Y3540404D01*
X4034129Y3552393D01*
X4023360Y3563162D01*
X4011371Y3572510D01*
X3998366Y3580384D01*
X3996232Y3581349D01*
G37*
G36*
X3827424Y3525265D02*
G01*
X3883558Y3525265D01*
X3883558Y3581349D01*
X3881374Y3580384D01*
X3868369Y3572510D01*
X3856380Y3563162D01*
X3845661Y3552393D01*
X3836263Y3540404D01*
X3828389Y3527399D01*
G37*

%LPD*%
D10*
X2291486Y3088919D02*
G01*
X2291486Y3093313D01*
X2057400Y3327400D01*
D11*
X4069588Y2642920D02*
G01*
X3898900Y2472232D01*
X3898900Y1041400D01*
X4069892Y926414D02*
G01*
X3885514Y926414D01*
X3733800Y774700D01*
X2197100Y774700D01*
X1041400Y2602636D02*
G01*
X1118463Y2679700D01*
X3632200Y2679700D01*
X3835400Y2476500D01*
X3835400Y1028700D01*
X3670300Y863600D01*
X2197100Y863600D01*
X2764205Y948204D02*
G01*
X1566395Y948204D01*
X1485900Y1028700D01*
X2247900Y558800D02*
G01*
X1371600Y558800D01*
X2311400Y482600D02*
G01*
X1943100Y482600D01*
X1041400Y1739036D02*
G01*
X927963Y1625600D01*
X927100Y1625600D01*
X1041400Y1307236D02*
G01*
X1143863Y1409700D01*
X2247900Y1409700D01*
X3898900Y1041400D02*
G01*
X3898900Y1003300D01*
X3568700Y673100D02*
G01*
X2197100Y673100D01*
D10*
X4069588Y3047923D02*
G01*
X4069588Y2649997D01*
X4061891Y2642301D01*
X4069892Y926414D02*
G01*
X4069892Y529402D01*
X4061891Y521401D01*
D11*
X2413000Y1028700D02*
G01*
X1632204Y1028700D01*
X1610105Y1050544D01*
X1505204Y1155700D01*
X2565400Y1028700D02*
G01*
X3479800Y1028700D01*
X3587884Y1136784D01*
X3587884Y1155700D01*
X2724005Y1333500D02*
G01*
X3270105Y1333500D01*
X3447905Y1155700D01*
X1717746Y1333500D02*
G01*
X2724005Y1333500D01*
X2901805Y1155700D01*
X1365105Y1155700D02*
G01*
X1365105Y1238105D01*
X1460500Y1333500D01*
X1733405Y1333500D01*
X1911205Y1155700D01*
X2724005Y1765300D02*
G01*
X3270105Y1765300D01*
X3447905Y1587500D01*
X1717527Y1765300D02*
G01*
X2724005Y1765300D01*
X2901805Y1587500D01*
X1365105Y1587500D02*
G01*
X1365105Y1669905D01*
X1460500Y1765300D01*
X1733405Y1765300D01*
X1911205Y1587500D01*
X2714269Y2197100D02*
G01*
X3270105Y2197100D01*
X3447905Y2019300D01*
X1733405Y2197100D02*
G01*
X2724005Y2197100D01*
X2901805Y2019300D01*
X1365105Y2019300D02*
G01*
X1365105Y2101705D01*
X1460500Y2197100D01*
X1733405Y2197100D01*
X1911205Y2019300D01*
X3594100Y1257300D02*
G01*
X3587884Y1251084D01*
X3587884Y1155700D01*
X3587884Y1587500D02*
G01*
X3594100Y1581284D01*
X3594100Y1485900D01*
X3594100Y1689100D02*
G01*
X3587884Y1682884D01*
X3587884Y1587500D01*
X3587884Y2019300D02*
G01*
X3594100Y2013084D01*
X3594100Y1917700D01*
X3594100Y2120900D02*
G01*
X3587887Y2114687D01*
X3587887Y2019300D01*
X3587884Y2451100D02*
G01*
X3594100Y2444884D01*
X3594100Y2349500D01*
X3048000Y1257300D02*
G01*
X3041784Y1251084D01*
X3041784Y1155700D01*
X3041784Y1587500D02*
G01*
X3048000Y1581284D01*
X3048000Y1485900D01*
X3048000Y1689100D02*
G01*
X3041787Y1682887D01*
X3041787Y1587500D01*
X3041784Y2019300D02*
G01*
X3048000Y2013084D01*
X3048000Y1917700D01*
X3048000Y2120900D02*
G01*
X3041787Y2114687D01*
X3041787Y2019300D01*
X3041784Y2451100D02*
G01*
X3048000Y2444884D01*
X3048000Y2349500D01*
X2051298Y1587500D02*
G01*
X2057400Y1587500D01*
X2057400Y1485900D01*
X2057400Y1257300D02*
G01*
X2051187Y1251087D01*
X2051187Y1155700D01*
X2057400Y1689100D02*
G01*
X2051184Y1682884D01*
X2051184Y1587500D01*
X2051184Y2019300D02*
G01*
X2057400Y2013084D01*
X2057400Y1917700D01*
X2057400Y2120900D02*
G01*
X2051184Y2114684D01*
X2051184Y2019300D01*
X2051184Y2451100D02*
G01*
X2057400Y2444884D01*
X2057400Y2349500D01*
X1511300Y1257300D02*
G01*
X1505087Y1251087D01*
X1505087Y1155700D01*
X1505084Y1587500D02*
G01*
X1511300Y1581284D01*
X1511300Y1485900D01*
X1511300Y1689100D02*
G01*
X1505084Y1682884D01*
X1505084Y1587500D01*
X1505084Y2019300D02*
G01*
X1511300Y2013084D01*
X1511300Y1917700D01*
X1504187Y2129281D02*
G01*
X1505965Y2017013D01*
X1505084Y2451100D02*
G01*
X1504114Y2450129D01*
X1504114Y2343477D01*
X2901805Y2451100D02*
G01*
X2787505Y2565400D01*
X2642994Y2565400D01*
X1911205Y2451100D02*
G01*
X1796905Y2565400D01*
X1750788Y2565400D01*
X1365105Y2451100D02*
G01*
X1365105Y2508105D01*
X1422400Y2565400D01*
X3327400Y2565400D01*
X3441700Y2451100D01*
X3447905Y2451100D01*
X1041400Y1156561D02*
G01*
X1042261Y1155700D01*
X1365097Y1155700D01*
X1041400Y2451862D02*
G01*
X1364995Y2451100D01*
X1041400Y2020161D02*
G01*
X1364236Y2020161D01*
X1365097Y2019300D01*
X1041400Y1588361D02*
G01*
X1364236Y1588361D01*
X1365097Y1587500D01*
X3238500Y1244600D02*
G01*
X3238500Y1092200D01*
X2664208Y609600D02*
G01*
X3708400Y609600D01*
D10*
X3022600Y3401999D02*
G01*
X2830499Y3401999D01*
X2661488Y3232988D01*
X2661488Y3088919D01*
D11*
X2933700Y3021738D02*
G01*
X2927604Y3027834D01*
X2927604Y3202000D01*
X2933700Y2871063D02*
G01*
X1067663Y2871063D01*
X774700Y2578100D01*
X774700Y1879600D01*
X774700Y1206500D01*
X914400Y1066800D01*
X1117600Y1066800D01*
X1181100Y1003300D01*
X929208Y926388D02*
G01*
X1461211Y926388D01*
X1587500Y800100D01*
X1854200Y800100D01*
X1943100Y800100D01*
D10*
X929208Y926386D02*
G01*
X929208Y926386D01*
X929208Y521385D01*
D11*
X863600Y2057400D02*
G01*
X977038Y2170838D01*
X1041400Y2170838D01*
D12*
G01*
X2501900Y431800D03*
D13*
G01*
X2291486Y3438905D03*
G01*
X2291486Y3088919D03*
G01*
X2661488Y3088919D03*
D14*
G01*
X2927604Y3202000D03*
G01*
X3117595Y3202000D03*
G01*
X3022600Y3401999D03*
D15*
G01*
X2933700Y2871075D03*
D16*
G01*
X2933700Y3021736D03*
D18*
G01*
X2051202Y2451100D03*
G01*
X1911197Y2451100D03*
G01*
X3041802Y2451100D03*
G01*
X2901797Y2451100D03*
G01*
X2051202Y2019300D03*
G01*
X1911197Y2019300D03*
G01*
X3041802Y2019300D03*
G01*
X2901797Y2019300D03*
G01*
X3041802Y1587500D03*
G01*
X2901797Y1587500D03*
G01*
X2051202Y1587500D03*
G01*
X1911197Y1587500D03*
G01*
X2051202Y1155700D03*
G01*
X1911197Y1155700D03*
G01*
X3041802Y1155700D03*
G01*
X2901797Y1155700D03*
G01*
X1505102Y2451100D03*
G01*
X1365097Y2451100D03*
G01*
X3587902Y2451100D03*
G01*
X3447897Y2451100D03*
G01*
X1505102Y2019300D03*
G01*
X1365097Y2019300D03*
G01*
X3587902Y2019300D03*
G01*
X3447897Y2019300D03*
G01*
X3587902Y1587500D03*
G01*
X3447897Y1587500D03*
G01*
X1505102Y1587500D03*
G01*
X1365097Y1587500D03*
G01*
X1505102Y1155700D03*
G01*
X1365097Y1155700D03*
G01*
X3587902Y1155700D03*
G01*
X3447897Y1155700D03*
D15*
G01*
X1041400Y2451975D03*
D16*
G01*
X1041400Y2602636D03*
D15*
G01*
X1041400Y2020175D03*
D16*
G01*
X1041400Y2170836D03*
D15*
G01*
X1041400Y1588375D03*
D16*
G01*
X1041400Y1739036D03*
D15*
G01*
X1041400Y1156575D03*
D16*
G01*
X1041400Y1307236D03*
D19*
G01*
X4069588Y2642920D03*
G01*
X4069588Y3047898D03*
D20*
G01*
X3974591Y2845409D03*
D19*
G01*
X4069892Y521411D03*
G01*
X4069892Y926414D03*
D20*
G01*
X3974896Y723900D03*
D19*
G01*
X929208Y926388D03*
G01*
X929208Y521385D03*
D20*
G01*
X1024204Y723900D03*
D10*
G01*
X2431897Y108102D03*
G01*
X2571902Y108102D03*
D21*
G01*
X4089400Y2235200D03*
G01*
X4089400Y1473200D03*
G01*
X4089400Y1727200D03*
G01*
X4089400Y1981200D03*
G01*
X4089400Y1219200D03*
D19*
G01*
X4219600Y2642895D03*
G01*
X4219600Y3047898D03*
G01*
X4219905Y521411D03*
G01*
X4219905Y926414D03*
G01*
X779195Y926388D03*
G01*
X779195Y521385D03*
D22*
G01*
X3937000Y241300D03*
G01*
X1063447Y241300D03*
G01*
X1060119Y3468751D03*
G01*
X3939895Y3468903D03*
D23*
G01*
X1504111Y2343480D03*
G01*
X1504111Y2129383D03*
G01*
X1511300Y1917700D03*
G01*
X1511300Y1689100D03*
G01*
X1511300Y1485900D03*
G01*
X1511300Y1257300D03*
G01*
X2057400Y2349500D03*
G01*
X2057400Y2120900D03*
G01*
X2057400Y1917700D03*
G01*
X2057400Y1689100D03*
G01*
X2057400Y1485900D03*
G01*
X2057400Y1257300D03*
G01*
X3048000Y2349500D03*
G01*
X3048000Y2120900D03*
G01*
X3048000Y1917700D03*
G01*
X3048000Y1689100D03*
G01*
X3048000Y1485900D03*
G01*
X3048000Y1257300D03*
G01*
X3594100Y2349500D03*
G01*
X3594100Y2120900D03*
G01*
X3594100Y1917700D03*
G01*
X3594100Y1689100D03*
G01*
X3594100Y1485900D03*
G01*
X3594100Y1257300D03*
G01*
X2565400Y1028700D03*
G01*
X2413000Y1028700D03*
G01*
X1943100Y800100D03*
G01*
X2197100Y774700D03*
G01*
X3568700Y673100D03*
G01*
X2197100Y673100D03*
G01*
X3898900Y1003300D03*
G01*
X2247900Y1409700D03*
G01*
X927100Y1625600D03*
G01*
X1943100Y482600D03*
G01*
X2311400Y482600D03*
G01*
X2247900Y558800D03*
G01*
X1371600Y558800D03*
G01*
X863600Y2057400D03*
G01*
X2197100Y863600D03*
G01*
X2764205Y948207D03*
G01*
X1485900Y1028700D03*
G01*
X3238500Y1244600D03*
G01*
X3238500Y1092200D03*
G01*
X2664206Y609600D03*
G01*
X3708400Y609600D03*
D24*
G01*
X2057400Y3327400D03*
G01*
X1181100Y1003300D03*
D23*
G01*
X1574800Y723900D03*
D24*
G01*
X3276600Y419100D03*
G01*
X2946400Y1409700D03*
M02*
