G04 Layer: BottomLayer*
G04 EasyEDA v6.5.54, 2026-05-23 11:16:10*
G04 e4d8c5f1b0d74a6491579a26eca31a7d,8f4c1f16700a4a4892e3ae02f8365818,10*
G04 Gerber Generator version 0.2*
G04 Scale: 100 percent, Rotated: No, Reflected: No *
G04 Dimensions in millimeters *
G04 leading zeros omitted , absolute positions ,4 integer and 5 decimal *
%FSLAX45Y45*%
%MOMM*%

%AMMACRO1*21,1,$1,$2,0,0,$3*%
%ADD10C,0.3000*%
%ADD11C,1.0000*%
%ADD12MACRO1,1.728X1.485X-90.0000*%
%ADD13MACRO1,1.728X1.485X90.0000*%
%ADD14MACRO1,5.7X6.1X0.0000*%
%ADD15C,10.0000*%
%ADD16MACRO1,0.8X0.9X0.0000*%
%ADD17O,0.270002X1.499997*%
%ADD18O,0.0142X1.499997*%
%ADD19O,1.499997X0.270002*%
%ADD20MACRO1,0.8X0.9X-90.0000*%
%ADD21MACRO1,0.8X0.9X90.0000*%
%ADD22R,0.8640X0.8065*%
%ADD23MACRO1,0.864X0.8065X0.0000*%
%ADD24O,2.499995X1.799996*%
%ADD25R,1.0500X1.6500*%
%ADD26C,2.0000*%
%ADD27C,0.6200*%
%ADD28C,0.8000*%

%LPD*%
G36*
X2711450Y1206855D02*
G01*
X2707386Y1208532D01*
X2704388Y1211732D01*
X2703017Y1215898D01*
X2702814Y1218082D01*
X2701544Y1222298D01*
X2701086Y1225245D01*
X2701086Y1242263D01*
X2690215Y1242263D01*
X2687726Y1242568D01*
X2685389Y1243482D01*
X2679293Y1246733D01*
X2671876Y1248968D01*
X2668727Y1249324D01*
X2665171Y1250340D01*
X2662174Y1252575D01*
X2660243Y1255776D01*
X2659583Y1259433D01*
X2659583Y1304645D01*
X2620010Y1304645D01*
X2620010Y1289050D01*
X2620721Y1282750D01*
X2622600Y1277264D01*
X2625699Y1272387D01*
X2629814Y1268272D01*
X2632405Y1266647D01*
X2635402Y1263751D01*
X2636977Y1259941D01*
X2636926Y1255776D01*
X2635199Y1252016D01*
X2632151Y1249273D01*
X2628188Y1247952D01*
X2624074Y1248308D01*
X2621889Y1248968D01*
X2614168Y1249730D01*
X2606497Y1248968D01*
X2599131Y1246733D01*
X2594000Y1243990D01*
X2590850Y1242923D01*
X2587548Y1242923D01*
X2584399Y1243990D01*
X2579268Y1246733D01*
X2571902Y1248968D01*
X2564282Y1249730D01*
X2560675Y1250797D01*
X2557729Y1253032D01*
X2555798Y1256182D01*
X2555087Y1259840D01*
X2555087Y1311960D01*
X2555900Y1315821D01*
X2558084Y1319123D01*
X2602636Y1363726D01*
X2606344Y1366062D01*
X2610713Y1366621D01*
X2614930Y1365300D01*
X2618181Y1362354D01*
X2659583Y1362354D01*
X2659583Y1408734D01*
X2658059Y1411935D01*
X2657754Y1415440D01*
X2658668Y1418844D01*
X2660700Y1421739D01*
X2680970Y1442008D01*
X2684272Y1444193D01*
X2688132Y1445006D01*
X2996946Y1445006D01*
X3000806Y1444193D01*
X3004108Y1442008D01*
X3006344Y1438706D01*
X3007106Y1434846D01*
X3007106Y1300429D01*
X3006496Y1297025D01*
X3004820Y1294028D01*
X3000857Y1289151D01*
X2996184Y1280718D01*
X2992983Y1271625D01*
X2991358Y1262126D01*
X2991358Y1256639D01*
X2990545Y1252778D01*
X2988360Y1249476D01*
X2985058Y1247241D01*
X2981198Y1246479D01*
X2977286Y1247241D01*
X2973984Y1249476D01*
X2894787Y1328674D01*
X2892552Y1331976D01*
X2891790Y1335887D01*
X2891790Y1377950D01*
X2891078Y1384249D01*
X2889199Y1389735D01*
X2886100Y1394612D01*
X2881985Y1398727D01*
X2877108Y1401775D01*
X2871622Y1403705D01*
X2865323Y1404416D01*
X2786481Y1404416D01*
X2780131Y1403705D01*
X2774696Y1401775D01*
X2769768Y1398727D01*
X2765704Y1394612D01*
X2764485Y1392732D01*
X2761691Y1389786D01*
X2757932Y1388160D01*
X2753868Y1388160D01*
X2750108Y1389786D01*
X2747314Y1392732D01*
X2746095Y1394612D01*
X2742031Y1398727D01*
X2737104Y1401775D01*
X2731668Y1403705D01*
X2725318Y1404416D01*
X2712262Y1404416D01*
X2712262Y1362354D01*
X2749804Y1362354D01*
X2753715Y1361592D01*
X2757017Y1359357D01*
X2759202Y1356055D01*
X2759964Y1352194D01*
X2759964Y1329639D01*
X2759202Y1325727D01*
X2757017Y1322476D01*
X2742184Y1307642D01*
X2738882Y1305407D01*
X2734970Y1304645D01*
X2712262Y1304645D01*
X2712262Y1269949D01*
X2716326Y1269492D01*
X2719984Y1267358D01*
X2722422Y1263954D01*
X2723286Y1259840D01*
X2723286Y1216914D01*
X2722372Y1212596D01*
X2719679Y1209141D01*
X2715818Y1207109D01*
G37*

%LPD*%
G36*
X1556664Y689813D02*
G01*
X1552752Y690575D01*
X1549450Y692759D01*
X1263243Y979017D01*
X1261008Y982421D01*
X1260297Y986485D01*
X1261211Y990447D01*
X1263650Y993749D01*
X1267206Y995832D01*
X1271320Y996289D01*
X1275232Y995121D01*
X1283055Y990955D01*
X1290726Y988618D01*
X1299210Y987806D01*
X1442770Y987806D01*
X1446377Y987145D01*
X1449476Y985266D01*
X1452067Y982980D01*
X1460296Y977900D01*
X1469237Y974344D01*
X1478686Y972312D01*
X1488338Y971854D01*
X1497888Y973124D01*
X1507083Y975918D01*
X1515719Y980287D01*
X1524203Y986586D01*
X1526997Y988060D01*
X1530096Y988568D01*
X1775358Y992987D01*
X1779524Y992174D01*
X1782978Y989787D01*
X1785162Y986180D01*
X1785924Y983996D01*
X1788972Y979068D01*
X1793087Y975004D01*
X1794967Y973785D01*
X1797913Y970991D01*
X1799539Y967232D01*
X1799539Y963168D01*
X1797913Y959408D01*
X1794967Y956614D01*
X1793087Y955395D01*
X1788972Y951331D01*
X1785924Y946403D01*
X1783994Y940968D01*
X1783283Y934618D01*
X1783283Y921562D01*
X1825345Y921562D01*
X1825345Y959103D01*
X1826107Y963015D01*
X1828342Y966317D01*
X1831644Y968502D01*
X1835505Y969264D01*
X1872894Y969264D01*
X1876755Y968502D01*
X1880057Y966317D01*
X1882292Y963015D01*
X1883054Y959103D01*
X1883054Y921562D01*
X1925116Y921562D01*
X1925116Y934618D01*
X1924405Y940968D01*
X1922475Y946403D01*
X1919427Y951331D01*
X1915312Y955395D01*
X1913432Y956614D01*
X1910486Y959408D01*
X1908860Y963168D01*
X1908860Y967232D01*
X1910486Y970991D01*
X1913432Y973785D01*
X1915312Y975004D01*
X1919427Y979068D01*
X1922475Y983996D01*
X1923694Y987501D01*
X1925878Y991057D01*
X1929231Y993444D01*
X1933295Y994308D01*
X1955647Y994308D01*
X1959813Y993394D01*
X1963267Y990853D01*
X1965350Y987094D01*
X1966366Y983843D01*
X1969109Y978712D01*
X1970176Y975563D01*
X1970176Y972261D01*
X1969109Y969111D01*
X1966315Y963930D01*
X1965756Y961999D01*
X1987956Y961999D01*
X1990902Y961542D01*
X1995017Y960272D01*
X2003196Y959510D01*
X2052574Y959510D01*
X2059482Y958494D01*
X2063445Y956919D01*
X2064969Y956919D01*
X2068931Y958494D01*
X2075840Y959510D01*
X2125218Y959510D01*
X2133396Y960272D01*
X2137511Y961542D01*
X2140458Y961999D01*
X2163114Y961999D01*
X2167026Y961186D01*
X2170328Y959002D01*
X2172512Y955700D01*
X2173274Y951839D01*
X2173274Y945946D01*
X2172512Y942035D01*
X2170328Y938784D01*
X2167026Y936548D01*
X2163114Y935786D01*
X2140559Y935786D01*
X2137613Y936244D01*
X2133396Y937514D01*
X2125218Y938326D01*
X2070607Y938326D01*
X2066391Y939190D01*
X2064207Y940816D01*
X2062022Y939190D01*
X2057806Y938326D01*
X2003196Y938326D01*
X1995017Y937514D01*
X1990801Y936244D01*
X1987854Y935786D01*
X1965756Y935786D01*
X1966315Y933805D01*
X1969109Y928674D01*
X1970176Y925525D01*
X1970176Y922223D01*
X1969109Y919073D01*
X1966366Y913942D01*
X1964131Y906576D01*
X1963369Y898906D01*
X1964131Y891235D01*
X1966366Y883818D01*
X1969109Y878687D01*
X1970176Y875537D01*
X1970176Y872236D01*
X1969109Y869137D01*
X1966315Y863955D01*
X1964385Y859688D01*
X1961794Y857250D01*
X1958543Y855878D01*
X1954987Y855726D01*
X1945538Y856945D01*
X1935683Y856487D01*
X1931670Y857148D01*
X1928215Y859332D01*
X1925929Y862685D01*
X1925116Y866648D01*
X1925116Y868883D01*
X1883054Y868883D01*
X1883054Y828446D01*
X1886153Y826312D01*
X1888286Y823163D01*
X1889099Y819505D01*
X1886457Y804926D01*
X1886457Y795274D01*
X1888083Y785774D01*
X1891284Y776681D01*
X1895957Y768248D01*
X1902053Y760730D01*
X1909267Y754380D01*
X1917496Y749300D01*
X1926437Y745744D01*
X1935886Y743712D01*
X1945538Y743254D01*
X1954275Y744423D01*
X1957832Y744220D01*
X1961083Y742848D01*
X1963674Y740410D01*
X1965299Y737260D01*
X1966315Y733806D01*
X1969109Y728675D01*
X1970176Y725525D01*
X1970176Y722223D01*
X1969109Y719074D01*
X1966366Y713943D01*
X1964131Y706577D01*
X1963369Y698957D01*
X1962302Y695401D01*
X1960067Y692454D01*
X1956917Y690473D01*
X1953260Y689813D01*
G37*

%LPC*%
G36*
X1809750Y829310D02*
G01*
X1825345Y829310D01*
X1825345Y868883D01*
X1783283Y868883D01*
X1783283Y855776D01*
X1783994Y849477D01*
X1785924Y843991D01*
X1788972Y839114D01*
X1793087Y834999D01*
X1797964Y831900D01*
X1803450Y830021D01*
G37*

%LPD*%
G36*
X3202432Y294894D02*
G01*
X3198164Y295808D01*
X3194710Y298450D01*
X3192627Y302260D01*
X3192373Y306578D01*
X3193897Y310642D01*
X3198012Y314299D01*
X3202127Y318414D01*
X3205175Y323291D01*
X3207105Y328777D01*
X3207816Y335076D01*
X3207816Y413918D01*
X3207105Y420268D01*
X3205175Y425704D01*
X3202127Y430631D01*
X3198012Y434695D01*
X3196132Y435914D01*
X3193186Y438708D01*
X3191560Y442468D01*
X3191560Y446532D01*
X3193186Y450291D01*
X3196132Y453085D01*
X3198012Y454304D01*
X3202127Y458368D01*
X3205175Y463296D01*
X3207105Y468731D01*
X3207816Y475081D01*
X3207816Y488137D01*
X3165754Y488137D01*
X3165754Y450596D01*
X3164992Y446684D01*
X3162757Y443382D01*
X3159455Y441198D01*
X3155594Y440435D01*
X3133039Y440435D01*
X3129127Y441198D01*
X3125876Y443382D01*
X3111042Y458216D01*
X3108807Y461518D01*
X3108045Y465429D01*
X3108045Y488137D01*
X3074720Y488137D01*
X3070453Y488950D01*
X3062020Y489813D01*
X2982061Y489813D01*
X2977794Y490728D01*
X2974289Y493420D01*
X2972257Y497281D01*
X2972054Y501650D01*
X2973679Y505714D01*
X2976930Y508711D01*
X2981096Y510082D01*
X2983382Y510285D01*
X2987598Y511556D01*
X2990545Y512013D01*
X3012643Y512013D01*
X3012084Y513994D01*
X3009290Y519125D01*
X3008223Y522274D01*
X3008223Y525576D01*
X3009290Y528726D01*
X3012033Y533857D01*
X3014268Y541223D01*
X3015030Y548894D01*
X3014268Y556564D01*
X3012033Y563981D01*
X3009290Y569112D01*
X3008223Y572262D01*
X3008223Y575564D01*
X3009290Y578662D01*
X3012084Y583844D01*
X3014319Y591210D01*
X3015030Y598830D01*
X3016097Y602386D01*
X3018332Y605332D01*
X3021482Y607314D01*
X3025140Y607974D01*
X3098647Y607974D01*
X3107080Y608838D01*
X3114751Y611124D01*
X3121812Y614934D01*
X3125774Y618134D01*
X3128772Y619861D01*
X3132175Y620420D01*
X3179521Y620420D01*
X3185871Y621131D01*
X3191306Y623062D01*
X3196234Y626160D01*
X3200298Y630224D01*
X3203397Y635152D01*
X3205276Y640588D01*
X3205988Y646938D01*
X3205988Y726440D01*
X3205276Y732739D01*
X3203397Y738225D01*
X3200298Y743102D01*
X3196234Y747217D01*
X3191306Y750265D01*
X3185261Y752398D01*
X3181705Y754532D01*
X3179267Y757936D01*
X3178454Y762000D01*
X3179267Y766064D01*
X3181705Y769467D01*
X3185261Y771601D01*
X3191306Y773734D01*
X3196234Y776782D01*
X3200298Y780897D01*
X3203397Y785774D01*
X3205276Y791260D01*
X3205988Y797560D01*
X3205988Y810818D01*
X3164840Y810818D01*
X3164840Y763066D01*
X3164078Y759155D01*
X3161893Y755904D01*
X3158591Y753668D01*
X3154680Y752906D01*
X3119120Y752906D01*
X3115208Y753668D01*
X3111906Y755904D01*
X3109722Y759155D01*
X3108960Y763066D01*
X3108960Y810818D01*
X3067812Y810818D01*
X3067812Y797560D01*
X3068523Y791260D01*
X3070402Y785774D01*
X3073501Y780897D01*
X3077565Y776782D01*
X3082493Y773734D01*
X3088538Y771601D01*
X3092094Y769467D01*
X3094532Y766064D01*
X3095345Y762000D01*
X3094532Y757936D01*
X3092094Y754532D01*
X3088538Y752398D01*
X3082493Y750265D01*
X3077565Y747217D01*
X3073501Y743102D01*
X3070402Y738225D01*
X3068523Y732739D01*
X3067812Y726440D01*
X3067812Y699973D01*
X3066999Y696061D01*
X3064814Y692759D01*
X3061512Y690575D01*
X3057652Y689813D01*
X3025140Y689813D01*
X3021533Y690473D01*
X3018332Y692454D01*
X3016097Y695401D01*
X3015030Y698957D01*
X3014319Y706577D01*
X3012084Y713994D01*
X3009290Y719124D01*
X3008223Y722274D01*
X3008223Y725576D01*
X3009290Y728726D01*
X3012033Y733856D01*
X3014268Y741222D01*
X3015030Y748893D01*
X3014268Y756564D01*
X3012033Y763981D01*
X3009290Y769112D01*
X3008223Y772261D01*
X3008223Y775563D01*
X3009290Y778662D01*
X3012084Y783844D01*
X3014319Y791210D01*
X3015081Y798931D01*
X3014319Y806602D01*
X3012084Y813968D01*
X3009290Y819150D01*
X3008223Y822248D01*
X3008223Y825550D01*
X3009290Y828700D01*
X3012033Y833831D01*
X3014268Y841197D01*
X3015030Y848918D01*
X3014268Y856589D01*
X3012033Y863955D01*
X3009290Y869086D01*
X3008223Y872236D01*
X3008223Y875537D01*
X3009290Y878687D01*
X3012084Y883869D01*
X3014319Y891235D01*
X3015081Y898906D01*
X3014319Y906576D01*
X3012084Y913993D01*
X3009290Y919124D01*
X3008223Y922274D01*
X3008223Y925576D01*
X3009290Y928725D01*
X3012033Y933856D01*
X3014268Y941222D01*
X3015030Y948842D01*
X3016097Y952398D01*
X3018332Y955344D01*
X3021482Y957326D01*
X3025140Y957986D01*
X3144723Y957986D01*
X3153156Y958850D01*
X3160826Y961136D01*
X3167888Y964946D01*
X3174492Y970330D01*
X3236874Y1032713D01*
X3239566Y1034643D01*
X3242767Y1035608D01*
X3250488Y1036624D01*
X3259683Y1039418D01*
X3268319Y1043787D01*
X3276092Y1049528D01*
X3282746Y1056487D01*
X3288131Y1064463D01*
X3292144Y1073251D01*
X3294532Y1082598D01*
X3295396Y1092200D01*
X3294532Y1101801D01*
X3292144Y1111148D01*
X3288131Y1119936D01*
X3285185Y1124356D01*
X3283559Y1128420D01*
X3283813Y1132738D01*
X3285845Y1136599D01*
X3289350Y1139240D01*
X3293567Y1140206D01*
X3796792Y1140206D01*
X3805275Y1141018D01*
X3812946Y1143355D01*
X3820007Y1147114D01*
X3826560Y1152550D01*
X3923284Y1249222D01*
X3926789Y1251508D01*
X3930904Y1252220D01*
X3934917Y1251153D01*
X3938219Y1248613D01*
X3940200Y1244955D01*
X3940556Y1240790D01*
X3938727Y1226464D01*
X3938727Y1211935D01*
X3940556Y1197508D01*
X3944213Y1183386D01*
X3949547Y1169873D01*
X3956862Y1156665D01*
X3958437Y1153464D01*
X3958793Y1149908D01*
X3957878Y1146454D01*
X3955846Y1143508D01*
X3946550Y1134160D01*
X3941114Y1127607D01*
X3937355Y1120546D01*
X3935018Y1112875D01*
X3934206Y1104392D01*
X3934206Y1065479D01*
X3933494Y1061770D01*
X3931462Y1058570D01*
X3928414Y1056335D01*
X3924808Y1055319D01*
X3921048Y1055776D01*
X3910888Y1058875D01*
X3901338Y1060145D01*
X3891686Y1059688D01*
X3882237Y1057656D01*
X3873296Y1054100D01*
X3865067Y1049020D01*
X3857853Y1042669D01*
X3851757Y1035151D01*
X3847084Y1026718D01*
X3843883Y1017625D01*
X3842105Y1007008D01*
X3841089Y1004062D01*
X3839260Y1001521D01*
X3570325Y732586D01*
X3567226Y730453D01*
X3563569Y729589D01*
X3561486Y729488D01*
X3552037Y727456D01*
X3543096Y723900D01*
X3534867Y718820D01*
X3527653Y712470D01*
X3521557Y704951D01*
X3516884Y696518D01*
X3513683Y687425D01*
X3512058Y677926D01*
X3512058Y668274D01*
X3513683Y658774D01*
X3516884Y649681D01*
X3521557Y641248D01*
X3527653Y633730D01*
X3538474Y624382D01*
X3540150Y621131D01*
X3540607Y617524D01*
X3539693Y613968D01*
X3537610Y610971D01*
X3224530Y297891D01*
X3221228Y295656D01*
X3217367Y294894D01*
G37*

%LPC*%
G36*
X3165754Y540816D02*
G01*
X3207816Y540816D01*
X3207816Y553923D01*
X3207105Y560222D01*
X3205175Y565708D01*
X3202127Y570585D01*
X3198012Y574700D01*
X3193135Y577799D01*
X3187649Y579678D01*
X3181350Y580390D01*
X3165754Y580390D01*
G37*
G36*
X3065983Y540816D02*
G01*
X3108045Y540816D01*
X3108045Y580390D01*
X3092450Y580390D01*
X3086150Y579678D01*
X3080664Y577799D01*
X3075787Y574700D01*
X3071672Y570585D01*
X3068624Y565708D01*
X3066694Y560222D01*
X3065983Y553923D01*
G37*
G36*
X3164840Y863853D02*
G01*
X3205988Y863853D01*
X3205988Y877062D01*
X3205276Y883412D01*
X3203397Y888847D01*
X3200298Y893775D01*
X3196234Y897839D01*
X3191306Y900937D01*
X3185871Y902868D01*
X3179521Y903579D01*
X3164840Y903579D01*
G37*
G36*
X3067812Y863853D02*
G01*
X3108960Y863853D01*
X3108960Y903579D01*
X3094278Y903579D01*
X3087928Y902868D01*
X3082493Y900937D01*
X3077565Y897839D01*
X3073501Y893775D01*
X3070402Y888847D01*
X3068523Y883412D01*
X3067812Y877062D01*
G37*

%LPD*%
G36*
X2317089Y155194D02*
G01*
X2313432Y155854D01*
X2310282Y157784D01*
X2308047Y160680D01*
X2306878Y165049D01*
X2304999Y170535D01*
X2301900Y175412D01*
X2297785Y179527D01*
X2294432Y181610D01*
X2291486Y184505D01*
X2289860Y188315D01*
X2289962Y192430D01*
X2291689Y196240D01*
X2294737Y198983D01*
X2298700Y200304D01*
X2302814Y199948D01*
X2306523Y198831D01*
X2314194Y198069D01*
X2321864Y198831D01*
X2329230Y201066D01*
X2334412Y203809D01*
X2337562Y204876D01*
X2340864Y204876D01*
X2344013Y203809D01*
X2349144Y201066D01*
X2356510Y198831D01*
X2364232Y198069D01*
X2371902Y198831D01*
X2379268Y201066D01*
X2384399Y203809D01*
X2387549Y204876D01*
X2390851Y204876D01*
X2394000Y203809D01*
X2399131Y201066D01*
X2401112Y200456D01*
X2401112Y222554D01*
X2401519Y225501D01*
X2402840Y229717D01*
X2403602Y237896D01*
X2403602Y287274D01*
X2404414Y291185D01*
X2406700Y294538D01*
X2410917Y297027D01*
X2414778Y297738D01*
X2418638Y296926D01*
X2421890Y294741D01*
X2424023Y291439D01*
X2424785Y287578D01*
X2424785Y237896D01*
X2425598Y229717D01*
X2426868Y225653D01*
X2427274Y222707D01*
X2427274Y192633D01*
X2426716Y189230D01*
X2424988Y186182D01*
X2422296Y183896D01*
X2419045Y182676D01*
X2413203Y181559D01*
X2410358Y181610D01*
X2406954Y179527D01*
X2400858Y177342D01*
X2390648Y171805D01*
X2381402Y164744D01*
X2375255Y158343D01*
X2371902Y156006D01*
X2367889Y155194D01*
G37*

%LPD*%
G36*
X2885897Y38608D02*
G01*
X2882036Y39370D01*
X2878734Y41605D01*
X2876499Y44856D01*
X2875737Y48768D01*
X2875737Y85445D01*
X2838196Y85445D01*
X2834284Y86207D01*
X2830982Y88442D01*
X2828798Y91744D01*
X2828036Y95605D01*
X2828036Y132994D01*
X2828798Y136855D01*
X2830982Y140157D01*
X2834284Y142392D01*
X2838196Y143154D01*
X2875737Y143154D01*
X2875737Y185216D01*
X2862681Y185216D01*
X2856331Y184505D01*
X2850896Y182575D01*
X2845968Y179527D01*
X2841904Y175412D01*
X2840685Y173532D01*
X2837891Y170586D01*
X2834132Y168960D01*
X2830068Y168960D01*
X2826308Y170586D01*
X2823514Y173532D01*
X2822295Y175412D01*
X2818231Y179527D01*
X2813304Y182575D01*
X2807868Y184505D01*
X2801518Y185216D01*
X2790190Y185216D01*
X2785872Y186182D01*
X2782316Y188925D01*
X2780334Y192887D01*
X2780233Y197358D01*
X2782011Y201422D01*
X2792018Y209600D01*
X2796946Y215544D01*
X2800553Y222351D01*
X2802788Y229717D01*
X2803601Y237896D01*
X2803601Y314401D01*
X2804414Y318312D01*
X2806598Y321564D01*
X2809900Y323799D01*
X2813761Y324561D01*
X2817672Y323799D01*
X2820974Y321564D01*
X2917139Y225450D01*
X2923692Y220014D01*
X2930753Y216255D01*
X2938424Y213918D01*
X2946908Y213106D01*
X3237992Y213106D01*
X3246475Y213918D01*
X3254146Y216255D01*
X3261207Y220014D01*
X3267760Y225450D01*
X3637838Y595528D01*
X3641242Y597763D01*
X3645255Y598474D01*
X3649218Y597560D01*
X3652520Y595172D01*
X3654602Y591718D01*
X3656584Y586181D01*
X3661257Y577748D01*
X3667353Y570230D01*
X3674567Y563880D01*
X3682796Y558800D01*
X3691737Y555244D01*
X3701186Y553212D01*
X3710838Y552754D01*
X3720388Y554024D01*
X3729583Y556818D01*
X3738219Y561187D01*
X3745992Y566928D01*
X3752646Y573887D01*
X3758031Y581863D01*
X3762044Y590651D01*
X3764432Y599998D01*
X3764889Y604824D01*
X3765753Y608228D01*
X3767785Y611174D01*
X4127703Y971042D01*
X4131005Y973226D01*
X4134865Y973988D01*
X4187291Y973988D01*
X4187291Y1026464D01*
X4188053Y1030325D01*
X4190288Y1033627D01*
X4256532Y1099870D01*
X4259834Y1102055D01*
X4263694Y1102817D01*
X4267606Y1102055D01*
X4270857Y1099870D01*
X4273092Y1096568D01*
X4273854Y1092657D01*
X4273854Y1044956D01*
X4273092Y1041095D01*
X4270908Y1037793D01*
X4267606Y1035608D01*
X4263694Y1034796D01*
X4252518Y1034796D01*
X4252518Y973988D01*
X4263745Y973988D01*
X4267606Y973226D01*
X4270908Y971042D01*
X4273143Y967740D01*
X4273905Y963828D01*
X4273905Y888949D01*
X4273143Y885088D01*
X4270959Y881786D01*
X4267657Y879602D01*
X4263745Y878789D01*
X4252518Y878789D01*
X4252518Y817981D01*
X4263796Y817981D01*
X4267657Y817219D01*
X4270959Y815035D01*
X4273143Y811733D01*
X4273956Y807821D01*
X4273956Y639978D01*
X4273194Y636117D01*
X4271010Y632815D01*
X4267708Y630580D01*
X4263796Y629818D01*
X4252518Y629818D01*
X4252518Y569010D01*
X4263847Y569010D01*
X4267708Y568248D01*
X4271010Y566013D01*
X4273245Y562762D01*
X4274007Y558850D01*
X4274007Y483971D01*
X4273245Y480059D01*
X4271060Y476808D01*
X4267758Y474573D01*
X4263847Y473811D01*
X4252518Y473811D01*
X4252518Y413004D01*
X4263898Y413004D01*
X4267758Y412242D01*
X4271060Y410006D01*
X4273296Y406755D01*
X4274058Y402844D01*
X4274058Y359918D01*
X4271924Y334924D01*
X4268012Y310692D01*
X4262374Y286816D01*
X4255008Y263448D01*
X4246016Y240639D01*
X4235348Y218541D01*
X4223156Y197307D01*
X4209440Y176987D01*
X4194251Y157683D01*
X4177741Y139547D01*
X4160012Y122682D01*
X4141063Y107086D01*
X4120997Y92913D01*
X4100017Y80264D01*
X4078173Y69138D01*
X4055567Y59639D01*
X4032351Y51765D01*
X4008628Y45618D01*
X3984498Y41198D01*
X3960418Y38608D01*
X2971495Y38608D01*
X2967329Y39522D01*
X2963875Y42062D01*
X2961792Y45821D01*
X2961436Y50139D01*
X2962910Y54152D01*
X2965399Y58064D01*
X2967278Y63550D01*
X2967990Y69850D01*
X2967990Y85445D01*
X2928416Y85445D01*
X2928416Y48768D01*
X2927654Y44856D01*
X2925470Y41605D01*
X2922168Y39370D01*
X2918256Y38608D01*
G37*

%LPC*%
G36*
X3993337Y128879D02*
G01*
X3995521Y129844D01*
X4008526Y137718D01*
X4020464Y147066D01*
X4031234Y157835D01*
X4040581Y169773D01*
X4048455Y182778D01*
X4049420Y184962D01*
X3993337Y184962D01*
G37*
G36*
X3880662Y128879D02*
G01*
X3880662Y184962D01*
X3824579Y184962D01*
X3825544Y182778D01*
X3833418Y169773D01*
X3842765Y157835D01*
X3853535Y147066D01*
X3865473Y137718D01*
X3878478Y129844D01*
G37*
G36*
X2928416Y143154D02*
G01*
X2967990Y143154D01*
X2967990Y158750D01*
X2967278Y165049D01*
X2965399Y170535D01*
X2962300Y175412D01*
X2958185Y179527D01*
X2953308Y182575D01*
X2947822Y184505D01*
X2941523Y185216D01*
X2928416Y185216D01*
G37*
G36*
X3824579Y297637D02*
G01*
X3880662Y297637D01*
X3880662Y353720D01*
X3878478Y352755D01*
X3865473Y344881D01*
X3853535Y335534D01*
X3842765Y324764D01*
X3833418Y312826D01*
X3825544Y299821D01*
G37*
G36*
X3993337Y297637D02*
G01*
X4049420Y297637D01*
X4048455Y299821D01*
X4040581Y312826D01*
X4031234Y324764D01*
X4020464Y335534D01*
X4008526Y344881D01*
X3995521Y352755D01*
X3993337Y353720D01*
G37*
G36*
X4167987Y413004D02*
G01*
X4187291Y413004D01*
X4187291Y473811D01*
X4141470Y473811D01*
X4141470Y439470D01*
X4142181Y433171D01*
X4144111Y427685D01*
X4147210Y422808D01*
X4151274Y418693D01*
X4156201Y415645D01*
X4161637Y413715D01*
G37*
G36*
X4141470Y569010D02*
G01*
X4187291Y569010D01*
X4187291Y629818D01*
X4167987Y629818D01*
X4161637Y629107D01*
X4156201Y627176D01*
X4151274Y624128D01*
X4147210Y620014D01*
X4144111Y615137D01*
X4142181Y609650D01*
X4141470Y603351D01*
G37*
G36*
X4167987Y817981D02*
G01*
X4187291Y817981D01*
X4187291Y878789D01*
X4141470Y878789D01*
X4141470Y844499D01*
X4142181Y838149D01*
X4144111Y832713D01*
X4147210Y827786D01*
X4151274Y823721D01*
X4156201Y820623D01*
X4161637Y818692D01*
G37*

%LPD*%
G36*
X1071727Y38608D02*
G01*
X1046226Y39065D01*
X1021842Y41300D01*
X997610Y45262D01*
X973785Y51003D01*
X950417Y58419D01*
X927608Y67513D01*
X905560Y78232D01*
X884377Y90525D01*
X864108Y104343D01*
X844854Y119532D01*
X826769Y136144D01*
X809955Y153974D01*
X794461Y172974D01*
X780389Y193090D01*
X767842Y214121D01*
X756818Y236016D01*
X747369Y258673D01*
X739648Y281940D01*
X733602Y305714D01*
X729284Y329844D01*
X726744Y354228D01*
X725932Y379018D01*
X725932Y402844D01*
X726694Y406704D01*
X728929Y410006D01*
X732180Y412191D01*
X736092Y413004D01*
X746607Y413004D01*
X746607Y473811D01*
X736092Y473811D01*
X732180Y474573D01*
X728878Y476758D01*
X726694Y480059D01*
X725932Y483971D01*
X725932Y558850D01*
X726694Y562711D01*
X728878Y566013D01*
X732180Y568198D01*
X736092Y569010D01*
X746607Y569010D01*
X746607Y629818D01*
X736092Y629818D01*
X732180Y630580D01*
X728878Y632764D01*
X726694Y636066D01*
X725932Y639978D01*
X725932Y807821D01*
X726694Y811733D01*
X728878Y814984D01*
X732180Y817219D01*
X736092Y817981D01*
X746607Y817981D01*
X746607Y878789D01*
X736092Y878789D01*
X732180Y879551D01*
X728878Y881786D01*
X726694Y885037D01*
X725932Y888949D01*
X725881Y963828D01*
X726694Y967740D01*
X728878Y970991D01*
X732180Y973226D01*
X736041Y973988D01*
X746607Y973988D01*
X746607Y1034796D01*
X736041Y1034796D01*
X732180Y1035558D01*
X728878Y1037793D01*
X726694Y1041044D01*
X725881Y1044956D01*
X725779Y3327857D01*
X725982Y3329736D01*
X726440Y3354984D01*
X728624Y3379368D01*
X732586Y3403600D01*
X738327Y3427425D01*
X745744Y3450793D01*
X754837Y3473551D01*
X765606Y3495649D01*
X777849Y3516833D01*
X791667Y3537102D01*
X806907Y3556355D01*
X823468Y3574440D01*
X841298Y3591255D01*
X860348Y3606749D01*
X880414Y3620820D01*
X901446Y3633368D01*
X923391Y3644392D01*
X945997Y3653840D01*
X969264Y3661562D01*
X993038Y3667607D01*
X1017168Y3671925D01*
X1041552Y3674465D01*
X1068120Y3675481D01*
X3925620Y3674110D01*
X3929278Y3674262D01*
X3953967Y3673805D01*
X3978656Y3671519D01*
X4003090Y3667455D01*
X4027170Y3661613D01*
X4050741Y3654044D01*
X4073702Y3644747D01*
X4095953Y3633774D01*
X4117289Y3621278D01*
X4137710Y3607206D01*
X4157014Y3591661D01*
X4175150Y3574796D01*
X4191965Y3556609D01*
X4207459Y3537254D01*
X4221429Y3516833D01*
X4233926Y3495395D01*
X4244797Y3473145D01*
X4254042Y3450183D01*
X4261561Y3426561D01*
X4267352Y3402482D01*
X4271314Y3377996D01*
X4273296Y3356000D01*
X4273296Y3166465D01*
X4272534Y3162604D01*
X4270298Y3159302D01*
X4266996Y3157118D01*
X4263136Y3156305D01*
X4252214Y3156305D01*
X4252214Y3095498D01*
X4263136Y3095498D01*
X4267047Y3094736D01*
X4270349Y3092551D01*
X4272534Y3089249D01*
X4273296Y3085338D01*
X4273346Y3010458D01*
X4272584Y3006598D01*
X4270349Y3003296D01*
X4267047Y3001060D01*
X4263186Y3000298D01*
X4252214Y3000298D01*
X4252214Y2939491D01*
X4263186Y2939491D01*
X4267098Y2938729D01*
X4270400Y2936544D01*
X4272584Y2933242D01*
X4273346Y2929331D01*
X4273397Y2761488D01*
X4272635Y2757576D01*
X4270451Y2754274D01*
X4267149Y2752090D01*
X4263237Y2751328D01*
X4252214Y2751328D01*
X4252214Y2690520D01*
X4263288Y2690520D01*
X4267149Y2689758D01*
X4270451Y2687523D01*
X4272635Y2684221D01*
X4273448Y2680360D01*
X4273448Y2605481D01*
X4272686Y2601569D01*
X4270451Y2598267D01*
X4267149Y2596083D01*
X4263288Y2595321D01*
X4252214Y2595321D01*
X4252214Y2534513D01*
X4263288Y2534513D01*
X4267200Y2533751D01*
X4270502Y2531516D01*
X4272686Y2528214D01*
X4273448Y2524353D01*
X4273702Y1625295D01*
X4272940Y1621383D01*
X4270756Y1618081D01*
X4267454Y1615897D01*
X4263542Y1615084D01*
X4259681Y1615897D01*
X4256379Y1618081D01*
X4222953Y1651507D01*
X4220921Y1654403D01*
X4220006Y1657908D01*
X4220362Y1661414D01*
X4229252Y1677873D01*
X4234637Y1691386D01*
X4238244Y1705508D01*
X4240072Y1719935D01*
X4240072Y1734464D01*
X4238244Y1748942D01*
X4234637Y1763014D01*
X4229252Y1776526D01*
X4222242Y1789277D01*
X4213707Y1801063D01*
X4203750Y1811680D01*
X4192524Y1820976D01*
X4180230Y1828749D01*
X4167073Y1834946D01*
X4153204Y1839468D01*
X4138929Y1842160D01*
X4124096Y1843125D01*
X4054703Y1843125D01*
X4039870Y1842160D01*
X4033215Y1840890D01*
X4028948Y1840992D01*
X4025087Y1842871D01*
X4022344Y1846122D01*
X4021175Y1850237D01*
X4021785Y1854454D01*
X4024122Y1858060D01*
X4029710Y1863648D01*
X4032351Y1865579D01*
X4035501Y1866544D01*
X4054703Y1865274D01*
X4124096Y1865274D01*
X4138929Y1866239D01*
X4153204Y1868982D01*
X4167073Y1873453D01*
X4180230Y1879650D01*
X4192524Y1887474D01*
X4203750Y1896719D01*
X4213707Y1907336D01*
X4222242Y1919122D01*
X4229252Y1931873D01*
X4234637Y1945386D01*
X4238244Y1959508D01*
X4240072Y1973935D01*
X4240072Y1988464D01*
X4238244Y2002942D01*
X4234637Y2017014D01*
X4229252Y2030526D01*
X4222242Y2043277D01*
X4213707Y2055063D01*
X4203750Y2065680D01*
X4192524Y2074976D01*
X4180230Y2082749D01*
X4167073Y2088946D01*
X4153204Y2093468D01*
X4138929Y2096160D01*
X4124096Y2097125D01*
X4054703Y2097125D01*
X4039870Y2096160D01*
X4025595Y2093468D01*
X4011726Y2088946D01*
X3998569Y2082749D01*
X3986276Y2074976D01*
X3975100Y2065680D01*
X3965092Y2055063D01*
X3956558Y2043277D01*
X3949547Y2030526D01*
X3944213Y2017014D01*
X3940556Y2002942D01*
X3938727Y1988464D01*
X3938727Y1973935D01*
X3940556Y1959508D01*
X3944213Y1945386D01*
X3949547Y1931873D01*
X3956862Y1918665D01*
X3958437Y1915464D01*
X3958793Y1911908D01*
X3957878Y1908454D01*
X3955846Y1905507D01*
X3694429Y1644091D01*
X3691128Y1641856D01*
X3687267Y1641093D01*
X3649167Y1641093D01*
X3644950Y1642059D01*
X3641445Y1644700D01*
X3639413Y1648561D01*
X3639159Y1652879D01*
X3640785Y1656943D01*
X3643731Y1661363D01*
X3647744Y1670151D01*
X3650132Y1679498D01*
X3650996Y1689100D01*
X3650132Y1698701D01*
X3647744Y1708048D01*
X3643731Y1716836D01*
X3635756Y1728622D01*
X3634994Y1732381D01*
X3634994Y1874418D01*
X3635756Y1878177D01*
X3643731Y1889963D01*
X3647744Y1898751D01*
X3650132Y1908098D01*
X3650996Y1917700D01*
X3650132Y1927301D01*
X3647744Y1936648D01*
X3643731Y1945436D01*
X3638346Y1953412D01*
X3631692Y1960372D01*
X3623919Y1966112D01*
X3615283Y1970481D01*
X3606088Y1973275D01*
X3596538Y1974545D01*
X3586886Y1974088D01*
X3577437Y1972056D01*
X3568496Y1968500D01*
X3560267Y1963420D01*
X3553053Y1957070D01*
X3546957Y1949551D01*
X3542284Y1941118D01*
X3539083Y1932025D01*
X3537458Y1922525D01*
X3537458Y1912874D01*
X3539083Y1903374D01*
X3542284Y1894281D01*
X3546957Y1885848D01*
X3550920Y1880971D01*
X3552596Y1877974D01*
X3553206Y1874570D01*
X3553206Y1732229D01*
X3552596Y1728825D01*
X3550920Y1725828D01*
X3546957Y1720951D01*
X3542284Y1712518D01*
X3539083Y1703425D01*
X3537458Y1693925D01*
X3537458Y1684274D01*
X3539083Y1674774D01*
X3542284Y1665681D01*
X3547618Y1656283D01*
X3548887Y1652270D01*
X3548379Y1648053D01*
X3546297Y1644446D01*
X3542893Y1641957D01*
X3538778Y1641093D01*
X3442208Y1641093D01*
X3433724Y1640281D01*
X3426053Y1637944D01*
X3418992Y1634185D01*
X3412439Y1628749D01*
X3209950Y1426260D01*
X3204514Y1419707D01*
X3200755Y1412646D01*
X3198418Y1404975D01*
X3197606Y1396492D01*
X3197606Y1287729D01*
X3196996Y1284325D01*
X3195320Y1281328D01*
X3191357Y1276451D01*
X3186684Y1268018D01*
X3183483Y1258925D01*
X3181858Y1249426D01*
X3181858Y1239774D01*
X3182823Y1233881D01*
X3182620Y1229512D01*
X3180588Y1225600D01*
X3177133Y1222959D01*
X3172815Y1221994D01*
X3109976Y1221994D01*
X3106013Y1222806D01*
X3102711Y1225092D01*
X3100527Y1228445D01*
X3099816Y1232408D01*
X3100730Y1236370D01*
X3101644Y1238351D01*
X3104032Y1247698D01*
X3104896Y1257300D01*
X3104032Y1266901D01*
X3101644Y1276248D01*
X3097631Y1285036D01*
X3089656Y1296822D01*
X3088894Y1300581D01*
X3088894Y1442618D01*
X3089656Y1446377D01*
X3097631Y1458163D01*
X3101644Y1466951D01*
X3104032Y1476298D01*
X3104896Y1485900D01*
X3104032Y1495501D01*
X3101644Y1504848D01*
X3097631Y1513636D01*
X3092246Y1521612D01*
X3085592Y1528572D01*
X3077819Y1534312D01*
X3069183Y1538681D01*
X3059988Y1541475D01*
X3050438Y1542745D01*
X3040786Y1542288D01*
X3031337Y1540256D01*
X3022396Y1536700D01*
X3014167Y1531620D01*
X3011576Y1529334D01*
X3008477Y1527454D01*
X3004870Y1526794D01*
X2667508Y1526794D01*
X2659024Y1525981D01*
X2651353Y1523644D01*
X2644292Y1519885D01*
X2637739Y1514449D01*
X2496362Y1373124D01*
X2493111Y1370939D01*
X2489200Y1370177D01*
X2485288Y1370939D01*
X2482037Y1373124D01*
X2340660Y1514449D01*
X2334107Y1519885D01*
X2327046Y1523644D01*
X2319375Y1525981D01*
X2310892Y1526794D01*
X2100732Y1526794D01*
X2097532Y1527302D01*
X2094687Y1528775D01*
X2087219Y1534312D01*
X2078583Y1538681D01*
X2069388Y1541475D01*
X2059838Y1542745D01*
X2050186Y1542288D01*
X2040737Y1540256D01*
X2031796Y1536700D01*
X2023567Y1531620D01*
X2016353Y1525270D01*
X2010257Y1517751D01*
X2005584Y1509318D01*
X2002383Y1500225D01*
X2000757Y1490726D01*
X2000757Y1481074D01*
X2002383Y1471574D01*
X2005584Y1462481D01*
X2010257Y1454048D01*
X2014220Y1449171D01*
X2015896Y1446174D01*
X2016506Y1442770D01*
X2016506Y1300429D01*
X2015896Y1297025D01*
X2014220Y1294028D01*
X2010257Y1289151D01*
X2005584Y1280718D01*
X2002383Y1271625D01*
X2000757Y1262126D01*
X2000757Y1252474D01*
X2002383Y1242974D01*
X2005584Y1233881D01*
X2010257Y1225448D01*
X2016353Y1217930D01*
X2023567Y1211580D01*
X2031796Y1206500D01*
X2040737Y1202944D01*
X2050186Y1200912D01*
X2059838Y1200454D01*
X2069388Y1201724D01*
X2078583Y1204518D01*
X2087219Y1208887D01*
X2094992Y1214628D01*
X2101646Y1221587D01*
X2107031Y1229563D01*
X2111044Y1238351D01*
X2113432Y1247698D01*
X2114296Y1257300D01*
X2113432Y1266901D01*
X2111044Y1276248D01*
X2107031Y1285036D01*
X2099056Y1296822D01*
X2098294Y1300581D01*
X2098294Y1434846D01*
X2099056Y1438706D01*
X2101291Y1442008D01*
X2104593Y1444193D01*
X2108454Y1445006D01*
X2185924Y1445006D01*
X2189683Y1444244D01*
X2192934Y1442161D01*
X2195169Y1439011D01*
X2196033Y1435252D01*
X2195474Y1431442D01*
X2192883Y1424025D01*
X2191258Y1414526D01*
X2191258Y1404874D01*
X2192883Y1395374D01*
X2196084Y1386281D01*
X2200757Y1377848D01*
X2206853Y1370330D01*
X2214067Y1363980D01*
X2222296Y1358900D01*
X2231237Y1355344D01*
X2240686Y1353312D01*
X2242769Y1353210D01*
X2246426Y1352346D01*
X2249525Y1350213D01*
X2320340Y1279448D01*
X2322525Y1276146D01*
X2323287Y1272235D01*
X2323287Y1259840D01*
X2322626Y1256182D01*
X2320645Y1253032D01*
X2317699Y1250797D01*
X2314143Y1249730D01*
X2306523Y1248968D01*
X2299106Y1246733D01*
X2293975Y1243990D01*
X2290876Y1242923D01*
X2287524Y1242923D01*
X2284425Y1243990D01*
X2279294Y1246733D01*
X2271877Y1248968D01*
X2264206Y1249730D01*
X2256536Y1248968D01*
X2249170Y1246733D01*
X2243988Y1243990D01*
X2240838Y1242923D01*
X2237536Y1242923D01*
X2234387Y1243990D01*
X2229256Y1246733D01*
X2221890Y1248968D01*
X2214168Y1249730D01*
X2206498Y1248968D01*
X2199132Y1246733D01*
X2192324Y1243126D01*
X2186381Y1238199D01*
X2181453Y1232255D01*
X2177846Y1225448D01*
X2175611Y1218082D01*
X2174798Y1209903D01*
X2174798Y1160526D01*
X2174138Y1156868D01*
X2173274Y1148384D01*
X2173274Y1031087D01*
X2172462Y1027023D01*
X2170074Y1023670D01*
X2166569Y1021486D01*
X2162454Y1020927D01*
X2158492Y1022045D01*
X2155291Y1024636D01*
X2153564Y1026718D01*
X2147570Y1031646D01*
X2140762Y1035253D01*
X2133396Y1037488D01*
X2125218Y1038301D01*
X2086864Y1038301D01*
X2083003Y1039063D01*
X2079701Y1041298D01*
X2057196Y1063752D01*
X2050592Y1069187D01*
X2043531Y1072946D01*
X2035860Y1075283D01*
X2027428Y1076096D01*
X1933295Y1076096D01*
X1929231Y1076960D01*
X1925828Y1079347D01*
X1923694Y1082903D01*
X1922475Y1086408D01*
X1919427Y1091285D01*
X1915312Y1095400D01*
X1910435Y1098499D01*
X1904949Y1100378D01*
X1898650Y1101090D01*
X1809750Y1101090D01*
X1803450Y1100378D01*
X1797964Y1098499D01*
X1793087Y1095400D01*
X1788972Y1091285D01*
X1785924Y1086408D01*
X1784248Y1081582D01*
X1782114Y1078077D01*
X1778812Y1075690D01*
X1774850Y1074775D01*
X1528368Y1070356D01*
X1525117Y1070864D01*
X1522171Y1072388D01*
X1515719Y1077112D01*
X1507083Y1081481D01*
X1497888Y1084275D01*
X1488338Y1085545D01*
X1478686Y1085088D01*
X1469237Y1083056D01*
X1460296Y1079500D01*
X1452067Y1074420D01*
X1449476Y1072134D01*
X1446377Y1070254D01*
X1442770Y1069594D01*
X1319834Y1069594D01*
X1315974Y1070356D01*
X1312672Y1072591D01*
X1059891Y1325372D01*
X1057706Y1328674D01*
X1056894Y1332534D01*
X1056894Y2113381D01*
X1057808Y2117648D01*
X1058519Y2123948D01*
X1058519Y2141880D01*
X1059484Y2146249D01*
X1062228Y2149754D01*
X1067765Y2154326D01*
X1169924Y2256383D01*
X1173226Y2258568D01*
X1177086Y2259330D01*
X1233373Y2259330D01*
X1233373Y2315616D01*
X1234135Y2319477D01*
X1236319Y2322779D01*
X1254455Y2340965D01*
X1261465Y2349754D01*
X1266088Y2357374D01*
X1269441Y2365146D01*
X1271625Y2368448D01*
X1274927Y2370683D01*
X1278839Y2371496D01*
X1439519Y2371496D01*
X1443329Y2370734D01*
X1446580Y2368651D01*
X1448816Y2365502D01*
X1449679Y2361742D01*
X1447444Y2348280D01*
X1447444Y2338679D01*
X1449070Y2329129D01*
X1452270Y2320036D01*
X1456994Y2311654D01*
X1460957Y2306726D01*
X1462633Y2303729D01*
X1463192Y2300325D01*
X1463192Y2172512D01*
X1462633Y2169109D01*
X1460957Y2166112D01*
X1456994Y2161235D01*
X1452270Y2152802D01*
X1449070Y2143709D01*
X1447444Y2134209D01*
X1447444Y2124557D01*
X1449070Y2115058D01*
X1452270Y2105964D01*
X1456994Y2097532D01*
X1463040Y2090013D01*
X1470304Y2083663D01*
X1478483Y2078583D01*
X1487474Y2075027D01*
X1496872Y2072995D01*
X1506524Y2072538D01*
X1516075Y2073808D01*
X1525320Y2076602D01*
X1533906Y2080971D01*
X1541678Y2086711D01*
X1548384Y2093671D01*
X1553768Y2101646D01*
X1557731Y2110435D01*
X1560169Y2119782D01*
X1560982Y2129383D01*
X1560169Y2138984D01*
X1557731Y2148332D01*
X1553768Y2157120D01*
X1545742Y2168906D01*
X1545031Y2172665D01*
X1545031Y2300173D01*
X1545742Y2303983D01*
X1553768Y2315768D01*
X1557731Y2324557D01*
X1560169Y2333853D01*
X1560982Y2343454D01*
X1560169Y2353106D01*
X1557731Y2362403D01*
X1553768Y2371191D01*
X1548384Y2379218D01*
X1541678Y2386177D01*
X1533906Y2391918D01*
X1525320Y2396236D01*
X1516938Y2398826D01*
X1513230Y2400909D01*
X1510690Y2404364D01*
X1509776Y2408529D01*
X1509776Y2904134D01*
X1510538Y2907995D01*
X1512722Y2911297D01*
X1849882Y3248507D01*
X1853184Y3250742D01*
X1857095Y3251504D01*
X3118205Y3251504D01*
X3122066Y3250742D01*
X3125368Y3248507D01*
X3464966Y2908909D01*
X3467150Y2905607D01*
X3467963Y2901746D01*
X3467963Y2397963D01*
X3468674Y2391664D01*
X3470554Y2386177D01*
X3473653Y2381300D01*
X3477717Y2377186D01*
X3482644Y2374087D01*
X3488080Y2372207D01*
X3494430Y2371496D01*
X3528314Y2371496D01*
X3532632Y2370531D01*
X3536086Y2367889D01*
X3538118Y2363978D01*
X3538321Y2359609D01*
X3537458Y2354326D01*
X3537458Y2344674D01*
X3539083Y2335174D01*
X3542284Y2326081D01*
X3546957Y2317648D01*
X3550920Y2312771D01*
X3552596Y2309774D01*
X3553206Y2306370D01*
X3553206Y2164029D01*
X3552596Y2160625D01*
X3550920Y2157628D01*
X3546957Y2152751D01*
X3542284Y2144318D01*
X3539083Y2135225D01*
X3537458Y2125726D01*
X3537458Y2116074D01*
X3539083Y2106574D01*
X3542284Y2097481D01*
X3546957Y2089048D01*
X3553053Y2081530D01*
X3560267Y2075180D01*
X3568496Y2070100D01*
X3577437Y2066543D01*
X3586886Y2064512D01*
X3596538Y2064054D01*
X3606088Y2065324D01*
X3615283Y2068118D01*
X3623919Y2072487D01*
X3631692Y2078228D01*
X3638346Y2085187D01*
X3643731Y2093163D01*
X3647744Y2101951D01*
X3650132Y2111298D01*
X3650996Y2120900D01*
X3650132Y2130501D01*
X3647744Y2139848D01*
X3643731Y2148636D01*
X3635756Y2160422D01*
X3634994Y2164181D01*
X3634994Y2306218D01*
X3635756Y2309977D01*
X3643731Y2321763D01*
X3647744Y2330551D01*
X3650132Y2339898D01*
X3650945Y2349449D01*
X3649979Y2360371D01*
X3650437Y2364536D01*
X3652570Y2368143D01*
X3655974Y2370632D01*
X3660089Y2371496D01*
X4063288Y2371496D01*
X4069587Y2372207D01*
X4075074Y2374087D01*
X4079951Y2377186D01*
X4084065Y2381300D01*
X4087114Y2386177D01*
X4089044Y2391664D01*
X4089755Y2397963D01*
X4089755Y3006801D01*
X4089044Y3013151D01*
X4087114Y3018586D01*
X4084065Y3023514D01*
X4079951Y3027578D01*
X4075074Y3030677D01*
X4069587Y3032607D01*
X4063288Y3033318D01*
X3559505Y3033318D01*
X3555593Y3034080D01*
X3552342Y3036265D01*
X3205632Y3382924D01*
X3198774Y3388563D01*
X3189122Y3394608D01*
X3186938Y3395726D01*
X3178708Y3399129D01*
X3176371Y3399891D01*
X3167786Y3402025D01*
X3165348Y3402431D01*
X3156508Y3403244D01*
X1818792Y3403244D01*
X1809953Y3402431D01*
X1807514Y3402025D01*
X1798878Y3399891D01*
X1796542Y3399129D01*
X1788312Y3395726D01*
X1786128Y3394608D01*
X1778507Y3389985D01*
X1769668Y3382924D01*
X1640586Y3253892D01*
X1637283Y3251657D01*
X1633372Y3250895D01*
X1387144Y3250895D01*
X1383538Y3251555D01*
X1380388Y3253486D01*
X1378102Y3256432D01*
X1377086Y3259988D01*
X1376273Y3267151D01*
X1374394Y3272637D01*
X1371295Y3277514D01*
X1367231Y3281629D01*
X1362303Y3284677D01*
X1356868Y3286607D01*
X1350518Y3287318D01*
X1203147Y3287318D01*
X1196848Y3286607D01*
X1191361Y3284677D01*
X1186484Y3281629D01*
X1182370Y3277514D01*
X1179322Y3272637D01*
X1177391Y3267151D01*
X1176680Y3260852D01*
X1176680Y3089148D01*
X1177391Y3082848D01*
X1179322Y3077362D01*
X1182370Y3072485D01*
X1186484Y3068370D01*
X1191361Y3065322D01*
X1196848Y3063392D01*
X1203147Y3062681D01*
X1350518Y3062681D01*
X1356868Y3063392D01*
X1362303Y3065322D01*
X1367231Y3068370D01*
X1371295Y3072485D01*
X1374394Y3077362D01*
X1376273Y3082848D01*
X1377086Y3090011D01*
X1378102Y3093567D01*
X1380388Y3096514D01*
X1383538Y3098444D01*
X1387144Y3099104D01*
X1461262Y3099104D01*
X1465173Y3098342D01*
X1468475Y3096107D01*
X1470660Y3092805D01*
X1471422Y3088944D01*
X1470660Y3085033D01*
X1468475Y3081731D01*
X1423009Y3036265D01*
X1419707Y3034080D01*
X1415796Y3033318D01*
X914450Y3033318D01*
X908100Y3032607D01*
X902665Y3030677D01*
X897737Y3027578D01*
X893673Y3023514D01*
X890574Y3018586D01*
X888644Y3013151D01*
X887933Y3006801D01*
X887933Y2397963D01*
X888644Y2391664D01*
X890574Y2386177D01*
X893673Y2381300D01*
X897737Y2377186D01*
X902665Y2374087D01*
X908100Y2372207D01*
X914450Y2371496D01*
X1045819Y2371496D01*
X1049680Y2370683D01*
X1052982Y2368499D01*
X1055166Y2365197D01*
X1055979Y2361336D01*
X1055166Y2357424D01*
X1052982Y2354122D01*
X1023924Y2325065D01*
X1020622Y2322880D01*
X1016762Y2322118D01*
X884682Y2322118D01*
X878332Y2321407D01*
X872896Y2319477D01*
X867968Y2316429D01*
X863904Y2312314D01*
X860806Y2307437D01*
X858926Y2301951D01*
X858215Y2295652D01*
X858215Y2123948D01*
X857961Y2119884D01*
X856386Y2116480D01*
X853694Y2113940D01*
X850290Y2112518D01*
X846937Y2111756D01*
X837996Y2108200D01*
X829767Y2103120D01*
X822553Y2096770D01*
X816457Y2089251D01*
X811784Y2080818D01*
X808583Y2071725D01*
X806958Y2062225D01*
X806958Y2052574D01*
X808583Y2043074D01*
X811784Y2033981D01*
X816457Y2025548D01*
X820419Y2020671D01*
X822096Y2017674D01*
X822706Y2014270D01*
X822706Y1067308D01*
X823518Y1058824D01*
X825855Y1051153D01*
X826617Y1049731D01*
X827786Y1045768D01*
X827227Y1041603D01*
X825093Y1038047D01*
X821740Y1035659D01*
X817625Y1034796D01*
X811784Y1034796D01*
X811784Y973988D01*
X857605Y973988D01*
X857605Y990396D01*
X858367Y994308D01*
X860602Y997610D01*
X863853Y999794D01*
X867765Y1000556D01*
X871626Y999794D01*
X874928Y997610D01*
X1311960Y560578D01*
X1313789Y558038D01*
X1314805Y555091D01*
X1316583Y544423D01*
X1319784Y535381D01*
X1324457Y526948D01*
X1330553Y519430D01*
X1337767Y513080D01*
X1345996Y508000D01*
X1354937Y504443D01*
X1364386Y502412D01*
X1374038Y501954D01*
X1383588Y503224D01*
X1392783Y506018D01*
X1401419Y510387D01*
X1409192Y516128D01*
X1415846Y523087D01*
X1421231Y531063D01*
X1425244Y539851D01*
X1427886Y550011D01*
X1429766Y553821D01*
X1433068Y556514D01*
X1437132Y557631D01*
X1441348Y556971D01*
X1444904Y554634D01*
X1545539Y454050D01*
X1552092Y448614D01*
X1559153Y444855D01*
X1566824Y442518D01*
X1575308Y441706D01*
X1899970Y441706D01*
X1903577Y441045D01*
X1906676Y439166D01*
X1909267Y436880D01*
X1917496Y431800D01*
X1926437Y428243D01*
X1935886Y426212D01*
X1945538Y425754D01*
X1955088Y427024D01*
X1960473Y428650D01*
X1964436Y429056D01*
X1968246Y427888D01*
X1971293Y425399D01*
X1974850Y421030D01*
X1980844Y416153D01*
X1987651Y412546D01*
X1995017Y410260D01*
X2003196Y409498D01*
X2092401Y409498D01*
X2096262Y408686D01*
X2099564Y406501D01*
X2101799Y403199D01*
X2102561Y399338D01*
X2101799Y395427D01*
X2099564Y392125D01*
X2011832Y304393D01*
X2008530Y302158D01*
X2004669Y301396D01*
X1984095Y301396D01*
X1980031Y302260D01*
X1976628Y304647D01*
X1974494Y308203D01*
X1973275Y311708D01*
X1970227Y316585D01*
X1966112Y320700D01*
X1961235Y323799D01*
X1955749Y325678D01*
X1949450Y326390D01*
X1860550Y326390D01*
X1854250Y325678D01*
X1848764Y323799D01*
X1843887Y320700D01*
X1839772Y316585D01*
X1836724Y311708D01*
X1834794Y306222D01*
X1834083Y299923D01*
X1834083Y221081D01*
X1834794Y214731D01*
X1836724Y209296D01*
X1839772Y204368D01*
X1843887Y200304D01*
X1845767Y199085D01*
X1848713Y196291D01*
X1850339Y192532D01*
X1850339Y188468D01*
X1848713Y184708D01*
X1845767Y181914D01*
X1843887Y180695D01*
X1839772Y176631D01*
X1836724Y171704D01*
X1834794Y166268D01*
X1834083Y159918D01*
X1834083Y146862D01*
X1876145Y146862D01*
X1876145Y184404D01*
X1876907Y188315D01*
X1879142Y191617D01*
X1882444Y193802D01*
X1886305Y194564D01*
X1923694Y194564D01*
X1927555Y193802D01*
X1930857Y191617D01*
X1933092Y188315D01*
X1933854Y184404D01*
X1933854Y146862D01*
X1975916Y146862D01*
X1975916Y159918D01*
X1975205Y166268D01*
X1973275Y171704D01*
X1970227Y176631D01*
X1966112Y180695D01*
X1964232Y181914D01*
X1961286Y184708D01*
X1959660Y188468D01*
X1959660Y192532D01*
X1961286Y196291D01*
X1964232Y199085D01*
X1966112Y200304D01*
X1970227Y204368D01*
X1973275Y209296D01*
X1974494Y212801D01*
X1976678Y216357D01*
X1980031Y218744D01*
X1984095Y219608D01*
X2025294Y219608D01*
X2033778Y220421D01*
X2041448Y222758D01*
X2048510Y226517D01*
X2055063Y231952D01*
X2157425Y334264D01*
X2160727Y336499D01*
X2164638Y337261D01*
X2168499Y336499D01*
X2171801Y334264D01*
X2173986Y331012D01*
X2174798Y327101D01*
X2174798Y237896D01*
X2175611Y229717D01*
X2177846Y222351D01*
X2181453Y215544D01*
X2186381Y209600D01*
X2192324Y204673D01*
X2196185Y202641D01*
X2199182Y200152D01*
X2201062Y196748D01*
X2201519Y192887D01*
X2200503Y189128D01*
X2198116Y186029D01*
X2194763Y184099D01*
X2190496Y182575D01*
X2185568Y179527D01*
X2181504Y175412D01*
X2180285Y173532D01*
X2177491Y170586D01*
X2173732Y168960D01*
X2169668Y168960D01*
X2165908Y170586D01*
X2163114Y173532D01*
X2161895Y175412D01*
X2157831Y179527D01*
X2152904Y182575D01*
X2147468Y184505D01*
X2141118Y185216D01*
X2128062Y185216D01*
X2128062Y143154D01*
X2165604Y143154D01*
X2169515Y142392D01*
X2172817Y140157D01*
X2175002Y136855D01*
X2175764Y132994D01*
X2175764Y95605D01*
X2175002Y91744D01*
X2172817Y88442D01*
X2169515Y86207D01*
X2165604Y85445D01*
X2128062Y85445D01*
X2128062Y48768D01*
X2127300Y44856D01*
X2125065Y41605D01*
X2121763Y39370D01*
X2117902Y38608D01*
X2085543Y38608D01*
X2081631Y39370D01*
X2078329Y41605D01*
X2076145Y44856D01*
X2075383Y48768D01*
X2075383Y85445D01*
X2035810Y85445D01*
X2035810Y69850D01*
X2036521Y63550D01*
X2038400Y58064D01*
X2040889Y54152D01*
X2042363Y50139D01*
X2042007Y45821D01*
X2039924Y42062D01*
X2036470Y39522D01*
X2032304Y38608D01*
X1966823Y38608D01*
X1962607Y39522D01*
X1959152Y42164D01*
X1957070Y45974D01*
X1956816Y50292D01*
X1958339Y54356D01*
X1961438Y57353D01*
X1966112Y60299D01*
X1970227Y64414D01*
X1973275Y69291D01*
X1975205Y74777D01*
X1975916Y81076D01*
X1975916Y94183D01*
X1933854Y94183D01*
X1933854Y48768D01*
X1933092Y44856D01*
X1930857Y41605D01*
X1927555Y39370D01*
X1923694Y38608D01*
X1886305Y38608D01*
X1882444Y39370D01*
X1879142Y41605D01*
X1876907Y44856D01*
X1876145Y48768D01*
X1876145Y94183D01*
X1834083Y94183D01*
X1834083Y81076D01*
X1834794Y74777D01*
X1836724Y69291D01*
X1839772Y64414D01*
X1843887Y60299D01*
X1848561Y57353D01*
X1851660Y54356D01*
X1853184Y50292D01*
X1852930Y45974D01*
X1850847Y42164D01*
X1847392Y39522D01*
X1843176Y38608D01*
G37*

%LPC*%
G36*
X1119784Y128879D02*
G01*
X1121968Y129844D01*
X1134973Y137718D01*
X1146962Y147066D01*
X1157681Y157835D01*
X1167079Y169773D01*
X1174902Y182778D01*
X1175918Y184962D01*
X1119784Y184962D01*
G37*
G36*
X1007110Y128879D02*
G01*
X1007110Y184962D01*
X951026Y184962D01*
X951992Y182778D01*
X959866Y169773D01*
X969213Y157835D01*
X979982Y147066D01*
X991920Y137718D01*
X1004976Y129844D01*
G37*
G36*
X2035810Y143154D02*
G01*
X2075383Y143154D01*
X2075383Y185216D01*
X2062276Y185216D01*
X2055977Y184505D01*
X2050491Y182575D01*
X2045614Y179527D01*
X2041499Y175412D01*
X2038400Y170535D01*
X2036521Y165049D01*
X2035810Y158750D01*
G37*
G36*
X951026Y297637D02*
G01*
X1007110Y297637D01*
X1007110Y353720D01*
X1004976Y352755D01*
X991920Y344881D01*
X979982Y335534D01*
X969213Y324764D01*
X959866Y312826D01*
X951992Y299821D01*
G37*
G36*
X1119784Y297637D02*
G01*
X1175918Y297637D01*
X1174902Y299821D01*
X1167079Y312826D01*
X1157681Y324764D01*
X1146962Y335534D01*
X1134973Y344881D01*
X1121968Y352755D01*
X1119784Y353720D01*
G37*
G36*
X811784Y413004D02*
G01*
X831138Y413004D01*
X837437Y413715D01*
X842924Y415594D01*
X847801Y418693D01*
X851916Y422757D01*
X854964Y427685D01*
X856894Y433120D01*
X857605Y439470D01*
X857605Y473811D01*
X811784Y473811D01*
G37*
G36*
X811784Y569010D02*
G01*
X857605Y569010D01*
X857605Y603300D01*
X856894Y609650D01*
X854964Y615086D01*
X851916Y620014D01*
X847801Y624078D01*
X842924Y627176D01*
X837437Y629107D01*
X831138Y629818D01*
X811784Y629818D01*
G37*
G36*
X811784Y817981D02*
G01*
X831138Y817981D01*
X837437Y818692D01*
X842924Y820623D01*
X847801Y823671D01*
X851916Y827786D01*
X854964Y832662D01*
X856894Y838149D01*
X857605Y844448D01*
X857605Y878789D01*
X811784Y878789D01*
G37*
G36*
X1513738Y1200454D02*
G01*
X1523288Y1201724D01*
X1532483Y1204518D01*
X1541119Y1208887D01*
X1548892Y1214628D01*
X1555546Y1221587D01*
X1560931Y1229563D01*
X1564944Y1238351D01*
X1567332Y1247698D01*
X1568196Y1257300D01*
X1567332Y1266901D01*
X1564944Y1276248D01*
X1560931Y1285036D01*
X1552956Y1296822D01*
X1552194Y1300581D01*
X1552194Y1442618D01*
X1552956Y1446377D01*
X1560931Y1458163D01*
X1564944Y1466951D01*
X1567332Y1476298D01*
X1568196Y1485900D01*
X1567332Y1495501D01*
X1564944Y1504848D01*
X1560931Y1513636D01*
X1555546Y1521612D01*
X1548892Y1528572D01*
X1541119Y1534312D01*
X1532483Y1538681D01*
X1523288Y1541475D01*
X1513738Y1542745D01*
X1504086Y1542288D01*
X1494637Y1540256D01*
X1485696Y1536700D01*
X1477467Y1531620D01*
X1470253Y1525270D01*
X1464157Y1517751D01*
X1459484Y1509318D01*
X1456283Y1500225D01*
X1454658Y1490726D01*
X1454658Y1481074D01*
X1456283Y1471574D01*
X1459484Y1462481D01*
X1464157Y1454048D01*
X1468120Y1449171D01*
X1469796Y1446174D01*
X1470406Y1442770D01*
X1470406Y1300429D01*
X1469796Y1297025D01*
X1468120Y1294028D01*
X1464157Y1289151D01*
X1459484Y1280718D01*
X1456283Y1271625D01*
X1454658Y1262126D01*
X1454658Y1252474D01*
X1456283Y1242974D01*
X1459484Y1233881D01*
X1464157Y1225448D01*
X1470253Y1217930D01*
X1477467Y1211580D01*
X1485696Y1206500D01*
X1494637Y1202944D01*
X1504086Y1200912D01*
G37*
G36*
X1513738Y1632254D02*
G01*
X1523288Y1633524D01*
X1532483Y1636318D01*
X1541119Y1640687D01*
X1548892Y1646428D01*
X1555546Y1653387D01*
X1560931Y1661363D01*
X1564944Y1670151D01*
X1567332Y1679498D01*
X1568196Y1689100D01*
X1567332Y1698701D01*
X1564944Y1708048D01*
X1560931Y1716836D01*
X1552956Y1728622D01*
X1552194Y1732381D01*
X1552194Y1874418D01*
X1552956Y1878177D01*
X1560931Y1889963D01*
X1564944Y1898751D01*
X1567332Y1908098D01*
X1568196Y1917700D01*
X1567332Y1927301D01*
X1564944Y1936648D01*
X1560931Y1945436D01*
X1555546Y1953412D01*
X1548892Y1960372D01*
X1541119Y1966112D01*
X1532483Y1970481D01*
X1523288Y1973275D01*
X1513738Y1974545D01*
X1504086Y1974088D01*
X1494637Y1972056D01*
X1485696Y1968500D01*
X1477467Y1963420D01*
X1470253Y1957070D01*
X1464157Y1949551D01*
X1459484Y1941118D01*
X1456283Y1932025D01*
X1454658Y1922525D01*
X1454658Y1912874D01*
X1456283Y1903374D01*
X1459484Y1894281D01*
X1464157Y1885848D01*
X1468120Y1880971D01*
X1469796Y1877974D01*
X1470406Y1874570D01*
X1470406Y1732229D01*
X1469796Y1728825D01*
X1468120Y1725828D01*
X1464157Y1720951D01*
X1459484Y1712518D01*
X1456283Y1703425D01*
X1454658Y1693925D01*
X1454658Y1684274D01*
X1456283Y1674774D01*
X1459484Y1665681D01*
X1464157Y1657248D01*
X1470253Y1649730D01*
X1477467Y1643380D01*
X1485696Y1638300D01*
X1494637Y1634744D01*
X1504086Y1632712D01*
G37*
G36*
X3050438Y1632254D02*
G01*
X3059988Y1633524D01*
X3069183Y1636318D01*
X3077819Y1640687D01*
X3085592Y1646428D01*
X3092246Y1653387D01*
X3097631Y1661363D01*
X3101644Y1670151D01*
X3104032Y1679498D01*
X3104896Y1689100D01*
X3104032Y1698701D01*
X3101644Y1708048D01*
X3097631Y1716836D01*
X3089656Y1728622D01*
X3088894Y1732381D01*
X3088894Y1874418D01*
X3089656Y1878177D01*
X3097631Y1889963D01*
X3101644Y1898751D01*
X3104032Y1908098D01*
X3104896Y1917700D01*
X3104032Y1927301D01*
X3101644Y1936648D01*
X3097631Y1945436D01*
X3092246Y1953412D01*
X3085592Y1960372D01*
X3077819Y1966112D01*
X3069183Y1970481D01*
X3059988Y1973275D01*
X3050438Y1974545D01*
X3040786Y1974088D01*
X3031337Y1972056D01*
X3022396Y1968500D01*
X3014167Y1963420D01*
X3006953Y1957070D01*
X3000857Y1949551D01*
X2996184Y1941118D01*
X2992983Y1932025D01*
X2991358Y1922525D01*
X2991358Y1912874D01*
X2992983Y1903374D01*
X2996184Y1894281D01*
X3000857Y1885848D01*
X3004820Y1880971D01*
X3006496Y1877974D01*
X3007106Y1874570D01*
X3007106Y1732229D01*
X3006496Y1728825D01*
X3004820Y1725828D01*
X3000857Y1720951D01*
X2996184Y1712518D01*
X2992983Y1703425D01*
X2991358Y1693925D01*
X2991358Y1684274D01*
X2992983Y1674774D01*
X2996184Y1665681D01*
X3000857Y1657248D01*
X3006953Y1649730D01*
X3014167Y1643380D01*
X3022396Y1638300D01*
X3031337Y1634744D01*
X3040786Y1632712D01*
G37*
G36*
X2059838Y1632254D02*
G01*
X2069388Y1633524D01*
X2078583Y1636318D01*
X2087219Y1640687D01*
X2094992Y1646428D01*
X2101646Y1653387D01*
X2107031Y1661363D01*
X2111044Y1670151D01*
X2113432Y1679498D01*
X2114296Y1689100D01*
X2113432Y1698701D01*
X2111044Y1708048D01*
X2107031Y1716836D01*
X2099056Y1728622D01*
X2098294Y1732381D01*
X2098294Y1874418D01*
X2099056Y1878177D01*
X2107031Y1889963D01*
X2111044Y1898751D01*
X2113432Y1908098D01*
X2114296Y1917700D01*
X2113432Y1927301D01*
X2111044Y1936648D01*
X2107031Y1945436D01*
X2101646Y1953412D01*
X2094992Y1960372D01*
X2087219Y1966112D01*
X2078583Y1970481D01*
X2069388Y1973275D01*
X2059838Y1974545D01*
X2050186Y1974088D01*
X2040737Y1972056D01*
X2031796Y1968500D01*
X2023567Y1963420D01*
X2016353Y1957070D01*
X2010257Y1949551D01*
X2005584Y1941118D01*
X2002383Y1932025D01*
X2000757Y1922525D01*
X2000757Y1912874D01*
X2002383Y1903374D01*
X2005584Y1894281D01*
X2010257Y1885848D01*
X2014220Y1880971D01*
X2015896Y1877974D01*
X2016506Y1874570D01*
X2016506Y1732229D01*
X2015896Y1728825D01*
X2014220Y1725828D01*
X2010257Y1720951D01*
X2005584Y1712518D01*
X2002383Y1703425D01*
X2000757Y1693925D01*
X2000757Y1684274D01*
X2002383Y1674774D01*
X2005584Y1665681D01*
X2010257Y1657248D01*
X2016353Y1649730D01*
X2023567Y1643380D01*
X2031796Y1638300D01*
X2040737Y1634744D01*
X2050186Y1632712D01*
G37*
G36*
X3050438Y2064054D02*
G01*
X3059988Y2065324D01*
X3069183Y2068118D01*
X3077819Y2072487D01*
X3085592Y2078228D01*
X3092246Y2085187D01*
X3097631Y2093163D01*
X3101644Y2101951D01*
X3104032Y2111298D01*
X3104896Y2120900D01*
X3104032Y2130501D01*
X3101644Y2139848D01*
X3097631Y2148636D01*
X3089656Y2160422D01*
X3088894Y2164181D01*
X3088894Y2306218D01*
X3089656Y2309977D01*
X3097631Y2321763D01*
X3101644Y2330551D01*
X3104032Y2339898D01*
X3104896Y2349500D01*
X3104032Y2359101D01*
X3101644Y2368448D01*
X3097631Y2377236D01*
X3092246Y2385212D01*
X3085592Y2392172D01*
X3077819Y2397912D01*
X3069183Y2402281D01*
X3059988Y2405075D01*
X3050438Y2406345D01*
X3040786Y2405888D01*
X3031337Y2403856D01*
X3022396Y2400300D01*
X3014167Y2395220D01*
X3006953Y2388870D01*
X3000857Y2381351D01*
X2996184Y2372918D01*
X2992983Y2363825D01*
X2991358Y2354326D01*
X2991358Y2344674D01*
X2992983Y2335174D01*
X2996184Y2326081D01*
X3000857Y2317648D01*
X3004820Y2312771D01*
X3006496Y2309774D01*
X3007106Y2306370D01*
X3007106Y2164029D01*
X3006496Y2160625D01*
X3004820Y2157628D01*
X3000857Y2152751D01*
X2996184Y2144318D01*
X2992983Y2135225D01*
X2991358Y2125726D01*
X2991358Y2116074D01*
X2992983Y2106574D01*
X2996184Y2097481D01*
X3000857Y2089048D01*
X3006953Y2081530D01*
X3014167Y2075180D01*
X3022396Y2070100D01*
X3031337Y2066543D01*
X3040786Y2064512D01*
G37*
G36*
X2059838Y2064054D02*
G01*
X2069388Y2065324D01*
X2078583Y2068118D01*
X2087219Y2072487D01*
X2094992Y2078228D01*
X2101646Y2085187D01*
X2107031Y2093163D01*
X2111044Y2101951D01*
X2113432Y2111298D01*
X2114296Y2120900D01*
X2113432Y2130501D01*
X2111044Y2139848D01*
X2107031Y2148636D01*
X2099056Y2160422D01*
X2098294Y2164181D01*
X2098294Y2306218D01*
X2099056Y2309977D01*
X2107742Y2322982D01*
X2110943Y2326081D01*
X2115159Y2327452D01*
X2119579Y2326944D01*
X2123338Y2324608D01*
X2131466Y2316632D01*
X2155647Y2295550D01*
X2181047Y2275992D01*
X2207615Y2258009D01*
X2232507Y2243328D01*
X2232507Y2446070D01*
X2029815Y2446070D01*
X2032101Y2441752D01*
X2046122Y2418791D01*
X2047544Y2414676D01*
X2047138Y2410307D01*
X2044852Y2406548D01*
X2041245Y2404110D01*
X2031796Y2400300D01*
X2023567Y2395220D01*
X2016353Y2388870D01*
X2010257Y2381351D01*
X2005584Y2372918D01*
X2002383Y2363825D01*
X2000757Y2354326D01*
X2000757Y2344674D01*
X2002383Y2335174D01*
X2005584Y2326081D01*
X2010257Y2317648D01*
X2014220Y2312771D01*
X2015896Y2309774D01*
X2016506Y2306370D01*
X2016506Y2164029D01*
X2015896Y2160625D01*
X2014220Y2157628D01*
X2010257Y2152751D01*
X2005584Y2144318D01*
X2002383Y2135225D01*
X2000757Y2125726D01*
X2000757Y2116074D01*
X2002383Y2106574D01*
X2005584Y2097481D01*
X2010257Y2089048D01*
X2016353Y2081530D01*
X2023567Y2075180D01*
X2031796Y2070100D01*
X2040737Y2066543D01*
X2050186Y2064512D01*
G37*
G36*
X1203147Y2097481D02*
G01*
X1233373Y2097481D01*
X1233373Y2160270D01*
X1176680Y2160270D01*
X1176680Y2123948D01*
X1177391Y2117648D01*
X1179322Y2112162D01*
X1182370Y2107285D01*
X1186484Y2103170D01*
X1191361Y2100122D01*
X1196848Y2098192D01*
G37*
G36*
X1320342Y2097481D02*
G01*
X1350518Y2097481D01*
X1356868Y2098192D01*
X1362303Y2100122D01*
X1367231Y2103170D01*
X1371295Y2107285D01*
X1374394Y2112162D01*
X1376273Y2117648D01*
X1376984Y2123948D01*
X1376984Y2160270D01*
X1320342Y2160270D01*
G37*
G36*
X4158234Y2124608D02*
G01*
X4167073Y2127453D01*
X4180230Y2133650D01*
X4192524Y2141423D01*
X4203750Y2150719D01*
X4213707Y2161336D01*
X4222242Y2173122D01*
X4228134Y2183841D01*
X4158234Y2183841D01*
G37*
G36*
X4020565Y2124608D02*
G01*
X4020565Y2183841D01*
X3950665Y2183841D01*
X3956558Y2173122D01*
X3965092Y2161336D01*
X3975049Y2150719D01*
X3986276Y2141423D01*
X3998569Y2133650D01*
X4011726Y2127453D01*
G37*
G36*
X2745232Y2243480D02*
G01*
X2756458Y2249678D01*
X2783535Y2266797D01*
X2809544Y2285593D01*
X2834386Y2305913D01*
X2857906Y2327706D01*
X2880055Y2350922D01*
X2900730Y2375408D01*
X2919933Y2401112D01*
X2937510Y2427986D01*
X2947822Y2446070D01*
X2745232Y2446070D01*
G37*
G36*
X1320342Y2259330D02*
G01*
X1376984Y2259330D01*
X1376984Y2295652D01*
X1376273Y2301951D01*
X1374394Y2307437D01*
X1371295Y2312314D01*
X1367231Y2316429D01*
X1362303Y2319477D01*
X1356868Y2321407D01*
X1350518Y2322118D01*
X1320342Y2322118D01*
G37*
G36*
X3950665Y2286558D02*
G01*
X4020565Y2286558D01*
X4020565Y2345791D01*
X4011726Y2342946D01*
X3998569Y2336749D01*
X3986276Y2328976D01*
X3975049Y2319680D01*
X3965092Y2309063D01*
X3956558Y2297277D01*
G37*
G36*
X4158234Y2286558D02*
G01*
X4228134Y2286558D01*
X4222242Y2297277D01*
X4213707Y2309063D01*
X4203750Y2319680D01*
X4192524Y2328976D01*
X4180230Y2336749D01*
X4167073Y2342946D01*
X4158234Y2345791D01*
G37*
G36*
X4167682Y2534513D02*
G01*
X4186986Y2534513D01*
X4186986Y2595321D01*
X4141165Y2595321D01*
X4141165Y2560980D01*
X4141876Y2554681D01*
X4143806Y2549194D01*
X4146905Y2544318D01*
X4150969Y2540203D01*
X4155897Y2537104D01*
X4161332Y2535224D01*
G37*
G36*
X4141165Y2690520D02*
G01*
X4186986Y2690520D01*
X4186986Y2751328D01*
X4167682Y2751328D01*
X4161332Y2750616D01*
X4155897Y2748686D01*
X4150969Y2745638D01*
X4146905Y2741523D01*
X4143806Y2736646D01*
X4141876Y2731160D01*
X4141165Y2724861D01*
G37*
G36*
X4167682Y2939491D02*
G01*
X4186986Y2939491D01*
X4186986Y3000298D01*
X4141165Y3000298D01*
X4141165Y2965958D01*
X4141876Y2959658D01*
X4143806Y2954172D01*
X4146905Y2949295D01*
X4150969Y2945180D01*
X4155897Y2942132D01*
X4161332Y2940202D01*
G37*
G36*
X2745232Y2958744D02*
G01*
X2947822Y2958744D01*
X2937510Y2976829D01*
X2919933Y3003702D01*
X2900730Y3029407D01*
X2880055Y3053892D01*
X2857906Y3077108D01*
X2834386Y3098901D01*
X2809544Y3119221D01*
X2783535Y3138017D01*
X2756458Y3155137D01*
X2745232Y3161334D01*
G37*
G36*
X2029815Y2958744D02*
G01*
X2232507Y2958744D01*
X2232507Y3161487D01*
X2207615Y3146755D01*
X2181047Y3128822D01*
X2155647Y3109264D01*
X2131466Y3088182D01*
X2108606Y3065678D01*
X2087168Y3041802D01*
X2067204Y3016707D01*
X2048814Y2990392D01*
X2032101Y2963011D01*
G37*
G36*
X1001826Y3062681D02*
G01*
X1032052Y3062681D01*
X1038352Y3063392D01*
X1043838Y3065322D01*
X1048715Y3068370D01*
X1052830Y3072485D01*
X1055878Y3077362D01*
X1057808Y3082848D01*
X1058519Y3089148D01*
X1058519Y3125470D01*
X1001826Y3125470D01*
G37*
G36*
X884682Y3062681D02*
G01*
X914857Y3062681D01*
X914857Y3125470D01*
X858215Y3125470D01*
X858215Y3089148D01*
X858926Y3082848D01*
X860806Y3077362D01*
X863904Y3072485D01*
X867968Y3068370D01*
X872896Y3065322D01*
X878332Y3063392D01*
G37*
G36*
X4141165Y3095498D02*
G01*
X4186986Y3095498D01*
X4186986Y3156305D01*
X4167682Y3156305D01*
X4161332Y3155594D01*
X4155897Y3153714D01*
X4150969Y3150616D01*
X4146905Y3146501D01*
X4143806Y3141624D01*
X4141876Y3136138D01*
X4141165Y3129838D01*
G37*
G36*
X1001826Y3224530D02*
G01*
X1058519Y3224530D01*
X1058519Y3260852D01*
X1057808Y3267151D01*
X1055878Y3272637D01*
X1052830Y3277514D01*
X1048715Y3281629D01*
X1043838Y3284677D01*
X1038352Y3286607D01*
X1032052Y3287318D01*
X1001826Y3287318D01*
G37*
G36*
X858215Y3224530D02*
G01*
X914857Y3224530D01*
X914857Y3287318D01*
X884682Y3287318D01*
X878332Y3286607D01*
X872896Y3284677D01*
X867968Y3281629D01*
X863904Y3277514D01*
X860806Y3272637D01*
X858926Y3267151D01*
X858215Y3260852D01*
G37*
G36*
X1116482Y3356305D02*
G01*
X1118616Y3357270D01*
X1131620Y3365144D01*
X1143609Y3374542D01*
X1154328Y3385261D01*
X1163726Y3397250D01*
X1171600Y3410254D01*
X1172565Y3412388D01*
X1116482Y3412388D01*
G37*
G36*
X1003757Y3356305D02*
G01*
X1003757Y3412388D01*
X947674Y3412388D01*
X948639Y3410254D01*
X956513Y3397250D01*
X965860Y3385261D01*
X976630Y3374542D01*
X988618Y3365144D01*
X1001623Y3357270D01*
G37*
G36*
X3996232Y3356457D02*
G01*
X3998366Y3357422D01*
X4011371Y3365296D01*
X4023360Y3374694D01*
X4034129Y3385413D01*
X4043476Y3397402D01*
X4051350Y3410407D01*
X4052315Y3412540D01*
X3996232Y3412540D01*
G37*
G36*
X3883558Y3356457D02*
G01*
X3883558Y3412540D01*
X3827424Y3412540D01*
X3828389Y3410407D01*
X3836263Y3397402D01*
X3845661Y3385413D01*
X3856380Y3374694D01*
X3868369Y3365296D01*
X3881374Y3357422D01*
G37*
G36*
X947674Y3525113D02*
G01*
X1003757Y3525113D01*
X1003757Y3581196D01*
X1001623Y3580231D01*
X988618Y3572357D01*
X976630Y3562959D01*
X965860Y3552240D01*
X956513Y3540251D01*
X948639Y3527247D01*
G37*
G36*
X1116482Y3525113D02*
G01*
X1172565Y3525113D01*
X1171600Y3527247D01*
X1163726Y3540251D01*
X1154328Y3552240D01*
X1143609Y3562959D01*
X1131620Y3572357D01*
X1118616Y3580231D01*
X1116482Y3581196D01*
G37*
G36*
X3827424Y3525265D02*
G01*
X3883558Y3525265D01*
X3883558Y3581349D01*
X3881374Y3580384D01*
X3868369Y3572510D01*
X3856380Y3563162D01*
X3845661Y3552393D01*
X3836263Y3540404D01*
X3828389Y3527399D01*
G37*
G36*
X3996232Y3525265D02*
G01*
X4052315Y3525265D01*
X4051350Y3527399D01*
X4043476Y3540404D01*
X4034129Y3552393D01*
X4023360Y3563162D01*
X4011371Y3572510D01*
X3998366Y3580384D01*
X3996232Y3581349D01*
G37*

%LPD*%
D10*
X3708400Y609600D02*
G01*
X4254500Y1155700D01*
X4254500Y1562100D01*
X4089400Y1727200D01*
D11*
X1276857Y3175000D02*
G01*
X1669034Y3175000D01*
X1821434Y3327400D01*
X1199207Y2705100D02*
G01*
X1821434Y3327400D01*
X2786123Y3327400D01*
X3153841Y3327400D01*
X3778859Y2702382D01*
D10*
X4089400Y1219200D02*
G01*
X3975100Y1104900D01*
X3975100Y990600D01*
X3238500Y254000D01*
X3022600Y254000D01*
X2101595Y114300D02*
G01*
X2180843Y193547D01*
X2390647Y193547D01*
X2414270Y217170D01*
X2414270Y298957D01*
X2664206Y298907D02*
G01*
X2664206Y149605D01*
X2628900Y114300D01*
X2572004Y108204D02*
G01*
X2578100Y114300D01*
X2761995Y114300D01*
X2614193Y298907D02*
G01*
X2614193Y213893D01*
X2590800Y190500D01*
X2514295Y190500D01*
X2431897Y108102D01*
X2431897Y108102D02*
G01*
X2425700Y114300D01*
X2241699Y114300D01*
X4089400Y1473200D02*
G01*
X3797300Y1181100D01*
X2984500Y1181100D01*
X2832100Y1333500D01*
X2825899Y1333500D01*
X2825902Y1333500D02*
G01*
X2764205Y1271803D01*
X2764205Y1148892D01*
X2914192Y448894D02*
G01*
X2827705Y448894D01*
X2764205Y512394D01*
X2764205Y1148892D01*
X2197100Y863600D02*
G01*
X2214194Y880694D01*
X2214194Y1148892D01*
X2264156Y1148842D02*
G01*
X2260600Y609600D01*
X2247900Y558800D01*
X2311400Y482600D02*
G01*
X2314191Y485391D01*
X2314191Y1148890D01*
X2247900Y1409700D02*
G01*
X2364206Y1293393D01*
X2364206Y1148892D01*
X3898900Y1003300D02*
G01*
X3568700Y673100D01*
X2197100Y774700D02*
G01*
X2171293Y748893D01*
X2064207Y748893D01*
X2197100Y673100D02*
G01*
X2171293Y698906D01*
X2064207Y698906D01*
X1943100Y800100D02*
G01*
X2064258Y798829D01*
X2414193Y1148892D02*
G01*
X2413000Y1147698D01*
X2413000Y1028700D01*
X2564206Y1148892D02*
G01*
X2565400Y1147698D01*
X2565400Y1041400D01*
X2565400Y1028700D01*
X2464208Y1148890D02*
G01*
X2464208Y1333091D01*
X2390216Y1407083D01*
X2311400Y1485900D01*
X2057400Y1485900D01*
X2514193Y1148892D02*
G01*
X2514193Y1333093D01*
X2667000Y1485900D01*
X3048000Y1485900D01*
X3136900Y686663D02*
G01*
X3099130Y648893D01*
X2914192Y648893D01*
X3136900Y374497D02*
G01*
X3062503Y448894D01*
X2914192Y448894D01*
X1905000Y260502D02*
G01*
X2025802Y260502D01*
X2184400Y419100D01*
X2336800Y419100D01*
X2364209Y391690D01*
X2364209Y298909D01*
X2064207Y998905D02*
G01*
X2027910Y1035202D01*
X1854200Y1035202D01*
X3594100Y1485900D02*
G01*
X3594100Y1257300D01*
X3594100Y1917700D02*
G01*
X3594100Y1689100D01*
X3594100Y2349500D02*
G01*
X3594100Y2120900D01*
X3048000Y1485900D02*
G01*
X3048000Y1257300D01*
X3048000Y1917700D02*
G01*
X3048000Y1689100D01*
X3048000Y2349500D02*
G01*
X3048000Y2120900D01*
X2057400Y1485900D02*
G01*
X2057400Y1257300D01*
X2057400Y1917700D02*
G01*
X2057400Y1689100D01*
X2057400Y2349500D02*
G01*
X2057400Y2120900D01*
X1511300Y1485900D02*
G01*
X1511300Y1257300D01*
X1511300Y1917700D02*
G01*
X1511300Y1689100D01*
X1504114Y2343477D02*
G01*
X1504114Y2129391D01*
X4089400Y1981200D02*
G01*
X3708400Y1600200D01*
X3517900Y1600200D01*
X3441700Y1600200D01*
X3365500Y1524000D01*
X3302000Y1460500D01*
X3238500Y1397000D01*
X3238500Y1244600D01*
X3238500Y1092200D02*
G01*
X3145205Y998905D01*
X2914192Y998905D01*
X2664206Y1148892D02*
G01*
X2664206Y609600D01*
X2364206Y298907D02*
G01*
X2364206Y395706D01*
X2480894Y512394D01*
X2764205Y512394D01*
X3022600Y254000D02*
G01*
X2946400Y254000D01*
X2755900Y444500D01*
X2527300Y444500D01*
X2464308Y380492D01*
X2464308Y298957D01*
X1181100Y1003300D02*
G01*
X1535506Y648893D01*
X2064207Y648893D01*
X779195Y926386D02*
G01*
X779195Y926386D01*
X779195Y521385D01*
X779195Y926386D02*
G01*
X779195Y926386D01*
X779195Y521385D01*
X927100Y1625600D02*
G01*
X927100Y1130300D01*
X1574800Y482600D01*
X1943100Y482600D01*
X1371600Y558800D02*
G01*
X863600Y1066800D01*
X863600Y2057400D01*
D11*
X958342Y2209800D02*
G01*
X1016000Y2209800D01*
X1198879Y2392679D01*
X1198879Y2702382D01*
D10*
X1854200Y1035304D02*
G01*
X1485900Y1028700D01*
X1298702Y1028700D01*
X1016000Y1311402D01*
X1016000Y2209800D01*
X958342Y2209800D01*
D12*
G01*
X958349Y3175000D03*
G01*
X1276850Y3175000D03*
D13*
G01*
X958349Y2209800D03*
G01*
X1276850Y2209800D03*
D14*
G01*
X1198860Y2702391D03*
G01*
X3778855Y2702391D03*
D15*
G01*
X2488869Y2702382D03*
D16*
G01*
X2902099Y114300D03*
G01*
X2762100Y114300D03*
G01*
X2101700Y114300D03*
G01*
X2241699Y114300D03*
D17*
G01*
X2764205Y298907D03*
G01*
X2714193Y298907D03*
G01*
X2664206Y298907D03*
G01*
X2614193Y298907D03*
G01*
X2564206Y298907D03*
G01*
X2514193Y298907D03*
G01*
X2464206Y298907D03*
G01*
X2414193Y298907D03*
G01*
X2364206Y298907D03*
G01*
X2314193Y298907D03*
G01*
X2264206Y298907D03*
G01*
X2214194Y298907D03*
D19*
G01*
X2064207Y448894D03*
G01*
X2064207Y498906D03*
G01*
X2064207Y548894D03*
G01*
X2064207Y598906D03*
G01*
X2064207Y648893D03*
G01*
X2064207Y698906D03*
G01*
X2064207Y748893D03*
G01*
X2064207Y798906D03*
G01*
X2064207Y848893D03*
G01*
X2064207Y898905D03*
G01*
X2064207Y948893D03*
G01*
X2064207Y998905D03*
D17*
G01*
X2214194Y1148892D03*
G01*
X2264206Y1148892D03*
G01*
X2314193Y1148892D03*
G01*
X2364206Y1148892D03*
G01*
X2414193Y1148892D03*
G01*
X2464206Y1148892D03*
G01*
X2514193Y1148892D03*
G01*
X2564206Y1148892D03*
G01*
X2614193Y1148892D03*
G01*
X2664206Y1148892D03*
G01*
X2714193Y1148892D03*
G01*
X2764205Y1148892D03*
D19*
G01*
X2914192Y998905D03*
G01*
X2914192Y948893D03*
G01*
X2914192Y898905D03*
G01*
X2914192Y848893D03*
G01*
X2914192Y798906D03*
G01*
X2914192Y748893D03*
G01*
X2914192Y698906D03*
G01*
X2914192Y648893D03*
G01*
X2914192Y598906D03*
G01*
X2914192Y548894D03*
G01*
X2914192Y498906D03*
G01*
X2914192Y448894D03*
D20*
G01*
X3136900Y374500D03*
G01*
X3136900Y514499D03*
D21*
G01*
X1905000Y260499D03*
G01*
X1905000Y120500D03*
D16*
G01*
X2825899Y1333500D03*
G01*
X2685900Y1333500D03*
D21*
G01*
X1854200Y1035199D03*
G01*
X1854200Y895200D03*
D22*
G01*
X3136900Y686663D03*
D23*
G01*
X3136900Y837324D03*
D11*
G01*
X2431897Y108102D03*
G01*
X2571902Y108102D03*
D24*
G01*
X4089400Y2235200D03*
G01*
X4089400Y1473200D03*
G01*
X4089400Y1727200D03*
G01*
X4089400Y1981200D03*
G01*
X4089400Y1219200D03*
D25*
G01*
X4219600Y2642895D03*
G01*
X4219600Y3047898D03*
G01*
X4219905Y521411D03*
G01*
X4219905Y926414D03*
G01*
X779195Y926388D03*
G01*
X779195Y521385D03*
D26*
G01*
X3937000Y241300D03*
G01*
X1063447Y241300D03*
G01*
X1060119Y3468751D03*
G01*
X3939895Y3468903D03*
D27*
G01*
X1504111Y2343480D03*
G01*
X1504111Y2129383D03*
G01*
X1511300Y1917700D03*
G01*
X1511300Y1689100D03*
G01*
X1511300Y1485900D03*
G01*
X1511300Y1257300D03*
G01*
X2057400Y2349500D03*
G01*
X2057400Y2120900D03*
G01*
X2057400Y1917700D03*
G01*
X2057400Y1689100D03*
G01*
X2057400Y1485900D03*
G01*
X2057400Y1257300D03*
G01*
X3048000Y2349500D03*
G01*
X3048000Y2120900D03*
G01*
X3048000Y1917700D03*
G01*
X3048000Y1689100D03*
G01*
X3048000Y1485900D03*
G01*
X3048000Y1257300D03*
G01*
X3594100Y2349500D03*
G01*
X3594100Y2120900D03*
G01*
X3594100Y1917700D03*
G01*
X3594100Y1689100D03*
G01*
X3594100Y1485900D03*
G01*
X3594100Y1257300D03*
G01*
X2565400Y1028700D03*
G01*
X2413000Y1028700D03*
G01*
X1943100Y800100D03*
G01*
X2197100Y774700D03*
G01*
X3568700Y673100D03*
G01*
X2197100Y673100D03*
G01*
X3898900Y1003300D03*
G01*
X2247900Y1409700D03*
G01*
X927100Y1625600D03*
G01*
X1943100Y482600D03*
G01*
X2311400Y482600D03*
G01*
X2247900Y558800D03*
G01*
X1371600Y558800D03*
G01*
X863600Y2057400D03*
G01*
X2197100Y863600D03*
G01*
X2764205Y948207D03*
G01*
X1485900Y1028700D03*
G01*
X3238500Y1244600D03*
G01*
X3238500Y1092200D03*
G01*
X2664206Y609600D03*
G01*
X3708400Y609600D03*
D28*
G01*
X2057400Y3327400D03*
G01*
X1181100Y1003300D03*
D27*
G01*
X1574800Y723900D03*
D28*
G01*
X3276600Y419100D03*
G01*
X2946400Y1409700D03*
M02*
