G04 Layer: TopSilkscreenLayer*
G04 EasyEDA v6.5.54, 2026-05-23 11:16:10*
G04 e4d8c5f1b0d74a6491579a26eca31a7d,8f4c1f16700a4a4892e3ae02f8365818,10*
G04 Gerber Generator version 0.2*
G04 Scale: 100 percent, Rotated: No, Reflected: No *
G04 Dimensions in millimeters *
G04 leading zeros omitted , absolute positions ,4 integer and 5 decimal *
%FSLAX45Y45*%
%MOMM*%

%ADD10C,0.2032*%
%ADD11C,0.1524*%
%ADD12C,0.2540*%
%ADD13C,0.1500*%
%ADD14C,0.2030*%
%ADD15C,0.1520*%
%ADD16C,0.0142*%

%LPD*%
G36*
X2477719Y2108250D02*
G01*
X2470454Y2107793D01*
X2463800Y2106930D01*
X2459075Y2106015D01*
X2452725Y2104440D01*
X2446985Y2102612D01*
X2440279Y2099970D01*
X2434996Y2097481D01*
X2426919Y2092960D01*
X2418638Y2087168D01*
X2412796Y2082292D01*
X2406497Y2076094D01*
X2402433Y2071522D01*
X2398471Y2066391D01*
X2394915Y2061159D01*
X2391105Y2054656D01*
X2388209Y2048865D01*
X2385161Y2041347D01*
X2383434Y2036165D01*
X2381605Y2029256D01*
X2380132Y2021027D01*
X2379573Y2016252D01*
X2379218Y2010765D01*
X2379268Y2002028D01*
X2379726Y1996643D01*
X2380691Y1989734D01*
X2382672Y1980844D01*
X2385212Y1972970D01*
X2387193Y1967992D01*
X2389581Y1962861D01*
X2392984Y1956612D01*
X2396540Y1950974D01*
X2400300Y1945893D01*
X2404211Y1941271D01*
X2409545Y1935734D01*
X2413762Y1931924D01*
X2418842Y1927860D01*
X2424074Y1924202D01*
X2430373Y1920443D01*
X2434793Y1918157D01*
X2440787Y1915515D01*
X2448001Y1912874D01*
X2453894Y1911197D01*
X2459939Y1909927D01*
X2466949Y1908911D01*
X2476093Y1908251D01*
X2484475Y1908505D01*
X2490470Y1909013D01*
X2495905Y1909876D01*
X2503068Y1911400D01*
X2509824Y1913382D01*
X2516784Y1916023D01*
X2523388Y1919071D01*
X2531465Y1923592D01*
X2536647Y1927047D01*
X2542235Y1931314D01*
X2546858Y1935429D01*
X2552852Y1941474D01*
X2557830Y1947367D01*
X2561742Y1952701D01*
X2565349Y1958390D01*
X2568803Y1964791D01*
X2571851Y1971497D01*
X2573680Y1976374D01*
X2575407Y1981860D01*
X2576779Y1987296D01*
X2578100Y1994357D01*
X2578709Y1998929D01*
X2579116Y2004314D01*
X2579217Y2013051D01*
X2578557Y2021179D01*
X2577744Y2026818D01*
X2575306Y2037232D01*
X2572664Y2045004D01*
X2570175Y2050897D01*
X2567381Y2056536D01*
X2563926Y2062429D01*
X2559964Y2068220D01*
X2556357Y2072843D01*
X2550160Y2079599D01*
X2545638Y2083816D01*
X2539542Y2088692D01*
X2534310Y2092350D01*
X2530500Y2094738D01*
X2525674Y2097379D01*
X2520238Y2099970D01*
X2513838Y2102510D01*
X2507132Y2104644D01*
X2499918Y2106371D01*
X2494432Y2107285D01*
X2486710Y2108047D01*
G37*
G36*
X2477719Y1676450D02*
G01*
X2470454Y1675993D01*
X2463800Y1675130D01*
X2459075Y1674215D01*
X2452725Y1672640D01*
X2446985Y1670812D01*
X2440279Y1668170D01*
X2434996Y1665681D01*
X2426919Y1661160D01*
X2418638Y1655368D01*
X2412796Y1650492D01*
X2406497Y1644294D01*
X2402433Y1639722D01*
X2398471Y1634591D01*
X2394915Y1629359D01*
X2391105Y1622856D01*
X2388209Y1617065D01*
X2385161Y1609547D01*
X2383434Y1604365D01*
X2381605Y1597456D01*
X2380132Y1589227D01*
X2379573Y1584452D01*
X2379218Y1578965D01*
X2379268Y1570228D01*
X2379726Y1564843D01*
X2380691Y1557934D01*
X2382672Y1549044D01*
X2385212Y1541170D01*
X2387193Y1536192D01*
X2389581Y1531061D01*
X2392984Y1524812D01*
X2396540Y1519174D01*
X2400300Y1514094D01*
X2404211Y1509471D01*
X2409545Y1503934D01*
X2413762Y1500124D01*
X2418842Y1496060D01*
X2424074Y1492402D01*
X2430373Y1488643D01*
X2434793Y1486357D01*
X2440787Y1483715D01*
X2448001Y1481074D01*
X2453894Y1479397D01*
X2459939Y1478127D01*
X2466949Y1477111D01*
X2476093Y1476451D01*
X2484475Y1476705D01*
X2490470Y1477213D01*
X2495905Y1478076D01*
X2503068Y1479600D01*
X2509824Y1481582D01*
X2516784Y1484223D01*
X2523388Y1487271D01*
X2531465Y1491792D01*
X2536647Y1495247D01*
X2542235Y1499514D01*
X2546858Y1503629D01*
X2552852Y1509674D01*
X2557830Y1515567D01*
X2561742Y1520901D01*
X2565349Y1526590D01*
X2568803Y1532991D01*
X2571851Y1539697D01*
X2573680Y1544574D01*
X2575407Y1550060D01*
X2576779Y1555496D01*
X2578100Y1562557D01*
X2578709Y1567129D01*
X2579116Y1572514D01*
X2579217Y1581251D01*
X2578557Y1589379D01*
X2577744Y1595018D01*
X2575306Y1605432D01*
X2572664Y1613204D01*
X2570175Y1619097D01*
X2567381Y1624736D01*
X2563926Y1630629D01*
X2559964Y1636420D01*
X2556357Y1641043D01*
X2550160Y1647799D01*
X2545638Y1652016D01*
X2539542Y1656892D01*
X2534310Y1660550D01*
X2530500Y1662938D01*
X2525674Y1665579D01*
X2520238Y1668170D01*
X2513838Y1670710D01*
X2507132Y1672843D01*
X2499918Y1674571D01*
X2494432Y1675485D01*
X2486710Y1676247D01*
G37*
G36*
X2487523Y926541D02*
G01*
X2484831Y926033D01*
X2483154Y925271D01*
X2481732Y924306D01*
X2480360Y922985D01*
X2478684Y920343D01*
X2478024Y917803D01*
X2478024Y914806D01*
X2478735Y912368D01*
X2479852Y910539D01*
X2480818Y909421D01*
X2482291Y908202D01*
X2483815Y907338D01*
X2486660Y906576D01*
X2489454Y906678D01*
X2492298Y907592D01*
X2494076Y908761D01*
X2495600Y910234D01*
X2497175Y912876D01*
X2497836Y915619D01*
X2497734Y918514D01*
X2497378Y919937D01*
X2496515Y921715D01*
X2495550Y923086D01*
X2492806Y925321D01*
X2491181Y926033D01*
X2489250Y926439D01*
G37*
G36*
X2487625Y964336D02*
G01*
X2485034Y963879D01*
X2483154Y963066D01*
X2481021Y961491D01*
X2479649Y959866D01*
X2478430Y957376D01*
X2478074Y956157D01*
X2477973Y953312D01*
X2478582Y950671D01*
X2479243Y949248D01*
X2480360Y947724D01*
X2481478Y946607D01*
X2484221Y944981D01*
X2485847Y944524D01*
X2488438Y944321D01*
X2489911Y944524D01*
X2492908Y945692D01*
X2495397Y947724D01*
X2496870Y949960D01*
X2497429Y951280D01*
X2497836Y953058D01*
X2497836Y955598D01*
X2497632Y956818D01*
X2496972Y958697D01*
X2495296Y961186D01*
X2492806Y963117D01*
X2489962Y964133D01*
G37*
G36*
X1264564Y742188D02*
G01*
X1216273Y642518D01*
X1303172Y642518D01*
X1303324Y654253D01*
X1316685Y654405D01*
X1316888Y678942D01*
X1317396Y679704D01*
X1328674Y679551D01*
X1328676Y678891D01*
X1521155Y678891D01*
X1521815Y679704D01*
X1532737Y679551D01*
X1532743Y678180D01*
X1642008Y678180D01*
X1642414Y679704D01*
X1653793Y679704D01*
X1653793Y612495D01*
X1654505Y612495D01*
X1698091Y654354D01*
X1715312Y654354D01*
X1715312Y653897D01*
X1685493Y625551D01*
X1682445Y622960D01*
X1682445Y621944D01*
X1701940Y599338D01*
X1761743Y599338D01*
X1761743Y653999D01*
X1762150Y654405D01*
X1773631Y654253D01*
X1773834Y598170D01*
X1774443Y596036D01*
X1775968Y593445D01*
X1778457Y591058D01*
X1782368Y589127D01*
X1812848Y589127D01*
X1816862Y591007D01*
X1819656Y593598D01*
X1821129Y596138D01*
X1821891Y598170D01*
X1822196Y654253D01*
X1833778Y654405D01*
X1833778Y646582D01*
X1888947Y646582D01*
X1888947Y650748D01*
X1890166Y653999D01*
X1892757Y656640D01*
X1895144Y657809D01*
X1896922Y658215D01*
X1900123Y658317D01*
X1903475Y657098D01*
X1906016Y655066D01*
X1907590Y652119D01*
X1908251Y648614D01*
X1907692Y646074D01*
X1906727Y643788D01*
X1903984Y640892D01*
X1900885Y639470D01*
X1896059Y639470D01*
X1893214Y640740D01*
X1890420Y643331D01*
X1888947Y646582D01*
X1833778Y646582D01*
X1833727Y597712D01*
X1888642Y597712D01*
X1889048Y600557D01*
X1890115Y603097D01*
X1892706Y605891D01*
X1895144Y607161D01*
X1897227Y607618D01*
X1901037Y607364D01*
X1903628Y606196D01*
X1906168Y603910D01*
X1907590Y601472D01*
X1908080Y599287D01*
X1961896Y599287D01*
X1961896Y679297D01*
X1962302Y679704D01*
X1973224Y679704D01*
X1973986Y678992D01*
X1973986Y654354D01*
X2011527Y654354D01*
X2015134Y653745D01*
X2019046Y652475D01*
X2022602Y650697D01*
X2026716Y647700D01*
X2030069Y643991D01*
X2032254Y639826D01*
X2033778Y634644D01*
X2033981Y598779D01*
X2033320Y594868D01*
X2032101Y591210D01*
X2030018Y587197D01*
X2025548Y582371D01*
X2019960Y578967D01*
X2014524Y577088D01*
X1984502Y576834D01*
X1980438Y577494D01*
X1976780Y578662D01*
X1973529Y580288D01*
X1969922Y582879D01*
X1967026Y585927D01*
X1964689Y589584D01*
X1962861Y594004D01*
X1961896Y599287D01*
X1908080Y599287D01*
X1908352Y597966D01*
X1907590Y594817D01*
X1906676Y593039D01*
X1904593Y590499D01*
X1900682Y588568D01*
X1896008Y588619D01*
X1892706Y590092D01*
X1890166Y592683D01*
X1889252Y594664D01*
X1888642Y597712D01*
X1833727Y597712D01*
X1832813Y593344D01*
X1831136Y589635D01*
X1828139Y585165D01*
X1824583Y581914D01*
X1821129Y579678D01*
X1816455Y577850D01*
X1813458Y577037D01*
X1781200Y577037D01*
X1774901Y579323D01*
X1770938Y581660D01*
X1767078Y585470D01*
X1763623Y591210D01*
X1762556Y594563D01*
X1761743Y599338D01*
X1701940Y599338D01*
X1721053Y577494D01*
X1721053Y576884D01*
X1706016Y576884D01*
X1673910Y613359D01*
X1673199Y613359D01*
X1653793Y594868D01*
X1653793Y576884D01*
X1642414Y576884D01*
X1642059Y577748D01*
X1642008Y678180D01*
X1532743Y678180D01*
X1533042Y612343D01*
X1533550Y612444D01*
X1577441Y654354D01*
X1594713Y654354D01*
X1594713Y653846D01*
X1561388Y622452D01*
X1562303Y620979D01*
X1600454Y577240D01*
X1600454Y576884D01*
X1585468Y576884D01*
X1552956Y613359D01*
X1552346Y613359D01*
X1533042Y595071D01*
X1532737Y577037D01*
X1521307Y577037D01*
X1521155Y678891D01*
X1328676Y678891D01*
X1328826Y654354D01*
X1358392Y654354D01*
X1358188Y642366D01*
X1328826Y642010D01*
X1328826Y598424D01*
X1329121Y597560D01*
X1401978Y597560D01*
X1402334Y604266D01*
X1403045Y607212D01*
X1405331Y612140D01*
X1408074Y615696D01*
X1411325Y618642D01*
X1415440Y621080D01*
X1418742Y622401D01*
X1423314Y623366D01*
X1461871Y623620D01*
X1462430Y624179D01*
X1462125Y633425D01*
X1461363Y635558D01*
X1459636Y638098D01*
X1457604Y640080D01*
X1454759Y641502D01*
X1452575Y642061D01*
X1413306Y642213D01*
X1412595Y642670D01*
X1412595Y653440D01*
X1413002Y654405D01*
X1454099Y654202D01*
X1458010Y653135D01*
X1462938Y650748D01*
X1467358Y647446D01*
X1470710Y643229D01*
X1472590Y639470D01*
X1473962Y634949D01*
X1473962Y577037D01*
X1420622Y577037D01*
X1415135Y578967D01*
X1410716Y581558D01*
X1406753Y585470D01*
X1404569Y588822D01*
X1402994Y592683D01*
X1401978Y597560D01*
X1329121Y597560D01*
X1330096Y594563D01*
X1334109Y590550D01*
X1337716Y589127D01*
X1358188Y588822D01*
X1358188Y577037D01*
X1336802Y577037D01*
X1332128Y578408D01*
X1329283Y579729D01*
X1325524Y582066D01*
X1321003Y586892D01*
X1318920Y590905D01*
X1317447Y595426D01*
X1316736Y599998D01*
X1316786Y641756D01*
X1316583Y641959D01*
X1303782Y642162D01*
X1303172Y642518D01*
X1216273Y642518D01*
X1150213Y507746D01*
X1144930Y496570D01*
X1144930Y495503D01*
X2034743Y495350D01*
X2047392Y497027D01*
X2057349Y499516D01*
X2066137Y502412D01*
X2072690Y505206D01*
X2080564Y509168D01*
X2085644Y512165D01*
X2094128Y517753D01*
X2102002Y524052D01*
X2109622Y531215D01*
X2115159Y537260D01*
X2119528Y542696D01*
X2124557Y549757D01*
X2129332Y557631D01*
X2133650Y566216D01*
X2136444Y572820D01*
X2140102Y583692D01*
X2142134Y591515D01*
X2143404Y597865D01*
X2144318Y605078D01*
X2144928Y613918D01*
X2144877Y741070D01*
X2144471Y741730D01*
G37*
G36*
X2010613Y642315D02*
G01*
X1981962Y642213D01*
X1974138Y641858D01*
X1973986Y598017D01*
X1975205Y594664D01*
X1978558Y591058D01*
X1982571Y589127D01*
X2013000Y589127D01*
X2016506Y590499D01*
X2020265Y594055D01*
X2021586Y596646D01*
X2022246Y599084D01*
X2022043Y633425D01*
X2020417Y636879D01*
X2017674Y639826D01*
X2014677Y641451D01*
G37*
G36*
X1423619Y611225D02*
G01*
X1421384Y610666D01*
X1418285Y609142D01*
X1415592Y606399D01*
X1414018Y602996D01*
X1413764Y597560D01*
X1415034Y594258D01*
X1417777Y591108D01*
X1421841Y589127D01*
X1462024Y588924D01*
X1462379Y590296D01*
X1462227Y611124D01*
G37*
G36*
X2980588Y699109D02*
G01*
X2977540Y699008D01*
X2966059Y697992D01*
X2964992Y697534D01*
X2952394Y694639D01*
X2951835Y694080D01*
X2950616Y694080D01*
X2943199Y690829D01*
X2936036Y687222D01*
X2931058Y683920D01*
X2921406Y676300D01*
X2916021Y671017D01*
X2911602Y665734D01*
X2899206Y666191D01*
X2893161Y665530D01*
X2883509Y663651D01*
X2879547Y662482D01*
X2878886Y661924D01*
X2877921Y661924D01*
X2869895Y658164D01*
X2869539Y657809D01*
X2866339Y656082D01*
X2861310Y652830D01*
X2855976Y648512D01*
X2853029Y645617D01*
X2845765Y636981D01*
X2845765Y636168D01*
X2845054Y636168D01*
X2845054Y635508D01*
X2843022Y632409D01*
X2838704Y623112D01*
X2836570Y616305D01*
X2835402Y610971D01*
X2834436Y600252D01*
X2835706Y588416D01*
X2837637Y580593D01*
X2838196Y579882D01*
X2838704Y577392D01*
X2843072Y568401D01*
X2843631Y568198D01*
X2843631Y567334D01*
X2848102Y561035D01*
X2851658Y556666D01*
X2858230Y550316D01*
X2908604Y550316D01*
X2909824Y555193D01*
X2911957Y559003D01*
X2915310Y562203D01*
X2918764Y563930D01*
X2919984Y563930D01*
X2920695Y564591D01*
X2922828Y564946D01*
X2928467Y564692D01*
X2929229Y564032D01*
X2931566Y563524D01*
X2931566Y562965D01*
X2933395Y562508D01*
X2937967Y557885D01*
X2938424Y556107D01*
X2939084Y556107D01*
X2939542Y553212D01*
X2940151Y552805D01*
X2940151Y546963D01*
X2939084Y543864D01*
X2936646Y540105D01*
X2933649Y537210D01*
X2929991Y535279D01*
X2924606Y534365D01*
X2918663Y535381D01*
X2914954Y537616D01*
X2911043Y541934D01*
X2909519Y545185D01*
X2908604Y550316D01*
X2858230Y550316D01*
X2864205Y545896D01*
X2868371Y543204D01*
X2869336Y543204D01*
X2869539Y542696D01*
X2879547Y538226D01*
X2881680Y537768D01*
X2882442Y537210D01*
X2885135Y536752D01*
X2886608Y533196D01*
X2888996Y528726D01*
X2890469Y526389D01*
X2894431Y521462D01*
X2898546Y517855D01*
X2902102Y515315D01*
X2902915Y515315D01*
X2903169Y514705D01*
X2909570Y511759D01*
X2917444Y509473D01*
X2930347Y509422D01*
X2939592Y511708D01*
X2945688Y514756D01*
X2945942Y515315D01*
X2946806Y515315D01*
X2951429Y518668D01*
X2957576Y524814D01*
X2960827Y529793D01*
X2964078Y536346D01*
X2964586Y539089D01*
X2965145Y539800D01*
X2966008Y545185D01*
X2966313Y553770D01*
X3001213Y571449D01*
X3001975Y571449D01*
X3002178Y572008D01*
X3020771Y581304D01*
X3021126Y581710D01*
X3022650Y582218D01*
X3023920Y583590D01*
X3019196Y591515D01*
X3019196Y591921D01*
X3016554Y596290D01*
X3015945Y596544D01*
X3015945Y597357D01*
X3011830Y604113D01*
X3010662Y604824D01*
X3007918Y603453D01*
X3007563Y603097D01*
X2956052Y577138D01*
X2955340Y577189D01*
X2950362Y581863D01*
X2946552Y584403D01*
X2940202Y587552D01*
X2939745Y587552D01*
X2937459Y588568D01*
X2933903Y589381D01*
X2924251Y590804D01*
X2920339Y590397D01*
X2914599Y589381D01*
X2911043Y588518D01*
X2910332Y587908D01*
X2909214Y587908D01*
X2902102Y584200D01*
X2901746Y583742D01*
X2898851Y582015D01*
X2896057Y579526D01*
X2891332Y574497D01*
X2888792Y570941D01*
X2885795Y565251D01*
X2885795Y564337D01*
X2885084Y563880D01*
X2881680Y565505D01*
X2876702Y568756D01*
X2871673Y573481D01*
X2869184Y576275D01*
X2865882Y581304D01*
X2863291Y586790D01*
X2863291Y587756D01*
X2862630Y588416D01*
X2861818Y592023D01*
X2861106Y597001D01*
X2861360Y608584D01*
X2862122Y609549D01*
X2862630Y612902D01*
X2863291Y613308D01*
X2863291Y614476D01*
X2865526Y619201D01*
X2869539Y625246D01*
X2875788Y631342D01*
X2879191Y633730D01*
X2882798Y635914D01*
X2885084Y636981D01*
X2893415Y639826D01*
X2903169Y640588D01*
X2910840Y639724D01*
X2912668Y639013D01*
X2914243Y639013D01*
X2916174Y638048D01*
X2918358Y637540D01*
X2922473Y635355D01*
X2923133Y634746D01*
X2924302Y634746D01*
X2925572Y637794D01*
X2929229Y645261D01*
X2930144Y646226D01*
X2930144Y646938D01*
X2931058Y647903D01*
X2935224Y653491D01*
X2941066Y659231D01*
X2943199Y661009D01*
X2948533Y664565D01*
X2955340Y668020D01*
X2960116Y670153D01*
X2961132Y670153D01*
X2961792Y670763D01*
X2965348Y671626D01*
X2971088Y672642D01*
X2980080Y673455D01*
X2987903Y672642D01*
X2997200Y670763D01*
X2997860Y670153D01*
X2998825Y670153D01*
X3003600Y668020D01*
X3005328Y667562D01*
X3014370Y662127D01*
X3018282Y658876D01*
X3023920Y653135D01*
X3026918Y649224D01*
X3030169Y644194D01*
X3032658Y639572D01*
X3034487Y634542D01*
X3036316Y627786D01*
X3037281Y623112D01*
X3047593Y622706D01*
X3051505Y621436D01*
X3053791Y620420D01*
X3054553Y620420D01*
X3054553Y619709D01*
X3055721Y619709D01*
X3058312Y618134D01*
X3058668Y617728D01*
X3060547Y616559D01*
X3064662Y612749D01*
X3067659Y608838D01*
X3069386Y605586D01*
X3069945Y605383D01*
X3069945Y604621D01*
X3070961Y602386D01*
X3072180Y598474D01*
X3072892Y591108D01*
X3072130Y584758D01*
X3070961Y580948D01*
X3068777Y576275D01*
X3066542Y573074D01*
X3062630Y568706D01*
X3058312Y565556D01*
X3055467Y563981D01*
X3047593Y560984D01*
X3020771Y560730D01*
X3017926Y559917D01*
X3014726Y558495D01*
X3011424Y555193D01*
X3010255Y553059D01*
X3009138Y550265D01*
X3009188Y545541D01*
X3010255Y542493D01*
X3011932Y539800D01*
X3014726Y537210D01*
X3020771Y534822D01*
X3047238Y534822D01*
X3054400Y536092D01*
X3058312Y537210D01*
X3060598Y538226D01*
X3061563Y538226D01*
X3062274Y538835D01*
X3066897Y540461D01*
X3067253Y540867D01*
X3070453Y542594D01*
X3076194Y546354D01*
X3077921Y547878D01*
X3078378Y547878D01*
X3084118Y553415D01*
X3088182Y558596D01*
X3091688Y563778D01*
X3093770Y567690D01*
X3096412Y573938D01*
X3096412Y574700D01*
X3097072Y575919D01*
X3099054Y585571D01*
X3099054Y596646D01*
X3098190Y602742D01*
X3095701Y610971D01*
X3093262Y616508D01*
X3089249Y623316D01*
X3085846Y627786D01*
X3079750Y633882D01*
X3075838Y637133D01*
X3072434Y639368D01*
X3071723Y639368D01*
X3071723Y639978D01*
X3059277Y645820D01*
X3058566Y645820D01*
X3054451Y654558D01*
X3050844Y660654D01*
X3050286Y660908D01*
X3050286Y661619D01*
X3044799Y668883D01*
X3038297Y675690D01*
X3035096Y678586D01*
X3030728Y681888D01*
X3022650Y687324D01*
X3015081Y691235D01*
X3009341Y693674D01*
X3006852Y694182D01*
X3006140Y694740D01*
X3003092Y695248D01*
X3002737Y695807D01*
X2998825Y696264D01*
X2998419Y696874D01*
X2994660Y697382D01*
X2993593Y697941D01*
G37*
G36*
X3152140Y658317D02*
G01*
X3150819Y656183D01*
X3150362Y650087D01*
X3149701Y648157D01*
X3136036Y549808D01*
X3134258Y535940D01*
X3134614Y534974D01*
X3207207Y534974D01*
X3207613Y535686D01*
X3208832Y535686D01*
X3211677Y537210D01*
X3213862Y539445D01*
X3215081Y541375D01*
X3216148Y544474D01*
X3216148Y547116D01*
X3214928Y551129D01*
X3210966Y555294D01*
X3208477Y556615D01*
X3161842Y556818D01*
X3161436Y558393D01*
X3165398Y585927D01*
X3165957Y588416D01*
X3213150Y588822D01*
X3215741Y589889D01*
X3219094Y592023D01*
X3221532Y595731D01*
X3222091Y599897D01*
X3221532Y604012D01*
X3220313Y605942D01*
X3218129Y608380D01*
X3215386Y610108D01*
X3212033Y611124D01*
X3169259Y611124D01*
X3172561Y635812D01*
X3221990Y635812D01*
X3222802Y636422D01*
X3224936Y636930D01*
X3227273Y638708D01*
X3228746Y640283D01*
X3230168Y643128D01*
X3230778Y646480D01*
X3230067Y650900D01*
X3228238Y653846D01*
X3226714Y655320D01*
X3224225Y657148D01*
X3218942Y658317D01*
G37*
G36*
X3530854Y657656D02*
G01*
X3530396Y656945D01*
X3521456Y593090D01*
X3520795Y589534D01*
X3513683Y537667D01*
X3513175Y535432D01*
X3513937Y534974D01*
X3586022Y534974D01*
X3589223Y536194D01*
X3591763Y537768D01*
X3594049Y540359D01*
X3594049Y541375D01*
X3594760Y541578D01*
X3595522Y545541D01*
X3595065Y549097D01*
X3593642Y551992D01*
X3590696Y555091D01*
X3587800Y556615D01*
X3541522Y556818D01*
X3540912Y558038D01*
X3544976Y587756D01*
X3545484Y588619D01*
X3591864Y588619D01*
X3596995Y590804D01*
X3600500Y594410D01*
X3600500Y595630D01*
X3601313Y596442D01*
X3601669Y601319D01*
X3600196Y605434D01*
X3598164Y607822D01*
X3595014Y609904D01*
X3591763Y611124D01*
X3548989Y611124D01*
X3548583Y612190D01*
X3552088Y635609D01*
X3601770Y636016D01*
X3604514Y637032D01*
X3607917Y640080D01*
X3610000Y644144D01*
X3609898Y649224D01*
X3607003Y654202D01*
X3606393Y654862D01*
X3602482Y657453D01*
G37*
G36*
X3632657Y657606D02*
G01*
X3632352Y656742D01*
X3626612Y614883D01*
X3625900Y612038D01*
X3624478Y599541D01*
X3623716Y596290D01*
X3623056Y590245D01*
X3618593Y558495D01*
X3643020Y558495D01*
X3653332Y633476D01*
X3654145Y635914D01*
X3667963Y635457D01*
X3676904Y633577D01*
X3678732Y633018D01*
X3682847Y631088D01*
X3687572Y628192D01*
X3692448Y623468D01*
X3696157Y618490D01*
X3698849Y612597D01*
X3698849Y611276D01*
X3699510Y610616D01*
X3700373Y604875D01*
X3700678Y593445D01*
X3699256Y585927D01*
X3698443Y582726D01*
X3697732Y582015D01*
X3697732Y581050D01*
X3696309Y577900D01*
X3693922Y573938D01*
X3687927Y567080D01*
X3682288Y562914D01*
X3676294Y560019D01*
X3672992Y558901D01*
X3669334Y558190D01*
X3660394Y557530D01*
X3653586Y556768D01*
X3643426Y556818D01*
X3643020Y558495D01*
X3618593Y558495D01*
X3615537Y535584D01*
X3616096Y534974D01*
X3661257Y534974D01*
X3662172Y535279D01*
X3672535Y536092D01*
X3685082Y538886D01*
X3694023Y542594D01*
X3698646Y545439D01*
X3703320Y549097D01*
X3709415Y555193D01*
X3713022Y559816D01*
X3715258Y563270D01*
X3715258Y563880D01*
X3715867Y564134D01*
X3720592Y573786D01*
X3722420Y578764D01*
X3724605Y587705D01*
X3725468Y598830D01*
X3724605Y609904D01*
X3722878Y617016D01*
X3721658Y620776D01*
X3720084Y624738D01*
X3716934Y630986D01*
X3711956Y637794D01*
X3705453Y644245D01*
X3702151Y646887D01*
X3701643Y646887D01*
X3699103Y649020D01*
X3690772Y652932D01*
X3682949Y655167D01*
X3672535Y656894D01*
X3665423Y657606D01*
G37*
G36*
X3783685Y657606D02*
G01*
X3782618Y656386D01*
X3761689Y618490D01*
X3761130Y617778D01*
X3716324Y536498D01*
X3716324Y535432D01*
X3717493Y534974D01*
X3740099Y535025D01*
X3741775Y535889D01*
X3755034Y560171D01*
X3756151Y561441D01*
X3804564Y561441D01*
X3805478Y559460D01*
X3811371Y535990D01*
X3812184Y535178D01*
X3832707Y534974D01*
X3834333Y535381D01*
X3834333Y538022D01*
X3832910Y544118D01*
X3832402Y545185D01*
X3830726Y552348D01*
X3830065Y553770D01*
X3827475Y564845D01*
X3818686Y598881D01*
X3817874Y600405D01*
X3816959Y600405D01*
X3816299Y599744D01*
X3803954Y593090D01*
X3802430Y588060D01*
X3801313Y585419D01*
X3800754Y585419D01*
X3800348Y584047D01*
X3796995Y580593D01*
X3793744Y578358D01*
X3791254Y577189D01*
X3788054Y576173D01*
X3784092Y575716D01*
X3779469Y576427D01*
X3776218Y577240D01*
X3771849Y579678D01*
X3768344Y583082D01*
X3766921Y584911D01*
X3764534Y590042D01*
X3764026Y595884D01*
X3764584Y600557D01*
X3766921Y605586D01*
X3769868Y608838D01*
X3771950Y610616D01*
X3775557Y612851D01*
X3780332Y614426D01*
X3788918Y614121D01*
X3789781Y613308D01*
X3790797Y613308D01*
X3795522Y611073D01*
X3805885Y616661D01*
X3806240Y617016D01*
X3811879Y619912D01*
X3812895Y621436D01*
X3811422Y627786D01*
X3810762Y629208D01*
X3803853Y657098D01*
X3803040Y657606D01*
G37*
G36*
X3272485Y628243D02*
G01*
X3264611Y626973D01*
X3260852Y626110D01*
X3260445Y625449D01*
X3259378Y625449D01*
X3251403Y621690D01*
X3251149Y621131D01*
X3250438Y621131D01*
X3247796Y619150D01*
X3245561Y617778D01*
X3240278Y613105D01*
X3236823Y609193D01*
X3232353Y602386D01*
X3228695Y594817D01*
X3228695Y593648D01*
X3228035Y593293D01*
X3227578Y590651D01*
X3226917Y589534D01*
X3226104Y585216D01*
X3225342Y576072D01*
X3225506Y574395D01*
X3248660Y574395D01*
X3249015Y581660D01*
X3249777Y585927D01*
X3250946Y589178D01*
X3252114Y591667D01*
X3255264Y596646D01*
X3260699Y602183D01*
X3261512Y602183D01*
X3262477Y603097D01*
X3266744Y605332D01*
X3271723Y606856D01*
X3274618Y606907D01*
X3277463Y607466D01*
X3284423Y606501D01*
X3287522Y605485D01*
X3291636Y603250D01*
X3295040Y600252D01*
X3297224Y597357D01*
X3299460Y592378D01*
X3300577Y586486D01*
X3300323Y579526D01*
X3299409Y574852D01*
X3298748Y574192D01*
X3298748Y573074D01*
X3297377Y570230D01*
X3297326Y569671D01*
X3293973Y564134D01*
X3291941Y562000D01*
X3291941Y561543D01*
X3286760Y557123D01*
X3281781Y554685D01*
X3275685Y553262D01*
X3266389Y553212D01*
X3262122Y554685D01*
X3257702Y556920D01*
X3254248Y560222D01*
X3252114Y563067D01*
X3249828Y568045D01*
X3248660Y574395D01*
X3225506Y574395D01*
X3226104Y567690D01*
X3226968Y563422D01*
X3227527Y562711D01*
X3228035Y560324D01*
X3229051Y558393D01*
X3229051Y557834D01*
X3232302Y551230D01*
X3236264Y546100D01*
X3241040Y541172D01*
X3243986Y538937D01*
X3244748Y538937D01*
X3244748Y538327D01*
X3249980Y535787D01*
X3255314Y533958D01*
X3259632Y533095D01*
X3265322Y532587D01*
X3273552Y532942D01*
X3274263Y533501D01*
X3277108Y534009D01*
X3277819Y534568D01*
X3280156Y535025D01*
X3284626Y537260D01*
X3291078Y541578D01*
X3293922Y544271D01*
X3294634Y544271D01*
X3296412Y542645D01*
X3302152Y538327D01*
X3306826Y536092D01*
X3314293Y534771D01*
X3315817Y535432D01*
X3317341Y549452D01*
X3318052Y553059D01*
X3323844Y601675D01*
X3323488Y605637D01*
X3321304Y609193D01*
X3318256Y610971D01*
X3316122Y611479D01*
X3307740Y611479D01*
X3303574Y617016D01*
X3300374Y620268D01*
X3297174Y622808D01*
X3293414Y625043D01*
X3291433Y625551D01*
X3290722Y626059D01*
X3281426Y627989D01*
G37*
G36*
X3370783Y628243D02*
G01*
X3366008Y627329D01*
X3361842Y626110D01*
X3356864Y623824D01*
X3356508Y623417D01*
X3353104Y621436D01*
X3348278Y616661D01*
X3344875Y609549D01*
X3343910Y603097D01*
X3345078Y595223D01*
X3347110Y590956D01*
X3350158Y586282D01*
X3358997Y578053D01*
X3371494Y568909D01*
X3375456Y565556D01*
X3377234Y562711D01*
X3377184Y558749D01*
X3376320Y557123D01*
X3372205Y554482D01*
X3363671Y554228D01*
X3358845Y555904D01*
X3358845Y556463D01*
X3357930Y556463D01*
X3353257Y559460D01*
X3347465Y565404D01*
X3345992Y565404D01*
X3345434Y564388D01*
X3333089Y550672D01*
X3333089Y549402D01*
X3339693Y543052D01*
X3345434Y538886D01*
X3349142Y536702D01*
X3353765Y534619D01*
X3355136Y534619D01*
X3355644Y534111D01*
X3360064Y533196D01*
X3366515Y532485D01*
X3372967Y533146D01*
X3378657Y534009D01*
X3379368Y534619D01*
X3380333Y534619D01*
X3386734Y537565D01*
X3390087Y540207D01*
X3392627Y542696D01*
X3395167Y545896D01*
X3397656Y550164D01*
X3399586Y554685D01*
X3400348Y560832D01*
X3399586Y567690D01*
X3398418Y570941D01*
X3396284Y575208D01*
X3393948Y578053D01*
X3389731Y582371D01*
X3386531Y585266D01*
X3380333Y590042D01*
X3379876Y590042D01*
X3378911Y590956D01*
X3369564Y597916D01*
X3367633Y600964D01*
X3367582Y604418D01*
X3370326Y606856D01*
X3371545Y606856D01*
X3372307Y607618D01*
X3376879Y607314D01*
X3380079Y606348D01*
X3384397Y603808D01*
X3389477Y598830D01*
X3391408Y596138D01*
X3392830Y597154D01*
X3396691Y603097D01*
X3397808Y604469D01*
X3397808Y605078D01*
X3398570Y605942D01*
X3402787Y612495D01*
X3402787Y613410D01*
X3399891Y617118D01*
X3396030Y620776D01*
X3391915Y623671D01*
X3386531Y626110D01*
X3378657Y628040D01*
G37*
G36*
X3414572Y626160D02*
G01*
X3414572Y623671D01*
X3415233Y623316D01*
X3415741Y620725D01*
X3416350Y619556D01*
X3418992Y610971D01*
X3419551Y610260D01*
X3420059Y607568D01*
X3420618Y607212D01*
X3421075Y604367D01*
X3421684Y603961D01*
X3422142Y601116D01*
X3422751Y600760D01*
X3423259Y597916D01*
X3423869Y597560D01*
X3424326Y594360D01*
X3424885Y594360D01*
X3425393Y591464D01*
X3425951Y591108D01*
X3426460Y588264D01*
X3427069Y587908D01*
X3427526Y585063D01*
X3428136Y584657D01*
X3428593Y581812D01*
X3429203Y581456D01*
X3429660Y578612D01*
X3430270Y578256D01*
X3430727Y575411D01*
X3431336Y575005D01*
X3431794Y572160D01*
X3432403Y571804D01*
X3432911Y568960D01*
X3433470Y568604D01*
X3433978Y565759D01*
X3434537Y565353D01*
X3435045Y562508D01*
X3435604Y562152D01*
X3436112Y559308D01*
X3436721Y558952D01*
X3437178Y556107D01*
X3437788Y555701D01*
X3438245Y552856D01*
X3438804Y552500D01*
X3439312Y549808D01*
X3439922Y549097D01*
X3440125Y547319D01*
X3438906Y545541D01*
X3438906Y544626D01*
X3438194Y544626D01*
X3437737Y542848D01*
X3437178Y542848D01*
X3436670Y541324D01*
X3431743Y533146D01*
X3431743Y532790D01*
X3426053Y523240D01*
X3426053Y522478D01*
X3425393Y522478D01*
X3424986Y521208D01*
X3416757Y507390D01*
X3416757Y506984D01*
X3414572Y503428D01*
X3414776Y501904D01*
X3437636Y501751D01*
X3439617Y503529D01*
X3439617Y504190D01*
X3450336Y522071D01*
X3450336Y522833D01*
X3450894Y522833D01*
X3452672Y526237D01*
X3453587Y527151D01*
X3453587Y527812D01*
X3464306Y545642D01*
X3464306Y546404D01*
X3464814Y546404D01*
X3466795Y550011D01*
X3467049Y550164D01*
X3468725Y553567D01*
X3469132Y553567D01*
X3470503Y556260D01*
X3478225Y569264D01*
X3478225Y570026D01*
X3478784Y570026D01*
X3480562Y573582D01*
X3481120Y573582D01*
X3481120Y574395D01*
X3491128Y591058D01*
X3491128Y591820D01*
X3491788Y591820D01*
X3492246Y593648D01*
X3492754Y593648D01*
X3494024Y596290D01*
X3502914Y611073D01*
X3502914Y611835D01*
X3503472Y611835D01*
X3505250Y615238D01*
X3506114Y616204D01*
X3506114Y616813D01*
X3511143Y625195D01*
X3510787Y626160D01*
X3486607Y626160D01*
X3484321Y622604D01*
X3483813Y621334D01*
X3482492Y619556D01*
X3481730Y617575D01*
X3481120Y617575D01*
X3481120Y616813D01*
X3467150Y593547D01*
X3467150Y593191D01*
X3459276Y580085D01*
X3459276Y579577D01*
X3457600Y577342D01*
X3457092Y575767D01*
X3456432Y575767D01*
X3456432Y574802D01*
X3454704Y572922D01*
X3454196Y575716D01*
X3453637Y576122D01*
X3453129Y578967D01*
X3452571Y579323D01*
X3452063Y582168D01*
X3451504Y582523D01*
X3450996Y585216D01*
X3450488Y585927D01*
X3442462Y610260D01*
X3441852Y611327D01*
X3441344Y613816D01*
X3440785Y614527D01*
X3440277Y617016D01*
X3439718Y617778D01*
X3439160Y620268D01*
X3438651Y620979D01*
X3438144Y623265D01*
X3436721Y626160D01*
G37*
G36*
X3785666Y603656D02*
G01*
X3782314Y603605D01*
X3779469Y602234D01*
X3778199Y601218D01*
X3776065Y597001D01*
X3776065Y594055D01*
X3777996Y590346D01*
X3780180Y588670D01*
X3783380Y587552D01*
X3785158Y587603D01*
X3788410Y588822D01*
X3789883Y589889D01*
X3792321Y593445D01*
X3792220Y597560D01*
X3790950Y600252D01*
X3788867Y602234D01*
G37*
G36*
X3086862Y470103D02*
G01*
X3081477Y468782D01*
X3078327Y467156D01*
X3074365Y463550D01*
X3071469Y459536D01*
X3070606Y457911D01*
X3070606Y457250D01*
X3069996Y456895D01*
X3067050Y450850D01*
X3066755Y449376D01*
X3070352Y449376D01*
X3071215Y450291D01*
X3071215Y450748D01*
X3072739Y452424D01*
X3072739Y453288D01*
X3075025Y456184D01*
X3075635Y457606D01*
X3076498Y457911D01*
X3076752Y458978D01*
X3077311Y458978D01*
X3078124Y459892D01*
X3078683Y459079D01*
X3078429Y457555D01*
X3078022Y447903D01*
X3077159Y445312D01*
X3076752Y438404D01*
X3075432Y432409D01*
X3075736Y430479D01*
X3075432Y427482D01*
X3075076Y429056D01*
X3075330Y433070D01*
X3074263Y435965D01*
X3074009Y439064D01*
X3072739Y443077D01*
X3072485Y444754D01*
X3071672Y445211D01*
X3071672Y446836D01*
X3071266Y448614D01*
X3070352Y449376D01*
X3066745Y449326D01*
X3066186Y448665D01*
X3064256Y444500D01*
X3062071Y441299D01*
X3059633Y437083D01*
X3058972Y435051D01*
X3057855Y433171D01*
X3055416Y433171D01*
X3052470Y433882D01*
X3026308Y434949D01*
X3019348Y435609D01*
X3017824Y435051D01*
X3017723Y433425D01*
X3019094Y432054D01*
X3020618Y431292D01*
X3027832Y431292D01*
X3032556Y432358D01*
X3046272Y430733D01*
X3052013Y429818D01*
X3054807Y429818D01*
X3057753Y429259D01*
X3059785Y424637D01*
X3060344Y423926D01*
X3061055Y420827D01*
X3061716Y410362D01*
X3061055Y404164D01*
X3060372Y399897D01*
X3063900Y399897D01*
X3063900Y413715D01*
X3064662Y414832D01*
X3064662Y416001D01*
X3065119Y417372D01*
X3065932Y417372D01*
X3067659Y416458D01*
X3070453Y416661D01*
X3071418Y417931D01*
X3071469Y418693D01*
X3072587Y419252D01*
X3074009Y423062D01*
X3074263Y424840D01*
X3074873Y423926D01*
X3074212Y410616D01*
X3074432Y407416D01*
X3079191Y407416D01*
X3079343Y415493D01*
X3079902Y417576D01*
X3080156Y419963D01*
X3080562Y431139D01*
X3081020Y432257D01*
X3081274Y436626D01*
X3081528Y437032D01*
X3081782Y443738D01*
X3082493Y444906D01*
X3083102Y453440D01*
X3084017Y454710D01*
X3084220Y457962D01*
X3084779Y458876D01*
X3085439Y461365D01*
X3085693Y464058D01*
X3087065Y464769D01*
X3089605Y464464D01*
X3095548Y464362D01*
X3102356Y463905D01*
X3104591Y464159D01*
X3105556Y463499D01*
X3106775Y463194D01*
X3113379Y462737D01*
X3115919Y461924D01*
X3121456Y461619D01*
X3125470Y460552D01*
X3129788Y460095D01*
X3131464Y459232D01*
X3134207Y458927D01*
X3135325Y458114D01*
X3136239Y458114D01*
X3137052Y457657D01*
X3137103Y450443D01*
X3137712Y449529D01*
X3137712Y449224D01*
X3136646Y449021D01*
X3134258Y449376D01*
X3133750Y449986D01*
X3129330Y450951D01*
X3128365Y451408D01*
X3123641Y452120D01*
X3122930Y453034D01*
X3116935Y453440D01*
X3115462Y454050D01*
X3109976Y454710D01*
X3100222Y454355D01*
X3098596Y453898D01*
X3097885Y453237D01*
X3096056Y452272D01*
X3096209Y451764D01*
X3098546Y450748D01*
X3104286Y451053D01*
X3104743Y450748D01*
X3103727Y449681D01*
X3103727Y449173D01*
X3103067Y449173D01*
X3100730Y446836D01*
X3100730Y445414D01*
X3100120Y445160D01*
X3099358Y443738D01*
X3098768Y441553D01*
X3108198Y441553D01*
X3108706Y442061D01*
X3109772Y442061D01*
X3110585Y441401D01*
X3109874Y440283D01*
X3109112Y440943D01*
X3108655Y440943D01*
X3108198Y441553D01*
X3098768Y441553D01*
X3098596Y440842D01*
X3098647Y435508D01*
X3099003Y433882D01*
X3100019Y432562D01*
X3101187Y432104D01*
X3101187Y431495D01*
X3102152Y430580D01*
X3104032Y429514D01*
X3108502Y429361D01*
X3111855Y429818D01*
X3112516Y430682D01*
X3114243Y431444D01*
X3117088Y434949D01*
X3117088Y435609D01*
X3118612Y440385D01*
X3118459Y445058D01*
X3117545Y447192D01*
X3117545Y448411D01*
X3122726Y448157D01*
X3124860Y447192D01*
X3128467Y446735D01*
X3131210Y445566D01*
X3136544Y445668D01*
X3137306Y445363D01*
X3137865Y443890D01*
X3137306Y408889D01*
X3137916Y407263D01*
X3138017Y403047D01*
X3135274Y403606D01*
X3129483Y404012D01*
X3127756Y404977D01*
X3120898Y405384D01*
X3119120Y406349D01*
X3111906Y406654D01*
X3110179Y407416D01*
X3103829Y407822D01*
X3087928Y407924D01*
X3080918Y407568D01*
X3079445Y407162D01*
X3079191Y407416D01*
X3074432Y407416D01*
X3074466Y406755D01*
X3073704Y405384D01*
X3071876Y404723D01*
X3071876Y404114D01*
X3069996Y403352D01*
X3069285Y402488D01*
X3068675Y402488D01*
X3067608Y401370D01*
X3065881Y400862D01*
X3065373Y400050D01*
X3060372Y399897D01*
X3059176Y395782D01*
X3057855Y393293D01*
X3055416Y390194D01*
X3047898Y382270D01*
X3047898Y381812D01*
X3045460Y379222D01*
X3043224Y375462D01*
X3041904Y372567D01*
X3041497Y371195D01*
X3040684Y360984D01*
X3040075Y358089D01*
X3038652Y356870D01*
X3038195Y356870D01*
X3034639Y354838D01*
X3033623Y353872D01*
X3030438Y349453D01*
X3035757Y349453D01*
X3038703Y352653D01*
X3039414Y352653D01*
X3039668Y353364D01*
X3040024Y352450D01*
X3040126Y349199D01*
X3035757Y349453D01*
X3030438Y349453D01*
X3029153Y347675D01*
X3026613Y343458D01*
X3023565Y337261D01*
X3019856Y328676D01*
X3017926Y323138D01*
X3015299Y314401D01*
X3021330Y314401D01*
X3021634Y315163D01*
X3021939Y319887D01*
X3022904Y321208D01*
X3024682Y328066D01*
X3025343Y329590D01*
X3025749Y333095D01*
X3026613Y333756D01*
X3027070Y335991D01*
X3027934Y336753D01*
X3028289Y338785D01*
X3029204Y340004D01*
X3029661Y341731D01*
X3030220Y341731D01*
X3030931Y343966D01*
X3031744Y344424D01*
X3033268Y347116D01*
X3033776Y346913D01*
X3033623Y343103D01*
X3034690Y342595D01*
X3035096Y341630D01*
X3036925Y340309D01*
X3039008Y340309D01*
X3039922Y341426D01*
X3040634Y341731D01*
X3040938Y344271D01*
X3041243Y342849D01*
X3040329Y333756D01*
X3039821Y323850D01*
X3039160Y321818D01*
X3038500Y311810D01*
X3038144Y311404D01*
X3032963Y311912D01*
X3032252Y312572D01*
X3029966Y313029D01*
X3024276Y313232D01*
X3023768Y313690D01*
X3021330Y314401D01*
X3015299Y314401D01*
X3013710Y308559D01*
X3013252Y305358D01*
X3012440Y302717D01*
X3011982Y299821D01*
X3011196Y296773D01*
X3014116Y296773D01*
X3014116Y299008D01*
X3015437Y300583D01*
X3015843Y300583D01*
X3016097Y299466D01*
X3015640Y298145D01*
X3014472Y296773D01*
X3011196Y296773D01*
X3010712Y294741D01*
X3018993Y294741D01*
X3019298Y296011D01*
X3020110Y296976D01*
X3020720Y300024D01*
X3021634Y301040D01*
X3022346Y301040D01*
X3023463Y299923D01*
X3022701Y298043D01*
X3022424Y296570D01*
X3029356Y296570D01*
X3029661Y298196D01*
X3030778Y299262D01*
X3031236Y299110D01*
X3032104Y297230D01*
X3035503Y297230D01*
X3035808Y297942D01*
X3036417Y297434D01*
X3036417Y295249D01*
X3035960Y294995D01*
X3035757Y295198D01*
X3035503Y297230D01*
X3032150Y297129D01*
X3031744Y294690D01*
X3030880Y293573D01*
X3030067Y294589D01*
X3029356Y296570D01*
X3022424Y296570D01*
X3022142Y295351D01*
X3020822Y293217D01*
X3019247Y293878D01*
X3018993Y294741D01*
X3010712Y294741D01*
X3010712Y293217D01*
X3011576Y292354D01*
X3012236Y292354D01*
X3014675Y291287D01*
X3017824Y290576D01*
X3028442Y290372D01*
X3032201Y289255D01*
X3034385Y291236D01*
X3035147Y291236D01*
X3036112Y290779D01*
X3037535Y288544D01*
X3037078Y282448D01*
X3037220Y277317D01*
X3042056Y277317D01*
X3042158Y296722D01*
X3043174Y303784D01*
X3043631Y312928D01*
X3044088Y314655D01*
X3044494Y317804D01*
X3044901Y329539D01*
X3045866Y332282D01*
X3046018Y354838D01*
X3046831Y355142D01*
X3046831Y355498D01*
X3048508Y357276D01*
X3048508Y359003D01*
X3047949Y359816D01*
X3046069Y359867D01*
X3044748Y361340D01*
X3044952Y362559D01*
X3045764Y364337D01*
X3046171Y368096D01*
X3046984Y369011D01*
X3047441Y370484D01*
X3047441Y371957D01*
X3048711Y373380D01*
X3048457Y373989D01*
X3048762Y375970D01*
X3049524Y376224D01*
X3049828Y377850D01*
X3050997Y379018D01*
X3051352Y380136D01*
X3052064Y380644D01*
X3052572Y382676D01*
X3053638Y382930D01*
X3053638Y384149D01*
X3054705Y384657D01*
X3055061Y385775D01*
X3055874Y386029D01*
X3057194Y388213D01*
X3058261Y388518D01*
X3058769Y389788D01*
X3060598Y390652D01*
X3060852Y391972D01*
X3062274Y392480D01*
X3062732Y393598D01*
X3063544Y393598D01*
X3064662Y394919D01*
X3066034Y395630D01*
X3066592Y396240D01*
X3067202Y396240D01*
X3068015Y397357D01*
X3070148Y397814D01*
X3071114Y398932D01*
X3072333Y398932D01*
X3073146Y399389D01*
X3073146Y400050D01*
X3076397Y400710D01*
X3077159Y401421D01*
X3081680Y401980D01*
X3082544Y402793D01*
X3094482Y402793D01*
X3095447Y402234D01*
X3099155Y401574D01*
X3101594Y401574D01*
X3102762Y402031D01*
X3103321Y402793D01*
X3108909Y403098D01*
X3116173Y402742D01*
X3117240Y402031D01*
X3123387Y401116D01*
X3124860Y400507D01*
X3128162Y400050D01*
X3129229Y399288D01*
X3132074Y398678D01*
X3132937Y397865D01*
X3135630Y397510D01*
X3136595Y396494D01*
X3138220Y396189D01*
X3146399Y395986D01*
X3146399Y395630D01*
X3147822Y394919D01*
X3149295Y394919D01*
X3150666Y393852D01*
X3152851Y393344D01*
X3155086Y392226D01*
X3155899Y392226D01*
X3157524Y390906D01*
X3158236Y390906D01*
X3158794Y390194D01*
X3160522Y389280D01*
X3161538Y388467D01*
X3163062Y388162D01*
X3164281Y387146D01*
X3164738Y387146D01*
X3170275Y381406D01*
X3171545Y379272D01*
X3172307Y379069D01*
X3172917Y377799D01*
X3173780Y377545D01*
X3173780Y376885D01*
X3174746Y375869D01*
X3175660Y373786D01*
X3176066Y373786D01*
X3176574Y372262D01*
X3177184Y372008D01*
X3177794Y369722D01*
X3180130Y366928D01*
X3180130Y366166D01*
X3181146Y365201D01*
X3181908Y362864D01*
X3182315Y362864D01*
X3183178Y360476D01*
X3183991Y360222D01*
X3183991Y359308D01*
X3184448Y358292D01*
X3185261Y357530D01*
X3185261Y356514D01*
X3186328Y354888D01*
X3187192Y351993D01*
X3188970Y350977D01*
X3189122Y349859D01*
X3190341Y348640D01*
X3190341Y347980D01*
X3191518Y347065D01*
X3198012Y347065D01*
X3198012Y346608D01*
X3197555Y346608D01*
X3197555Y347065D01*
X3191518Y347065D01*
X3193135Y344170D01*
X3193745Y344170D01*
X3194354Y342646D01*
X3194354Y341680D01*
X3195421Y340360D01*
X3195421Y339496D01*
X3195726Y338582D01*
X3200095Y338582D01*
X3203498Y339090D01*
X3204159Y339750D01*
X3204159Y341528D01*
X3206496Y339801D01*
X3208375Y337210D01*
X3208375Y336651D01*
X3209391Y335940D01*
X3209645Y334873D01*
X3210509Y334619D01*
X3210966Y333146D01*
X3211982Y332079D01*
X3211982Y331470D01*
X3213049Y330403D01*
X3213862Y328523D01*
X3214522Y327914D01*
X3214522Y326644D01*
X3215843Y325475D01*
X3215843Y323545D01*
X3216452Y322884D01*
X3216859Y322732D01*
X3217164Y321056D01*
X3213404Y321056D01*
X3208477Y321564D01*
X3206394Y321513D01*
X3205480Y321259D01*
X3204972Y323138D01*
X3203956Y325018D01*
X3203956Y326339D01*
X3203498Y327558D01*
X3202940Y328066D01*
X3202686Y329793D01*
X3201619Y331470D01*
X3201162Y333603D01*
X3200196Y334670D01*
X3200095Y338582D01*
X3195726Y338582D01*
X3196488Y336143D01*
X3196894Y332282D01*
X3197199Y331368D01*
X3197809Y330657D01*
X3198164Y326948D01*
X3199942Y320040D01*
X3200501Y319176D01*
X3200806Y316941D01*
X3201822Y314604D01*
X3201822Y313994D01*
X3202970Y312166D01*
X3214674Y312115D01*
X3213608Y311759D01*
X3209493Y311708D01*
X3209239Y312166D01*
X3202970Y312166D01*
X3203549Y310235D01*
X3204159Y309524D01*
X3204187Y309168D01*
X3224174Y309168D01*
X3224530Y309930D01*
X3226155Y309930D01*
X3227679Y308356D01*
X3227984Y307390D01*
X3228949Y306476D01*
X3229254Y303733D01*
X3228289Y303225D01*
X3226917Y303479D01*
X3225647Y305155D01*
X3224174Y309168D01*
X3204187Y309168D01*
X3204401Y306324D01*
X3209798Y306324D01*
X3210356Y307035D01*
X3211474Y306781D01*
X3211931Y306374D01*
X3212328Y303834D01*
X3216452Y303834D01*
X3217011Y304139D01*
X3217074Y303936D01*
X3221329Y303936D01*
X3221583Y304342D01*
X3222142Y304342D01*
X3222447Y301955D01*
X3222294Y301193D01*
X3221837Y300990D01*
X3221329Y303936D01*
X3217074Y303936D01*
X3217824Y301091D01*
X3216808Y300888D01*
X3216503Y302006D01*
X3216452Y303834D01*
X3212328Y303834D01*
X3213455Y300024D01*
X3213252Y298551D01*
X3211576Y299059D01*
X3210255Y301802D01*
X3209798Y306324D01*
X3204401Y306324D01*
X3204514Y304393D01*
X3205480Y303022D01*
X3206089Y298704D01*
X3206750Y297942D01*
X3207105Y294132D01*
X3208020Y293166D01*
X3208324Y287985D01*
X3209239Y285597D01*
X3209950Y280212D01*
X3210509Y279247D01*
X3210509Y277266D01*
X3204260Y276555D01*
X3202736Y276555D01*
X3200349Y275894D01*
X3193288Y275234D01*
X3192170Y274472D01*
X3186633Y274167D01*
X3185160Y273608D01*
X3181299Y272999D01*
X3178149Y272999D01*
X3174339Y272542D01*
X3173323Y271830D01*
X3164535Y271475D01*
X3160318Y270357D01*
X3156153Y270306D01*
X3153105Y269189D01*
X3143097Y268782D01*
X3141065Y268325D01*
X3140202Y267868D01*
X3131870Y267411D01*
X3129534Y266598D01*
X3124504Y266293D01*
X3120186Y265633D01*
X3118713Y265125D01*
X3107232Y265125D01*
X3104235Y266395D01*
X3101898Y266344D01*
X3098190Y267004D01*
X3097377Y266750D01*
X3093872Y267411D01*
X3083052Y267462D01*
X3082696Y267665D01*
X3059023Y267919D01*
X3057347Y268274D01*
X3042615Y268986D01*
X3042208Y269748D01*
X3042056Y277317D01*
X3037220Y277317D01*
X3038172Y259994D01*
X3042666Y259994D01*
X3042818Y262534D01*
X3043529Y262940D01*
X3047441Y263245D01*
X3047593Y259943D01*
X3048304Y258825D01*
X3049371Y258521D01*
X3050286Y257606D01*
X3052419Y257860D01*
X3053486Y259283D01*
X3054248Y261366D01*
X3053486Y263855D01*
X3054299Y263855D01*
X3055010Y263448D01*
X3057550Y263804D01*
X3058769Y263144D01*
X3060344Y263906D01*
X3062020Y263398D01*
X3064764Y262991D01*
X3078734Y262534D01*
X3079496Y262280D01*
X3080004Y261366D01*
X3078429Y259842D01*
X3079292Y257657D01*
X3079292Y256946D01*
X3081477Y254812D01*
X3084169Y254508D01*
X3085033Y254762D01*
X3086506Y256794D01*
X3086506Y259994D01*
X3084576Y261264D01*
X3085338Y261874D01*
X3086608Y261670D01*
X3099155Y261213D01*
X3102508Y260705D01*
X3105505Y260959D01*
X3110433Y260248D01*
X3129483Y261670D01*
X3130042Y261162D01*
X3129635Y260350D01*
X3129635Y259537D01*
X3130905Y256844D01*
X3133090Y255422D01*
X3133648Y255422D01*
X3133902Y254965D01*
X3134309Y254965D01*
X3134309Y255828D01*
X3135782Y256590D01*
X3136188Y257098D01*
X3136493Y262483D01*
X3137763Y262737D01*
X3140964Y262737D01*
X3142488Y263245D01*
X3146196Y263855D01*
X3152444Y264312D01*
X3154730Y265176D01*
X3162452Y265887D01*
X3163925Y266496D01*
X3167481Y266852D01*
X3170478Y267716D01*
X3172510Y267919D01*
X3172510Y265938D01*
X3172968Y264515D01*
X3173374Y264515D01*
X3174441Y262737D01*
X3175000Y262737D01*
X3176016Y261924D01*
X3178200Y261874D01*
X3179521Y263093D01*
X3179927Y264668D01*
X3179927Y266801D01*
X3179216Y268071D01*
X3179673Y269138D01*
X3188563Y269849D01*
X3191052Y270560D01*
X3195116Y270814D01*
X3200450Y271830D01*
X3207359Y271830D01*
X3207613Y272084D01*
X3210001Y272084D01*
X3210814Y271475D01*
X3210814Y267868D01*
X3209340Y266293D01*
X3207664Y266446D01*
X3207816Y267106D01*
X3207766Y271018D01*
X3207359Y271830D01*
X3201924Y271830D01*
X3201974Y268681D01*
X3203600Y265684D01*
X3204464Y265328D01*
X3203397Y265023D01*
X3200857Y264972D01*
X3197504Y264363D01*
X3197199Y263855D01*
X3191916Y263398D01*
X3190443Y262534D01*
X3183534Y261823D01*
X3183534Y261264D01*
X3178352Y260959D01*
X3174136Y260299D01*
X3173679Y259892D01*
X3167938Y259588D01*
X3164128Y258927D01*
X3163722Y258571D01*
X3159302Y258267D01*
X3156915Y257810D01*
X3155645Y257200D01*
X3145637Y256794D01*
X3143097Y255879D01*
X3136747Y255422D01*
X3133750Y254457D01*
X3129534Y254355D01*
X3126994Y253542D01*
X3124657Y253593D01*
X3122676Y253898D01*
X3122015Y253187D01*
X3120898Y253187D01*
X3120085Y254203D01*
X3119272Y253187D01*
X3118053Y253187D01*
X3117545Y253695D01*
X3110636Y253695D01*
X3108858Y253187D01*
X3096209Y252933D01*
X3065170Y252984D01*
X3058617Y253542D01*
X3057753Y254050D01*
X3049879Y254558D01*
X3049270Y255422D01*
X3045002Y255676D01*
X3043631Y256133D01*
X3043224Y257200D01*
X3043224Y258775D01*
X3042666Y259994D01*
X3038172Y259994D01*
X3038246Y255879D01*
X3039516Y254000D01*
X3041345Y253441D01*
X3043123Y252577D01*
X3045663Y252018D01*
X3048863Y251002D01*
X3056280Y249834D01*
X3067304Y249428D01*
X3084474Y249428D01*
X3085846Y248310D01*
X3086506Y244500D01*
X3087065Y243382D01*
X3092856Y243382D01*
X3093313Y245160D01*
X3094685Y245465D01*
X3097225Y246532D01*
X3101492Y247192D01*
X3103422Y247853D01*
X3119831Y248158D01*
X3119932Y248310D01*
X3120237Y247954D01*
X3120491Y241350D01*
X3120237Y240893D01*
X3112160Y241249D01*
X3111042Y241858D01*
X3106674Y242316D01*
X3093008Y242417D01*
X3092856Y243382D01*
X3087116Y243281D01*
X3087776Y238404D01*
X3087776Y236626D01*
X3087304Y234340D01*
X3098647Y234340D01*
X3098850Y234746D01*
X3105099Y234391D01*
X3102559Y234137D01*
X3098647Y234340D01*
X3087304Y234340D01*
X3087049Y233222D01*
X3107436Y233222D01*
X3108502Y233527D01*
X3111042Y233222D01*
X3087049Y233222D01*
X3086455Y231698D01*
X3087776Y228549D01*
X3088487Y225501D01*
X3088506Y222961D01*
X3093161Y222961D01*
X3093161Y228904D01*
X3093364Y229819D01*
X3095752Y229920D01*
X3106420Y229209D01*
X3108096Y228447D01*
X3114649Y227990D01*
X3117392Y228041D01*
X3119932Y227634D01*
X3121304Y226618D01*
X3121609Y219252D01*
X3121964Y217271D01*
X3121609Y214020D01*
X3120745Y213207D01*
X3119018Y212242D01*
X3119018Y211836D01*
X3117189Y211531D01*
X3114243Y210515D01*
X3109569Y209550D01*
X3108858Y209143D01*
X3101492Y208940D01*
X3098546Y208584D01*
X3097123Y208737D01*
X3095853Y208178D01*
X3094583Y208737D01*
X3094177Y214934D01*
X3093212Y217017D01*
X3093161Y222961D01*
X3088506Y222961D01*
X3088589Y211683D01*
X3089097Y209042D01*
X3089452Y208584D01*
X3090367Y206044D01*
X3091992Y204520D01*
X3093792Y203758D01*
X3115259Y203809D01*
X3115005Y203555D01*
X3114446Y203758D01*
X3093792Y203758D01*
X3094177Y203250D01*
X3094177Y202641D01*
X3115614Y202641D01*
X3115919Y202895D01*
X3116427Y202895D01*
X3117850Y201422D01*
X3118459Y201168D01*
X3117951Y200609D01*
X3116326Y201168D01*
X3115614Y202641D01*
X3094177Y202641D01*
X3092704Y199440D01*
X3119882Y199440D01*
X3120085Y198932D01*
X3119882Y198374D01*
X3119882Y199440D01*
X3092704Y199440D01*
X3091198Y195834D01*
X3105404Y195834D01*
X3105404Y197053D01*
X3105912Y197561D01*
X3107283Y197154D01*
X3120847Y197154D01*
X3121355Y197510D01*
X3122625Y197307D01*
X3121964Y196138D01*
X3121964Y195173D01*
X3121507Y194868D01*
X3121101Y195275D01*
X3120847Y197154D01*
X3107283Y197154D01*
X3108147Y195732D01*
X3107486Y194665D01*
X3106166Y194919D01*
X3105404Y195834D01*
X3091198Y195834D01*
X3090419Y193344D01*
X3122168Y193141D01*
X3122422Y194462D01*
X3122980Y194462D01*
X3123488Y193344D01*
X3123488Y192633D01*
X3124098Y191973D01*
X3124098Y191109D01*
X3123234Y188925D01*
X3122625Y188671D01*
X3122371Y189382D01*
X3122625Y190957D01*
X3123234Y191363D01*
X3123234Y192227D01*
X3122625Y192227D01*
X3122168Y193141D01*
X3097580Y193090D01*
X3097580Y192227D01*
X3097123Y192227D01*
X3097123Y193344D01*
X3090419Y193344D01*
X3090064Y192024D01*
X3098393Y192024D01*
X3098393Y191566D01*
X3097987Y192024D01*
X3090064Y192024D01*
X3089284Y187604D01*
X3104794Y187604D01*
X3104794Y188010D01*
X3107182Y188722D01*
X3109163Y190093D01*
X3111144Y191820D01*
X3112312Y192176D01*
X3112871Y191617D01*
X3113176Y189179D01*
X3112862Y187960D01*
X3124454Y187960D01*
X3124708Y188671D01*
X3125114Y188671D01*
X3125419Y187909D01*
X3125063Y187604D01*
X3124454Y187960D01*
X3112862Y187960D01*
X3112719Y187502D01*
X3109569Y186588D01*
X3106166Y186537D01*
X3104794Y187604D01*
X3089284Y187604D01*
X3088921Y185318D01*
X3098647Y185318D01*
X3098647Y185115D01*
X3098393Y185115D01*
X3098393Y185318D01*
X3088921Y185318D01*
X3088855Y184759D01*
X3099409Y184759D01*
X3100273Y183997D01*
X3100933Y183997D01*
X3101238Y183540D01*
X3099562Y183692D01*
X3099409Y184759D01*
X3088855Y184759D01*
X3088685Y183337D01*
X3121152Y183337D01*
X3121152Y183946D01*
X3121406Y184200D01*
X3122828Y183946D01*
X3122828Y182473D01*
X3122472Y182219D01*
X3122218Y182880D01*
X3121152Y183337D01*
X3088685Y183337D01*
X3088601Y182626D01*
X3103626Y182626D01*
X3102864Y182422D01*
X3102152Y182626D01*
X3088589Y182524D01*
X3088284Y181965D01*
X3087065Y183286D01*
X3077921Y183540D01*
X3070301Y184404D01*
X3061360Y184912D01*
X3057906Y185572D01*
X3049270Y186029D01*
X3036925Y185978D01*
X3034639Y185572D01*
X3034030Y184962D01*
X3037281Y183540D01*
X3039262Y183134D01*
X3053283Y182168D01*
X3058820Y181305D01*
X3059091Y180898D01*
X3118510Y180898D01*
X3118916Y181305D01*
X3119983Y181508D01*
X3121253Y181152D01*
X3118916Y180441D01*
X3118510Y180898D01*
X3059091Y180898D01*
X3059719Y179781D01*
X3096310Y179781D01*
X3096768Y178663D01*
X3097174Y178663D01*
X3096920Y178206D01*
X3095904Y178206D01*
X3095650Y178917D01*
X3095650Y179781D01*
X3059719Y179781D01*
X3059938Y179374D01*
X3061462Y179070D01*
X3063697Y179628D01*
X3069234Y179628D01*
X3077667Y178917D01*
X3079750Y177241D01*
X3081832Y177038D01*
X3084322Y178257D01*
X3085439Y178206D01*
X3087674Y177038D01*
X3097987Y176936D01*
X3098241Y177342D01*
X3100222Y177038D01*
X3098546Y176428D01*
X3097987Y176936D01*
X3087817Y176936D01*
X3089503Y175768D01*
X3101797Y175768D01*
X3101797Y176123D01*
X3102102Y176428D01*
X3102406Y176428D01*
X3102660Y175768D01*
X3089503Y175768D01*
X3109163Y175666D01*
X3109214Y176936D01*
X3109366Y177088D01*
X3111906Y177342D01*
X3114243Y178104D01*
X3114903Y178663D01*
X3115411Y178663D01*
X3116072Y180035D01*
X3116935Y179882D01*
X3117088Y179425D01*
X3116275Y178003D01*
X3115411Y178003D01*
X3114090Y176682D01*
X3112160Y176682D01*
X3111195Y175717D01*
X3089808Y175564D01*
X3094431Y172008D01*
X3094786Y172008D01*
X3096310Y170891D01*
X3099562Y170078D01*
X3109366Y170078D01*
X3112516Y170942D01*
X3115818Y172415D01*
X3121914Y176530D01*
X3124200Y178358D01*
X3126079Y180238D01*
X3126384Y180238D01*
X3129737Y183134D01*
X3130143Y183692D01*
X3132074Y184708D01*
X3134918Y184150D01*
X3139897Y184404D01*
X3144570Y185572D01*
X3145383Y186385D01*
X3145078Y186893D01*
X3143504Y187756D01*
X3140557Y188264D01*
X3134207Y188010D01*
X3131210Y187350D01*
X3129686Y187350D01*
X3129026Y187909D01*
X3128772Y193751D01*
X3128314Y196088D01*
X3126435Y200152D01*
X3124504Y202641D01*
X3120542Y206349D01*
X3120491Y207924D01*
X3123895Y209651D01*
X3125724Y211734D01*
X3125774Y219506D01*
X3124301Y247904D01*
X3124860Y248513D01*
X3127197Y249224D01*
X3142894Y251460D01*
X3144367Y252069D01*
X3150311Y252577D01*
X3153410Y253187D01*
X3154019Y252171D01*
X3153177Y247853D01*
X3160674Y247853D01*
X3161588Y248361D01*
X3162757Y249529D01*
X3163417Y250748D01*
X3163976Y250748D01*
X3164840Y251866D01*
X3166465Y252323D01*
X3167329Y253136D01*
X3170275Y253644D01*
X3171444Y254558D01*
X3175152Y255016D01*
X3176320Y255828D01*
X3185972Y256082D01*
X3186176Y256286D01*
X3186430Y256032D01*
X3186277Y251967D01*
X3185922Y251764D01*
X3185566Y250647D01*
X3185414Y245719D01*
X3185058Y245110D01*
X3179013Y244906D01*
X3171240Y245414D01*
X3168853Y246278D01*
X3165398Y246329D01*
X3162452Y246786D01*
X3160877Y246786D01*
X3160674Y247853D01*
X3153156Y247751D01*
X3152546Y244602D01*
X3151796Y224129D01*
X3156508Y224129D01*
X3156559Y227126D01*
X3157270Y231851D01*
X3158083Y232156D01*
X3179622Y231851D01*
X3181451Y230886D01*
X3184906Y230428D01*
X3185261Y229920D01*
X3184956Y227279D01*
X3185261Y224129D01*
X3184906Y223570D01*
X3168700Y223164D01*
X3166211Y222504D01*
X3161741Y222402D01*
X3160623Y223012D01*
X3160115Y222504D01*
X3159048Y222504D01*
X3158185Y223164D01*
X3156813Y223164D01*
X3156508Y224129D01*
X3151796Y224129D01*
X3151530Y221030D01*
X3152190Y219557D01*
X3153359Y218948D01*
X3156153Y218440D01*
X3157016Y217322D01*
X3155578Y215798D01*
X3179673Y215798D01*
X3179927Y216204D01*
X3181858Y215798D01*
X3181858Y215341D01*
X3179673Y215798D01*
X3155578Y215798D01*
X3154975Y215138D01*
X3182416Y215138D01*
X3182975Y214477D01*
X3182518Y213969D01*
X3182061Y214274D01*
X3182061Y215138D01*
X3154883Y215036D01*
X3154883Y214528D01*
X3153844Y213360D01*
X3184398Y213360D01*
X3184398Y212902D01*
X3183788Y212902D01*
X3183534Y213360D01*
X3153844Y213360D01*
X3152649Y211124D01*
X3186480Y211124D01*
X3187039Y210413D01*
X3186430Y210058D01*
X3186074Y210261D01*
X3186074Y211124D01*
X3152597Y211023D01*
X3152089Y209245D01*
X3151428Y208178D01*
X3151342Y207568D01*
X3156153Y207568D01*
X3157016Y209651D01*
X3157423Y209245D01*
X3157118Y207670D01*
X3151342Y207568D01*
X3150672Y202641D01*
X3155645Y202641D01*
X3155746Y207365D01*
X3155950Y207365D01*
X3155950Y202488D01*
X3164027Y202488D01*
X3164433Y203301D01*
X3166668Y204114D01*
X3169666Y204114D01*
X3170834Y203200D01*
X3172358Y202895D01*
X3173120Y203606D01*
X3173374Y204774D01*
X3172866Y207568D01*
X3173628Y208432D01*
X3174796Y208686D01*
X3175863Y208381D01*
X3176808Y207822D01*
X3188208Y207822D01*
X3188716Y208483D01*
X3189071Y207924D01*
X3189071Y206044D01*
X3188665Y206044D01*
X3188208Y207822D01*
X3176808Y207822D01*
X3177540Y207010D01*
X3178454Y205130D01*
X3178403Y203708D01*
X3176127Y201574D01*
X3182264Y201574D01*
X3182264Y202590D01*
X3182518Y202895D01*
X3183128Y202641D01*
X3182670Y201574D01*
X3176127Y201574D01*
X3175512Y201015D01*
X3188665Y201015D01*
X3188919Y202031D01*
X3189071Y202031D01*
X3189071Y200609D01*
X3188665Y201015D01*
X3175512Y201015D01*
X3173476Y199186D01*
X3172575Y198678D01*
X3180588Y198678D01*
X3180588Y199644D01*
X3181299Y200456D01*
X3181604Y200152D01*
X3182023Y199034D01*
X3188665Y199034D01*
X3188868Y198475D01*
X3188716Y197662D01*
X3188665Y199034D01*
X3182023Y199034D01*
X3182213Y198526D01*
X3180994Y197815D01*
X3180588Y198678D01*
X3172575Y198678D01*
X3169648Y196951D01*
X3178048Y196951D01*
X3178505Y197561D01*
X3179013Y197561D01*
X3179572Y197205D01*
X3178606Y196494D01*
X3178048Y196951D01*
X3168446Y196900D01*
X3164433Y200558D01*
X3164027Y202488D01*
X3155950Y202488D01*
X3155950Y202133D01*
X3155645Y202641D01*
X3150672Y202641D01*
X3150463Y201015D01*
X3151073Y195884D01*
X3151593Y194411D01*
X3155442Y194411D01*
X3155797Y198323D01*
X3156204Y197205D01*
X3157474Y197205D01*
X3157677Y197612D01*
X3158388Y197459D01*
X3158693Y196088D01*
X3158998Y195783D01*
X3176930Y195783D01*
X3177184Y196240D01*
X3177844Y196240D01*
X3177844Y195783D01*
X3158998Y195783D01*
X3159861Y194818D01*
X3161030Y194411D01*
X3161052Y194208D01*
X3185871Y194208D01*
X3186328Y196037D01*
X3187192Y196037D01*
X3187547Y197358D01*
X3188563Y197307D01*
X3187903Y196799D01*
X3187395Y195580D01*
X3186785Y195580D01*
X3186480Y194208D01*
X3161052Y194208D01*
X3161131Y193446D01*
X3162249Y193344D01*
X3162706Y192024D01*
X3163722Y191922D01*
X3163722Y191058D01*
X3163265Y190906D01*
X3160318Y193395D01*
X3159099Y193852D01*
X3158896Y195072D01*
X3157931Y195326D01*
X3157474Y197205D01*
X3156204Y197205D01*
X3156559Y194360D01*
X3156153Y193903D01*
X3155442Y194411D01*
X3151593Y194411D01*
X3151860Y193802D01*
X3156966Y193802D01*
X3158083Y193344D01*
X3158083Y192887D01*
X3156813Y192887D01*
X3156813Y193802D01*
X3151860Y193802D01*
X3152800Y191820D01*
X3153939Y190500D01*
X3159963Y190500D01*
X3160471Y191109D01*
X3161233Y191109D01*
X3161690Y190500D01*
X3169970Y190449D01*
X3169970Y190042D01*
X3169564Y189788D01*
X3169361Y190449D01*
X3160522Y190347D01*
X3159963Y190500D01*
X3153939Y190500D01*
X3155158Y189128D01*
X3165043Y189128D01*
X3165754Y190246D01*
X3167430Y189331D01*
X3176016Y189280D01*
X3174796Y188823D01*
X3173882Y189331D01*
X3172510Y189331D01*
X3172510Y188874D01*
X3170936Y188925D01*
X3170275Y189331D01*
X3167430Y189331D01*
X3167430Y189128D01*
X3155158Y189128D01*
X3155340Y188925D01*
X3154781Y187706D01*
X3153562Y187350D01*
X3150362Y187350D01*
X3149498Y186486D01*
X3150057Y185115D01*
X3150920Y184607D01*
X3157118Y184658D01*
X3158540Y183083D01*
X3159556Y182676D01*
X3163265Y184048D01*
X3179622Y184251D01*
X3186328Y183794D01*
X3188563Y183337D01*
X3207461Y181508D01*
X3209290Y181711D01*
X3209899Y182372D01*
X3209645Y183997D01*
X3206902Y185775D01*
X3204057Y186486D01*
X3192780Y186893D01*
X3188766Y187553D01*
X3187598Y188061D01*
X3186988Y189026D01*
X3189325Y191668D01*
X3191002Y194818D01*
X3192018Y197967D01*
X3192475Y201930D01*
X3192475Y206349D01*
X3191865Y209702D01*
X3191002Y211785D01*
X3191002Y212242D01*
X3189986Y213461D01*
X3189274Y215188D01*
X3187395Y217119D01*
X3185871Y218338D01*
X3186125Y219506D01*
X3186836Y220167D01*
X3188208Y222707D01*
X3189478Y227736D01*
X3189935Y240182D01*
X3189681Y243738D01*
X3190087Y255524D01*
X3190951Y257606D01*
X3192576Y258724D01*
X3195980Y259435D01*
X3197758Y260045D01*
X3202228Y260553D01*
X3209493Y261874D01*
X3212744Y262991D01*
X3215487Y264668D01*
X3216046Y265785D01*
X3215894Y269341D01*
X3214979Y278434D01*
X3213658Y286004D01*
X3213049Y287477D01*
X3212439Y291338D01*
X3212439Y293573D01*
X3213150Y294538D01*
X3217824Y296418D01*
X3224479Y296468D01*
X3225241Y297129D01*
X3225800Y298551D01*
X3225800Y299872D01*
X3226460Y300126D01*
X3227374Y300126D01*
X3228289Y299212D01*
X3229914Y299618D01*
X3230727Y301040D01*
X3230067Y303885D01*
X3230016Y305562D01*
X3229000Y310134D01*
X3227933Y312267D01*
X3227933Y312775D01*
X3226917Y314299D01*
X3226511Y315620D01*
X3220516Y325831D01*
X3219856Y327406D01*
X3219196Y328015D01*
X3219196Y328422D01*
X3214979Y335178D01*
X3211982Y339394D01*
X3207004Y344982D01*
X3202990Y348538D01*
X3200196Y350723D01*
X3192780Y354685D01*
X3191611Y355904D01*
X3187700Y362864D01*
X3181350Y372668D01*
X3175558Y380136D01*
X3173476Y382524D01*
X3163519Y391363D01*
X3163011Y391363D01*
X3161792Y392328D01*
X3153714Y396646D01*
X3152241Y396951D01*
X3149904Y398018D01*
X3142792Y400202D01*
X3142081Y401675D01*
X3141878Y413308D01*
X3142538Y414934D01*
X3145739Y418642D01*
X3147517Y422148D01*
X3148279Y427380D01*
X3148838Y428599D01*
X3149955Y429412D01*
X3151581Y429818D01*
X3158439Y430326D01*
X3169056Y429615D01*
X3172206Y428955D01*
X3178708Y428447D01*
X3182315Y428650D01*
X3182975Y429361D01*
X3182620Y431088D01*
X3179419Y432765D01*
X3172002Y432511D01*
X3169107Y432054D01*
X3159963Y433222D01*
X3157982Y433882D01*
X3153511Y434085D01*
X3149955Y432968D01*
X3149193Y432968D01*
X3148634Y433679D01*
X3147314Y438048D01*
X3146856Y438607D01*
X3145993Y440994D01*
X3144215Y443433D01*
X3141726Y444855D01*
X3141319Y446430D01*
X3140659Y452678D01*
X3141116Y459435D01*
X3140862Y460501D01*
X3139084Y461416D01*
X3130143Y463651D01*
X3128264Y463956D01*
X3126079Y464718D01*
X3122066Y465277D01*
X3119729Y466090D01*
X3113227Y467258D01*
X3099358Y469087D01*
X3094685Y469900D01*
G37*
G36*
X3128975Y444957D02*
G01*
X3124504Y444703D01*
X3124504Y444093D01*
X3122777Y443534D01*
X3121456Y442163D01*
X3120288Y440435D01*
X3120288Y439826D01*
X3119170Y437337D01*
X3118916Y433374D01*
X3119170Y432562D01*
X3120186Y432308D01*
X3120694Y431190D01*
X3123133Y429869D01*
X3124352Y429615D01*
X3125266Y428498D01*
X3126841Y428498D01*
X3128975Y428040D01*
X3132277Y429768D01*
X3132429Y430631D01*
X3133598Y431749D01*
X3134258Y433070D01*
X3135731Y434695D01*
X3135122Y435051D01*
X3135020Y439572D01*
X3134106Y440639D01*
X3133598Y442061D01*
X3133242Y442061D01*
X3131870Y443331D01*
X3130143Y443941D01*
G37*
G36*
X3132785Y444093D02*
G01*
X3132785Y443839D01*
X3133039Y443839D01*
X3133039Y444093D01*
G37*
G36*
X3136646Y436372D02*
G01*
X3136646Y435762D01*
X3136900Y436067D01*
G37*
G36*
X3085236Y429412D02*
G01*
X3084017Y428040D01*
X3083712Y426669D01*
X3084576Y425704D01*
X3084880Y424738D01*
X3085592Y424332D01*
X3089097Y424027D01*
X3090976Y423164D01*
X3094482Y422960D01*
X3098088Y421893D01*
X3102356Y421335D01*
X3103727Y420725D01*
X3108502Y420268D01*
X3117189Y418185D01*
X3121660Y417576D01*
X3133953Y417576D01*
X3135020Y418439D01*
X3135376Y420116D01*
X3134766Y421081D01*
X3130550Y423113D01*
X3122574Y422656D01*
X3120593Y423418D01*
X3113481Y424027D01*
X3112719Y425043D01*
X3107232Y425348D01*
X3105708Y426262D01*
X3102356Y426770D01*
X3101086Y427482D01*
X3094075Y428091D01*
X3093415Y428904D01*
X3090011Y429158D01*
X3088335Y428802D01*
G37*
G36*
X3058718Y384251D02*
G01*
X3058718Y383794D01*
X3059125Y383794D01*
X3059125Y384251D01*
G37*
G36*
X3169564Y378917D02*
G01*
X3169564Y378206D01*
X3169970Y378206D01*
X3169970Y378917D01*
G37*
G36*
X3178454Y361543D02*
G01*
X3178454Y361086D01*
X3178860Y361086D01*
X3178860Y361543D01*
G37*
G36*
X3117088Y360222D02*
G01*
X3117342Y359765D01*
X3117748Y359765D01*
X3117748Y360222D01*
G37*
G36*
X3158337Y358648D02*
G01*
X3153918Y358292D01*
X3150971Y357073D01*
X3149244Y355295D01*
X3148736Y355295D01*
X3148076Y354330D01*
X3148076Y353364D01*
X3147415Y352755D01*
X3147009Y351688D01*
X3146856Y343052D01*
X3147618Y342239D01*
X3148126Y342087D01*
X3148533Y340106D01*
X3149803Y338632D01*
X3149803Y338226D01*
X3151174Y336448D01*
X3152648Y335381D01*
X3153918Y334873D01*
X3155645Y334568D01*
X3155899Y334111D01*
X3157321Y334111D01*
X3160115Y335127D01*
X3161080Y336194D01*
X3161893Y336194D01*
X3165297Y339598D01*
X3166313Y342747D01*
X3166668Y345389D01*
X3166668Y348742D01*
X3165957Y350520D01*
X3165500Y353009D01*
X3162757Y356108D01*
X3162757Y356412D01*
X3161538Y357073D01*
X3159912Y357378D01*
X3159150Y358190D01*
G37*
G36*
X3096615Y358597D02*
G01*
X3091484Y358292D01*
X3090164Y357276D01*
X3089503Y354380D01*
X3088690Y353314D01*
X3088436Y350062D01*
X3088792Y342493D01*
X3090011Y340360D01*
X3090672Y340106D01*
X3093262Y337769D01*
X3095447Y337261D01*
X3101238Y337413D01*
X3102356Y338785D01*
X3103118Y339039D01*
X3103372Y339852D01*
X3105302Y342036D01*
X3105810Y344982D01*
X3105861Y352348D01*
X3103016Y355955D01*
X3102508Y355955D01*
X3101543Y357073D01*
X3101086Y357073D01*
X3098444Y358394D01*
G37*
G36*
X3128873Y358190D02*
G01*
X3127806Y357733D01*
X3124962Y357936D01*
X3124555Y357225D01*
X3122269Y357174D01*
X3120898Y356006D01*
X3119221Y355498D01*
X3118815Y354431D01*
X3118205Y354177D01*
X3117748Y352806D01*
X3117748Y348081D01*
X3118358Y345694D01*
X3118764Y345186D01*
X3119018Y343408D01*
X3119831Y342087D01*
X3120644Y339750D01*
X3121863Y337769D01*
X3123793Y336499D01*
X3130042Y336600D01*
X3131769Y337566D01*
X3134461Y337362D01*
X3135731Y338124D01*
X3137154Y340004D01*
X3138830Y340766D01*
X3138932Y345389D01*
X3138525Y348488D01*
X3137916Y349453D01*
X3137306Y352044D01*
X3136188Y353212D01*
X3136188Y353720D01*
X3134309Y355752D01*
X3133699Y355752D01*
X3132836Y357022D01*
X3129889Y357327D01*
X3129127Y358190D01*
G37*
G36*
X3085693Y340207D02*
G01*
X3085693Y339953D01*
X3085896Y339953D01*
X3085896Y340207D01*
G37*
G36*
X3145332Y340207D02*
G01*
X3145332Y339750D01*
X3145790Y339750D01*
X3145790Y340207D01*
G37*
G36*
X3153206Y330860D02*
G01*
X3152952Y330403D01*
X3153410Y330403D01*
X3153410Y330860D01*
G37*
G36*
X3087268Y327710D02*
G01*
X3086608Y327507D01*
X3085846Y326085D01*
X3085846Y323697D01*
X3148888Y323799D01*
X3152241Y324205D01*
X3152851Y324612D01*
X3153206Y324612D01*
X3154375Y323850D01*
X3155289Y322834D01*
X3156712Y322783D01*
X3155467Y322529D01*
X3169412Y322529D01*
X3168700Y322326D01*
X3167735Y322529D01*
X3155035Y322427D01*
X3149244Y322681D01*
X3148787Y323697D01*
X3085846Y323697D01*
X3085873Y322072D01*
X3090113Y322072D01*
X3090672Y322834D01*
X3097225Y323088D01*
X3099714Y323596D01*
X3114446Y322834D01*
X3120034Y322834D01*
X3121456Y322529D01*
X3119841Y322376D01*
X3122726Y322376D01*
X3123387Y322834D01*
X3124504Y322834D01*
X3124758Y322376D01*
X3128010Y322376D01*
X3128670Y322834D01*
X3129534Y322834D01*
X3130143Y322376D01*
X3132175Y322376D01*
X3132429Y322834D01*
X3133242Y322834D01*
X3133242Y322376D01*
X3119841Y322376D01*
X3116072Y322021D01*
X3115005Y321259D01*
X3112922Y321259D01*
X3112465Y321767D01*
X3110179Y321259D01*
X3098952Y320852D01*
X3094126Y319684D01*
X3090265Y319836D01*
X3090113Y322072D01*
X3085873Y322072D01*
X3085896Y320903D01*
X3084830Y319532D01*
X3084474Y316738D01*
X3083966Y316585D01*
X3083734Y316077D01*
X3113430Y316128D01*
X3115157Y316788D01*
X3119323Y317296D01*
X3135884Y317652D01*
X3161792Y317042D01*
X3165195Y316585D01*
X3173679Y316280D01*
X3173780Y315163D01*
X3173425Y314604D01*
X3168345Y314147D01*
X3166059Y313537D01*
X3161385Y313690D01*
X3157524Y314401D01*
X3150768Y314502D01*
X3149396Y315264D01*
X3143758Y315772D01*
X3124403Y315823D01*
X3120898Y315315D01*
X3120085Y314502D01*
X3119526Y315264D01*
X3118358Y315722D01*
X3110839Y315722D01*
X3108909Y316077D01*
X3083734Y316077D01*
X3083509Y315671D01*
X3083153Y313232D01*
X3083407Y312572D01*
X3085693Y310946D01*
X3105099Y310997D01*
X3107842Y311607D01*
X3113989Y311302D01*
X3114852Y311658D01*
X3132886Y311454D01*
X3133547Y311099D01*
X3146094Y310540D01*
X3147974Y309880D01*
X3163468Y309067D01*
X3165957Y308356D01*
X3175609Y308102D01*
X3176117Y307949D01*
X3176778Y308203D01*
X3177946Y310083D01*
X3178251Y311251D01*
X3178505Y322580D01*
X3178251Y324104D01*
X3177438Y324510D01*
X3176422Y326034D01*
X3175558Y326186D01*
X3173984Y325069D01*
X3173171Y325069D01*
X3172155Y326186D01*
X3166668Y326542D01*
X3164230Y327355D01*
X3162198Y326796D01*
X3159556Y326593D01*
X3158896Y327152D01*
X3155645Y327304D01*
X3154629Y326390D01*
X3154273Y326390D01*
X3154019Y327253D01*
X3153308Y327660D01*
X3131667Y327304D01*
X3131413Y327456D01*
G37*
G36*
X3214014Y186893D02*
G01*
X3211830Y186283D01*
X3211372Y185978D01*
X3210966Y184912D01*
X3212185Y184200D01*
X3214725Y184200D01*
X3215640Y185013D01*
X3215335Y186232D01*
X3214471Y186893D01*
G37*
G36*
X3528161Y467512D02*
G01*
X3527298Y466953D01*
X3526993Y466140D01*
X3521456Y437794D01*
X3520948Y437032D01*
X3520287Y436626D01*
X3499916Y428650D01*
X3498900Y428548D01*
X3498037Y428904D01*
X3472891Y445262D01*
X3471672Y445211D01*
X3450336Y424942D01*
X3449929Y424180D01*
X3450132Y423418D01*
X3467252Y399491D01*
X3467252Y398322D01*
X3457854Y377799D01*
X3456990Y377190D01*
X3428034Y372059D01*
X3427222Y371703D01*
X3426714Y370941D01*
X3426764Y341985D01*
X3427526Y341223D01*
X3456736Y335889D01*
X3457448Y335076D01*
X3466490Y313588D01*
X3466490Y312674D01*
X3466134Y311912D01*
X3450234Y289864D01*
X3449980Y289204D01*
X3450132Y288340D01*
X3471265Y268173D01*
X3471976Y267817D01*
X3472942Y267817D01*
X3496513Y283108D01*
X3497834Y283108D01*
X3508501Y277672D01*
X3509314Y277825D01*
X3509721Y278231D01*
X3530498Y326034D01*
X3530498Y326898D01*
X3530092Y327507D01*
X3527298Y329133D01*
X3521049Y333705D01*
X3517595Y337312D01*
X3515410Y340360D01*
X3514090Y342646D01*
X3512769Y345490D01*
X3511448Y349910D01*
X3510686Y354736D01*
X3510838Y359511D01*
X3511245Y362254D01*
X3512210Y365861D01*
X3515055Y372008D01*
X3517188Y375005D01*
X3520694Y378764D01*
X3525316Y382270D01*
X3527653Y383641D01*
X3533343Y385927D01*
X3537407Y386943D01*
X3540404Y387350D01*
X3547211Y387197D01*
X3552240Y386232D01*
X3558692Y383794D01*
X3564077Y380339D01*
X3567531Y377088D01*
X3570681Y373176D01*
X3572103Y370890D01*
X3573627Y367741D01*
X3574592Y365099D01*
X3575812Y359156D01*
X3575812Y353669D01*
X3574745Y348234D01*
X3573475Y344627D01*
X3571494Y340817D01*
X3569614Y338124D01*
X3567785Y335940D01*
X3564585Y332994D01*
X3560318Y329895D01*
X3556406Y327456D01*
X3555949Y326288D01*
X3576777Y278384D01*
X3577488Y277723D01*
X3578148Y277723D01*
X3588715Y283057D01*
X3589578Y283210D01*
X3590442Y283006D01*
X3613759Y267817D01*
X3614623Y267817D01*
X3615334Y268173D01*
X3636213Y288137D01*
X3636518Y288645D01*
X3636518Y289661D01*
X3620211Y312267D01*
X3620109Y313588D01*
X3629050Y334873D01*
X3630015Y335889D01*
X3658819Y341122D01*
X3659428Y341579D01*
X3659886Y342392D01*
X3659886Y370840D01*
X3659428Y371652D01*
X3658565Y372059D01*
X3629304Y377291D01*
X3628390Y378206D01*
X3619347Y398322D01*
X3619347Y399491D01*
X3636518Y423519D01*
X3636518Y424738D01*
X3615080Y445160D01*
X3614165Y445414D01*
X3613404Y445160D01*
X3588562Y428904D01*
X3587546Y428548D01*
X3586632Y428701D01*
X3565956Y436829D01*
X3565093Y437845D01*
X3559505Y466547D01*
X3559098Y467106D01*
X3558286Y467512D01*
G37*
G36*
X3440074Y245008D02*
G01*
X3436874Y244856D01*
X3435096Y244398D01*
X3433267Y243535D01*
X3431794Y242519D01*
X3430930Y241655D01*
X3430727Y241655D01*
X3430727Y244652D01*
X3424478Y244652D01*
X3424478Y229768D01*
X3430727Y229768D01*
X3430930Y233730D01*
X3431438Y235610D01*
X3432048Y236880D01*
X3433114Y237998D01*
X3434283Y238607D01*
X3435908Y239014D01*
X3437788Y239064D01*
X3439414Y238709D01*
X3440734Y238099D01*
X3441801Y237032D01*
X3442462Y235712D01*
X3442970Y233883D01*
X3443173Y229717D01*
X3442970Y225907D01*
X3442563Y224129D01*
X3441852Y222656D01*
X3440887Y221589D01*
X3439617Y220979D01*
X3438144Y220573D01*
X3435756Y220573D01*
X3434283Y220979D01*
X3433165Y221589D01*
X3432200Y222554D01*
X3431438Y223926D01*
X3430981Y225907D01*
X3430727Y229768D01*
X3424478Y229768D01*
X3424478Y167894D01*
X3430727Y167894D01*
X3430778Y187096D01*
X3431336Y188772D01*
X3432251Y190144D01*
X3433368Y191109D01*
X3434892Y191770D01*
X3436620Y192074D01*
X3438398Y191922D01*
X3439820Y191465D01*
X3440836Y190855D01*
X3442157Y189382D01*
X3443020Y187452D01*
X3443173Y167944D01*
X3449421Y167944D01*
X3449472Y187706D01*
X3448862Y191363D01*
X3447592Y193802D01*
X3445814Y195630D01*
X3444240Y196697D01*
X3442360Y197510D01*
X3440176Y198018D01*
X3436772Y197866D01*
X3434892Y197358D01*
X3432708Y196291D01*
X3430727Y194513D01*
X3430828Y217982D01*
X3433775Y215849D01*
X3437280Y214629D01*
X3440379Y214629D01*
X3442106Y214985D01*
X3443782Y215646D01*
X3445510Y216712D01*
X3447084Y218186D01*
X3448354Y220014D01*
X3448964Y221894D01*
X3449370Y224688D01*
X3449370Y233934D01*
X3448710Y238607D01*
X3447592Y240792D01*
X3445560Y242824D01*
X3443833Y243941D01*
G37*
G36*
X3500475Y245008D02*
G01*
X3497173Y244856D01*
X3495649Y244500D01*
X3493668Y243586D01*
X3492093Y242468D01*
X3491331Y241554D01*
X3491077Y241554D01*
X3491077Y244652D01*
X3484829Y244652D01*
X3484829Y214884D01*
X3491077Y214884D01*
X3491179Y234086D01*
X3491839Y235966D01*
X3492652Y237134D01*
X3493770Y238099D01*
X3495294Y238760D01*
X3497021Y239064D01*
X3498850Y238912D01*
X3501186Y237896D01*
X3502151Y236982D01*
X3503422Y234340D01*
X3503523Y214934D01*
X3509772Y214934D01*
X3509772Y236220D01*
X3509213Y238506D01*
X3507994Y240792D01*
X3506063Y242722D01*
X3504285Y243890D01*
X3502406Y244602D01*
G37*
G36*
X3635959Y245008D02*
G01*
X3632454Y244856D01*
X3630929Y244500D01*
X3628948Y243586D01*
X3627374Y242468D01*
X3626612Y241554D01*
X3626358Y241554D01*
X3626358Y244652D01*
X3620109Y244652D01*
X3620109Y214884D01*
X3626358Y214884D01*
X3626408Y233375D01*
X3626764Y235254D01*
X3627526Y236778D01*
X3628593Y237845D01*
X3631082Y238963D01*
X3633927Y238963D01*
X3636721Y237693D01*
X3641140Y242671D01*
X3640328Y243332D01*
X3637940Y244500D01*
G37*
G36*
X3678682Y245008D02*
G01*
X3676599Y244551D01*
X3674567Y243789D01*
X3671620Y241757D01*
X3670096Y239877D01*
X3669029Y237998D01*
X3667760Y233730D01*
X3667603Y232511D01*
X3673754Y232511D01*
X3674262Y235407D01*
X3675075Y236982D01*
X3676599Y238404D01*
X3678021Y239064D01*
X3679596Y239420D01*
X3681831Y239318D01*
X3683304Y238810D01*
X3684524Y238048D01*
X3685641Y236880D01*
X3686505Y235153D01*
X3686911Y233476D01*
X3686911Y232511D01*
X3667603Y232511D01*
X3667607Y226466D01*
X3668674Y222300D01*
X3669741Y220116D01*
X3670858Y218643D01*
X3672586Y217068D01*
X3674059Y216154D01*
X3675837Y215392D01*
X3678224Y214782D01*
X3681374Y214477D01*
X3684270Y214782D01*
X3686556Y215341D01*
X3688334Y216052D01*
X3690620Y217474D01*
X3692651Y219354D01*
X3688079Y223062D01*
X3685641Y221284D01*
X3682339Y220217D01*
X3679951Y220217D01*
X3677259Y221081D01*
X3675126Y222758D01*
X3674160Y224688D01*
X3673754Y226567D01*
X3673754Y227482D01*
X3693312Y227482D01*
X3693160Y234442D01*
X3692296Y237439D01*
X3690620Y240385D01*
X3688435Y242468D01*
X3685590Y243992D01*
X3682695Y244906D01*
G37*
G36*
X3404514Y244957D02*
G01*
X3402736Y244652D01*
X3400094Y243687D01*
X3397402Y241960D01*
X3395624Y239979D01*
X3394303Y237388D01*
X3393795Y235559D01*
X3393287Y231241D01*
X3393421Y226974D01*
X3399637Y226974D01*
X3399688Y232917D01*
X3400044Y234950D01*
X3400958Y236626D01*
X3402076Y237794D01*
X3403854Y238709D01*
X3406140Y239014D01*
X3408578Y238709D01*
X3410356Y237794D01*
X3411575Y236524D01*
X3412286Y235051D01*
X3412693Y233171D01*
X3412845Y228752D01*
X3412591Y225501D01*
X3412185Y224231D01*
X3411423Y222808D01*
X3410254Y221691D01*
X3408730Y220929D01*
X3407257Y220573D01*
X3405174Y220573D01*
X3403650Y220979D01*
X3401568Y222199D01*
X3400450Y223774D01*
X3399637Y226974D01*
X3393421Y226974D01*
X3393643Y224790D01*
X3394456Y221589D01*
X3396081Y219100D01*
X3398977Y216509D01*
X3400602Y215646D01*
X3402482Y215036D01*
X3404819Y214629D01*
X3407562Y214629D01*
X3409899Y214985D01*
X3411931Y215696D01*
X3414522Y217220D01*
X3416808Y219659D01*
X3418078Y221843D01*
X3418992Y226009D01*
X3419043Y233375D01*
X3418179Y237439D01*
X3417366Y239166D01*
X3415131Y241808D01*
X3413251Y243230D01*
X3410762Y244398D01*
X3408629Y244906D01*
G37*
G36*
X3465017Y244957D02*
G01*
X3461664Y244144D01*
X3459429Y242925D01*
X3457956Y241808D01*
X3456686Y240334D01*
X3455619Y238607D01*
X3454704Y236524D01*
X3453790Y232511D01*
X3459937Y232511D01*
X3460496Y235407D01*
X3461410Y237083D01*
X3462680Y238302D01*
X3464255Y239064D01*
X3466541Y239369D01*
X3468115Y239217D01*
X3469589Y238760D01*
X3471722Y237083D01*
X3472687Y235254D01*
X3473196Y232511D01*
X3453790Y232511D01*
X3453790Y226821D01*
X3454704Y222808D01*
X3455619Y220675D01*
X3457092Y218643D01*
X3458667Y217170D01*
X3460597Y215950D01*
X3463594Y214985D01*
X3466033Y214629D01*
X3468522Y214579D01*
X3470554Y214833D01*
X3472687Y215392D01*
X3474720Y216204D01*
X3477260Y217830D01*
X3478885Y219354D01*
X3474262Y223062D01*
X3472078Y221437D01*
X3468573Y220217D01*
X3466134Y220268D01*
X3464560Y220624D01*
X3462934Y221335D01*
X3461359Y222758D01*
X3460445Y224485D01*
X3460089Y225806D01*
X3459937Y227482D01*
X3479495Y227482D01*
X3479444Y233375D01*
X3479241Y235153D01*
X3478682Y237083D01*
X3477615Y239267D01*
X3476802Y240385D01*
X3474923Y242265D01*
X3472789Y243636D01*
X3470910Y244398D01*
X3468928Y244906D01*
G37*
G36*
X3538677Y244957D02*
G01*
X3535172Y244246D01*
X3532530Y243027D01*
X3530295Y240893D01*
X3529380Y239115D01*
X3528923Y237540D01*
X3528923Y234238D01*
X3529482Y232460D01*
X3530346Y230987D01*
X3531615Y229666D01*
X3533292Y228600D01*
X3535476Y227838D01*
X3543808Y226872D01*
X3546094Y226314D01*
X3546957Y225399D01*
X3547211Y224485D01*
X3546856Y222402D01*
X3545840Y221335D01*
X3544315Y220624D01*
X3542385Y220217D01*
X3539388Y220217D01*
X3537305Y220573D01*
X3534511Y221640D01*
X3531108Y223977D01*
X3526840Y219964D01*
X3528415Y218541D01*
X3530803Y217068D01*
X3533292Y215849D01*
X3536086Y215036D01*
X3538575Y214629D01*
X3542690Y214629D01*
X3545179Y215036D01*
X3547160Y215646D01*
X3549142Y216560D01*
X3550716Y217627D01*
X3551936Y218897D01*
X3553409Y221945D01*
X3553510Y224637D01*
X3553206Y226466D01*
X3552545Y228295D01*
X3551072Y230174D01*
X3549904Y231089D01*
X3548227Y231902D01*
X3546195Y232460D01*
X3538321Y233070D01*
X3536899Y233476D01*
X3535730Y234238D01*
X3535172Y235153D01*
X3535324Y237083D01*
X3536492Y238556D01*
X3537915Y239166D01*
X3540048Y239420D01*
X3542537Y239267D01*
X3544976Y238709D01*
X3547313Y237642D01*
X3548887Y236626D01*
X3552799Y240995D01*
X3550056Y242824D01*
X3548227Y243687D01*
X3544570Y244703D01*
G37*
G36*
X3568293Y244957D02*
G01*
X3565601Y244398D01*
X3562654Y243078D01*
X3560826Y241604D01*
X3559149Y239623D01*
X3558286Y238048D01*
X3557371Y234797D01*
X3557095Y230784D01*
X3563315Y230784D01*
X3563620Y233984D01*
X3563975Y235254D01*
X3564686Y236575D01*
X3565855Y237794D01*
X3567633Y238709D01*
X3569919Y239014D01*
X3572357Y238709D01*
X3574084Y237845D01*
X3575253Y236677D01*
X3576116Y234899D01*
X3576472Y233019D01*
X3576675Y229108D01*
X3576370Y225653D01*
X3575913Y224078D01*
X3575050Y222707D01*
X3574034Y221691D01*
X3572560Y220979D01*
X3571036Y220573D01*
X3568903Y220573D01*
X3567429Y220979D01*
X3565956Y221742D01*
X3564737Y222859D01*
X3563874Y224586D01*
X3563467Y226466D01*
X3563315Y230784D01*
X3557095Y230784D01*
X3557219Y225907D01*
X3557625Y223621D01*
X3558590Y220979D01*
X3560216Y218592D01*
X3562146Y216916D01*
X3565296Y215239D01*
X3567277Y214782D01*
X3569970Y214528D01*
X3572713Y214782D01*
X3574694Y215239D01*
X3577945Y216966D01*
X3579723Y218592D01*
X3580993Y220217D01*
X3581958Y222199D01*
X3582771Y226009D01*
X3582924Y231241D01*
X3582365Y235762D01*
X3581755Y237845D01*
X3580739Y239725D01*
X3578199Y242468D01*
X3575558Y243941D01*
X3572408Y244906D01*
G37*
G36*
X3652926Y244957D02*
G01*
X3649268Y244144D01*
X3647592Y243433D01*
X3645560Y242163D01*
X3643579Y240182D01*
X3641902Y237337D01*
X3640785Y233730D01*
X3640480Y231292D01*
X3640582Y226821D01*
X3640988Y224739D01*
X3641801Y222453D01*
X3643020Y220167D01*
X3644646Y218236D01*
X3646322Y216916D01*
X3647998Y215950D01*
X3649878Y215239D01*
X3651808Y214782D01*
X3654602Y214528D01*
X3657244Y214782D01*
X3659225Y215239D01*
X3661410Y216154D01*
X3663543Y217525D01*
X3665931Y219710D01*
X3661257Y223621D01*
X3659682Y222199D01*
X3658311Y221335D01*
X3656584Y220675D01*
X3653586Y220573D01*
X3651758Y220929D01*
X3650132Y221691D01*
X3648710Y222910D01*
X3647795Y224282D01*
X3647084Y226212D01*
X3646779Y228396D01*
X3646932Y232257D01*
X3647541Y234696D01*
X3648456Y236372D01*
X3649929Y237794D01*
X3651808Y238658D01*
X3653180Y238963D01*
X3656177Y238963D01*
X3657955Y238455D01*
X3659530Y237540D01*
X3661308Y235966D01*
X3665778Y239775D01*
X3665778Y240029D01*
X3664102Y241604D01*
X3661968Y243078D01*
X3659428Y244297D01*
X3656939Y244906D01*
G37*
G36*
X3588258Y244652D02*
G01*
X3588308Y223012D01*
X3588867Y221132D01*
X3589985Y218998D01*
X3592017Y216865D01*
X3595166Y215138D01*
X3597198Y214629D01*
X3600196Y214579D01*
X3603802Y215646D01*
X3605428Y216712D01*
X3606850Y218084D01*
X3606952Y214934D01*
X3613251Y214884D01*
X3613251Y244652D01*
X3606850Y244652D01*
X3606850Y225755D01*
X3606495Y224282D01*
X3605733Y222808D01*
X3604615Y221691D01*
X3603091Y220929D01*
X3601821Y220573D01*
X3599687Y220573D01*
X3597198Y221488D01*
X3595624Y222961D01*
X3594557Y225552D01*
X3594506Y244652D01*
G37*
G36*
X3525875Y209651D02*
G01*
X3525875Y194513D01*
X3523538Y196291D01*
X3521405Y197358D01*
X3519678Y197916D01*
X3516833Y198018D01*
X3512870Y197053D01*
X3510991Y195834D01*
X3509162Y193954D01*
X3508298Y192633D01*
X3507740Y191058D01*
X3507333Y188874D01*
X3507079Y183540D01*
X3507215Y179019D01*
X3513531Y179019D01*
X3513531Y186385D01*
X3513988Y188417D01*
X3514699Y189890D01*
X3515918Y191109D01*
X3517137Y191719D01*
X3518662Y192024D01*
X3521760Y191820D01*
X3523234Y191160D01*
X3524453Y189941D01*
X3525113Y188671D01*
X3525621Y186893D01*
X3525875Y183642D01*
X3525723Y179730D01*
X3525367Y177698D01*
X3524859Y176276D01*
X3524046Y175107D01*
X3522878Y174193D01*
X3521405Y173685D01*
X3518001Y173685D01*
X3515969Y174396D01*
X3514851Y175463D01*
X3514090Y176936D01*
X3513531Y179019D01*
X3507215Y179019D01*
X3507892Y174040D01*
X3508806Y172110D01*
X3510229Y170383D01*
X3512058Y169062D01*
X3514039Y168148D01*
X3516020Y167640D01*
X3519271Y167640D01*
X3522370Y168605D01*
X3524097Y169570D01*
X3525875Y171043D01*
X3525875Y167894D01*
X3532124Y167894D01*
X3532124Y209651D01*
G37*
G36*
X3463899Y197967D02*
G01*
X3460038Y197154D01*
X3458159Y196189D01*
X3456686Y195072D01*
X3455517Y193649D01*
X3460343Y190144D01*
X3461715Y191516D01*
X3463036Y192074D01*
X3464915Y192379D01*
X3468573Y192278D01*
X3471113Y191668D01*
X3472332Y190550D01*
X3472738Y189280D01*
X3472738Y185521D01*
X3462020Y185420D01*
X3458667Y184404D01*
X3456127Y182575D01*
X3454450Y180035D01*
X3453942Y178308D01*
X3453790Y176377D01*
X3459784Y176377D01*
X3459835Y177749D01*
X3460394Y178968D01*
X3461715Y179882D01*
X3463645Y180492D01*
X3472738Y180492D01*
X3472637Y176377D01*
X3472230Y175158D01*
X3471418Y174142D01*
X3470198Y173583D01*
X3468268Y173228D01*
X3464306Y173228D01*
X3462629Y173583D01*
X3461207Y174244D01*
X3460140Y175361D01*
X3459784Y176377D01*
X3453790Y176377D01*
X3454095Y174396D01*
X3454806Y172567D01*
X3455720Y171196D01*
X3458311Y169062D01*
X3461156Y167995D01*
X3465068Y167487D01*
X3468776Y167944D01*
X3471214Y169011D01*
X3472484Y170281D01*
X3472484Y170484D01*
X3472738Y170484D01*
X3472738Y167894D01*
X3478987Y167894D01*
X3478885Y190550D01*
X3478326Y192278D01*
X3477564Y193751D01*
X3476548Y195021D01*
X3474923Y196240D01*
X3473145Y197002D01*
X3470960Y197612D01*
X3468065Y197967D01*
G37*
G36*
X3498900Y197967D02*
G01*
X3496411Y197408D01*
X3494684Y196545D01*
X3492246Y194564D01*
X3492246Y197612D01*
X3485997Y197612D01*
X3485997Y167894D01*
X3492246Y167894D01*
X3492246Y186740D01*
X3492601Y188315D01*
X3493363Y189839D01*
X3494684Y191058D01*
X3497072Y191922D01*
X3499815Y191922D01*
X3502507Y190652D01*
X3507028Y195732D01*
X3504590Y197205D01*
X3502406Y197916D01*
G37*
G36*
X3590290Y197967D02*
G01*
X3586429Y197154D01*
X3584549Y196189D01*
X3583076Y195072D01*
X3581806Y193700D01*
X3586784Y190093D01*
X3588054Y191465D01*
X3589375Y192074D01*
X3591306Y192379D01*
X3595014Y192278D01*
X3597452Y191668D01*
X3598570Y190754D01*
X3599027Y189738D01*
X3599129Y185521D01*
X3588461Y185420D01*
X3586022Y184810D01*
X3584194Y183946D01*
X3582771Y182880D01*
X3581603Y181457D01*
X3580739Y179730D01*
X3580333Y178155D01*
X3580333Y176530D01*
X3586175Y176530D01*
X3586226Y177749D01*
X3586784Y178968D01*
X3587648Y179679D01*
X3590036Y180492D01*
X3599129Y180492D01*
X3599027Y176377D01*
X3598621Y175158D01*
X3597859Y174193D01*
X3596589Y173583D01*
X3594709Y173228D01*
X3590696Y173228D01*
X3589020Y173583D01*
X3587597Y174244D01*
X3586530Y175361D01*
X3586175Y176530D01*
X3580333Y176530D01*
X3580333Y175107D01*
X3580739Y173532D01*
X3581603Y171856D01*
X3582822Y170434D01*
X3584295Y169316D01*
X3586581Y168249D01*
X3588512Y167792D01*
X3591356Y167487D01*
X3595166Y167944D01*
X3597656Y169011D01*
X3598875Y170281D01*
X3598875Y170484D01*
X3599129Y170484D01*
X3599129Y167894D01*
X3605377Y167894D01*
X3605377Y189738D01*
X3604869Y191922D01*
X3603751Y193954D01*
X3602329Y195529D01*
X3600145Y196748D01*
X3598367Y197358D01*
X3595928Y197815D01*
G37*
G36*
X3625342Y197967D02*
G01*
X3623564Y197612D01*
X3621938Y197002D01*
X3620515Y196189D01*
X3618636Y194564D01*
X3618636Y197612D01*
X3612387Y197612D01*
X3612387Y167894D01*
X3618636Y167894D01*
X3618636Y186740D01*
X3618992Y188315D01*
X3619754Y189738D01*
X3620820Y190855D01*
X3622294Y191668D01*
X3624173Y192074D01*
X3626307Y191922D01*
X3628796Y190601D01*
X3633419Y195732D01*
X3630980Y197205D01*
X3628796Y197916D01*
G37*
G36*
X3644798Y197967D02*
G01*
X3642614Y197510D01*
X3640937Y196900D01*
X3639007Y195834D01*
X3636975Y194005D01*
X3635603Y192024D01*
X3634638Y189839D01*
X3633640Y185470D01*
X3639870Y185470D01*
X3639870Y186639D01*
X3641090Y189839D01*
X3642512Y191312D01*
X3644036Y192074D01*
X3645560Y192379D01*
X3647998Y192227D01*
X3649472Y191719D01*
X3651554Y190093D01*
X3652621Y187858D01*
X3653028Y185470D01*
X3633640Y185470D01*
X3633622Y180594D01*
X3634282Y176682D01*
X3635044Y174599D01*
X3636010Y172821D01*
X3637584Y170891D01*
X3639413Y169519D01*
X3641953Y168351D01*
X3644341Y167792D01*
X3647490Y167487D01*
X3651453Y168046D01*
X3653840Y168859D01*
X3655974Y170027D01*
X3658615Y172262D01*
X3658615Y172466D01*
X3654247Y175971D01*
X3652367Y174650D01*
X3650691Y173837D01*
X3649065Y173329D01*
X3646322Y173228D01*
X3644442Y173583D01*
X3642614Y174447D01*
X3641191Y175818D01*
X3640378Y177292D01*
X3639870Y179120D01*
X3639870Y180492D01*
X3659276Y180492D01*
X3659174Y187807D01*
X3658514Y190144D01*
X3657447Y192328D01*
X3655872Y194310D01*
X3653180Y196291D01*
X3649827Y197612D01*
X3647846Y197967D01*
G37*
G36*
X3535527Y197612D02*
G01*
X3545535Y167894D01*
X3551021Y167944D01*
X3557625Y188772D01*
X3564229Y167944D01*
X3569766Y167944D01*
X3579723Y197561D01*
X3573068Y197561D01*
X3567023Y176784D01*
X3559911Y197612D01*
X3555288Y197561D01*
X3548126Y176784D01*
X3542182Y197612D01*
G37*
G36*
X1654048Y268986D02*
G01*
X1653082Y268884D01*
X1651914Y268224D01*
X1651406Y267563D01*
X1618538Y185674D01*
X1618538Y184810D01*
X1619046Y183642D01*
X1620012Y182778D01*
X1621180Y182422D01*
X1622704Y182473D01*
X1623517Y182829D01*
X1624584Y184150D01*
X1656842Y265480D01*
X1656791Y266547D01*
X1656435Y267716D01*
X1655673Y268579D01*
G37*
G36*
X1428242Y268732D02*
G01*
X1426210Y268224D01*
X1410716Y263144D01*
X1409954Y262686D01*
X1409395Y262026D01*
X1409039Y261162D01*
X1408988Y259486D01*
X1409344Y258470D01*
X1410208Y257708D01*
X1412240Y257302D01*
X1425194Y261366D01*
X1425244Y192938D01*
X1425600Y191770D01*
X1426464Y190906D01*
X1427632Y190550D01*
X1428851Y190550D01*
X1429867Y190906D01*
X1430731Y191770D01*
X1431239Y192938D01*
X1431290Y265684D01*
X1431036Y266903D01*
X1430274Y267970D01*
X1429410Y268528D01*
G37*
G36*
X1449832Y268732D02*
G01*
X1448612Y268528D01*
X1447546Y267970D01*
X1446987Y266903D01*
X1446784Y265684D01*
X1446987Y264464D01*
X1447546Y263398D01*
X1448612Y262839D01*
X1449832Y262636D01*
X1487170Y262636D01*
X1455724Y193852D01*
X1455724Y192938D01*
X1456232Y191770D01*
X1457096Y190906D01*
X1458112Y190550D01*
X1459230Y190550D01*
X1460855Y191262D01*
X1461363Y191922D01*
X1495196Y264972D01*
X1495298Y265684D01*
X1495094Y266903D01*
X1494536Y267970D01*
X1493469Y268528D01*
X1492250Y268732D01*
G37*
G36*
X1528318Y268732D02*
G01*
X1525219Y268528D01*
X1522272Y267970D01*
X1519529Y267004D01*
X1516888Y265684D01*
X1514500Y264007D01*
X1512366Y262077D01*
X1510538Y259842D01*
X1509014Y257302D01*
X1507693Y254558D01*
X1506728Y251663D01*
X1506169Y248564D01*
X1506016Y244754D01*
X1506524Y243738D01*
X1507388Y242874D01*
X1508404Y242366D01*
X1509623Y242366D01*
X1510792Y242874D01*
X1511655Y243738D01*
X1512011Y244754D01*
X1512214Y247751D01*
X1512620Y249986D01*
X1513332Y252171D01*
X1515465Y256082D01*
X1518412Y259130D01*
X1522018Y261366D01*
X1524000Y262077D01*
X1526082Y262483D01*
X1528318Y262636D01*
X1530553Y262483D01*
X1532636Y262077D01*
X1534617Y261366D01*
X1538224Y259130D01*
X1541170Y256082D01*
X1543304Y252171D01*
X1544015Y249986D01*
X1544421Y247751D01*
X1544472Y243840D01*
X1543710Y240639D01*
X1542237Y237337D01*
X1540459Y234543D01*
X1507236Y194665D01*
X1506982Y193548D01*
X1507236Y192328D01*
X1507998Y191262D01*
X1508861Y190703D01*
X1510030Y190500D01*
X1550263Y190550D01*
X1551279Y190906D01*
X1552143Y191770D01*
X1552651Y192938D01*
X1552651Y194157D01*
X1552143Y195173D01*
X1551279Y196037D01*
X1550263Y196545D01*
X1516126Y196596D01*
X1545132Y230886D01*
X1547672Y234797D01*
X1549552Y238810D01*
X1550568Y243128D01*
X1550670Y245364D01*
X1550466Y248564D01*
X1549908Y251663D01*
X1548942Y254558D01*
X1547622Y257302D01*
X1546098Y259842D01*
X1544269Y262077D01*
X1542135Y264007D01*
X1539748Y265684D01*
X1537106Y267004D01*
X1534363Y267970D01*
X1531416Y268528D01*
G37*
G36*
X1585976Y268732D02*
G01*
X1582877Y268528D01*
X1579930Y267970D01*
X1577187Y267004D01*
X1574546Y265684D01*
X1572107Y264007D01*
X1569974Y262077D01*
X1568043Y259842D01*
X1566418Y257302D01*
X1565198Y254558D01*
X1564335Y251663D01*
X1563776Y248564D01*
X1563674Y244754D01*
X1564030Y243738D01*
X1564894Y242874D01*
X1566062Y242366D01*
X1567281Y242366D01*
X1568450Y242874D01*
X1569313Y243738D01*
X1569669Y244754D01*
X1570228Y249986D01*
X1571752Y254254D01*
X1572971Y256082D01*
X1575917Y259130D01*
X1577594Y260350D01*
X1579524Y261366D01*
X1581607Y262077D01*
X1583740Y262483D01*
X1585976Y262636D01*
X1588109Y262483D01*
X1590192Y262077D01*
X1592173Y261366D01*
X1595882Y259130D01*
X1598828Y256082D01*
X1599946Y254254D01*
X1601470Y249986D01*
X1601876Y247751D01*
X1601876Y243840D01*
X1601266Y240639D01*
X1599895Y237337D01*
X1598117Y234543D01*
X1565402Y195580D01*
X1564843Y194665D01*
X1564640Y193548D01*
X1564843Y192328D01*
X1565402Y191262D01*
X1566468Y190703D01*
X1567688Y190500D01*
X1607921Y190550D01*
X1608937Y190906D01*
X1609699Y191770D01*
X1610055Y192938D01*
X1610055Y194157D01*
X1609699Y195173D01*
X1608937Y196037D01*
X1607921Y196545D01*
X1573530Y196596D01*
X1602790Y230886D01*
X1605330Y234797D01*
X1607058Y238810D01*
X1607972Y243128D01*
X1607921Y248564D01*
X1607362Y251663D01*
X1606499Y254558D01*
X1605280Y257302D01*
X1603756Y259842D01*
X1601927Y262077D01*
X1599793Y264007D01*
X1597406Y265684D01*
X1594764Y267004D01*
X1592021Y267970D01*
X1589074Y268528D01*
G37*
G36*
X1781810Y268478D02*
G01*
X1780590Y268274D01*
X1779524Y267716D01*
X1778965Y266852D01*
X1778762Y265684D01*
X1778812Y192938D01*
X1779168Y191770D01*
X1780032Y190906D01*
X1781200Y190550D01*
X1782419Y190550D01*
X1783588Y190906D01*
X1784451Y191770D01*
X1784807Y192938D01*
X1784857Y209296D01*
X1794002Y217932D01*
X1816252Y190957D01*
X1817268Y190347D01*
X1818284Y190296D01*
X1819148Y190652D01*
X1820113Y191516D01*
X1820621Y192532D01*
X1820621Y193548D01*
X1820164Y194818D01*
X1798320Y221488D01*
X1819859Y241300D01*
X1820367Y242316D01*
X1820367Y243332D01*
X1820011Y244195D01*
X1819148Y245059D01*
X1818132Y245567D01*
X1817217Y245567D01*
X1816354Y245211D01*
X1784857Y216662D01*
X1784807Y266293D01*
X1784451Y267309D01*
X1783588Y268071D01*
G37*
G36*
X1839214Y268478D02*
G01*
X1837994Y268274D01*
X1836928Y267716D01*
X1836369Y266852D01*
X1836166Y265684D01*
X1836216Y192938D01*
X1836572Y191770D01*
X1837436Y190906D01*
X1838604Y190550D01*
X1839823Y190550D01*
X1840992Y190906D01*
X1841855Y191770D01*
X1842211Y192938D01*
X1842262Y209296D01*
X1851406Y217932D01*
X1873656Y190957D01*
X1874672Y190347D01*
X1875688Y190296D01*
X1876552Y190652D01*
X1877517Y191516D01*
X1878025Y192532D01*
X1878025Y193548D01*
X1877771Y194411D01*
X1855724Y221488D01*
X1877263Y241300D01*
X1877771Y242316D01*
X1877771Y243332D01*
X1877415Y244195D01*
X1876552Y245059D01*
X1875536Y245567D01*
X1874621Y245567D01*
X1873757Y245211D01*
X1842262Y216662D01*
X1842211Y266293D01*
X1841855Y267309D01*
X1840992Y268071D01*
G37*
G36*
X2003043Y268478D02*
G01*
X2001824Y268274D01*
X2000757Y267716D01*
X2000199Y266852D01*
X1999996Y265684D01*
X1999996Y217932D01*
X2006092Y217932D01*
X2006244Y221030D01*
X2006803Y223977D01*
X2007666Y226720D01*
X2008886Y229362D01*
X2010410Y231749D01*
X2012238Y233883D01*
X2014372Y235712D01*
X2019249Y238556D01*
X2021941Y239521D01*
X2024837Y240080D01*
X2027936Y240284D01*
X2030933Y240080D01*
X2033778Y239521D01*
X2036521Y238556D01*
X2039112Y237236D01*
X2041499Y235712D01*
X2043633Y233883D01*
X2045462Y231749D01*
X2046986Y229362D01*
X2048205Y226720D01*
X2049068Y223977D01*
X2049627Y221030D01*
X2049780Y217932D01*
X2049627Y214833D01*
X2049068Y211886D01*
X2048205Y209143D01*
X2046986Y206502D01*
X2045462Y204063D01*
X2043633Y201930D01*
X2041499Y199999D01*
X2039112Y198374D01*
X2036521Y197154D01*
X2033778Y196291D01*
X2030933Y195732D01*
X2027936Y195580D01*
X2024837Y195732D01*
X2021941Y196291D01*
X2019249Y197154D01*
X2016760Y198374D01*
X2014372Y200050D01*
X2012238Y201930D01*
X2010410Y204063D01*
X2008886Y206502D01*
X2007666Y209143D01*
X2006803Y211886D01*
X2006244Y214833D01*
X2006092Y217932D01*
X1999996Y217932D01*
X2000250Y213563D01*
X2000961Y209905D01*
X2002129Y206451D01*
X2003806Y203200D01*
X2005888Y200304D01*
X2008225Y197713D01*
X2010968Y195478D01*
X2013966Y193548D01*
X2017217Y191973D01*
X2020620Y190906D01*
X2024227Y190195D01*
X2027936Y189992D01*
X2031796Y190195D01*
X2035454Y190855D01*
X2038908Y191973D01*
X2042160Y193548D01*
X2045157Y195529D01*
X2047900Y197866D01*
X2050237Y200609D01*
X2052320Y203708D01*
X2053894Y206959D01*
X2054961Y210413D01*
X2055672Y214071D01*
X2055875Y217932D01*
X2055672Y221792D01*
X2054961Y225450D01*
X2053894Y228904D01*
X2052320Y232156D01*
X2050237Y235153D01*
X2047900Y237794D01*
X2045157Y240131D01*
X2042160Y242062D01*
X2038908Y243738D01*
X2035454Y244906D01*
X2031796Y245617D01*
X2027936Y245871D01*
X2024481Y245668D01*
X2021128Y245110D01*
X2017979Y244144D01*
X2014982Y242824D01*
X2012340Y241147D01*
X2009952Y239217D01*
X2007870Y236982D01*
X2006092Y234442D01*
X2006041Y266293D01*
X2005533Y267309D01*
X2004669Y268071D01*
G37*
G36*
X1329436Y265938D02*
G01*
X1327708Y265684D01*
X1326134Y264922D01*
X1325168Y263398D01*
X1324864Y261366D01*
X1325168Y259537D01*
X1326134Y258064D01*
X1327607Y257098D01*
X1329436Y256794D01*
X1331264Y257098D01*
X1332738Y258064D01*
X1333703Y259537D01*
X1334008Y261366D01*
X1333703Y263398D01*
X1332738Y264922D01*
X1331264Y265684D01*
G37*
G36*
X1677162Y262636D02*
G01*
X1675942Y262432D01*
X1674875Y261874D01*
X1674317Y260807D01*
X1674114Y259588D01*
X1674114Y243078D01*
X1665732Y243027D01*
X1664462Y242570D01*
X1663903Y241706D01*
X1663700Y240538D01*
X1663903Y239369D01*
X1664462Y238506D01*
X1665274Y237947D01*
X1666239Y237744D01*
X1674114Y237744D01*
X1674114Y209804D01*
X1674266Y207111D01*
X1674672Y204520D01*
X1675384Y202133D01*
X1676400Y199898D01*
X1677771Y197866D01*
X1679397Y196037D01*
X1681225Y194411D01*
X1683257Y193040D01*
X1685493Y191922D01*
X1687830Y191160D01*
X1690319Y190652D01*
X1695196Y190500D01*
X1696516Y190703D01*
X1697482Y191262D01*
X1698243Y192328D01*
X1698498Y193548D01*
X1698243Y194767D01*
X1697482Y195834D01*
X1696516Y196392D01*
X1690370Y196799D01*
X1687880Y197510D01*
X1685696Y198577D01*
X1683766Y200152D01*
X1682191Y202184D01*
X1681124Y204470D01*
X1680413Y207010D01*
X1680210Y209804D01*
X1680210Y237744D01*
X1694027Y237794D01*
X1695043Y238150D01*
X1695805Y238912D01*
X1696161Y239928D01*
X1696161Y241147D01*
X1695805Y242163D01*
X1695043Y242773D01*
X1694027Y243027D01*
X1680210Y243078D01*
X1680159Y260197D01*
X1679803Y261366D01*
X1678939Y262229D01*
G37*
G36*
X1281430Y245871D02*
G01*
X1277721Y245668D01*
X1274114Y244957D01*
X1270711Y243890D01*
X1267460Y242316D01*
X1264462Y240385D01*
X1261719Y238048D01*
X1259382Y235407D01*
X1257300Y232410D01*
X1255725Y229158D01*
X1254556Y225755D01*
X1253845Y222148D01*
X1253490Y217678D01*
X1259586Y217678D01*
X1259738Y220776D01*
X1260297Y223723D01*
X1261160Y226466D01*
X1262380Y229108D01*
X1263904Y231495D01*
X1265732Y233679D01*
X1267866Y235610D01*
X1270254Y237236D01*
X1272844Y238556D01*
X1275588Y239521D01*
X1278432Y240080D01*
X1281430Y240284D01*
X1284528Y240080D01*
X1287373Y239521D01*
X1290116Y238556D01*
X1292606Y237236D01*
X1294993Y235610D01*
X1297127Y233679D01*
X1298956Y231495D01*
X1300480Y229108D01*
X1301800Y226466D01*
X1302766Y223723D01*
X1303324Y220776D01*
X1303528Y217678D01*
X1303324Y214680D01*
X1302766Y211836D01*
X1301800Y209092D01*
X1298956Y204063D01*
X1297127Y201930D01*
X1294993Y199999D01*
X1292606Y198374D01*
X1290116Y197154D01*
X1287373Y196291D01*
X1284528Y195732D01*
X1281430Y195580D01*
X1278432Y195732D01*
X1275588Y196291D01*
X1272844Y197154D01*
X1270254Y198374D01*
X1267866Y200050D01*
X1265732Y201930D01*
X1263904Y204063D01*
X1262380Y206502D01*
X1261160Y209092D01*
X1260297Y211836D01*
X1259738Y214680D01*
X1259586Y217678D01*
X1253490Y217678D01*
X1253540Y169468D01*
X1254048Y168300D01*
X1254912Y167538D01*
X1255928Y167182D01*
X1257249Y167182D01*
X1258417Y167538D01*
X1259179Y168300D01*
X1259535Y169468D01*
X1259586Y201422D01*
X1261414Y198882D01*
X1263497Y196646D01*
X1265986Y194716D01*
X1268730Y193040D01*
X1271625Y191719D01*
X1274724Y190754D01*
X1277975Y190195D01*
X1281430Y189992D01*
X1285290Y190195D01*
X1288999Y190855D01*
X1292504Y191973D01*
X1295908Y193548D01*
X1298905Y195529D01*
X1301546Y197866D01*
X1303883Y200609D01*
X1305814Y203708D01*
X1307490Y206959D01*
X1308658Y210362D01*
X1309370Y213969D01*
X1309624Y217678D01*
X1309370Y221640D01*
X1308658Y225348D01*
X1307490Y228854D01*
X1305814Y232156D01*
X1303883Y235153D01*
X1301546Y237794D01*
X1298905Y240131D01*
X1295908Y242062D01*
X1292504Y243738D01*
X1288999Y244906D01*
X1285290Y245617D01*
G37*
G36*
X1735836Y245871D02*
G01*
X1731975Y245617D01*
X1728368Y244906D01*
X1724863Y243738D01*
X1721612Y242062D01*
X1718614Y240131D01*
X1715922Y237794D01*
X1713534Y235153D01*
X1711452Y232156D01*
X1709877Y228854D01*
X1708759Y225348D01*
X1708099Y221640D01*
X1707896Y217678D01*
X1713992Y217678D01*
X1714144Y220776D01*
X1714703Y223723D01*
X1715566Y226466D01*
X1716786Y229108D01*
X1718310Y231495D01*
X1720138Y233679D01*
X1722272Y235610D01*
X1724660Y237236D01*
X1727250Y238556D01*
X1729993Y239521D01*
X1732838Y240080D01*
X1735836Y240284D01*
X1738934Y240080D01*
X1741830Y239521D01*
X1744522Y238556D01*
X1747012Y237236D01*
X1749399Y235610D01*
X1751533Y233679D01*
X1753362Y231495D01*
X1754886Y229108D01*
X1756105Y226466D01*
X1756968Y223723D01*
X1757527Y220776D01*
X1757680Y217678D01*
X1757527Y214680D01*
X1756968Y211836D01*
X1756105Y209092D01*
X1754886Y206502D01*
X1753362Y204063D01*
X1751533Y201930D01*
X1749399Y199999D01*
X1747012Y198374D01*
X1744522Y197154D01*
X1741830Y196291D01*
X1738934Y195732D01*
X1735836Y195580D01*
X1732838Y195732D01*
X1729993Y196291D01*
X1727250Y197154D01*
X1724660Y198374D01*
X1722272Y200050D01*
X1720138Y201930D01*
X1718310Y204063D01*
X1716786Y206502D01*
X1715566Y209092D01*
X1714703Y211836D01*
X1714144Y214680D01*
X1713992Y217678D01*
X1707896Y217678D01*
X1708099Y213969D01*
X1708810Y210362D01*
X1709877Y206959D01*
X1711452Y203708D01*
X1713534Y200609D01*
X1715922Y197866D01*
X1718614Y195529D01*
X1721612Y193548D01*
X1724863Y191973D01*
X1728368Y190906D01*
X1731975Y190195D01*
X1735836Y189992D01*
X1739290Y190195D01*
X1742643Y190754D01*
X1745792Y191719D01*
X1748789Y193040D01*
X1751431Y194716D01*
X1753819Y196646D01*
X1755902Y198882D01*
X1757680Y201422D01*
X1757730Y192938D01*
X1758238Y191770D01*
X1759102Y190906D01*
X1760118Y190550D01*
X1761439Y190550D01*
X1762607Y190906D01*
X1763369Y191770D01*
X1763725Y192938D01*
X1763775Y217678D01*
X1763572Y221640D01*
X1762912Y225348D01*
X1761794Y228854D01*
X1760220Y232156D01*
X1758137Y235153D01*
X1755800Y237794D01*
X1753057Y240131D01*
X1750060Y242062D01*
X1746808Y243738D01*
X1743303Y244906D01*
X1739696Y245617D01*
G37*
G36*
X1375156Y245617D02*
G01*
X1371549Y245414D01*
X1368145Y244754D01*
X1364945Y243636D01*
X1361948Y242062D01*
X1359204Y240131D01*
X1356715Y237794D01*
X1354632Y235153D01*
X1352804Y232156D01*
X1351381Y228854D01*
X1350314Y225348D01*
X1349684Y221234D01*
X1355598Y221234D01*
X1356360Y225247D01*
X1357680Y228854D01*
X1359560Y232105D01*
X1361948Y234950D01*
X1364792Y237185D01*
X1367891Y238760D01*
X1371396Y239725D01*
X1375156Y240029D01*
X1379067Y239725D01*
X1382572Y238760D01*
X1385773Y237185D01*
X1388618Y234950D01*
X1391005Y232105D01*
X1392834Y228854D01*
X1394053Y225247D01*
X1394714Y221234D01*
X1349684Y221234D01*
X1349502Y217678D01*
X1349705Y213817D01*
X1350365Y210210D01*
X1351483Y206705D01*
X1353058Y203454D01*
X1354988Y200456D01*
X1357223Y197815D01*
X1359814Y195478D01*
X1362710Y193548D01*
X1365859Y191973D01*
X1369263Y190906D01*
X1372870Y190195D01*
X1376680Y189992D01*
X1381556Y190500D01*
X1386586Y192024D01*
X1391208Y194056D01*
X1394968Y196596D01*
X1395526Y197612D01*
X1395730Y198628D01*
X1395476Y199745D01*
X1394714Y200660D01*
X1393901Y201218D01*
X1392936Y201422D01*
X1391920Y201168D01*
X1388160Y198475D01*
X1384554Y196850D01*
X1380540Y195884D01*
X1376680Y195580D01*
X1373835Y195732D01*
X1371142Y196240D01*
X1368653Y197002D01*
X1366266Y198120D01*
X1363980Y199644D01*
X1361948Y201371D01*
X1360170Y203301D01*
X1358646Y205486D01*
X1357426Y207873D01*
X1356512Y210362D01*
X1355902Y213055D01*
X1355598Y215900D01*
X1398117Y215950D01*
X1399133Y216306D01*
X1399895Y217068D01*
X1400251Y218084D01*
X1400098Y222504D01*
X1399540Y226110D01*
X1398574Y229514D01*
X1397254Y232664D01*
X1395476Y235559D01*
X1393393Y238150D01*
X1391005Y240385D01*
X1388364Y242316D01*
X1385366Y243738D01*
X1382115Y244805D01*
X1378762Y245414D01*
G37*
G36*
X1329436Y245110D02*
G01*
X1328318Y244906D01*
X1327404Y244348D01*
X1326642Y243484D01*
X1326388Y242316D01*
X1326438Y192938D01*
X1326946Y191770D01*
X1327810Y190906D01*
X1328826Y190550D01*
X1330147Y190550D01*
X1331315Y190906D01*
X1332077Y191770D01*
X1332433Y192938D01*
X1332484Y242316D01*
X1332280Y243484D01*
X1331722Y244348D01*
X1330756Y244906D01*
G37*
G36*
X1895602Y245110D02*
G01*
X1894484Y244906D01*
X1893570Y244348D01*
X1892807Y243484D01*
X1892554Y242316D01*
X1892554Y215392D01*
X1892757Y211480D01*
X1893366Y207873D01*
X1894433Y204622D01*
X1895856Y201676D01*
X1897634Y198932D01*
X1899716Y196545D01*
X1902104Y194462D01*
X1904746Y192786D01*
X1907743Y191465D01*
X1910994Y190500D01*
X1914347Y189941D01*
X1917954Y189738D01*
X1920798Y189890D01*
X1923542Y190296D01*
X1926132Y191008D01*
X1928622Y192024D01*
X1933143Y194919D01*
X1937004Y198628D01*
X1937054Y192938D01*
X1937410Y191770D01*
X1938172Y190906D01*
X1939188Y190550D01*
X1940509Y190550D01*
X1941677Y190906D01*
X1942439Y191770D01*
X1942795Y192938D01*
X1942846Y242316D01*
X1942642Y243484D01*
X1942084Y244348D01*
X1941118Y244906D01*
X1939798Y245110D01*
X1938629Y244906D01*
X1937766Y244348D01*
X1937207Y243484D01*
X1937004Y242316D01*
X1937004Y211582D01*
X1936851Y209448D01*
X1936394Y207365D01*
X1935581Y205384D01*
X1934464Y203454D01*
X1933092Y201777D01*
X1931466Y200253D01*
X1927606Y197866D01*
X1923034Y196342D01*
X1917954Y195834D01*
X1913839Y196138D01*
X1910130Y197104D01*
X1906879Y198678D01*
X1903984Y200914D01*
X1901647Y203606D01*
X1899970Y206959D01*
X1899005Y210870D01*
X1898650Y215392D01*
X1898599Y242925D01*
X1898091Y243941D01*
X1897227Y244703D01*
G37*
G36*
X1958848Y220979D02*
G01*
X1957628Y220725D01*
X1956562Y219964D01*
X1956003Y218998D01*
X1955800Y217678D01*
X1956003Y216509D01*
X1956562Y215646D01*
X1957628Y215087D01*
X1958848Y214884D01*
X1983689Y214934D01*
X1984857Y215290D01*
X1985721Y216052D01*
X1986229Y217068D01*
X1986229Y218389D01*
X1985721Y219557D01*
X1984857Y220421D01*
X1983689Y220929D01*
G37*
D10*
X1403857Y979678D02*
G01*
X1403857Y884428D01*
X1467357Y979678D02*
G01*
X1467357Y884428D01*
X1403857Y934212D02*
G01*
X1467357Y934212D01*
X1957118Y984105D02*
G01*
X1957118Y888601D01*
X2020872Y984105D02*
G01*
X2020872Y888601D01*
X1957118Y938639D02*
G01*
X2020872Y938639D01*
X2935295Y989754D02*
G01*
X2935295Y894250D01*
X2935295Y989754D02*
G01*
X2971871Y894250D01*
X3008193Y989754D02*
G01*
X2971871Y894250D01*
X3008193Y989754D02*
G01*
X3008193Y894250D01*
X3485134Y989667D02*
G01*
X3485134Y894163D01*
X3485134Y989667D02*
G01*
X3521456Y894163D01*
X3557777Y989667D02*
G01*
X3521456Y894163D01*
X3557777Y989667D02*
G01*
X3557777Y894163D01*
X1177470Y1185926D02*
G01*
X1186614Y1190497D01*
X1200330Y1204213D01*
X1200330Y1108710D01*
X1170795Y1613407D02*
G01*
X1170795Y1617726D01*
X1175367Y1626870D01*
X1179939Y1631442D01*
X1189083Y1636013D01*
X1207371Y1636013D01*
X1216261Y1631442D01*
X1220833Y1626870D01*
X1225405Y1617726D01*
X1225405Y1608836D01*
X1220833Y1599692D01*
X1211689Y1585976D01*
X1166223Y1540510D01*
X1229977Y1540510D01*
X1208278Y2067305D02*
G01*
X1162812Y2003552D01*
X1231137Y2003552D01*
X1208278Y2067305D02*
G01*
X1208278Y1971802D01*
X1189736Y2497073D02*
G01*
X1176020Y2492502D01*
X1171447Y2483357D01*
X1171447Y2474213D01*
X1176020Y2465323D01*
X1185163Y2460752D01*
X1203197Y2456179D01*
X1216913Y2451607D01*
X1226057Y2442463D01*
X1230629Y2433320D01*
X1230629Y2419857D01*
X1226057Y2410713D01*
X1221486Y2406142D01*
X1207770Y2401570D01*
X1189736Y2401570D01*
X1176020Y2406142D01*
X1171447Y2410713D01*
X1166876Y2419857D01*
X1166876Y2433320D01*
X1171447Y2442463D01*
X1180592Y2451607D01*
X1194307Y2456179D01*
X1212342Y2460752D01*
X1221486Y2465323D01*
X1226057Y2474213D01*
X1226057Y2483357D01*
X1221486Y2492502D01*
X1207770Y2497073D01*
X1189736Y2497073D01*
D11*
X1206500Y400812D02*
G01*
X1206500Y334010D01*
X1206500Y369062D02*
G01*
X1212850Y375412D01*
X1219200Y378460D01*
X1228852Y378460D01*
X1235202Y375412D01*
X1241552Y369062D01*
X1244600Y359410D01*
X1244600Y353060D01*
X1241552Y343662D01*
X1235202Y337312D01*
X1228852Y334010D01*
X1219200Y334010D01*
X1212850Y337312D01*
X1206500Y343662D01*
X1265681Y400812D02*
G01*
X1268984Y397763D01*
X1272031Y400812D01*
X1268984Y404113D01*
X1265681Y400812D01*
X1268984Y378460D02*
G01*
X1268984Y334010D01*
X1293113Y378460D02*
G01*
X1293113Y334010D01*
X1293113Y365760D02*
G01*
X1302512Y375412D01*
X1308862Y378460D01*
X1318513Y378460D01*
X1324863Y375412D01*
X1328165Y365760D01*
X1328165Y334010D01*
X1387347Y378460D02*
G01*
X1387347Y334010D01*
X1387347Y369062D02*
G01*
X1380744Y375412D01*
X1374394Y378460D01*
X1364995Y378460D01*
X1358645Y375412D01*
X1352295Y369062D01*
X1348994Y359410D01*
X1348994Y353060D01*
X1352295Y343662D01*
X1358645Y337312D01*
X1364995Y334010D01*
X1374394Y334010D01*
X1380744Y337312D01*
X1387347Y343662D01*
X1408176Y378460D02*
G01*
X1408176Y334010D01*
X1408176Y359410D02*
G01*
X1411478Y369062D01*
X1417828Y375412D01*
X1424178Y378460D01*
X1433576Y378460D01*
X1457960Y378460D02*
G01*
X1477010Y334010D01*
X1496060Y378460D02*
G01*
X1477010Y334010D01*
X1470660Y321310D01*
X1464310Y314960D01*
X1457960Y311657D01*
X1454657Y311657D01*
X1575562Y400812D02*
G01*
X1575562Y346710D01*
X1578863Y337312D01*
X1585213Y334010D01*
X1591563Y334010D01*
X1566163Y378460D02*
G01*
X1588262Y378460D01*
X1612392Y400812D02*
G01*
X1615694Y397763D01*
X1618742Y400812D01*
X1615694Y404113D01*
X1612392Y400812D01*
X1615694Y378460D02*
G01*
X1615694Y334010D01*
X1639823Y378460D02*
G01*
X1639823Y334010D01*
X1639823Y365760D02*
G01*
X1649476Y375412D01*
X1655826Y378460D01*
X1665223Y378460D01*
X1671573Y375412D01*
X1674876Y365760D01*
X1674876Y334010D01*
X1674876Y365760D02*
G01*
X1684528Y375412D01*
X1690878Y378460D01*
X1700276Y378460D01*
X1706626Y375412D01*
X1709928Y365760D01*
X1709928Y334010D01*
X1730755Y359410D02*
G01*
X1769110Y359410D01*
X1769110Y365760D01*
X1765807Y372110D01*
X1762760Y375412D01*
X1756410Y378460D01*
X1746757Y378460D01*
X1740407Y375412D01*
X1734057Y369062D01*
X1730755Y359410D01*
X1730755Y353060D01*
X1734057Y343662D01*
X1740407Y337312D01*
X1746757Y334010D01*
X1756410Y334010D01*
X1762760Y337312D01*
X1769110Y343662D01*
X1789937Y400812D02*
G01*
X1789937Y334010D01*
X1821942Y378460D02*
G01*
X1789937Y346710D01*
X1802892Y359410D02*
G01*
X1824989Y334010D01*
X1846071Y359410D02*
G01*
X1884171Y359410D01*
X1884171Y365760D01*
X1881123Y372110D01*
X1877821Y375412D01*
X1871471Y378460D01*
X1862073Y378460D01*
X1855470Y375412D01*
X1849120Y369062D01*
X1846071Y359410D01*
X1846071Y353060D01*
X1849120Y343662D01*
X1855470Y337312D01*
X1862073Y334010D01*
X1871471Y334010D01*
X1877821Y337312D01*
X1884171Y343662D01*
X1905254Y359410D02*
G01*
X1943354Y359410D01*
X1943354Y365760D01*
X1940306Y372110D01*
X1937004Y375412D01*
X1930654Y378460D01*
X1921255Y378460D01*
X1914652Y375412D01*
X1908302Y369062D01*
X1905254Y359410D01*
X1905254Y353060D01*
X1908302Y343662D01*
X1914652Y337312D01*
X1921255Y334010D01*
X1930654Y334010D01*
X1937004Y337312D01*
X1943354Y343662D01*
X1964436Y378460D02*
G01*
X1964436Y311657D01*
X1964436Y369062D02*
G01*
X1970786Y375412D01*
X1977136Y378460D01*
X1986788Y378460D01*
X1993138Y375412D01*
X1999488Y369062D01*
X2002536Y359410D01*
X2002536Y353060D01*
X1999488Y343662D01*
X1993138Y337312D01*
X1986788Y334010D01*
X1977136Y334010D01*
X1970786Y337312D01*
X1964436Y343662D01*
X2023618Y359410D02*
G01*
X2061718Y359410D01*
X2061718Y365760D01*
X2058670Y372110D01*
X2055368Y375412D01*
X2049018Y378460D01*
X2039620Y378460D01*
X2033015Y375412D01*
X2026665Y369062D01*
X2023618Y359410D01*
X2023618Y353060D01*
X2026665Y343662D01*
X2033015Y337312D01*
X2039620Y334010D01*
X2049018Y334010D01*
X2055368Y337312D01*
X2061718Y343662D01*
X2082800Y378460D02*
G01*
X2082800Y334010D01*
X2082800Y359410D02*
G01*
X2085847Y369062D01*
X2092197Y375412D01*
X2098802Y378460D01*
X2108200Y378460D01*
G36*
X1970176Y2487117D02*
G01*
X1969211Y2415133D01*
X1995170Y2451100D01*
G37*
G36*
X2960776Y2487117D02*
G01*
X2959811Y2415133D01*
X2985770Y2451100D01*
G37*
G36*
X1970176Y2055317D02*
G01*
X1969211Y1983333D01*
X1995170Y2019300D01*
G37*
G36*
X2960776Y2055317D02*
G01*
X2959811Y1983333D01*
X2985770Y2019300D01*
G37*
G36*
X2960776Y1623517D02*
G01*
X2959811Y1551533D01*
X2985770Y1587500D01*
G37*
G36*
X1970176Y1623517D02*
G01*
X1969211Y1551533D01*
X1995170Y1587500D01*
G37*
G36*
X1970176Y1191717D02*
G01*
X1969211Y1119733D01*
X1995170Y1155700D01*
G37*
G36*
X2960776Y1191717D02*
G01*
X2959811Y1119733D01*
X2985770Y1155700D01*
G37*
G36*
X1424076Y2487117D02*
G01*
X1423111Y2415133D01*
X1449070Y2451100D01*
G37*
G36*
X3506876Y2487117D02*
G01*
X3505911Y2415133D01*
X3531870Y2451100D01*
G37*
G36*
X1424076Y2055317D02*
G01*
X1423111Y1983333D01*
X1449070Y2019300D01*
G37*
G36*
X3506876Y2055317D02*
G01*
X3505911Y1983333D01*
X3531870Y2019300D01*
G37*
G36*
X3506876Y1623517D02*
G01*
X3505911Y1551533D01*
X3531870Y1587500D01*
G37*
G36*
X1424076Y1623517D02*
G01*
X1423111Y1551533D01*
X1449070Y1587500D01*
G37*
G36*
X1424076Y1191717D02*
G01*
X1423111Y1119733D01*
X1449070Y1155700D01*
G37*
G36*
X3506876Y1191717D02*
G01*
X3505911Y1119733D01*
X3531870Y1155700D01*
G37*
D12*
X2361895Y878103D02*
G01*
X2641904Y878103D01*
X2641904Y38100D01*
X2361895Y38100D01*
X2361895Y878103D01*
X2216492Y3522024D02*
G01*
X2216492Y3530602D01*
X2628889Y3530602D01*
X2743189Y3416302D01*
X2743189Y3162302D01*
X2408994Y3003903D02*
G01*
X2543982Y3003903D01*
X2216492Y3365792D02*
G01*
X2216492Y3162015D01*
D11*
X3175220Y3229378D02*
G01*
X3175220Y3374621D01*
X3072058Y3374621D01*
X2869979Y3229378D02*
G01*
X2869979Y3374621D01*
X2973141Y3374621D01*
X3068139Y3229378D02*
G01*
X2977060Y3229378D01*
X2867639Y2903778D02*
G01*
X2867639Y2807891D01*
X2999760Y2807891D01*
X2999760Y2903778D01*
X2867639Y2989021D02*
G01*
X2867639Y3084908D01*
X2999760Y3084908D01*
X2999760Y2989021D01*
D13*
X2018200Y2524099D02*
G01*
X2133198Y2524099D01*
X2133198Y2379101D01*
X2013198Y2379101D01*
X1951200Y2378100D02*
G01*
X1827199Y2378100D01*
X1827199Y2523098D01*
X1951200Y2523098D01*
X2133198Y2524099D02*
G01*
X2136200Y2524099D01*
X2156200Y2504099D01*
X2156200Y2402100D01*
X2153198Y2399101D01*
X2133198Y2379101D01*
X3008800Y2524099D02*
G01*
X3123798Y2524099D01*
X3123798Y2379101D01*
X3003798Y2379101D01*
X2941800Y2378100D02*
G01*
X2817799Y2378100D01*
X2817799Y2523098D01*
X2941800Y2523098D01*
X3123798Y2524099D02*
G01*
X3126800Y2524099D01*
X3146800Y2504099D01*
X3146800Y2402100D01*
X3143798Y2399101D01*
X3123798Y2379101D01*
X2018200Y2092299D02*
G01*
X2133198Y2092299D01*
X2133198Y1947301D01*
X2013198Y1947301D01*
X1951200Y1946300D02*
G01*
X1827199Y1946300D01*
X1827199Y2091298D01*
X1951200Y2091298D01*
X2133198Y2092299D02*
G01*
X2136200Y2092299D01*
X2156200Y2072299D01*
X2156200Y1970300D01*
X2153198Y1967301D01*
X2133198Y1947301D01*
X3008800Y2092299D02*
G01*
X3123798Y2092299D01*
X3123798Y1947301D01*
X3003798Y1947301D01*
X2941800Y1946300D02*
G01*
X2817799Y1946300D01*
X2817799Y2091298D01*
X2941800Y2091298D01*
X3123798Y2092299D02*
G01*
X3126800Y2092299D01*
X3146800Y2072299D01*
X3146800Y1970300D01*
X3143798Y1967301D01*
X3123798Y1947301D01*
X3008800Y1660499D02*
G01*
X3123798Y1660499D01*
X3123798Y1515501D01*
X3003798Y1515501D01*
X2941800Y1514500D02*
G01*
X2817799Y1514500D01*
X2817799Y1659498D01*
X2941800Y1659498D01*
X3123798Y1660499D02*
G01*
X3126800Y1660499D01*
X3146800Y1640499D01*
X3146800Y1538500D01*
X3143798Y1535501D01*
X3123798Y1515501D01*
X2018200Y1660499D02*
G01*
X2133198Y1660499D01*
X2133198Y1515501D01*
X2013198Y1515501D01*
X1951200Y1514500D02*
G01*
X1827199Y1514500D01*
X1827199Y1659498D01*
X1951200Y1659498D01*
X2133198Y1660499D02*
G01*
X2136200Y1660499D01*
X2156200Y1640499D01*
X2156200Y1538500D01*
X2153198Y1535501D01*
X2133198Y1515501D01*
X2018200Y1228699D02*
G01*
X2133198Y1228699D01*
X2133198Y1083701D01*
X2013198Y1083701D01*
X1951200Y1082700D02*
G01*
X1827199Y1082700D01*
X1827199Y1227698D01*
X1951200Y1227698D01*
X2133198Y1228699D02*
G01*
X2136200Y1228699D01*
X2156200Y1208699D01*
X2156200Y1106700D01*
X2153198Y1103701D01*
X2133198Y1083701D01*
X3008800Y1228699D02*
G01*
X3123798Y1228699D01*
X3123798Y1083701D01*
X3003798Y1083701D01*
X2941800Y1082700D02*
G01*
X2817799Y1082700D01*
X2817799Y1227698D01*
X2941800Y1227698D01*
X3123798Y1228699D02*
G01*
X3126800Y1228699D01*
X3146800Y1208699D01*
X3146800Y1106700D01*
X3143798Y1103701D01*
X3123798Y1083701D01*
D14*
X3937002Y2362202D02*
G01*
X3937002Y1282702D01*
D10*
X3937002Y1282702D02*
G01*
X3937002Y1092202D01*
X4241802Y1092202D01*
X4241802Y2362202D01*
X3937002Y2362202D01*
D13*
X1472100Y2524099D02*
G01*
X1587098Y2524099D01*
X1587098Y2379101D01*
X1467098Y2379101D01*
X1405100Y2378100D02*
G01*
X1281099Y2378100D01*
X1281099Y2523098D01*
X1405100Y2523098D01*
X1587098Y2524099D02*
G01*
X1590100Y2524099D01*
X1610100Y2504099D01*
X1610100Y2402100D01*
X1607098Y2399101D01*
X1587098Y2379101D01*
X3554900Y2524099D02*
G01*
X3669898Y2524099D01*
X3669898Y2379101D01*
X3549898Y2379101D01*
X3487900Y2378100D02*
G01*
X3363899Y2378100D01*
X3363899Y2523098D01*
X3487900Y2523098D01*
X3669898Y2524099D02*
G01*
X3672900Y2524099D01*
X3692900Y2504099D01*
X3692900Y2402100D01*
X3689898Y2399101D01*
X3669898Y2379101D01*
X1472100Y2092299D02*
G01*
X1587098Y2092299D01*
X1587098Y1947301D01*
X1467098Y1947301D01*
X1405100Y1946300D02*
G01*
X1281099Y1946300D01*
X1281099Y2091298D01*
X1405100Y2091298D01*
X1587098Y2092299D02*
G01*
X1590100Y2092299D01*
X1610100Y2072299D01*
X1610100Y1970300D01*
X1607098Y1967301D01*
X1587098Y1947301D01*
X3554900Y2092299D02*
G01*
X3669898Y2092299D01*
X3669898Y1947301D01*
X3549898Y1947301D01*
X3487900Y1946300D02*
G01*
X3363899Y1946300D01*
X3363899Y2091298D01*
X3487900Y2091298D01*
X3669898Y2092299D02*
G01*
X3672900Y2092299D01*
X3692900Y2072299D01*
X3692900Y1970300D01*
X3689898Y1967301D01*
X3669898Y1947301D01*
X3554900Y1660499D02*
G01*
X3669898Y1660499D01*
X3669898Y1515501D01*
X3549898Y1515501D01*
X3487900Y1514500D02*
G01*
X3363899Y1514500D01*
X3363899Y1659498D01*
X3487900Y1659498D01*
X3669898Y1660499D02*
G01*
X3672900Y1660499D01*
X3692900Y1640499D01*
X3692900Y1538500D01*
X3689898Y1535501D01*
X3669898Y1515501D01*
X1472100Y1660499D02*
G01*
X1587098Y1660499D01*
X1587098Y1515501D01*
X1467098Y1515501D01*
X1405100Y1514500D02*
G01*
X1281099Y1514500D01*
X1281099Y1659498D01*
X1405100Y1659498D01*
X1587098Y1660499D02*
G01*
X1590100Y1660499D01*
X1610100Y1640499D01*
X1610100Y1538500D01*
X1607098Y1535501D01*
X1587098Y1515501D01*
X1472100Y1228699D02*
G01*
X1587098Y1228699D01*
X1587098Y1083701D01*
X1467098Y1083701D01*
X1405100Y1082700D02*
G01*
X1281099Y1082700D01*
X1281099Y1227698D01*
X1405100Y1227698D01*
X1587098Y1228699D02*
G01*
X1590100Y1228699D01*
X1610100Y1208699D01*
X1610100Y1106700D01*
X1607098Y1103701D01*
X1587098Y1083701D01*
X3554900Y1228699D02*
G01*
X3669898Y1228699D01*
X3669898Y1083701D01*
X3549898Y1083701D01*
X3487900Y1082700D02*
G01*
X3363899Y1082700D01*
X3363899Y1227698D01*
X3487900Y1227698D01*
X3669898Y1228699D02*
G01*
X3672900Y1228699D01*
X3692900Y1208699D01*
X3692900Y1106700D01*
X3689898Y1103701D01*
X3669898Y1083701D01*
D11*
X975339Y2484678D02*
G01*
X975339Y2388791D01*
X1107460Y2388791D01*
X1107460Y2484678D01*
X975339Y2569921D02*
G01*
X975339Y2665808D01*
X1107460Y2665808D01*
X1107460Y2569921D01*
X975339Y2052878D02*
G01*
X975339Y1956991D01*
X1107460Y1956991D01*
X1107460Y2052878D01*
X975339Y2138121D02*
G01*
X975339Y2234008D01*
X1107460Y2234008D01*
X1107460Y2138121D01*
X975339Y1621078D02*
G01*
X975339Y1525191D01*
X1107460Y1525191D01*
X1107460Y1621078D01*
X975339Y1706321D02*
G01*
X975339Y1802208D01*
X1107460Y1802208D01*
X1107460Y1706321D01*
X975339Y1189278D02*
G01*
X975339Y1093391D01*
X1107460Y1093391D01*
X1107460Y1189278D01*
X975339Y1274521D02*
G01*
X975339Y1370408D01*
X1107460Y1370408D01*
X1107460Y1274521D01*
D15*
X4290184Y2920527D02*
G01*
X4290184Y2781335D01*
X4289168Y2780319D01*
X4289168Y2670337D02*
G01*
X4289168Y2780319D01*
X4322188Y2780319D01*
X4322188Y2920527D01*
X4290184Y2920527D01*
X4290184Y3020349D01*
X3999087Y2918421D02*
G01*
X3999087Y3020400D01*
X3999087Y2670401D02*
G01*
X3999087Y2772392D01*
X4290491Y799025D02*
G01*
X4290491Y659833D01*
X4289475Y658817D01*
X4289475Y548835D02*
G01*
X4289475Y658817D01*
X4322495Y658817D01*
X4322495Y799025D01*
X4290491Y799025D01*
X4290491Y898847D01*
X3999395Y796919D02*
G01*
X3999395Y898898D01*
X3999395Y548899D02*
G01*
X3999395Y650890D01*
X708604Y648774D02*
G01*
X708604Y787966D01*
X709620Y788982D01*
X709620Y898964D02*
G01*
X709620Y788982D01*
X676600Y788982D01*
X676600Y648774D01*
X708604Y648774D01*
X708604Y548952D01*
X999700Y650880D02*
G01*
X999700Y548901D01*
X999700Y898900D02*
G01*
X999700Y796909D01*
M02*
