G04 Layer: TopSolderMaskLayer*
G04 EasyEDA v6.5.54, 2026-05-23 11:16:10*
G04 e4d8c5f1b0d74a6491579a26eca31a7d,8f4c1f16700a4a4892e3ae02f8365818,10*
G04 Gerber Generator version 0.2*
G04 Scale: 100 percent, Rotated: No, Reflected: No *
G04 Dimensions in millimeters *
G04 leading zeros omitted , absolute positions ,4 integer and 5 decimal *
%FSLAX45Y45*%
%MOMM*%

%AMMACRO1*4,1,8,-1.0211,-2.0508,-1.0508,-2.021,-1.0508,2.0211,-1.0211,2.0508,1.021,2.0508,1.0508,2.0211,1.0508,-2.021,1.021,-2.0508,-1.0211,-2.0508,0*%
%AMMACRO2*4,1,8,-1.0211,-0.6508,-1.0508,-0.621,-1.0508,0.621,-1.0211,0.6508,1.021,0.6508,1.0508,0.621,1.0508,-0.621,1.021,-0.6508,-1.0211,-0.6508,0*%
%AMMACRO3*4,1,8,-1.0211,-0.6508,-1.0508,-0.621,-1.0508,0.6211,-1.0211,0.6508,1.021,0.6508,1.0508,0.6211,1.0508,-0.621,1.021,-0.6508,-1.0211,-0.6508,0*%
%AMMACRO4*4,1,8,-0.346,-0.5508,-0.3758,-0.521,-0.3758,0.5211,-0.346,0.5508,0.346,0.5508,0.3758,0.5211,0.3758,-0.521,0.346,-0.5508,-0.346,-0.5508,0*%
%AMMACRO5*4,1,8,-0.4531,-0.454,-0.4828,-0.4243,-0.4828,0.4243,-0.4531,0.454,0.453,0.454,0.4828,0.4243,0.4828,-0.4243,0.453,-0.454,-0.4531,-0.454,0*%
%AMMACRO6*4,1,8,-0.471,-0.5508,-0.5008,-0.521,-0.5008,0.5211,-0.471,0.5508,0.471,0.5508,0.5008,0.5211,0.5008,-0.521,0.471,-0.5508,-0.471,-0.5508,0*%
%AMMACRO7*4,1,8,-0.546,-0.8758,-0.5758,-0.846,-0.5758,0.8461,-0.546,0.8758,0.546,0.8758,0.5758,0.8461,0.5758,-0.846,0.546,-0.8758,-0.546,-0.8758,0*%
%AMMACRO8*4,1,8,-0.2711,-0.6008,-0.3008,-0.571,-0.3008,0.5711,-0.2711,0.6008,0.271,0.6008,0.3008,0.5711,0.3008,-0.571,0.271,-0.6008,-0.2711,-0.6008,0*%
%AMMACRO9*4,1,8,-0.5461,-0.8758,-0.5758,-0.846,-0.5758,0.846,-0.5461,0.8758,0.546,0.8758,0.5758,0.846,0.5758,-0.846,0.546,-0.8758,-0.5461,-0.8758,0*%
%ADD10MACRO1*%
%ADD11C,1.1016*%
%ADD12MACRO2*%
%ADD13MACRO3*%
%ADD14MACRO4*%
%ADD15MACRO5*%
%ADD16C,0.0128*%
%ADD17MACRO6*%
%ADD18O,2.601595X1.901596*%
%ADD19MACRO7*%
%ADD20MACRO8*%
%ADD21MACRO9*%
%ADD22C,2.1016*%

%LPD*%
D10*
G01*
X2501900Y431800D03*
D11*
G01*
X2431897Y108102D03*
G01*
X2571902Y108102D03*
D12*
G01*
X2291488Y3438912D03*
D13*
G01*
X2291488Y3088911D03*
G01*
X2661488Y3088911D03*
D14*
G01*
X2927603Y3202000D03*
G01*
X3117596Y3202000D03*
G01*
X3022600Y3401999D03*
D15*
G01*
X2933700Y2871075D03*
G01*
X2933700Y3021724D03*
D17*
G01*
X2051194Y2451100D03*
G01*
X1911200Y2451100D03*
G01*
X3041794Y2451100D03*
G01*
X2901800Y2451100D03*
G01*
X2051194Y2019300D03*
G01*
X1911200Y2019300D03*
G01*
X3041794Y2019300D03*
G01*
X2901800Y2019300D03*
G01*
X3041794Y1587500D03*
G01*
X2901800Y1587500D03*
G01*
X2051194Y1587500D03*
G01*
X1911200Y1587500D03*
G01*
X2051194Y1155700D03*
G01*
X1911200Y1155700D03*
G01*
X3041794Y1155700D03*
G01*
X2901800Y1155700D03*
D18*
G01*
X4089400Y2235200D03*
G01*
X4089400Y1473200D03*
G01*
X4089400Y1727200D03*
G01*
X4089400Y1981200D03*
G01*
X4089400Y1219200D03*
D17*
G01*
X1505094Y2451100D03*
G01*
X1365100Y2451100D03*
G01*
X3587894Y2451100D03*
G01*
X3447900Y2451100D03*
G01*
X1505094Y2019300D03*
G01*
X1365100Y2019300D03*
G01*
X3587894Y2019300D03*
G01*
X3447900Y2019300D03*
G01*
X3587894Y1587500D03*
G01*
X3447900Y1587500D03*
G01*
X1505094Y1587500D03*
G01*
X1365100Y1587500D03*
G01*
X1505094Y1155700D03*
G01*
X1365100Y1155700D03*
G01*
X3587894Y1155700D03*
G01*
X3447900Y1155700D03*
D15*
G01*
X1041400Y2451975D03*
G01*
X1041400Y2602624D03*
G01*
X1041400Y2020175D03*
G01*
X1041400Y2170824D03*
G01*
X1041400Y1588375D03*
G01*
X1041400Y1739024D03*
G01*
X1041400Y1156575D03*
G01*
X1041400Y1307224D03*
D19*
G01*
X4069593Y2642909D03*
G01*
X4069593Y3047907D03*
D20*
G01*
X3974593Y2845407D03*
D21*
G01*
X4219591Y2642908D03*
G01*
X4219591Y3047906D03*
D19*
G01*
X4069900Y521407D03*
G01*
X4069900Y926405D03*
D20*
G01*
X3974900Y723905D03*
D21*
G01*
X4219898Y521406D03*
G01*
X4219898Y926404D03*
D19*
G01*
X929195Y926392D03*
G01*
X929195Y521394D03*
D20*
G01*
X1024195Y723894D03*
D21*
G01*
X779197Y926393D03*
G01*
X779197Y521395D03*
D22*
G01*
X3937000Y241300D03*
G01*
X1063447Y241300D03*
G01*
X1060119Y3468751D03*
G01*
X3939895Y3468903D03*
M02*
