G04 Layer: BottomSilkscreenLayer*
G04 EasyEDA v6.5.54, 2026-05-23 11:16:10*
G04 e4d8c5f1b0d74a6491579a26eca31a7d,8f4c1f16700a4a4892e3ae02f8365818,10*
G04 Gerber Generator version 0.2*
G04 Scale: 100 percent, Rotated: No, Reflected: No *
G04 Dimensions in millimeters *
G04 leading zeros omitted , absolute positions ,4 integer and 5 decimal *
%FSLAX45Y45*%
%MOMM*%

%ADD10C,0.1524*%
%ADD11C,0.2540*%
%ADD12C,0.2000*%
%ADD13C,0.4000*%
%ADD14C,0.0135*%

%LPD*%
G36*
X2352548Y2109978D02*
G01*
X2351227Y2109774D01*
X2350262Y2109216D01*
X2349703Y2108352D01*
X2349500Y2107184D01*
X2349500Y2059432D01*
X2355596Y2059432D01*
X2355748Y2062530D01*
X2356307Y2065477D01*
X2357170Y2068220D01*
X2358390Y2070862D01*
X2359914Y2073249D01*
X2361742Y2075383D01*
X2363876Y2077212D01*
X2368753Y2080056D01*
X2371445Y2081022D01*
X2374341Y2081580D01*
X2377440Y2081784D01*
X2380437Y2081580D01*
X2383282Y2081022D01*
X2386025Y2080056D01*
X2388616Y2078736D01*
X2391003Y2077212D01*
X2393137Y2075383D01*
X2394966Y2073249D01*
X2396490Y2070862D01*
X2397709Y2068220D01*
X2398572Y2065477D01*
X2399131Y2062530D01*
X2399284Y2059432D01*
X2399131Y2056333D01*
X2398572Y2053386D01*
X2397709Y2050643D01*
X2396490Y2048002D01*
X2394966Y2045563D01*
X2393137Y2043430D01*
X2391003Y2041550D01*
X2388616Y2039874D01*
X2386025Y2038654D01*
X2383282Y2037791D01*
X2380437Y2037232D01*
X2377440Y2037080D01*
X2374341Y2037232D01*
X2371445Y2037791D01*
X2368753Y2038654D01*
X2366264Y2039874D01*
X2363876Y2041499D01*
X2361742Y2043430D01*
X2359914Y2045563D01*
X2358390Y2048002D01*
X2357170Y2050643D01*
X2356307Y2053386D01*
X2355748Y2056333D01*
X2355596Y2059432D01*
X2349500Y2059432D01*
X2349754Y2055063D01*
X2350465Y2051405D01*
X2351633Y2047951D01*
X2353310Y2044700D01*
X2355392Y2041804D01*
X2357729Y2039213D01*
X2360472Y2036978D01*
X2363470Y2035048D01*
X2366721Y2033473D01*
X2370124Y2032355D01*
X2373731Y2031695D01*
X2377440Y2031492D01*
X2381300Y2031695D01*
X2384958Y2032406D01*
X2388412Y2033473D01*
X2391664Y2035048D01*
X2394661Y2037029D01*
X2397404Y2039366D01*
X2399741Y2042109D01*
X2401824Y2045207D01*
X2403398Y2048459D01*
X2404465Y2051913D01*
X2405176Y2055571D01*
X2405380Y2059432D01*
X2405176Y2063292D01*
X2404465Y2066950D01*
X2403398Y2070404D01*
X2401824Y2073656D01*
X2399741Y2076653D01*
X2397404Y2079294D01*
X2394661Y2081631D01*
X2391664Y2083562D01*
X2388412Y2085238D01*
X2384958Y2086406D01*
X2381300Y2087118D01*
X2377440Y2087372D01*
X2373985Y2087168D01*
X2370632Y2086610D01*
X2367483Y2085644D01*
X2364486Y2084324D01*
X2361844Y2082647D01*
X2359456Y2080717D01*
X2357374Y2078482D01*
X2355596Y2075942D01*
X2355545Y2107793D01*
X2355037Y2108809D01*
X2354173Y2109571D01*
G37*
G36*
X2299208Y2109978D02*
G01*
X2297887Y2109774D01*
X2296922Y2109216D01*
X2296363Y2108352D01*
X2296160Y2107184D01*
X2296160Y2075942D01*
X2294382Y2078482D01*
X2292299Y2080717D01*
X2289911Y2082647D01*
X2287270Y2084324D01*
X2284272Y2085644D01*
X2281123Y2086610D01*
X2277770Y2087168D01*
X2274316Y2087372D01*
X2270455Y2087118D01*
X2266797Y2086406D01*
X2263343Y2085238D01*
X2260092Y2083562D01*
X2256993Y2081631D01*
X2254250Y2079294D01*
X2251913Y2076653D01*
X2249932Y2073656D01*
X2248357Y2070404D01*
X2247239Y2066950D01*
X2246579Y2063292D01*
X2246376Y2059432D01*
X2252218Y2059432D01*
X2252421Y2062530D01*
X2252980Y2065477D01*
X2253945Y2068220D01*
X2255266Y2070862D01*
X2256790Y2073249D01*
X2258618Y2075383D01*
X2260752Y2077212D01*
X2263140Y2078736D01*
X2265730Y2080056D01*
X2268474Y2081022D01*
X2271318Y2081580D01*
X2274316Y2081784D01*
X2277313Y2081580D01*
X2280158Y2081022D01*
X2282901Y2080056D01*
X2285492Y2078736D01*
X2287879Y2077212D01*
X2290013Y2075383D01*
X2291842Y2073249D01*
X2293366Y2070862D01*
X2294585Y2068220D01*
X2295448Y2065477D01*
X2296007Y2062530D01*
X2296160Y2059432D01*
X2296007Y2056333D01*
X2295448Y2053386D01*
X2294585Y2050643D01*
X2293366Y2048002D01*
X2291842Y2045563D01*
X2290013Y2043430D01*
X2287879Y2041550D01*
X2285492Y2039874D01*
X2282901Y2038654D01*
X2280158Y2037791D01*
X2277313Y2037232D01*
X2274316Y2037080D01*
X2271318Y2037232D01*
X2268474Y2037791D01*
X2265730Y2038654D01*
X2263140Y2039874D01*
X2260752Y2041499D01*
X2258618Y2043430D01*
X2256790Y2045563D01*
X2255266Y2048002D01*
X2253945Y2050643D01*
X2252980Y2053386D01*
X2252421Y2056333D01*
X2252218Y2059432D01*
X2246376Y2059432D01*
X2246579Y2055571D01*
X2247290Y2051913D01*
X2248357Y2048459D01*
X2249932Y2045207D01*
X2251913Y2042109D01*
X2254250Y2039366D01*
X2256993Y2037029D01*
X2260092Y2035048D01*
X2263343Y2033473D01*
X2266797Y2032355D01*
X2270455Y2031695D01*
X2274316Y2031492D01*
X2278024Y2031695D01*
X2281631Y2032406D01*
X2285034Y2033473D01*
X2288286Y2035048D01*
X2291283Y2036978D01*
X2294026Y2039213D01*
X2296363Y2041804D01*
X2298446Y2044700D01*
X2300020Y2047951D01*
X2301189Y2051405D01*
X2301900Y2055063D01*
X2302256Y2058924D01*
X2302205Y2107793D01*
X2301697Y2108809D01*
X2300833Y2109571D01*
G37*
G36*
X2741930Y2107438D02*
G01*
X2740101Y2107184D01*
X2738628Y2106422D01*
X2737662Y2104898D01*
X2737358Y2102866D01*
X2737662Y2101037D01*
X2738628Y2099564D01*
X2740101Y2098598D01*
X2741930Y2098294D01*
X2743758Y2098598D01*
X2745232Y2099564D01*
X2746197Y2101037D01*
X2746502Y2102866D01*
X2746197Y2104898D01*
X2745232Y2106422D01*
X2743657Y2107184D01*
G37*
G36*
X2522220Y2107438D02*
G01*
X2520391Y2107184D01*
X2518918Y2106422D01*
X2517800Y2104898D01*
X2517394Y2102866D01*
X2517800Y2101037D01*
X2518918Y2099564D01*
X2520391Y2098598D01*
X2522220Y2098294D01*
X2524048Y2098598D01*
X2525522Y2099564D01*
X2526487Y2101037D01*
X2526792Y2102866D01*
X2526487Y2104898D01*
X2525522Y2106422D01*
X2523947Y2107184D01*
G37*
G36*
X2693924Y2087372D02*
G01*
X2690368Y2087168D01*
X2687015Y2086610D01*
X2683865Y2085644D01*
X2680970Y2084324D01*
X2678226Y2082647D01*
X2675737Y2080615D01*
X2673654Y2078329D01*
X2671826Y2075688D01*
X2670403Y2072639D01*
X2669336Y2069338D01*
X2668727Y2065782D01*
X2668524Y2061972D01*
X2668574Y2034438D01*
X2669082Y2033270D01*
X2669946Y2032406D01*
X2670962Y2032050D01*
X2672181Y2032050D01*
X2673350Y2032406D01*
X2674213Y2033270D01*
X2674569Y2034438D01*
X2674620Y2061972D01*
X2674975Y2066391D01*
X2675940Y2070303D01*
X2677617Y2073656D01*
X2679954Y2076450D01*
X2682849Y2078583D01*
X2686100Y2080056D01*
X2689809Y2080971D01*
X2693924Y2081275D01*
X2699004Y2080768D01*
X2703576Y2079243D01*
X2705608Y2078126D01*
X2709062Y2075332D01*
X2710434Y2073656D01*
X2711551Y2071827D01*
X2712364Y2069846D01*
X2712821Y2067763D01*
X2712974Y2065528D01*
X2713024Y2034438D01*
X2713380Y2033270D01*
X2714142Y2032406D01*
X2715310Y2032050D01*
X2716631Y2032050D01*
X2717647Y2032406D01*
X2718409Y2033270D01*
X2718765Y2034438D01*
X2718816Y2083816D01*
X2718612Y2084984D01*
X2718054Y2085848D01*
X2717190Y2086406D01*
X2716022Y2086610D01*
X2714701Y2086406D01*
X2713736Y2085848D01*
X2713177Y2084984D01*
X2712974Y2083816D01*
X2712974Y2078482D01*
X2709113Y2082292D01*
X2706928Y2083816D01*
X2704592Y2085086D01*
X2702102Y2086102D01*
X2699512Y2086813D01*
X2696768Y2087219D01*
G37*
G36*
X2632964Y2087372D02*
G01*
X2627020Y2086813D01*
X2621838Y2085086D01*
X2617470Y2082241D01*
X2613558Y2077923D01*
X2613202Y2077161D01*
X2613253Y2075992D01*
X2614015Y2074824D01*
X2615895Y2073960D01*
X2616911Y2074011D01*
X2618181Y2074621D01*
X2621534Y2078075D01*
X2624886Y2080107D01*
X2628798Y2081377D01*
X2633218Y2081784D01*
X2636113Y2081631D01*
X2638704Y2081072D01*
X2640939Y2080209D01*
X2642870Y2078989D01*
X2644444Y2077618D01*
X2645511Y2076094D01*
X2646222Y2074316D01*
X2646426Y2072386D01*
X2646222Y2070557D01*
X2645511Y2068880D01*
X2644444Y2067407D01*
X2642870Y2066036D01*
X2640939Y2064969D01*
X2638348Y2064004D01*
X2626512Y2061565D01*
X2622296Y2060295D01*
X2618841Y2058771D01*
X2616200Y2056892D01*
X2614066Y2054656D01*
X2612593Y2052218D01*
X2611678Y2049576D01*
X2611374Y2046732D01*
X2611577Y2044496D01*
X2612136Y2042414D01*
X2613101Y2040432D01*
X2614422Y2038604D01*
X2616047Y2037029D01*
X2617927Y2035606D01*
X2622296Y2033270D01*
X2627376Y2031949D01*
X2630119Y2031593D01*
X2635859Y2031593D01*
X2638755Y2032000D01*
X2644394Y2033524D01*
X2646934Y2034692D01*
X2649270Y2036064D01*
X2651404Y2037740D01*
X2653639Y2040026D01*
X2653995Y2040889D01*
X2653944Y2042109D01*
X2653334Y2043277D01*
X2652471Y2043887D01*
X2651607Y2044141D01*
X2650388Y2044141D01*
X2649220Y2043633D01*
X2645918Y2040483D01*
X2642311Y2038604D01*
X2637891Y2037435D01*
X2632710Y2037080D01*
X2629052Y2037232D01*
X2625852Y2037791D01*
X2623159Y2038654D01*
X2621026Y2039874D01*
X2619349Y2041347D01*
X2618181Y2043023D01*
X2617470Y2044903D01*
X2617216Y2046986D01*
X2618181Y2050694D01*
X2621076Y2053589D01*
X2625953Y2055723D01*
X2637231Y2058060D01*
X2641142Y2059228D01*
X2644495Y2060702D01*
X2647188Y2062480D01*
X2649423Y2064512D01*
X2650998Y2066747D01*
X2651963Y2069185D01*
X2652268Y2071878D01*
X2651912Y2075332D01*
X2650947Y2078431D01*
X2649270Y2081072D01*
X2646934Y2083307D01*
X2644038Y2085086D01*
X2640787Y2086356D01*
X2637078Y2087118D01*
G37*
G36*
X2570226Y2087372D02*
G01*
X2566263Y2087118D01*
X2562555Y2086406D01*
X2559050Y2085238D01*
X2555748Y2083562D01*
X2552750Y2081631D01*
X2550109Y2079294D01*
X2547772Y2076653D01*
X2545842Y2073656D01*
X2544165Y2070354D01*
X2542997Y2066848D01*
X2542286Y2063140D01*
X2542032Y2059178D01*
X2548128Y2059178D01*
X2548280Y2062276D01*
X2548839Y2065223D01*
X2549702Y2067966D01*
X2550922Y2070607D01*
X2552547Y2072995D01*
X2554427Y2075180D01*
X2556510Y2077110D01*
X2558796Y2078736D01*
X2561437Y2080056D01*
X2564180Y2081022D01*
X2567127Y2081580D01*
X2570226Y2081784D01*
X2573223Y2081580D01*
X2576068Y2081022D01*
X2578811Y2080056D01*
X2581402Y2078736D01*
X2583688Y2077110D01*
X2585770Y2075180D01*
X2587650Y2072995D01*
X2589276Y2070607D01*
X2590495Y2067966D01*
X2591358Y2065223D01*
X2591917Y2062276D01*
X2592070Y2059178D01*
X2591917Y2056180D01*
X2591358Y2053336D01*
X2590495Y2050592D01*
X2589276Y2048002D01*
X2587650Y2045563D01*
X2585770Y2043430D01*
X2583688Y2041550D01*
X2581402Y2039874D01*
X2578811Y2038654D01*
X2576068Y2037791D01*
X2573223Y2037232D01*
X2570226Y2037080D01*
X2567127Y2037232D01*
X2564180Y2037791D01*
X2561437Y2038654D01*
X2558796Y2039874D01*
X2556510Y2041499D01*
X2554427Y2043430D01*
X2552547Y2045563D01*
X2550922Y2048002D01*
X2549702Y2050592D01*
X2548839Y2053336D01*
X2548280Y2056180D01*
X2548128Y2059178D01*
X2542032Y2059178D01*
X2542286Y2055469D01*
X2542997Y2051862D01*
X2544165Y2048459D01*
X2545842Y2045207D01*
X2547772Y2042109D01*
X2550109Y2039366D01*
X2552750Y2037029D01*
X2555748Y2035048D01*
X2559050Y2033473D01*
X2562555Y2032355D01*
X2566263Y2031695D01*
X2570226Y2031492D01*
X2573578Y2031695D01*
X2576830Y2032254D01*
X2579928Y2033219D01*
X2582926Y2034539D01*
X2585669Y2036216D01*
X2588107Y2038146D01*
X2590241Y2040382D01*
X2592070Y2042922D01*
X2592120Y2010968D01*
X2592476Y2009800D01*
X2593238Y2009038D01*
X2594406Y2008682D01*
X2595727Y2008682D01*
X2596743Y2009038D01*
X2597505Y2009800D01*
X2597861Y2010968D01*
X2597912Y2059939D01*
X2597658Y2063648D01*
X2596946Y2067255D01*
X2595778Y2070658D01*
X2594102Y2073910D01*
X2592171Y2076907D01*
X2589834Y2079548D01*
X2587193Y2081885D01*
X2584196Y2083816D01*
X2580944Y2085390D01*
X2577541Y2086457D01*
X2573934Y2087168D01*
G37*
G36*
X2475992Y2087372D02*
G01*
X2472639Y2087168D01*
X2470302Y2086559D01*
X2468829Y2085492D01*
X2468372Y2084070D01*
X2468524Y2082698D01*
X2469032Y2081834D01*
X2469692Y2081428D01*
X2470556Y2081275D01*
X2475433Y2081530D01*
X2478379Y2081428D01*
X2480614Y2081022D01*
X2484882Y2079498D01*
X2486710Y2078380D01*
X2488336Y2077008D01*
X2489758Y2075434D01*
X2490978Y2073656D01*
X2492502Y2069795D01*
X2493010Y2065274D01*
X2493060Y2034438D01*
X2493568Y2033270D01*
X2494432Y2032406D01*
X2495448Y2032050D01*
X2496667Y2032050D01*
X2497836Y2032406D01*
X2498699Y2033270D01*
X2499055Y2034438D01*
X2499106Y2083816D01*
X2498902Y2084984D01*
X2498344Y2085848D01*
X2497277Y2086406D01*
X2496058Y2086610D01*
X2494940Y2086406D01*
X2494026Y2085848D01*
X2493264Y2084984D01*
X2493010Y2083816D01*
X2493010Y2077466D01*
X2491486Y2079650D01*
X2489758Y2081530D01*
X2487828Y2083206D01*
X2483408Y2085797D01*
X2481072Y2086660D01*
X2478582Y2087219D01*
G37*
G36*
X2438654Y2087118D02*
G01*
X2435047Y2086914D01*
X2431694Y2086305D01*
X2428443Y2085238D01*
X2425446Y2083816D01*
X2422804Y2081885D01*
X2420416Y2079650D01*
X2418334Y2077059D01*
X2416556Y2074164D01*
X2415235Y2071014D01*
X2414270Y2067610D01*
X2413643Y2062734D01*
X2419096Y2062734D01*
X2419756Y2066747D01*
X2421026Y2070354D01*
X2422804Y2073605D01*
X2425192Y2076450D01*
X2428036Y2078685D01*
X2431237Y2080260D01*
X2434742Y2081225D01*
X2438654Y2081530D01*
X2442362Y2081225D01*
X2445766Y2080260D01*
X2448915Y2078685D01*
X2451862Y2076450D01*
X2454249Y2073605D01*
X2456129Y2070354D01*
X2457450Y2066747D01*
X2458212Y2062734D01*
X2413643Y2062734D01*
X2413558Y2059584D01*
X2413914Y2058568D01*
X2414676Y2057806D01*
X2415692Y2057450D01*
X2458212Y2057400D01*
X2457907Y2054555D01*
X2457297Y2051862D01*
X2456383Y2049373D01*
X2455164Y2046986D01*
X2453640Y2044801D01*
X2451862Y2042871D01*
X2449830Y2041143D01*
X2447544Y2039620D01*
X2445156Y2038502D01*
X2442667Y2037740D01*
X2439974Y2037232D01*
X2435199Y2037181D01*
X2431288Y2037791D01*
X2429256Y2038350D01*
X2425649Y2039975D01*
X2421890Y2042668D01*
X2420874Y2042922D01*
X2419908Y2042718D01*
X2419096Y2042160D01*
X2418334Y2041245D01*
X2418080Y2040128D01*
X2418283Y2039112D01*
X2418842Y2038096D01*
X2422601Y2035556D01*
X2427224Y2033524D01*
X2432253Y2032000D01*
X2437130Y2031492D01*
X2440940Y2031695D01*
X2444546Y2032406D01*
X2447950Y2033473D01*
X2451100Y2035048D01*
X2453995Y2036978D01*
X2456586Y2039315D01*
X2458821Y2041956D01*
X2460752Y2044954D01*
X2462326Y2048205D01*
X2463444Y2051710D01*
X2464104Y2055317D01*
X2464308Y2059178D01*
X2464104Y2063140D01*
X2463495Y2066848D01*
X2462428Y2070354D01*
X2461006Y2073656D01*
X2459177Y2076653D01*
X2457043Y2079294D01*
X2454605Y2081631D01*
X2451862Y2083562D01*
X2448864Y2085136D01*
X2445613Y2086254D01*
X2442260Y2086914D01*
G37*
G36*
X2188870Y2086864D02*
G01*
X2186940Y2086203D01*
X2186025Y2085035D01*
X2185924Y2084019D01*
X2186076Y2083257D01*
X2219960Y2010156D01*
X2220925Y2008835D01*
X2221534Y2008479D01*
X2222500Y2008378D01*
X2223516Y2008632D01*
X2225040Y2009597D01*
X2225548Y2010918D01*
X2215134Y2033930D01*
X2237486Y2082546D01*
X2237740Y2083816D01*
X2237638Y2084933D01*
X2236876Y2086102D01*
X2236216Y2086610D01*
X2234438Y2086864D01*
X2233726Y2086762D01*
X2232558Y2085848D01*
X2211832Y2040889D01*
X2191512Y2085086D01*
X2190445Y2086406D01*
G37*
G36*
X2741930Y2086610D02*
G01*
X2740609Y2086406D01*
X2739644Y2085848D01*
X2739085Y2084984D01*
X2738882Y2083816D01*
X2738932Y2034438D01*
X2739288Y2033270D01*
X2740050Y2032406D01*
X2741218Y2032050D01*
X2742539Y2032050D01*
X2743555Y2032406D01*
X2744419Y2033270D01*
X2744927Y2034438D01*
X2744978Y2083816D01*
X2744724Y2084984D01*
X2743962Y2085848D01*
X2743047Y2086406D01*
G37*
G36*
X2522220Y2086610D02*
G01*
X2520899Y2086406D01*
X2519934Y2085848D01*
X2519375Y2084984D01*
X2519172Y2083816D01*
X2519222Y2034438D01*
X2519578Y2033270D01*
X2520340Y2032406D01*
X2521508Y2032050D01*
X2522829Y2032050D01*
X2523845Y2032406D01*
X2524607Y2033270D01*
X2524963Y2034438D01*
X2525014Y2083816D01*
X2524810Y2084984D01*
X2524252Y2085848D01*
X2523388Y2086406D01*
G37*
D10*
X3833667Y2261062D02*
G01*
X3838864Y2271453D01*
X3849255Y2281844D01*
X3859644Y2287038D01*
X3880426Y2287038D01*
X3890817Y2281844D01*
X3901208Y2271453D01*
X3906405Y2261062D01*
X3911600Y2245474D01*
X3911600Y2219497D01*
X3906405Y2203912D01*
X3901208Y2193521D01*
X3890817Y2183129D01*
X3880426Y2177935D01*
X3859644Y2177935D01*
X3849255Y2183129D01*
X3838864Y2193521D01*
X3833667Y2203912D01*
X3833667Y2219497D01*
X3859644Y2219497D02*
G01*
X3833667Y2219497D01*
X3799377Y2287038D02*
G01*
X3799377Y2177935D01*
X3799377Y2287038D02*
G01*
X3726642Y2177935D01*
X3726642Y2287038D02*
G01*
X3726642Y2177935D01*
X3692352Y2287038D02*
G01*
X3692352Y2177935D01*
X3692352Y2287038D02*
G01*
X3655984Y2287038D01*
X3640396Y2281844D01*
X3630005Y2271453D01*
X3624811Y2261062D01*
X3619614Y2245474D01*
X3619614Y2219497D01*
X3624811Y2203912D01*
X3630005Y2193521D01*
X3640396Y2183129D01*
X3655984Y2177935D01*
X3692352Y2177935D01*
X3833667Y2019762D02*
G01*
X3838864Y2030153D01*
X3849255Y2040544D01*
X3859644Y2045738D01*
X3880426Y2045738D01*
X3890817Y2040544D01*
X3901208Y2030153D01*
X3906405Y2019762D01*
X3911600Y2004174D01*
X3911600Y1978197D01*
X3906405Y1962612D01*
X3901208Y1952221D01*
X3890817Y1941829D01*
X3880426Y1936635D01*
X3859644Y1936635D01*
X3849255Y1941829D01*
X3838864Y1952221D01*
X3833667Y1962612D01*
X3799377Y2045738D02*
G01*
X3799377Y1936635D01*
X3799377Y1936635D02*
G01*
X3737033Y1936635D01*
X3702743Y2045738D02*
G01*
X3702743Y1936635D01*
X3630005Y2045738D02*
G01*
X3702743Y1973003D01*
X3676764Y1998979D02*
G01*
X3630005Y1936635D01*
X3838864Y1763453D02*
G01*
X3849255Y1773844D01*
X3864841Y1779038D01*
X3885623Y1779038D01*
X3901208Y1773844D01*
X3911600Y1763453D01*
X3911600Y1753062D01*
X3906405Y1742671D01*
X3901208Y1737474D01*
X3890817Y1732279D01*
X3859644Y1721888D01*
X3849255Y1716694D01*
X3844058Y1711497D01*
X3838864Y1701106D01*
X3838864Y1685521D01*
X3849255Y1675129D01*
X3864841Y1669935D01*
X3885623Y1669935D01*
X3901208Y1675129D01*
X3911600Y1685521D01*
X3804574Y1779038D02*
G01*
X3778595Y1669935D01*
X3752618Y1779038D02*
G01*
X3778595Y1669935D01*
X3752618Y1779038D02*
G01*
X3726642Y1669935D01*
X3700665Y1779038D02*
G01*
X3726642Y1669935D01*
X3666375Y1779038D02*
G01*
X3666375Y1669935D01*
X3666375Y1779038D02*
G01*
X3630005Y1779038D01*
X3614420Y1773844D01*
X3604028Y1763453D01*
X3598834Y1753062D01*
X3593637Y1737474D01*
X3593637Y1711497D01*
X3598834Y1695912D01*
X3604028Y1685521D01*
X3614420Y1675129D01*
X3630005Y1669935D01*
X3666375Y1669935D01*
X3901208Y1537738D02*
G01*
X3844058Y1537738D01*
X3875232Y1496174D01*
X3859644Y1496174D01*
X3849255Y1490979D01*
X3844058Y1485785D01*
X3838864Y1470197D01*
X3838864Y1459806D01*
X3844058Y1444221D01*
X3854450Y1433829D01*
X3870035Y1428635D01*
X3885623Y1428635D01*
X3901208Y1433829D01*
X3906405Y1439024D01*
X3911600Y1449415D01*
X3804574Y1537738D02*
G01*
X3763009Y1428635D01*
X3721445Y1537738D02*
G01*
X3763009Y1428635D01*
X3911600Y1258338D02*
G01*
X3911600Y1149235D01*
X3911600Y1258338D02*
G01*
X3864841Y1258338D01*
X3849255Y1253144D01*
X3844058Y1247947D01*
X3838864Y1237556D01*
X3838864Y1227165D01*
X3844058Y1216774D01*
X3849255Y1211579D01*
X3864841Y1206385D01*
X3911600Y1206385D01*
X3875232Y1206385D02*
G01*
X3838864Y1149235D01*
X3731836Y1242753D02*
G01*
X3742227Y1253144D01*
X3757815Y1258338D01*
X3778595Y1258338D01*
X3794183Y1253144D01*
X3804574Y1242753D01*
X3804574Y1232362D01*
X3799377Y1221971D01*
X3794183Y1216774D01*
X3783792Y1211579D01*
X3752618Y1201188D01*
X3742227Y1195994D01*
X3737033Y1190797D01*
X3731836Y1180406D01*
X3731836Y1164821D01*
X3742227Y1154429D01*
X3757815Y1149235D01*
X3778595Y1149235D01*
X3794183Y1154429D01*
X3804574Y1164821D01*
X3661178Y1258338D02*
G01*
X3661178Y1149235D01*
X3697546Y1258338D02*
G01*
X3624811Y1258338D01*
X2663253Y1961390D02*
G01*
X2663253Y1865937D01*
X2663253Y1947753D02*
G01*
X2672346Y1956846D01*
X2681437Y1961390D01*
X2695072Y1961390D01*
X2704162Y1956846D01*
X2713253Y1947753D01*
X2717800Y1934118D01*
X2717800Y1925027D01*
X2713253Y1911390D01*
X2704162Y1902299D01*
X2695072Y1897753D01*
X2681437Y1897753D01*
X2672346Y1902299D01*
X2663253Y1911390D01*
X2633253Y1961390D02*
G01*
X2633253Y1897753D01*
X2633253Y1934118D02*
G01*
X2628709Y1947753D01*
X2619618Y1956846D01*
X2610528Y1961390D01*
X2596890Y1961390D01*
X2544163Y1961390D02*
G01*
X2553253Y1956846D01*
X2562346Y1947753D01*
X2566890Y1934118D01*
X2566890Y1925027D01*
X2562346Y1911390D01*
X2553253Y1902299D01*
X2544163Y1897753D01*
X2530528Y1897753D01*
X2521437Y1902299D01*
X2512347Y1911390D01*
X2507800Y1925027D01*
X2507800Y1934118D01*
X2512347Y1947753D01*
X2521437Y1956846D01*
X2530528Y1961390D01*
X2544163Y1961390D01*
X2477800Y1961390D02*
G01*
X2477800Y1897753D01*
X2477800Y1943209D02*
G01*
X2464163Y1956846D01*
X2455072Y1961390D01*
X2441437Y1961390D01*
X2432347Y1956846D01*
X2427800Y1943209D01*
X2427800Y1897753D01*
X2370528Y1993209D02*
G01*
X2384163Y1988662D01*
X2393254Y1975027D01*
X2397800Y1952299D01*
X2397800Y1938662D01*
X2393254Y1915937D01*
X2384163Y1902299D01*
X2370528Y1897753D01*
X2361438Y1897753D01*
X2347800Y1902299D01*
X2338710Y1915937D01*
X2334163Y1938662D01*
X2334163Y1952299D01*
X2338710Y1975027D01*
X2347800Y1988662D01*
X2361438Y1993209D01*
X2370528Y1993209D01*
X2304163Y1993209D02*
G01*
X2304163Y1897753D01*
X2304163Y1947753D02*
G01*
X2295072Y1956846D01*
X2285982Y1961390D01*
X2272347Y1961390D01*
X2263254Y1956846D01*
X2254163Y1947753D01*
X2249619Y1934118D01*
X2249619Y1925027D01*
X2254163Y1911390D01*
X2263254Y1902299D01*
X2272347Y1897753D01*
X2285982Y1897753D01*
X2295072Y1902299D01*
X2304163Y1911390D01*
X1358719Y3065739D02*
G01*
X1210221Y3065739D01*
X1210221Y3284260D02*
G01*
X1358719Y3284260D01*
X1373959Y3269020D02*
G01*
X1373959Y3080979D01*
X876480Y3065739D02*
G01*
X1024978Y3065739D01*
X1024978Y3284260D02*
G01*
X876480Y3284260D01*
X861240Y3269020D02*
G01*
X861240Y3080979D01*
X876480Y2319060D02*
G01*
X1024978Y2319060D01*
X1024978Y2100539D02*
G01*
X876480Y2100539D01*
X861240Y2115779D02*
G01*
X861240Y2303820D01*
X1358719Y2319060D02*
G01*
X1210221Y2319060D01*
X1210221Y2100539D02*
G01*
X1358719Y2100539D01*
X1373959Y2115779D02*
G01*
X1373959Y2303820D01*
D11*
X2863852Y1660989D02*
G01*
X3540086Y2219789D01*
X1436659Y2219789D02*
G01*
X2113854Y1660989D01*
X2113854Y1660989D02*
G01*
X2863852Y1660989D01*
X3540086Y2219789D02*
G01*
X3540086Y2374277D01*
X1436659Y2219789D02*
G01*
X1436705Y2374275D01*
X3540086Y3030504D02*
G01*
X3540086Y3216714D01*
X1436705Y3030501D02*
G01*
X1436705Y3208771D01*
X2804081Y185257D02*
G01*
X2724083Y185257D01*
X2860126Y185303D02*
G01*
X2940123Y185303D01*
X2804081Y43289D02*
G01*
X2724083Y43289D01*
X2860126Y43337D02*
G01*
X2940123Y43337D01*
X2693108Y154274D02*
G01*
X2693108Y74269D01*
X2971101Y74322D02*
G01*
X2971101Y154325D01*
X2199718Y43342D02*
G01*
X2279716Y43342D01*
X2143673Y43296D02*
G01*
X2063676Y43296D01*
X2199718Y185310D02*
G01*
X2279716Y185310D01*
X2143673Y185262D02*
G01*
X2063676Y185262D01*
X2310691Y74325D02*
G01*
X2310691Y154330D01*
X2032698Y154277D02*
G01*
X2032698Y74274D01*
D12*
X2778759Y1057910D02*
G01*
X2159000Y1057910D01*
X2159000Y392429D01*
X2821940Y392429D01*
X2821940Y1057910D01*
X2745740Y1057910D01*
D11*
X3207857Y472518D02*
G01*
X3207857Y552516D01*
X3207903Y416473D02*
G01*
X3207903Y336476D01*
X3065889Y472518D02*
G01*
X3065889Y552516D01*
X3065937Y416473D02*
G01*
X3065937Y336476D01*
X3176874Y583491D02*
G01*
X3096869Y583491D01*
X3096922Y305498D02*
G01*
X3176925Y305498D01*
X1834042Y162481D02*
G01*
X1834042Y82483D01*
X1833996Y218526D02*
G01*
X1833996Y298523D01*
X1976010Y162481D02*
G01*
X1976010Y82483D01*
X1975962Y218526D02*
G01*
X1975962Y298523D01*
X1865025Y51508D02*
G01*
X1945030Y51508D01*
X1944977Y329501D02*
G01*
X1864974Y329501D01*
X2727881Y1404457D02*
G01*
X2647883Y1404457D01*
X2783926Y1404503D02*
G01*
X2863923Y1404503D01*
X2727881Y1262489D02*
G01*
X2647883Y1262489D01*
X2783926Y1262537D02*
G01*
X2863923Y1262537D01*
X2616908Y1373474D02*
G01*
X2616908Y1293469D01*
X2894901Y1293522D02*
G01*
X2894901Y1373525D01*
X1783242Y937181D02*
G01*
X1783242Y857183D01*
X1783196Y993226D02*
G01*
X1783196Y1073223D01*
X1925210Y937181D02*
G01*
X1925210Y857183D01*
X1925162Y993226D02*
G01*
X1925162Y1073223D01*
X1814225Y826208D02*
G01*
X1894230Y826208D01*
X1894177Y1104201D02*
G01*
X1814174Y1104201D01*
D10*
X3202960Y719378D02*
G01*
X3202960Y623491D01*
X3070839Y623491D01*
X3070839Y719378D01*
X3202960Y804621D02*
G01*
X3202960Y900508D01*
X3070839Y900508D01*
X3070839Y804621D01*
G75*
G01*
X1358720Y3284261D02*
G02*
X1373960Y3269021I0J-15240D01*
G75*
G01*
X1373960Y3080979D02*
G02*
X1358720Y3065739I-15240J0D01*
G75*
G01*
X876480Y3284261D02*
G03*
X861240Y3269021I0J-15240D01*
G75*
G01*
X861240Y3080979D02*
G03*
X876480Y3065739I15240J0D01*
G75*
G01*
X876480Y2100539D02*
G02*
X861240Y2115779I0J15240D01*
G75*
G01*
X861240Y2303821D02*
G02*
X876480Y2319061I15240J0D01*
G75*
G01*
X1358720Y2100539D02*
G03*
X1373960Y2115779I0J15240D01*
G75*
G01*
X1373960Y2303821D02*
G03*
X1358720Y2319061I-15240J0D01*
D11*
G75*
G01*
X2109193Y3582589D02*
G03*
X1436705Y3208772I-190000J-449998D01*
G75*
G01*
X2892115Y3600115D02*
G02*
X3540087Y3216714I165484J-459579D01*
G75*
G01*
X2892229Y3600051D02*
G02*
X2115182Y3575446I-395871J219738D01*
G75*
G01*
X2693109Y74277D02*
G03*
X2724089Y43289I30983J-5D01*
G75*
G01*
X2940119Y43337D02*
G03*
X2971101Y74323I0J30983D01*
G75*
G01*
X2971101Y154320D02*
G03*
X2940119Y185303I-30982J0D01*
G75*
G01*
X2724089Y185257D02*
G03*
X2693109Y154275I3J-30982D01*
G75*
G01*
X2310691Y154323D02*
G03*
X2279711Y185311I-30983J5D01*
G75*
G01*
X2063681Y185263D02*
G03*
X2032699Y154277I0J-30983D01*
G75*
G01*
X2032699Y74280D02*
G03*
X2063681Y43297I30982J0D01*
G75*
G01*
X2279711Y43343D02*
G03*
X2310691Y74325I-3J30982D01*
D13*
G75*
G01*
X2828199Y317901D02*
G02*
X2827945Y317901I-127J-19999D01*
D11*
G75*
G01*
X3065937Y336481D02*
G03*
X3096923Y305499I30983J0D01*
G75*
G01*
X3176920Y305499D02*
G03*
X3207903Y336481I0J30982D01*
G75*
G01*
X3207857Y552511D02*
G03*
X3176875Y583491I-30982J-3D01*
G75*
G01*
X3096877Y583491D02*
G03*
X3065889Y552511I-5J-30983D01*
G75*
G01*
X1975963Y298519D02*
G03*
X1944977Y329501I-30983J0D01*
G75*
G01*
X1864980Y329501D02*
G03*
X1833997Y298519I0J-30982D01*
G75*
G01*
X1834043Y82489D02*
G03*
X1865025Y51509I30982J3D01*
G75*
G01*
X1945023Y51509D02*
G03*
X1976011Y82489I5J30983D01*
G75*
G01*
X2863919Y1262537D02*
G03*
X2894901Y1293523I0J30983D01*
G75*
G01*
X2894901Y1373520D02*
G03*
X2863919Y1404503I-30982J0D01*
G75*
G01*
X2647889Y1404457D02*
G03*
X2616909Y1373475I3J-30982D01*
G75*
G01*
X2616909Y1293477D02*
G03*
X2647889Y1262489I30983J-5D01*
G75*
G01*
X1925163Y1073219D02*
G03*
X1894177Y1104201I-30983J0D01*
G75*
G01*
X1814180Y1104201D02*
G03*
X1783197Y1073219I0J-30982D01*
G75*
G01*
X1783243Y857189D02*
G03*
X1814225Y826209I30982J3D01*
G75*
G01*
X1894223Y826209D02*
G03*
X1925211Y857189I5J30983D01*
G75*
G01
X2768244Y440893D02*
G03X2768244Y440893I-17043J0D01*
M02*
